<?xml version="1.0" encoding="UTF-8" standalone="no"?>
<svg
   xmlns:dc="http://purl.org/dc/elements/1.1/"
   xmlns:cc="http://creativecommons.org/ns#"
   xmlns:rdf="http://www.w3.org/1999/02/22-rdf-syntax-ns#"
   xmlns:svg="http://www.w3.org/2000/svg"
   xmlns="http://www.w3.org/2000/svg"
   id="svg310"
   version="1.2"
   viewBox="0 0 256.08 51.6085"
   height="51.6085pt"
   width="256.08pt">
  <metadata
     id="metadata314">
    <rdf:RDF>
      <cc:Work
         rdf:about="">
        <dc:format>image/svg+xml</dc:format>
        <dc:type
           rdf:resource="http://purl.org/dc/dcmitype/StillImage" />
        <dc:title></dc:title>
      </cc:Work>
    </rdf:RDF>
  </metadata>
  <defs
     id="defs285">
    <clipPath
       id="clip1">
      <path
         id="path270"
         d="M 0 37 L 60 37 L 60 51.609375 L 0 51.609375 Z M 0 37 " />
    </clipPath>
    <clipPath
       id="clip2">
      <path
         id="path273"
         d="M 62 0 L 120 0 L 120 51.609375 L 62 51.609375 Z M 62 0 " />
    </clipPath>
    <clipPath
       id="clip3">
      <path
         id="path276"
         d="M 119 0 L 167 0 L 167 51.609375 L 119 51.609375 Z M 119 0 " />
    </clipPath>
    <clipPath
       id="clip4">
      <path
         id="path279"
         d="M 166 0 L 211 0 L 211 51.609375 L 166 51.609375 Z M 166 0 " />
    </clipPath>
    <clipPath
       id="clip5">
      <path
         id="path282"
         d="M 215 0 L 256.078125 0 L 256.078125 51.609375 L 215 51.609375 Z M 215 0 " />
    </clipPath>
  </defs>
  <g
     id="surface236572">
    <g
       id="g289"
       clip-rule="nonzero"
       clip-path="url(#clip1)">
      <path
         id="path287"
         d="M 8 37.5625 L 0 51.460938 L 59.289063 51.460938 L 50.792969 37.5625 Z M 8 37.5625 "
         style=" stroke:none;fill-rule:nonzero;fill:rgb(100%,100%,100%);fill-opacity:1;" />
    </g>
    <path
       id="path291"
       d="M 15.433594 24.699219 L 43.789063 24.699219 L 29.644531 0.117188 Z M 15.433594 24.699219 "
       style=" stroke:none;fill-rule:nonzero;fill:rgb(100%,100%,100%);fill-opacity:1;" />
    <g
       id="g295"
       clip-rule="nonzero"
       clip-path="url(#clip2)">
      <path
         id="path293"
         d="M 96.996094 34.429688 C 100.269531 33.949219 102.675781 32.972656 104.214844 31.507813 C 105.753906 30.039063 106.523438 28.054688 106.523438 25.550781 C 106.523438 22.953125 105.753906 20.910156 104.214844 19.417969 C 102.675781 17.925781 100.269531 16.9375 96.996094 16.457031 Z M 75.054688 25.550781 C 75.054688 30.554688 78.230469 33.515625 84.582031 34.429688 L 84.582031 16.457031 C 81.308594 16.9375 78.902344 17.925781 77.363281 19.417969 C 75.824219 20.910156 75.054688 22.953125 75.054688 25.550781 M 113.453125 11.585938 C 117.398438 15.21875 119.371094 19.875 119.371094 25.550781 C 119.371094 31.230469 117.398438 35.886719 113.453125 39.519531 C 109.507813 43.152344 104.023438 45.402344 96.996094 46.265625 L 96.996094 51.175781 L 84.582031 51.175781 L 84.582031 46.265625 C 77.554688 45.402344 72.058594 43.152344 68.089844 39.519531 C 64.117188 35.886719 62.132813 31.230469 62.132813 25.550781 C 62.132813 19.875 64.117188 15.21875 68.089844 11.585938 C 72.058594 7.953125 77.554688 5.703125 84.582031 4.835938 L 84.582031 0.144531 L 96.996094 0.144531 L 96.996094 4.835938 C 104.023438 5.703125 109.507813 7.953125 113.453125 11.585938 "
         style=" stroke:none;fill-rule:nonzero;fill:rgb(100%,100%,100%);fill-opacity:1;" />
    </g>
    <g
       id="g299"
       clip-rule="nonzero"
       clip-path="url(#clip3)">
      <path
         id="path297"
         d="M 138.480469 30.316406 L 147.574219 30.316406 L 143.03125 16.023438 Z M 150.101563 0.648438 L 166.777344 51.175781 L 154.21875 51.175781 L 150.898438 40.855469 L 135.089844 40.855469 L 131.839844 51.175781 L 119.210938 51.175781 L 135.957031 0.648438 Z M 150.101563 0.648438 "
         style=" stroke:none;fill-rule:nonzero;fill:rgb(100%,100%,100%);fill-opacity:1;" />
    </g>
    <g
       id="g303"
       clip-rule="nonzero"
       clip-path="url(#clip4)">
      <path
         id="path301"
         d="M 197.03125 38.074219 C 198.667969 37.378906 200.113281 36.425781 201.363281 35.222656 L 210.167969 44.03125 C 207.761719 46.433594 204.996094 48.300781 201.867188 49.625 C 198.738281 50.949219 195.417969 51.609375 191.910156 51.609375 C 187.238281 51.609375 182.933594 50.453125 178.988281 48.144531 C 175.042969 45.832031 171.914063 42.707031 169.605469 38.761719 C 167.296875 34.816406 166.140625 30.507813 166.140625 25.839844 C 166.140625 21.171875 167.296875 16.851563 169.605469 12.882813 C 171.914063 8.914063 175.042969 5.773438 178.988281 3.464844 C 182.933594 1.15625 187.238281 0 191.910156 0 C 195.417969 0 198.738281 0.660156 201.867188 1.984375 C 204.996094 3.308594 207.761719 5.171875 210.167969 7.578125 L 201.363281 16.382813 C 200.113281 15.183594 198.667969 14.230469 197.03125 13.535156 C 195.394531 12.835938 193.6875 12.488281 191.910156 12.488281 C 189.5 12.488281 187.289063 13.089844 185.269531 14.292969 C 183.246094 15.496094 181.636719 17.117188 180.433594 19.164063 C 179.226563 21.210938 178.628906 23.433594 178.628906 25.839844 C 178.628906 28.246094 179.226563 30.460938 180.433594 32.480469 C 181.636719 34.5 183.246094 36.113281 185.269531 37.316406 C 187.289063 38.519531 189.5 39.121094 191.910156 39.121094 C 193.6875 39.121094 195.394531 38.773438 197.03125 38.074219 "
         style=" stroke:none;fill-rule:nonzero;fill:rgb(100%,100%,100%);fill-opacity:1;" />
    </g>
    <g
       id="g307"
       clip-rule="nonzero"
       clip-path="url(#clip5)">
      <path
         id="path305"
         d="M 256.078125 0.144531 L 256.078125 51.175781 L 243.085938 51.175781 L 243.085938 13.136719 L 228.507813 13.136719 L 228.507813 51.175781 L 215.515625 51.175781 L 215.515625 0.144531 Z M 256.078125 0.144531 "
         style=" stroke:none;fill-rule:nonzero;fill:rgb(100%,100%,100%);fill-opacity:1;" />
    </g>
  </g>
</svg>
