<?xml version="1.0" encoding="UTF-8" standalone="no"?>
<svg
   xmlns:dc="http://purl.org/dc/elements/1.1/"
   xmlns:cc="http://creativecommons.org/ns#"
   xmlns:rdf="http://www.w3.org/1999/02/22-rdf-syntax-ns#"
   xmlns:svg="http://www.w3.org/2000/svg"
   xmlns="http://www.w3.org/2000/svg"
   width="256.219pt"
   height="74.7434pt"
   viewBox="0 0 256.219 74.7434"
   version="1.2"
   id="svg829">
  <metadata
     id="metadata833">
    <rdf:RDF>
      <cc:Work
         rdf:about="">
        <dc:format>image/svg+xml</dc:format>
        <dc:type
           rdf:resource="http://purl.org/dc/dcmitype/StillImage" />
        <dc:title></dc:title>
      </cc:Work>
    </rdf:RDF>
  </metadata>
  <defs
     id="defs738">
    <clipPath
       id="clip1">
      <path
         d="M 182 64 L 189 64 L 189 74.742188 L 182 74.742188 Z M 182 64 "
         id="path726" />
    </clipPath>
    <clipPath
       id="clip2">
      <path
         d="M 188 64 L 196 64 L 196 74.742188 L 188 74.742188 Z M 188 64 "
         id="path729" />
    </clipPath>
    <clipPath
       id="clip3">
      <path
         d="M 250 62 L 256.21875 62 L 256.21875 72 L 250 72 Z M 250 62 "
         id="path732" />
    </clipPath>
    <clipPath
       id="clip4">
      <path
         d="M 215 0 L 256.21875 0 L 256.21875 52 L 215 52 Z M 215 0 "
         id="path735" />
    </clipPath>
  </defs>
  <g
     id="surface278348">
    <path
       style=" stroke:none;fill-rule:nonzero;fill:rgb(100%,100%,100%);fill-opacity:1;"
       d="M 8.066406 37.5625 L 0.0703125 51.460938 L 59.359375 51.460938 L 50.859375 37.5625 Z M 8.066406 37.5625 "
       id="path740" />
    <path
       style=" stroke:none;fill-rule:nonzero;fill:rgb(100%,100%,100%);fill-opacity:1;"
       d="M 15.5 24.699219 L 43.859375 24.699219 L 29.710938 0.113281 Z M 15.5 24.699219 "
       id="path742" />
    <path
       style=" stroke:none;fill-rule:nonzero;fill:rgb(100%,100%,100%);fill-opacity:1;"
       d="M 5.429688 69.867188 C 5.523438 69.886719 5.644531 69.894531 5.796875 69.902344 C 5.949219 69.90625 6.097656 69.910156 6.242188 69.910156 C 6.558594 69.910156 6.851563 69.847656 7.125 69.726563 C 7.398438 69.609375 7.636719 69.425781 7.84375 69.175781 C 8.050781 68.921875 8.214844 68.609375 8.332031 68.230469 C 8.453125 67.851563 8.511719 67.410156 8.511719 66.90625 C 8.511719 66.480469 8.464844 66.089844 8.367188 65.734375 C 8.269531 65.378906 8.132813 65.070313 7.953125 64.808594 C 7.773438 64.550781 7.554688 64.355469 7.296875 64.222656 C 7.039063 64.089844 6.75 64.023438 6.425781 64.023438 C 6.292969 64.023438 6.128906 64.027344 5.925781 64.035156 C 5.722656 64.046875 5.558594 64.074219 5.429688 64.117188 Z M 1.21875 67.039063 C 1.21875 67.480469 1.269531 67.882813 1.371094 68.238281 C 1.472656 68.59375 1.617188 68.894531 1.804688 69.144531 C 1.996094 69.398438 2.222656 69.585938 2.488281 69.714844 C 2.75 69.84375 3.042969 69.910156 3.367188 69.910156 L 3.554688 69.910156 C 3.632813 69.910156 3.71875 69.90625 3.8125 69.902344 C 3.902344 69.894531 3.992188 69.886719 4.078125 69.875 C 4.164063 69.859375 4.238281 69.84375 4.308594 69.828125 L 4.308594 64.078125 C 4.195313 64.058594 4.058594 64.046875 3.898438 64.035156 C 3.738281 64.027344 3.59375 64.023438 3.460938 64.023438 C 3.148438 64.023438 2.855469 64.085938 2.582031 64.207031 C 2.308594 64.332031 2.070313 64.523438 1.867188 64.777344 C 1.664063 65.03125 1.507813 65.347656 1.390625 65.726563 C 1.277344 66.105469 1.21875 66.542969 1.21875 67.039063 M 0 67.039063 C 0 66.414063 0.0820313 65.851563 0.246094 65.359375 C 0.410156 64.863281 0.640625 64.445313 0.945313 64.101563 C 1.246094 63.761719 1.605469 63.5 2.023438 63.320313 C 2.441406 63.136719 2.910156 63.046875 3.421875 63.046875 C 3.542969 63.046875 3.695313 63.050781 3.871094 63.058594 C 4.050781 63.070313 4.191406 63.085938 4.292969 63.109375 L 4.292969 61.910156 L 5.445313 61.910156 L 5.445313 63.148438 C 5.613281 63.101563 5.808594 63.074219 6.035156 63.0625 C 6.257813 63.054688 6.445313 63.046875 6.59375 63.046875 C 7.039063 63.046875 7.453125 63.128906 7.835938 63.292969 C 8.21875 63.453125 8.550781 63.695313 8.835938 64.011719 C 9.121094 64.328125 9.339844 64.730469 9.496094 65.214844 C 9.652344 65.703125 9.734375 66.261719 9.734375 66.90625 C 9.734375 67.558594 9.644531 68.136719 9.460938 68.636719 C 9.285156 69.136719 9.039063 69.550781 8.730469 69.886719 C 8.421875 70.222656 8.0625 70.472656 7.652344 70.636719 C 7.242188 70.800781 6.808594 70.882813 6.34375 70.882813 C 6.242188 70.882813 6.089844 70.875 5.890625 70.863281 C 5.691406 70.847656 5.542969 70.824219 5.445313 70.789063 L 5.445313 72.171875 L 4.292969 72.171875 L 4.292969 70.816406 C 4.136719 70.84375 3.953125 70.859375 3.746094 70.871094 C 3.539063 70.878906 3.34375 70.882813 3.160156 70.882813 C 2.722656 70.882813 2.3125 70.808594 1.921875 70.664063 C 1.535156 70.515625 1.203125 70.285156 0.917969 69.972656 C 0.632813 69.65625 0.410156 69.257813 0.246094 68.769531 C 0.0820313 68.285156 0 67.707031 0 67.039063 "
       id="path744" />
    <path
       style=" stroke:none;fill-rule:nonzero;fill:rgb(100%,100%,100%);fill-opacity:1;"
       d="M 11.316406 71.898438 L 11.316406 64.964844 L 12.429688 64.964844 L 12.429688 69.195313 L 12.378906 70.007813 L 12.441406 70.007813 L 12.976563 69.148438 L 16.097656 64.964844 L 16.753906 64.964844 L 16.753906 71.898438 L 15.644531 71.898438 L 15.644531 67.796875 L 15.6875 66.933594 L 15.644531 66.933594 L 15.074219 67.820313 L 11.953125 71.898438 Z M 11.316406 71.898438 "
       id="path746" />
    <path
       style=" stroke:none;fill-rule:nonzero;fill:rgb(100%,100%,100%);fill-opacity:1;"
       d="M 18.890625 71.898438 L 18.890625 64.964844 L 20 64.964844 L 20 67.855469 L 23.128906 67.855469 L 23.128906 64.964844 L 24.238281 64.964844 L 24.238281 71.898438 L 23.128906 71.898438 L 23.128906 68.832031 L 20 68.832031 L 20 71.898438 Z M 18.890625 71.898438 "
       id="path748" />
    <path
       style=" stroke:none;fill-rule:nonzero;fill:rgb(100%,100%,100%);fill-opacity:1;"
       d="M 26.996094 69.925781 C 26.996094 70.25 27.109375 70.515625 27.339844 70.722656 C 27.570313 70.929688 27.867188 71.03125 28.226563 71.03125 C 28.484375 71.03125 28.71875 70.996094 28.925781 70.929688 C 29.128906 70.863281 29.300781 70.777344 29.449219 70.667969 C 29.597656 70.558594 29.71875 70.441406 29.820313 70.316406 C 29.917969 70.1875 29.988281 70.058594 30.03125 69.9375 L 30.03125 68.789063 C 29.898438 68.78125 29.769531 68.773438 29.636719 68.769531 C 29.5 68.765625 29.371094 68.761719 29.242188 68.761719 C 28.960938 68.761719 28.679688 68.777344 28.40625 68.8125 C 28.132813 68.84375 27.890625 68.902344 27.679688 68.992188 C 27.472656 69.078125 27.308594 69.199219 27.183594 69.351563 C 27.058594 69.503906 26.996094 69.695313 26.996094 69.925781 M 25.84375 70.042969 C 25.84375 69.636719 25.925781 69.296875 26.09375 69.019531 C 26.261719 68.75 26.496094 68.53125 26.792969 68.371094 C 27.09375 68.207031 27.457031 68.09375 27.875 68.023438 C 28.296875 67.957031 28.761719 67.921875 29.269531 67.917969 L 29.652344 67.917969 C 29.777344 67.917969 29.902344 67.925781 30.03125 67.945313 C 30.054688 67.671875 30.074219 67.421875 30.078125 67.199219 C 30.078125 66.691406 29.972656 66.335938 29.765625 66.136719 C 29.5625 65.933594 29.195313 65.832031 28.660156 65.832031 C 28.503906 65.832031 28.332031 65.84375 28.152344 65.863281 C 27.972656 65.886719 27.789063 65.917969 27.597656 65.960938 C 27.410156 66 27.226563 66.050781 27.054688 66.113281 C 26.882813 66.171875 26.734375 66.238281 26.609375 66.316406 L 26.257813 65.484375 C 26.609375 65.269531 27.019531 65.109375 27.488281 65.007813 C 27.953125 64.902344 28.441406 64.851563 28.953125 64.855469 C 29.429688 64.855469 29.816406 64.917969 30.109375 65.046875 C 30.40625 65.175781 30.625 65.347656 30.773438 65.554688 C 30.925781 65.761719 31.03125 65.988281 31.078125 66.238281 C 31.128906 66.488281 31.152344 66.738281 31.152344 66.992188 C 31.152344 67.546875 31.140625 68.085938 31.113281 68.613281 C 31.085938 69.140625 31.074219 69.640625 31.074219 70.105469 C 31.074219 70.449219 31.085938 70.773438 31.113281 71.078125 C 31.140625 71.386719 31.191406 71.667969 31.269531 71.925781 L 30.496094 71.925781 L 30.171875 70.949219 L 30.097656 70.949219 C 30.015625 71.082031 29.910156 71.210938 29.777344 71.332031 C 29.652344 71.460938 29.5 71.570313 29.328125 71.667969 C 29.152344 71.765625 28.949219 71.847656 28.71875 71.910156 C 28.488281 71.976563 28.222656 72.007813 27.921875 72.007813 C 27.625 72.007813 27.347656 71.960938 27.097656 71.871094 C 26.84375 71.78125 26.625 71.652344 26.441406 71.480469 C 26.253906 71.308594 26.109375 71.101563 26 70.855469 C 25.890625 70.617188 25.839844 70.347656 25.84375 70.042969 "
       id="path750" />
    <path
       style=" stroke:none;fill-rule:nonzero;fill:rgb(100%,100%,100%);fill-opacity:1;"
       d="M 33.246094 71.898438 L 33.246094 64.964844 L 34.355469 64.964844 L 34.355469 67.855469 L 37.484375 67.855469 L 37.484375 64.964844 L 38.597656 64.964844 L 38.597656 71.898438 L 37.484375 71.898438 L 37.484375 68.832031 L 34.355469 68.832031 L 34.355469 71.898438 Z M 33.246094 71.898438 "
       id="path752" />
    <path
       style=" stroke:none;fill-rule:nonzero;fill:rgb(100%,100%,100%);fill-opacity:1;"
       d="M 40.335938 68.429688 C 40.335938 67.257813 40.597656 66.359375 41.117188 65.738281 C 41.636719 65.113281 42.378906 64.800781 43.351563 64.792969 C 43.792969 64.792969 44.171875 64.832031 44.480469 64.902344 C 44.792969 64.972656 45.074219 65.070313 45.320313 65.203125 L 44.996094 66.15625 C 44.785156 66.035156 44.550781 65.9375 44.292969 65.871094 C 44.035156 65.804688 43.757813 65.769531 43.460938 65.769531 C 42.144531 65.769531 41.488281 66.65625 41.488281 68.429688 C 41.488281 68.785156 41.523438 69.117188 41.597656 69.433594 C 41.664063 69.753906 41.78125 70.035156 41.941406 70.28125 C 42.105469 70.523438 42.316406 70.722656 42.578125 70.871094 C 42.839844 71.019531 43.167969 71.09375 43.554688 71.09375 C 43.886719 71.09375 44.1875 71.042969 44.457031 70.945313 C 44.714844 70.839844 44.929688 70.722656 45.097656 70.59375 L 45.457031 71.4375 C 45.183594 71.640625 44.855469 71.796875 44.476563 71.90625 C 44.097656 72.015625 43.699219 72.070313 43.285156 72.070313 C 42.746094 72.070313 42.292969 71.980469 41.921875 71.8125 C 41.550781 71.640625 41.25 71.394531 41.015625 71.074219 C 40.78125 70.753906 40.609375 70.367188 40.5 69.921875 C 40.390625 69.472656 40.335938 68.976563 40.335938 68.429688 "
       id="path754" />
    <path
       style=" stroke:none;fill-rule:nonzero;fill:rgb(100%,100%,100%);fill-opacity:1;"
       d="M 47.421875 68.429688 C 47.421875 68.785156 47.457031 69.121094 47.53125 69.449219 C 47.597656 69.773438 47.707031 70.050781 47.855469 70.289063 C 48.003906 70.527344 48.199219 70.722656 48.4375 70.871094 C 48.675781 71.019531 48.96875 71.09375 49.3125 71.09375 C 50.570313 71.101563 51.199219 70.214844 51.195313 68.429688 C 51.195313 68.070313 51.160156 67.726563 51.09375 67.402344 C 51.023438 67.078125 50.917969 66.796875 50.765625 66.5625 C 50.617188 66.324219 50.421875 66.132813 50.183594 65.988281 C 49.945313 65.84375 49.652344 65.769531 49.3125 65.769531 C 48.050781 65.761719 47.421875 66.648438 47.421875 68.429688 M 46.269531 68.429688 C 46.269531 67.257813 46.53125 66.359375 47.054688 65.738281 C 47.578125 65.113281 48.332031 64.800781 49.3125 64.792969 C 49.832031 64.792969 50.28125 64.878906 50.664063 65.050781 C 51.050781 65.222656 51.367188 65.46875 51.613281 65.789063 C 51.863281 66.113281 52.046875 66.496094 52.167969 66.941406 C 52.292969 67.386719 52.347656 67.886719 52.34375 68.429688 C 52.34375 69.605469 52.085938 70.503906 51.566406 71.128906 C 51.042969 71.75 50.289063 72.0625 49.3125 72.070313 C 48.792969 72.070313 48.339844 71.980469 47.957031 71.8125 C 47.574219 71.640625 47.257813 71.394531 47.007813 71.074219 C 46.757813 70.753906 46.574219 70.367188 46.453125 69.921875 C 46.332031 69.472656 46.269531 68.976563 46.269531 68.429688 "
       id="path756" />
    <path
       style=" stroke:none;fill-rule:nonzero;fill:rgb(100%,100%,100%);fill-opacity:1;"
       d="M 55.203125 70.964844 C 55.378906 70.984375 55.550781 70.996094 55.722656 71.003906 C 55.890625 71.015625 56.089844 71.019531 56.320313 71.019531 C 56.9375 71.019531 57.398438 70.929688 57.703125 70.753906 C 58.003906 70.578125 58.15625 70.28125 58.15625 69.859375 C 58.15625 69.523438 58.027344 69.253906 57.773438 69.046875 C 57.519531 68.839844 57.066406 68.738281 56.421875 68.738281 L 55.203125 68.738281 Z M 55.203125 67.890625 L 56.558594 67.890625 C 56.722656 67.890625 56.886719 67.863281 57.046875 67.808594 C 57.203125 67.753906 57.34375 67.679688 57.46875 67.582031 C 57.59375 67.484375 57.695313 67.371094 57.773438 67.242188 C 57.851563 67.109375 57.890625 66.972656 57.890625 66.824219 C 57.890625 66.453125 57.78125 66.199219 57.558594 66.058594 C 57.339844 65.914063 56.949219 65.84375 56.394531 65.84375 C 56.097656 65.84375 55.863281 65.847656 55.691406 65.859375 C 55.519531 65.867188 55.355469 65.875 55.203125 65.882813 Z M 54.09375 71.882813 L 54.09375 64.980469 C 54.417969 64.960938 54.757813 64.9375 55.113281 64.910156 C 55.464844 64.882813 55.90625 64.871094 56.4375 64.871094 C 57.351563 64.871094 58.007813 65.011719 58.40625 65.292969 C 58.804688 65.578125 59.003906 66.003906 59.003906 66.582031 C 59.003906 66.90625 58.90625 67.21875 58.71875 67.527344 C 58.527344 67.832031 58.214844 68.058594 57.777344 68.207031 L 57.777344 68.261719 C 58.324219 68.367188 58.707031 68.554688 58.933594 68.832031 C 59.15625 69.109375 59.265625 69.480469 59.265625 69.9375 C 59.265625 70.660156 59.007813 71.1875 58.488281 71.507813 C 57.96875 71.832031 57.191406 71.992188 56.15625 71.992188 C 55.769531 71.992188 55.410156 71.984375 55.074219 71.960938 C 54.738281 71.9375 54.414063 71.914063 54.09375 71.882813 "
       id="path758" />
    <path
       style=" stroke:none;fill-rule:nonzero;fill:rgb(100%,100%,100%);fill-opacity:1;"
       d="M 61.765625 68.429688 C 61.765625 68.785156 61.800781 69.121094 61.875 69.449219 C 61.941406 69.773438 62.050781 70.050781 62.199219 70.289063 C 62.347656 70.527344 62.542969 70.722656 62.78125 70.871094 C 63.019531 71.019531 63.3125 71.09375 63.65625 71.09375 C 64.914063 71.101563 65.542969 70.214844 65.539063 68.429688 C 65.539063 68.070313 65.503906 67.726563 65.4375 67.402344 C 65.367188 67.078125 65.261719 66.796875 65.113281 66.5625 C 64.960938 66.324219 64.769531 66.132813 64.527344 65.988281 C 64.289063 65.84375 63.996094 65.769531 63.65625 65.769531 C 62.394531 65.761719 61.765625 66.648438 61.765625 68.429688 M 60.613281 68.429688 C 60.613281 67.257813 60.875 66.359375 61.398438 65.738281 C 61.921875 65.113281 62.675781 64.800781 63.65625 64.792969 C 64.175781 64.792969 64.625 64.878906 65.007813 65.050781 C 65.394531 65.222656 65.710938 65.46875 65.957031 65.789063 C 66.207031 66.113281 66.390625 66.496094 66.511719 66.941406 C 66.636719 67.386719 66.695313 67.886719 66.691406 68.429688 C 66.691406 69.605469 66.429688 70.503906 65.910156 71.128906 C 65.386719 71.75 64.632813 72.0625 63.65625 72.070313 C 63.136719 72.070313 62.683594 71.980469 62.300781 71.8125 C 61.917969 71.640625 61.601563 71.394531 61.351563 71.074219 C 61.105469 70.753906 60.917969 70.367188 60.796875 69.921875 C 60.675781 69.472656 60.613281 68.976563 60.613281 68.429688 "
       id="path760" />
    <path
       style=" stroke:none;fill-rule:nonzero;fill:rgb(100%,100%,100%);fill-opacity:1;"
       d="M 69.210938 67.667969 L 72.648438 67.667969 C 72.648438 66.960938 72.515625 66.46875 72.25 66.1875 C 71.984375 65.910156 71.605469 65.769531 71.113281 65.769531 C 70.566406 65.769531 70.128906 65.914063 69.796875 66.195313 C 69.46875 66.480469 69.273438 66.972656 69.210938 67.667969 M 68.042969 68.429688 C 68.042969 67.25 68.308594 66.347656 68.835938 65.730469 C 69.363281 65.109375 70.117188 64.800781 71.097656 64.792969 C 71.414063 64.792969 71.726563 64.832031 72.039063 64.902344 C 72.355469 64.972656 72.636719 65.101563 72.886719 65.296875 C 73.136719 65.492188 73.339844 65.765625 73.496094 66.121094 C 73.652344 66.480469 73.734375 66.949219 73.734375 67.53125 C 73.734375 67.839844 73.707031 68.175781 73.652344 68.539063 L 69.195313 68.539063 C 69.195313 68.945313 69.238281 69.308594 69.324219 69.625 C 69.40625 69.9375 69.535156 70.207031 69.710938 70.421875 C 69.886719 70.640625 70.113281 70.804688 70.394531 70.925781 C 70.675781 71.042969 71.019531 71.097656 71.429688 71.09375 C 71.746094 71.09375 72.058594 71.039063 72.371094 70.929688 C 72.6875 70.816406 72.925781 70.6875 73.082031 70.539063 L 73.496094 71.34375 C 73.21875 71.566406 72.871094 71.742188 72.453125 71.871094 C 72.03125 72.003906 71.585938 72.066406 71.113281 72.066406 C 70.585938 72.066406 70.125 71.980469 69.738281 71.8125 C 69.347656 71.640625 69.03125 71.394531 68.78125 71.074219 C 68.535156 70.753906 68.347656 70.371094 68.226563 69.929688 C 68.105469 69.484375 68.042969 68.988281 68.042969 68.429688 "
       id="path762" />
    <path
       style=" stroke:none;fill-rule:nonzero;fill:rgb(100%,100%,100%);fill-opacity:1;"
       d="M 80.253906 68.207031 L 83.113281 68.207031 L 82.027344 65.253906 L 81.683594 63.785156 L 81.671875 63.785156 L 81.324219 65.28125 Z M 77.769531 71.898438 L 81.445313 62.039063 L 81.976563 62.039063 L 85.667969 71.898438 L 84.460938 71.898438 L 83.457031 69.210938 L 79.882813 69.210938 L 78.90625 71.898438 Z M 77.769531 71.898438 "
       id="path764" />
    <path
       style=" stroke:none;fill-rule:nonzero;fill:rgb(100%,100%,100%);fill-opacity:1;"
       d="M 86.84375 71.898438 L 86.84375 64.964844 L 90.894531 64.964844 L 90.894531 65.9375 L 87.957031 65.9375 L 87.957031 71.898438 Z M 86.84375 71.898438 "
       id="path766" />
    <path
       style=" stroke:none;fill-rule:nonzero;fill:rgb(100%,100%,100%);fill-opacity:1;"
       d="M 92.507813 67.667969 L 95.945313 67.667969 C 95.945313 66.960938 95.8125 66.46875 95.546875 66.1875 C 95.28125 65.910156 94.902344 65.769531 94.410156 65.769531 C 93.863281 65.769531 93.425781 65.914063 93.09375 66.195313 C 92.765625 66.480469 92.570313 66.972656 92.507813 67.667969 M 91.339844 68.429688 C 91.339844 67.25 91.605469 66.347656 92.132813 65.730469 C 92.664063 65.109375 93.417969 64.800781 94.394531 64.792969 C 94.710938 64.792969 95.023438 64.832031 95.335938 64.902344 C 95.652344 64.972656 95.933594 65.101563 96.183594 65.296875 C 96.433594 65.492188 96.636719 65.765625 96.792969 66.121094 C 96.953125 66.480469 97.03125 66.949219 97.03125 67.53125 C 97.03125 67.839844 97.003906 68.175781 96.949219 68.539063 L 92.492188 68.539063 C 92.492188 68.945313 92.535156 69.308594 92.621094 69.625 C 92.703125 69.9375 92.832031 70.207031 93.007813 70.421875 C 93.183594 70.640625 93.410156 70.804688 93.691406 70.925781 C 93.972656 71.042969 94.316406 71.097656 94.726563 71.09375 C 95.042969 71.09375 95.355469 71.039063 95.667969 70.929688 C 95.984375 70.816406 96.222656 70.6875 96.378906 70.539063 L 96.792969 71.34375 C 96.515625 71.566406 96.171875 71.742188 95.75 71.871094 C 95.332031 72.003906 94.882813 72.066406 94.410156 72.066406 C 93.882813 72.066406 93.421875 71.980469 93.035156 71.8125 C 92.644531 71.640625 92.328125 71.394531 92.078125 71.074219 C 91.832031 70.753906 91.644531 70.371094 91.523438 69.929688 C 91.402344 69.484375 91.339844 68.988281 91.339844 68.429688 "
       id="path768" />
    <path
       style=" stroke:none;fill-rule:nonzero;fill:rgb(100%,100%,100%);fill-opacity:1;"
       d="M 98.777344 71.898438 L 98.777344 64.964844 L 99.886719 64.964844 L 99.886719 67.855469 L 103.015625 67.855469 L 103.015625 64.964844 L 104.128906 64.964844 L 104.128906 71.898438 L 103.015625 71.898438 L 103.015625 68.832031 L 99.886719 68.832031 L 99.886719 71.898438 Z M 98.777344 71.898438 "
       id="path770" />
    <path
       style=" stroke:none;fill-rule:nonzero;fill:rgb(100%,100%,100%);fill-opacity:1;"
       d="M 105.226563 65.9375 L 105.226563 64.964844 L 110.683594 64.964844 L 110.683594 65.9375 L 108.511719 65.9375 L 108.511719 71.898438 L 107.398438 71.898438 L 107.398438 65.9375 Z M 105.226563 65.9375 "
       id="path772" />
    <path
       style=" stroke:none;fill-rule:nonzero;fill:rgb(100%,100%,100%);fill-opacity:1;"
       d="M 111.164063 68.429688 C 111.164063 67.257813 111.425781 66.359375 111.945313 65.738281 C 112.460938 65.113281 113.207031 64.800781 114.179688 64.792969 C 114.621094 64.792969 114.996094 64.832031 115.308594 64.902344 C 115.621094 64.972656 115.902344 65.070313 116.148438 65.203125 L 115.824219 66.15625 C 115.613281 66.035156 115.375 65.9375 115.121094 65.871094 C 114.863281 65.804688 114.585938 65.769531 114.285156 65.769531 C 112.972656 65.769531 112.316406 66.65625 112.316406 68.429688 C 112.316406 68.785156 112.351563 69.117188 112.425781 69.433594 C 112.492188 69.753906 112.605469 70.035156 112.769531 70.28125 C 112.933594 70.523438 113.144531 70.722656 113.40625 70.871094 C 113.667969 71.019531 113.992188 71.09375 114.382813 71.09375 C 114.714844 71.09375 115.015625 71.042969 115.28125 70.945313 C 115.542969 70.839844 115.757813 70.722656 115.925781 70.59375 L 116.285156 71.4375 C 116.007813 71.640625 115.679688 71.796875 115.300781 71.90625 C 114.921875 72.015625 114.527344 72.070313 114.109375 72.070313 C 113.574219 72.070313 113.121094 71.980469 112.75 71.8125 C 112.378906 71.640625 112.078125 71.394531 111.839844 71.074219 C 111.605469 70.753906 111.4375 70.367188 111.328125 69.921875 C 111.21875 69.472656 111.164063 68.976563 111.164063 68.429688 "
       id="path774" />
    <path
       style=" stroke:none;fill-rule:nonzero;fill:rgb(100%,100%,100%);fill-opacity:1;"
       d="M 116.546875 65.9375 L 116.546875 64.964844 L 122.007813 64.964844 L 122.007813 65.9375 L 119.832031 65.9375 L 119.832031 71.898438 L 118.722656 71.898438 L 118.722656 65.9375 Z M 116.546875 65.9375 "
       id="path776" />
    <path
       style=" stroke:none;fill-rule:nonzero;fill:rgb(100%,100%,100%);fill-opacity:1;"
       d="M 124.214844 70.964844 C 124.390625 70.984375 124.5625 70.996094 124.734375 71.003906 C 124.902344 71.015625 125.101563 71.019531 125.332031 71.019531 C 125.953125 71.019531 126.414063 70.929688 126.714844 70.753906 C 127.015625 70.578125 127.167969 70.28125 127.167969 69.859375 C 127.167969 69.523438 127.039063 69.253906 126.785156 69.046875 C 126.53125 68.839844 126.082031 68.738281 125.433594 68.738281 L 124.214844 68.738281 Z M 124.214844 67.890625 L 125.570313 67.890625 C 125.734375 67.890625 125.898438 67.863281 126.058594 67.808594 C 126.214844 67.753906 126.355469 67.679688 126.480469 67.582031 C 126.605469 67.484375 126.707031 67.371094 126.785156 67.242188 C 126.863281 67.109375 126.90625 66.972656 126.90625 66.824219 C 126.90625 66.453125 126.792969 66.199219 126.574219 66.058594 C 126.351563 65.914063 125.964844 65.84375 125.40625 65.84375 C 125.109375 65.84375 124.875 65.847656 124.703125 65.859375 C 124.53125 65.867188 124.367188 65.875 124.214844 65.882813 Z M 123.105469 71.882813 L 123.105469 64.980469 C 123.429688 64.960938 123.769531 64.9375 124.125 64.910156 C 124.476563 64.882813 124.921875 64.871094 125.449219 64.871094 C 126.363281 64.871094 127.019531 65.011719 127.417969 65.292969 C 127.816406 65.578125 128.015625 66.003906 128.015625 66.582031 C 128.015625 66.90625 127.921875 67.21875 127.730469 67.527344 C 127.539063 67.832031 127.226563 68.058594 126.789063 68.207031 L 126.789063 68.261719 C 127.335938 68.367188 127.71875 68.554688 127.945313 68.832031 C 128.167969 69.109375 128.277344 69.480469 128.277344 69.9375 C 128.277344 70.660156 128.019531 71.1875 127.5 71.507813 C 126.980469 71.832031 126.203125 71.992188 125.171875 71.992188 C 124.78125 71.992188 124.421875 71.984375 124.085938 71.960938 C 123.753906 71.9375 123.425781 71.914063 123.105469 71.882813 "
       id="path778" />
    <path
       style=" stroke:none;fill-rule:nonzero;fill:rgb(100%,100%,100%);fill-opacity:1;"
       d="M 130.777344 68.429688 C 130.777344 68.785156 130.8125 69.121094 130.886719 69.449219 C 130.953125 69.773438 131.0625 70.050781 131.210938 70.289063 C 131.359375 70.527344 131.554688 70.722656 131.792969 70.871094 C 132.03125 71.019531 132.324219 71.09375 132.667969 71.09375 C 133.925781 71.101563 134.554688 70.214844 134.550781 68.429688 C 134.550781 68.070313 134.515625 67.726563 134.449219 67.402344 C 134.378906 67.078125 134.273438 66.796875 134.125 66.5625 C 133.976563 66.324219 133.78125 66.132813 133.539063 65.988281 C 133.300781 65.84375 133.011719 65.769531 132.667969 65.769531 C 131.40625 65.761719 130.777344 66.648438 130.777344 68.429688 M 129.625 68.429688 C 129.625 67.257813 129.886719 66.359375 130.410156 65.738281 C 130.9375 65.113281 131.6875 64.800781 132.667969 64.792969 C 133.1875 64.792969 133.636719 64.878906 134.023438 65.050781 C 134.40625 65.222656 134.722656 65.46875 134.96875 65.789063 C 135.21875 66.113281 135.402344 66.496094 135.523438 66.941406 C 135.648438 67.386719 135.707031 67.886719 135.703125 68.429688 C 135.703125 69.605469 135.441406 70.503906 134.921875 71.128906 C 134.398438 71.75 133.648438 72.0625 132.667969 72.070313 C 132.148438 72.070313 131.695313 71.980469 131.3125 71.8125 C 130.929688 71.640625 130.613281 71.394531 130.363281 71.074219 C 130.117188 70.753906 129.929688 70.367188 129.808594 69.921875 C 129.6875 69.472656 129.625 68.976563 129.625 68.429688 "
       id="path780" />
    <path
       style=" stroke:none;fill-rule:nonzero;fill:rgb(100%,100%,100%);fill-opacity:1;"
       d="M 141.144531 71.898438 L 141.144531 64.964844 L 146.429688 64.964844 L 146.429688 71.898438 L 145.320313 71.898438 L 145.320313 65.9375 L 142.257813 65.9375 L 142.257813 71.898438 Z M 141.144531 71.898438 "
       id="path782" />
    <path
       style=" stroke:none;fill-rule:nonzero;fill:rgb(100%,100%,100%);fill-opacity:1;"
       d="M 149.320313 68.429688 C 149.320313 68.785156 149.355469 69.121094 149.429688 69.449219 C 149.496094 69.773438 149.605469 70.050781 149.753906 70.289063 C 149.902344 70.527344 150.097656 70.722656 150.335938 70.871094 C 150.578125 71.019531 150.867188 71.09375 151.210938 71.09375 C 152.46875 71.101563 153.097656 70.214844 153.09375 68.429688 C 153.09375 68.070313 153.058594 67.726563 152.992188 67.402344 C 152.925781 67.078125 152.816406 66.796875 152.667969 66.5625 C 152.519531 66.324219 152.324219 66.132813 152.085938 65.988281 C 151.84375 65.84375 151.554688 65.769531 151.210938 65.769531 C 149.949219 65.761719 149.320313 66.648438 149.320313 68.429688 M 148.167969 68.429688 C 148.167969 67.257813 148.429688 66.359375 148.957031 65.738281 C 149.480469 65.113281 150.230469 64.800781 151.210938 64.792969 C 151.730469 64.792969 152.179688 64.878906 152.566406 65.050781 C 152.949219 65.222656 153.265625 65.46875 153.511719 65.789063 C 153.761719 66.113281 153.945313 66.496094 154.070313 66.941406 C 154.191406 67.386719 154.25 67.886719 154.246094 68.429688 C 154.246094 69.605469 153.984375 70.503906 153.464844 71.128906 C 152.941406 71.75 152.191406 72.0625 151.210938 72.070313 C 150.691406 72.070313 150.238281 71.980469 149.855469 71.8125 C 149.472656 71.640625 149.15625 71.394531 148.90625 71.074219 C 148.660156 70.753906 148.472656 70.367188 148.351563 69.921875 C 148.230469 69.472656 148.167969 68.976563 148.167969 68.429688 "
       id="path784" />
    <path
       style=" stroke:none;fill-rule:nonzero;fill:rgb(100%,100%,100%);fill-opacity:1;"
       d="M 159.398438 67.046875 C 159.398438 66.136719 159.519531 65.367188 159.765625 64.734375 C 160.007813 64.105469 160.332031 63.585938 160.734375 63.183594 C 161.132813 62.78125 161.585938 62.488281 162.085938 62.300781 C 162.589844 62.117188 163.097656 62.023438 163.609375 62.023438 C 164.167969 62.023438 164.621094 62.054688 164.972656 62.113281 C 165.324219 62.171875 165.625 62.253906 165.871094 62.359375 L 165.59375 63.371094 C 165.152344 63.160156 164.519531 63.054688 163.699219 63.054688 C 163.320313 63.054688 162.945313 63.125 162.574219 63.261719 C 162.203125 63.402344 161.871094 63.628906 161.578125 63.941406 C 161.285156 64.257813 161.054688 64.667969 160.882813 65.179688 C 160.707031 65.6875 160.617188 66.3125 160.617188 67.046875 C 160.617188 67.710938 160.699219 68.292969 160.867188 68.792969 C 161.035156 69.292969 161.261719 69.710938 161.550781 70.042969 C 161.84375 70.378906 162.1875 70.625 162.582031 70.789063 C 162.972656 70.957031 163.402344 71.039063 163.863281 71.039063 C 164.277344 71.039063 164.640625 71 164.953125 70.917969 C 165.261719 70.835938 165.523438 70.726563 165.738281 70.59375 L 166.015625 71.5 C 165.738281 71.710938 165.386719 71.859375 164.957031 71.941406 C 164.535156 72.023438 164.082031 72.0625 163.597656 72.070313 C 163.015625 72.070313 162.472656 71.96875 161.964844 71.769531 C 161.453125 71.570313 161.011719 71.269531 160.632813 70.859375 C 160.25 70.449219 159.953125 69.933594 159.730469 69.300781 C 159.507813 68.667969 159.398438 67.917969 159.398438 67.046875 "
       id="path786" />
    <path
       style=" stroke:none;fill-rule:nonzero;fill:rgb(100%,100%,100%);fill-opacity:1;"
       d="M 168.363281 68.445313 C 168.363281 68.796875 168.402344 69.136719 168.476563 69.457031 C 168.550781 69.78125 168.664063 70.066406 168.820313 70.3125 C 168.972656 70.558594 169.167969 70.75 169.40625 70.886719 C 169.648438 71.023438 169.929688 71.09375 170.253906 71.09375 C 170.890625 71.09375 171.363281 70.863281 171.671875 70.40625 C 171.984375 69.945313 172.136719 69.269531 172.136719 68.378906 C 172.136719 68.023438 172.105469 67.699219 172.042969 67.40625 C 171.980469 67.109375 171.878906 66.855469 171.738281 66.636719 C 171.597656 66.421875 171.421875 66.253906 171.210938 66.136719 C 170.996094 66.019531 170.746094 65.960938 170.449219 65.960938 C 169.730469 65.949219 169.199219 66.160156 168.867188 66.59375 C 168.53125 67.023438 168.363281 67.640625 168.363281 68.445313 M 167.214844 67.695313 C 167.214844 66.898438 167.253906 66.21875 167.332031 65.65625 C 167.410156 65.089844 167.527344 64.613281 167.679688 64.226563 C 167.835938 63.839844 168.019531 63.527344 168.238281 63.296875 C 168.453125 63.066406 168.699219 62.886719 168.96875 62.753906 C 169.246094 62.621094 169.542969 62.527344 169.867188 62.480469 C 170.1875 62.433594 170.535156 62.382813 170.90625 62.328125 C 171.382813 62.28125 171.757813 62.230469 172.03125 62.167969 C 172.304688 62.105469 172.527344 61.996094 172.691406 61.839844 L 172.820313 62.824219 C 172.730469 62.90625 172.628906 62.972656 172.515625 63.027344 C 172.402344 63.082031 172.265625 63.125 172.109375 63.160156 C 171.949219 63.195313 171.761719 63.226563 171.546875 63.257813 C 171.328125 63.289063 171.082031 63.324219 170.804688 63.363281 C 170.410156 63.417969 170.0625 63.464844 169.753906 63.507813 C 169.449219 63.550781 169.1875 63.671875 168.96875 63.875 C 168.75 64.074219 168.578125 64.359375 168.457031 64.730469 C 168.332031 65.101563 168.246094 65.589844 168.203125 66.195313 L 168.242188 66.195313 C 168.550781 65.753906 168.886719 65.4375 169.253906 65.257813 C 169.625 65.074219 170.085938 64.984375 170.640625 64.984375 C 171.488281 64.984375 172.144531 65.261719 172.601563 65.820313 C 173.058594 66.375 173.289063 67.195313 173.289063 68.277344 C 173.289063 69.523438 173.023438 70.464844 172.492188 71.105469 C 171.960938 71.75 171.21875 72.070313 170.269531 72.070313 C 169.253906 72.070313 168.488281 71.714844 167.980469 71.011719 C 167.46875 70.308594 167.214844 69.199219 167.214844 67.695313 "
       id="path788" />
    <path
       style=" stroke:none;fill-rule:nonzero;fill:rgb(100%,100%,100%);fill-opacity:1;"
       d="M 175.792969 68.429688 C 175.792969 68.785156 175.832031 69.121094 175.902344 69.449219 C 175.972656 69.773438 176.078125 70.050781 176.226563 70.289063 C 176.378906 70.527344 176.570313 70.722656 176.8125 70.871094 C 177.050781 71.019531 177.339844 71.09375 177.683594 71.09375 C 178.945313 71.101563 179.570313 70.214844 179.566406 68.429688 C 179.566406 68.070313 179.535156 67.726563 179.464844 67.402344 C 179.398438 67.078125 179.289063 66.796875 179.140625 66.5625 C 178.992188 66.324219 178.796875 66.132813 178.558594 65.988281 C 178.320313 65.84375 178.027344 65.769531 177.683594 65.769531 C 176.425781 65.761719 175.792969 66.648438 175.792969 68.429688 M 174.644531 68.429688 C 174.644531 67.257813 174.90625 66.359375 175.429688 65.738281 C 175.953125 65.113281 176.703125 64.800781 177.683594 64.792969 C 178.203125 64.792969 178.65625 64.878906 179.039063 65.050781 C 179.421875 65.222656 179.738281 65.46875 179.988281 65.789063 C 180.234375 66.113281 180.421875 66.496094 180.542969 66.941406 C 180.664063 67.386719 180.722656 67.886719 180.71875 68.429688 C 180.71875 69.605469 180.457031 70.503906 179.941406 71.128906 C 179.414063 71.75 178.664063 72.0625 177.683594 72.070313 C 177.164063 72.070313 176.714844 71.980469 176.328125 71.8125 C 175.945313 71.640625 175.628906 71.394531 175.382813 71.074219 C 175.132813 70.753906 174.949219 70.367188 174.828125 69.921875 C 174.703125 69.472656 174.644531 68.976563 174.644531 68.429688 "
       id="path790" />
    <g
       clip-path="url(#clip1)"
       clip-rule="nonzero"
       id="g794">
      <path
         style=" stroke:none;fill-rule:nonzero;fill:rgb(100%,100%,100%);fill-opacity:1;"
         d="M 183.578125 70.695313 C 183.742188 70.824219 183.933594 70.921875 184.144531 70.992188 C 184.359375 71.058594 184.640625 71.09375 184.984375 71.09375 C 185.621094 71.09375 186.128906 70.855469 186.507813 70.382813 C 186.882813 69.90625 187.070313 69.207031 187.070313 68.277344 C 187.070313 67.898438 187.039063 67.554688 186.96875 67.246094 C 186.90625 66.933594 186.800781 66.671875 186.660156 66.453125 C 186.515625 66.238281 186.328125 66.070313 186.101563 65.945313 C 185.878906 65.828125 185.597656 65.769531 185.265625 65.769531 C 184.792969 65.769531 184.421875 65.890625 184.152344 66.136719 C 183.882813 66.378906 183.691406 66.753906 183.578125 67.253906 Z M 182.464844 74.675781 L 182.464844 64.964844 L 183.238281 64.964844 L 183.441406 65.796875 L 183.492188 65.796875 C 183.703125 65.472656 183.980469 65.222656 184.316406 65.050781 C 184.65625 64.878906 185.039063 64.792969 185.472656 64.792969 C 186.398438 64.792969 187.085938 65.070313 187.539063 65.613281 C 187.988281 66.160156 188.21875 67.054688 188.222656 68.296875 C 188.222656 68.878906 188.144531 69.402344 187.992188 69.867188 C 187.839844 70.332031 187.625 70.726563 187.347656 71.050781 C 187.074219 71.378906 186.738281 71.628906 186.339844 71.804688 C 185.945313 71.980469 185.511719 72.070313 185.03125 72.070313 C 184.691406 72.070313 184.417969 72.046875 184.21875 72 C 184.019531 71.960938 183.808594 71.890625 183.578125 71.789063 L 183.578125 74.675781 Z M 182.464844 74.675781 "
         id="path792" />
    </g>
    <g
       clip-path="url(#clip2)"
       clip-rule="nonzero"
       id="g798">
      <path
         style=" stroke:none;fill-rule:nonzero;fill:rgb(100%,100%,100%);fill-opacity:1;"
         d="M 188.894531 64.964844 L 190.167969 64.964844 L 191.8125 69.460938 L 192.15625 70.789063 L 192.214844 70.789063 L 192.484375 69.417969 L 193.9375 64.964844 L 195.046875 64.964844 L 193 71.191406 C 192.84375 71.644531 192.6875 72.082031 192.535156 72.507813 C 192.382813 72.929688 192.214844 73.3125 192.03125 73.644531 C 191.847656 73.980469 191.640625 74.246094 191.410156 74.445313 C 191.183594 74.644531 190.914063 74.742188 190.613281 74.742188 C 190.277344 74.742188 190.003906 74.695313 189.792969 74.601563 L 189.984375 73.648438 C 190.105469 73.691406 190.222656 73.714844 190.335938 73.714844 C 190.59375 73.714844 190.839844 73.578125 191.082031 73.308594 C 191.320313 73.035156 191.519531 72.566406 191.675781 71.898438 Z M 188.894531 64.964844 "
         id="path796" />
    </g>
    <path
       style=" stroke:none;fill-rule:nonzero;fill:rgb(100%,100%,100%);fill-opacity:1;"
       d="M 199.558594 71.898438 L 199.558594 62.1875 L 206.347656 62.1875 L 206.347656 71.898438 L 205.195313 71.898438 L 205.195313 63.214844 L 200.710938 63.214844 L 200.710938 71.898438 Z M 199.558594 71.898438 "
       id="path800" />
    <path
       style=" stroke:none;fill-rule:nonzero;fill:rgb(100%,100%,100%);fill-opacity:1;"
       d="M 207.449219 71.832031 L 207.613281 70.898438 C 207.726563 70.933594 207.84375 70.949219 207.976563 70.949219 C 208.164063 70.949219 208.328125 70.871094 208.476563 70.714844 C 208.621094 70.558594 208.75 70.257813 208.863281 69.820313 C 208.972656 69.382813 209.066406 68.777344 209.140625 67.996094 C 209.214844 67.21875 209.265625 66.207031 209.292969 64.964844 L 213.429688 64.964844 L 213.429688 71.898438 L 212.320313 71.898438 L 212.320313 65.9375 L 210.308594 65.9375 C 210.28125 66.328125 210.253906 66.746094 210.222656 67.191406 C 210.191406 67.640625 210.152344 68.089844 210.097656 68.539063 C 210.042969 68.988281 209.96875 69.417969 209.878906 69.828125 C 209.785156 70.238281 209.667969 70.601563 209.523438 70.914063 C 209.378906 71.226563 209.199219 71.480469 208.992188 71.667969 C 208.785156 71.859375 208.539063 71.953125 208.253906 71.953125 C 208.078125 71.953125 207.925781 71.945313 207.792969 71.925781 C 207.664063 71.90625 207.546875 71.875 207.449219 71.832031 "
       id="path802" />
    <path
       style=" stroke:none;fill-rule:nonzero;fill:rgb(100%,100%,100%);fill-opacity:1;"
       d="M 216.1875 69.925781 C 216.1875 70.25 216.300781 70.515625 216.53125 70.722656 C 216.761719 70.929688 217.058594 71.03125 217.417969 71.03125 C 217.675781 71.03125 217.910156 70.996094 218.117188 70.929688 C 218.320313 70.863281 218.492188 70.777344 218.636719 70.667969 C 218.785156 70.558594 218.910156 70.441406 219.011719 70.316406 C 219.109375 70.1875 219.179688 70.058594 219.21875 69.9375 L 219.21875 68.789063 C 219.089844 68.78125 218.957031 68.773438 218.828125 68.769531 C 218.691406 68.765625 218.5625 68.761719 218.433594 68.761719 C 218.148438 68.761719 217.871094 68.777344 217.59375 68.8125 C 217.324219 68.84375 217.082031 68.902344 216.871094 68.992188 C 216.664063 69.078125 216.496094 69.199219 216.375 69.351563 C 216.246094 69.503906 216.1875 69.695313 216.1875 69.925781 M 215.035156 70.042969 C 215.035156 69.636719 215.117188 69.296875 215.285156 69.019531 C 215.453125 68.75 215.683594 68.53125 215.984375 68.371094 C 216.285156 68.207031 216.644531 68.09375 217.066406 68.023438 C 217.484375 67.957031 217.949219 67.921875 218.460938 67.917969 L 218.839844 67.917969 C 218.96875 67.917969 219.09375 67.925781 219.21875 67.945313 C 219.246094 67.671875 219.261719 67.421875 219.265625 67.199219 C 219.265625 66.691406 219.164063 66.335938 218.957031 66.136719 C 218.753906 65.933594 218.382813 65.832031 217.851563 65.832031 C 217.695313 65.832031 217.523438 65.84375 217.34375 65.863281 C 217.164063 65.886719 216.976563 65.917969 216.789063 65.960938 C 216.597656 66 216.417969 66.050781 216.246094 66.113281 C 216.074219 66.171875 215.925781 66.238281 215.800781 66.316406 L 215.449219 65.484375 C 215.800781 65.269531 216.210938 65.109375 216.679688 65.007813 C 217.144531 64.902344 217.632813 64.851563 218.144531 64.855469 C 218.621094 64.855469 219.007813 64.917969 219.300781 65.046875 C 219.59375 65.175781 219.816406 65.347656 219.964844 65.554688 C 220.117188 65.761719 220.21875 65.988281 220.269531 66.238281 C 220.320313 66.488281 220.34375 66.738281 220.34375 66.992188 C 220.34375 67.546875 220.332031 68.085938 220.304688 68.613281 C 220.277344 69.140625 220.261719 69.640625 220.261719 70.105469 C 220.261719 70.449219 220.277344 70.773438 220.304688 71.078125 C 220.332031 71.386719 220.382813 71.667969 220.460938 71.925781 L 219.6875 71.925781 L 219.363281 70.949219 L 219.289063 70.949219 C 219.207031 71.082031 219.101563 71.210938 218.96875 71.332031 C 218.839844 71.460938 218.691406 71.570313 218.519531 71.667969 C 218.34375 71.765625 218.140625 71.847656 217.910156 71.910156 C 217.675781 71.976563 217.414063 72.007813 217.113281 72.007813 C 216.816406 72.007813 216.539063 71.960938 216.289063 71.871094 C 216.035156 71.78125 215.816406 71.652344 215.628906 71.480469 C 215.445313 71.308594 215.296875 71.101563 215.191406 70.855469 C 215.082031 70.617188 215.03125 70.347656 215.035156 70.042969 "
       id="path804" />
    <path
       style=" stroke:none;fill-rule:nonzero;fill:rgb(100%,100%,100%);fill-opacity:1;"
       d="M 221.402344 65.9375 L 221.402344 64.964844 L 226.859375 64.964844 L 226.859375 65.9375 L 224.6875 65.9375 L 224.6875 71.898438 L 223.574219 71.898438 L 223.574219 65.9375 Z M 221.402344 65.9375 "
       id="path806" />
    <path
       style=" stroke:none;fill-rule:nonzero;fill:rgb(100%,100%,100%);fill-opacity:1;"
       d="M 228.503906 67.667969 L 231.945313 67.667969 C 231.945313 66.960938 231.8125 66.46875 231.546875 66.1875 C 231.28125 65.910156 230.902344 65.769531 230.410156 65.769531 C 229.863281 65.769531 229.425781 65.914063 229.09375 66.195313 C 228.765625 66.480469 228.570313 66.972656 228.503906 67.667969 M 227.339844 68.429688 C 227.339844 67.25 227.605469 66.347656 228.132813 65.730469 C 228.660156 65.109375 229.414063 64.800781 230.394531 64.792969 C 230.710938 64.792969 231.027344 64.832031 231.335938 64.902344 C 231.652344 64.972656 231.933594 65.101563 232.183594 65.296875 C 232.429688 65.492188 232.632813 65.765625 232.792969 66.121094 C 232.949219 66.480469 233.03125 66.949219 233.03125 67.53125 C 233.03125 67.839844 233.003906 68.175781 232.949219 68.539063 L 228.492188 68.539063 C 228.492188 68.945313 228.535156 69.308594 228.621094 69.625 C 228.703125 69.9375 228.832031 70.207031 229.007813 70.421875 C 229.183594 70.640625 229.410156 70.804688 229.691406 70.925781 C 229.972656 71.042969 230.316406 71.097656 230.726563 71.09375 C 231.042969 71.09375 231.355469 71.039063 231.667969 70.929688 C 231.984375 70.816406 232.222656 70.6875 232.378906 70.539063 L 232.792969 71.34375 C 232.515625 71.566406 232.167969 71.742188 231.75 71.871094 C 231.328125 72.003906 230.882813 72.066406 230.410156 72.066406 C 229.878906 72.066406 229.421875 71.980469 229.035156 71.8125 C 228.644531 71.640625 228.328125 71.394531 228.078125 71.074219 C 227.832031 70.753906 227.644531 70.371094 227.523438 69.929688 C 227.402344 69.484375 227.339844 68.988281 227.339844 68.429688 "
       id="path808" />
    <path
       style=" stroke:none;fill-rule:nonzero;fill:rgb(100%,100%,100%);fill-opacity:1;"
       d="M 233.640625 71.898438 L 235.832031 68.722656 L 236.300781 68.308594 L 235.597656 67.78125 L 233.792969 64.964844 L 234.972656 64.964844 L 236.882813 67.957031 L 237.609375 67.957031 L 237.609375 64.964844 L 238.691406 64.964844 L 238.691406 68.101563 L 239.339844 67.902344 L 241.265625 64.964844 L 242.429688 64.964844 L 240.546875 67.78125 L 240.003906 68.222656 L 240.714844 68.777344 L 242.769531 71.898438 L 241.449219 71.898438 L 239.410156 68.777344 L 238.691406 68.777344 L 238.691406 71.898438 L 237.609375 71.898438 L 237.609375 68.640625 L 236.957031 68.832031 L 234.914063 71.898438 Z M 233.640625 71.898438 "
       id="path810" />
    <path
       style=" stroke:none;fill-rule:nonzero;fill:rgb(100%,100%,100%);fill-opacity:1;"
       d="M 244.507813 67.667969 L 247.949219 67.667969 C 247.949219 66.960938 247.816406 66.46875 247.550781 66.1875 C 247.28125 65.910156 246.90625 65.769531 246.410156 65.769531 C 245.867188 65.769531 245.425781 65.914063 245.097656 66.195313 C 244.769531 66.480469 244.570313 66.972656 244.507813 67.667969 M 243.34375 68.429688 C 243.34375 67.25 243.609375 66.347656 244.136719 65.730469 C 244.664063 65.109375 245.417969 64.800781 246.398438 64.792969 C 246.714844 64.792969 247.027344 64.832031 247.339844 64.902344 C 247.65625 64.972656 247.9375 65.101563 248.1875 65.296875 C 248.433594 65.492188 248.636719 65.765625 248.796875 66.121094 C 248.953125 66.480469 249.03125 66.949219 249.03125 67.53125 C 249.03125 67.839844 249.003906 68.175781 248.953125 68.539063 L 244.496094 68.539063 C 244.496094 68.945313 244.539063 69.308594 244.625 69.625 C 244.703125 69.9375 244.832031 70.207031 245.011719 70.421875 C 245.1875 70.640625 245.414063 70.804688 245.695313 70.925781 C 245.972656 71.042969 246.320313 71.097656 246.730469 71.09375 C 247.046875 71.09375 247.359375 71.039063 247.671875 70.929688 C 247.988281 70.816406 248.222656 70.6875 248.382813 70.539063 L 248.796875 71.34375 C 248.519531 71.566406 248.171875 71.742188 247.753906 71.871094 C 247.332031 72.003906 246.886719 72.066406 246.410156 72.066406 C 245.882813 72.066406 245.425781 71.980469 245.035156 71.8125 C 244.648438 71.640625 244.332031 71.394531 244.082031 71.074219 C 243.832031 70.753906 243.648438 70.371094 243.527344 69.929688 C 243.40625 69.484375 243.34375 68.988281 243.34375 68.429688 "
       id="path812" />
    <g
       clip-path="url(#clip3)"
       clip-rule="nonzero"
       id="g816">
      <path
         style=" stroke:none;fill-rule:nonzero;fill:rgb(100%,100%,100%);fill-opacity:1;"
         d="M 251.429688 62.492188 L 252.417969 62.160156 C 252.507813 62.585938 252.664063 62.882813 252.890625 63.046875 C 253.113281 63.214844 253.371094 63.296875 253.664063 63.296875 C 253.953125 63.296875 254.210938 63.210938 254.433594 63.035156 C 254.660156 62.859375 254.8125 62.570313 254.898438 62.175781 L 255.671875 62.4375 C 255.59375 62.960938 255.363281 63.363281 254.980469 63.648438 C 254.605469 63.925781 254.152344 64.0625 253.628906 64.0625 C 253.378906 64.0625 253.128906 64.03125 252.882813 63.972656 C 252.636719 63.910156 252.414063 63.816406 252.21875 63.6875 C 252.023438 63.558594 251.851563 63.398438 251.710938 63.199219 C 251.570313 63 251.476563 62.765625 251.429688 62.492188 M 250.78125 71.898438 L 250.78125 64.964844 L 251.890625 64.964844 L 251.890625 69.195313 L 251.84375 70.011719 L 251.929688 70.011719 L 252.453125 69.148438 L 255.511719 64.964844 L 256.21875 64.964844 L 256.21875 71.898438 L 255.109375 71.898438 L 255.09375 67.792969 L 255.132813 66.933594 L 255.09375 66.933594 L 254.527344 67.820313 L 251.414063 71.898438 Z M 250.78125 71.898438 "
         id="path814" />
    </g>
    <path
       style=" stroke:none;fill-rule:nonzero;fill:rgb(100%,100%,100%);fill-opacity:1;"
       d="M 97.066406 34.429688 C 100.335938 33.949219 102.742188 32.972656 104.285156 31.507813 C 105.824219 30.039063 106.59375 28.054688 106.59375 25.550781 C 106.59375 22.953125 105.824219 20.910156 104.285156 19.417969 C 102.742188 17.925781 100.335938 16.9375 97.066406 16.457031 Z M 75.121094 25.550781 C 75.121094 30.554688 78.296875 33.515625 84.648438 34.429688 L 84.648438 16.457031 C 81.378906 16.9375 78.972656 17.925781 77.433594 19.417969 C 75.890625 20.910156 75.121094 22.953125 75.121094 25.550781 M 113.523438 11.585938 C 117.46875 15.21875 119.441406 19.875 119.441406 25.550781 C 119.441406 31.230469 117.46875 35.886719 113.523438 39.519531 C 109.578125 43.152344 104.089844 45.402344 97.066406 46.265625 L 97.066406 51.175781 L 84.648438 51.175781 L 84.648438 46.265625 C 77.625 45.402344 72.128906 43.152344 68.15625 39.519531 C 64.1875 35.886719 62.203125 31.230469 62.203125 25.550781 C 62.203125 19.875 64.1875 15.21875 68.15625 11.585938 C 72.128906 7.953125 77.625 5.703125 84.648438 4.835938 L 84.648438 0.144531 L 97.066406 0.144531 L 97.066406 4.835938 C 104.089844 5.703125 109.578125 7.953125 113.523438 11.585938 "
       id="path818" />
    <path
       style=" stroke:none;fill-rule:nonzero;fill:rgb(100%,100%,100%);fill-opacity:1;"
       d="M 138.550781 30.316406 L 147.644531 30.316406 L 143.097656 16.023438 Z M 150.171875 0.648438 L 166.84375 51.175781 L 154.285156 51.175781 L 150.964844 40.855469 L 135.15625 40.855469 L 131.910156 51.175781 L 119.277344 51.175781 L 136.023438 0.648438 Z M 150.171875 0.648438 "
       id="path820" />
    <path
       style=" stroke:none;fill-rule:nonzero;fill:rgb(100%,100%,100%);fill-opacity:1;"
       d="M 197.101563 38.074219 C 198.734375 37.378906 200.179688 36.425781 201.433594 35.222656 L 210.238281 44.03125 C 207.832031 46.433594 205.0625 48.300781 201.9375 49.625 C 198.808594 50.949219 195.488281 51.609375 191.976563 51.609375 C 187.308594 51.609375 183 50.453125 179.058594 48.144531 C 175.109375 45.832031 171.984375 42.707031 169.671875 38.761719 C 167.363281 34.816406 166.207031 30.507813 166.207031 25.839844 C 166.207031 21.171875 167.363281 16.851563 169.671875 12.882813 C 171.984375 8.914063 175.109375 5.773438 179.058594 3.464844 C 183 1.15625 187.308594 0 191.976563 0 C 195.488281 0 198.808594 0.660156 201.9375 1.984375 C 205.0625 3.308594 207.832031 5.171875 210.238281 7.578125 L 201.433594 16.382813 C 200.179688 15.183594 198.734375 14.230469 197.101563 13.535156 C 195.464844 12.835938 193.753906 12.488281 191.976563 12.488281 C 189.570313 12.488281 187.355469 13.089844 185.335938 14.292969 C 183.316406 15.496094 181.703125 17.117188 180.5 19.164063 C 179.296875 21.210938 178.695313 23.433594 178.695313 25.839844 C 178.695313 28.246094 179.296875 30.460938 180.5 32.480469 C 181.703125 34.5 183.316406 36.113281 185.335938 37.316406 C 187.355469 38.519531 189.570313 39.121094 191.976563 39.121094 C 193.753906 39.121094 195.464844 38.773438 197.101563 38.074219 "
       id="path822" />
    <g
       clip-path="url(#clip4)"
       clip-rule="nonzero"
       id="g826">
      <path
         style=" stroke:none;fill-rule:nonzero;fill:rgb(100%,100%,100%);fill-opacity:1;"
         d="M 256.148438 0.144531 L 256.148438 51.175781 L 243.15625 51.175781 L 243.15625 13.136719 L 228.574219 13.136719 L 228.574219 51.175781 L 215.582031 51.175781 L 215.582031 0.144531 Z M 256.148438 0.144531 "
         id="path824" />
    </g>
  </g>
</svg>
