<?xml version="1.0" encoding="UTF-8" standalone="no"?>
<!-- Created with Inkscape (http://www.inkscape.org/) -->

<svg
   xmlns:dc="http://purl.org/dc/elements/1.1/"
   xmlns:cc="http://creativecommons.org/ns#"
   xmlns:rdf="http://www.w3.org/1999/02/22-rdf-syntax-ns#"
   xmlns:svg="http://www.w3.org/2000/svg"
   xmlns="http://www.w3.org/2000/svg"
   xmlns:sodipodi="http://sodipodi.sourceforge.net/DTD/sodipodi-0.dtd"
   xmlns:inkscape="http://www.inkscape.org/namespaces/inkscape"
   version="1.1"
   id="svg2"
   xml:space="preserve"
   width="336.52667"
   height="102.22427"
   viewBox="0 0 336.52667 102.22427"
   sodipodi:docname="footer-en-logo-slogan.svg"
   inkscape:version="0.92.3 (2405546, 2018-03-11)"><metadata
     id="metadata8"><rdf:RDF><cc:Work
         rdf:about=""><dc:format>image/svg+xml</dc:format><dc:type
           rdf:resource="http://purl.org/dc/dcmitype/StillImage" /><dc:title></dc:title></cc:Work></rdf:RDF></metadata><defs
     id="defs6"><clipPath
       clipPathUnits="userSpaceOnUse"
       id="clipPath30"><path
         d="M 0,76.668 H 252.395 V 0 H 0 Z"
         id="path28"
         inkscape:connector-curvature="0" /></clipPath></defs><sodipodi:namedview
     pagecolor="#ffffff"
     bordercolor="#666666"
     borderopacity="1"
     objecttolerance="10"
     gridtolerance="10"
     guidetolerance="10"
     inkscape:pageopacity="0"
     inkscape:pageshadow="2"
     inkscape:window-width="1350"
     inkscape:window-height="687"
     id="namedview4"
     showgrid="false"
     inkscape:zoom="1.1291824"
     inkscape:cx="168.26334"
     inkscape:cy="51.112137"
     inkscape:window-x="0"
     inkscape:window-y="0"
     inkscape:window-maximized="0"
     inkscape:current-layer="g10" /><g
     id="g10"
     inkscape:groupmode="layer"
     inkscape:label="Vector Smart Object35"
     transform="matrix(1.3333333,0,0,-1.3333333,0,102.22427)"><g
       id="g12"
       transform="translate(8.1288,37.8774)"><path
         d="M 0,0 -8.129,-14.124 H 52.115 L 43.48,0 Z"
         style="fill:#ffffff;fill-opacity:1;fill-rule:nonzero;stroke:none"
         id="path14"
         inkscape:connector-curvature="0" /></g><g
       id="g16"
       transform="translate(44.4946,50.9471)"><path
         d="M 0,0 -14.373,24.979 -28.813,0 Z"
         style="fill:#ffffff;fill-opacity:1;fill-rule:nonzero;stroke:none"
         id="path18"
         inkscape:connector-curvature="0" /></g><g
       id="g20"
       transform="translate(0,12.8547)"><path
         d="m 0,0 v -9.868 h 1.17 v 4.411 h 3.915 v 1.046 H 1.17 v 3.365 H 5.368 V 0 Z"
         style="fill:#ffffff;fill-opacity:1;fill-rule:nonzero;stroke:none"
         id="path22"
         inkscape:connector-curvature="0" /></g><g
       id="g24"><g
         id="g26"
         clip-path="url(#clipPath30)"><path
           d="m 8.955,10.033 h 1.128 V 2.986 H 8.955 Z m -0.234,2.14 c 0,0.216 0.072,0.402 0.216,0.558 0.144,0.156 0.327,0.234 0.551,0.234 0.226,0 0.419,-0.078 0.581,-0.234 0.161,-0.156 0.242,-0.342 0.242,-0.558 0,-0.215 -0.081,-0.393 -0.242,-0.533 -0.162,-0.14 -0.355,-0.21 -0.581,-0.21 -0.224,0 -0.407,0.07 -0.551,0.21 -0.144,0.14 -0.216,0.318 -0.216,0.533"
           style="fill:#ffffff;fill-opacity:1;fill-rule:nonzero;stroke:none"
           id="path32"
           inkscape:connector-curvature="0" /><g
           id="g34"
           transform="translate(14.0425,2.9866)"><path
             d="M 0,0 V 7.047 H 0.785 L 0.998,6.186 H 1.053 C 1.277,6.489 1.58,6.737 1.961,6.93 2.342,7.122 2.796,7.219 3.324,7.219 3.709,7.219 4.047,7.174 4.338,7.084 4.63,6.995 4.872,6.837 5.064,6.61 5.257,6.383 5.403,6.079 5.501,5.698 5.6,5.317 5.649,4.835 5.649,4.253 V 0 H 4.521 V 4.019 C 4.521,4.753 4.415,5.304 4.205,5.674 3.993,6.043 3.606,6.228 3.042,6.228 2.542,6.228 2.13,6.094 1.806,5.825 1.483,5.557 1.257,5.221 1.128,4.817 V 0 Z"
             style="fill:#ffffff;fill-opacity:1;fill-rule:nonzero;stroke:none"
             id="path36"
             inkscape:connector-curvature="0" /></g><g
           id="g38"
           transform="translate(23.9326,4.9925)"><path
             d="m 0,0 c 0,-0.329 0.117,-0.599 0.351,-0.81 0.234,-0.21 0.535,-0.315 0.901,-0.315 0.263,0 0.498,0.035 0.706,0.106 0.209,0.071 0.388,0.161 0.537,0.268 0.149,0.107 0.273,0.226 0.372,0.356 0.098,0.131 0.17,0.258 0.216,0.381 V 1.153 C 2.95,1.162 2.816,1.168 2.681,1.174 2.545,1.178 2.414,1.181 2.285,1.181 1.996,1.181 1.711,1.164 1.432,1.132 1.152,1.1 0.906,1.04 0.696,0.95 0.484,0.861 0.316,0.739 0.189,0.583 0.063,0.428 0,0.233 0,0 m -1.169,-0.117 c 0,0.412 0.085,0.758 0.254,1.034 0.17,0.277 0.407,0.498 0.712,0.664 0.306,0.164 0.671,0.282 1.098,0.353 0.426,0.071 0.899,0.107 1.418,0.107 h 0.389 c 0.126,0 0.253,-0.01 0.381,-0.028 0.028,0.279 0.044,0.53 0.048,0.755 0,0.516 -0.104,0.878 -0.313,1.083 C 2.61,4.057 2.235,4.16 1.693,4.16 1.533,4.16 1.361,4.149 1.177,4.126 0.994,4.103 0.806,4.07 0.613,4.026 0.42,3.983 0.237,3.932 0.062,3.872 -0.112,3.813 -0.264,3.744 -0.392,3.666 L -0.75,4.513 c 0.358,0.217 0.774,0.378 1.249,0.482 0.475,0.104 0.972,0.156 1.49,0.156 0.486,0 0.878,-0.065 1.173,-0.196 C 3.458,4.824 3.684,4.653 3.84,4.441 3.996,4.23 4.099,3.997 4.15,3.742 4.201,3.486 4.226,3.233 4.226,2.98 4.226,2.417 4.212,1.869 4.185,1.336 4.157,0.803 4.143,0.295 4.143,-0.185 c 0,-0.35 0.014,-0.68 0.042,-0.99 0.027,-0.31 0.08,-0.596 0.158,-0.858 H 3.51 L 3.214,-1.042 H 3.146 C 3.063,-1.176 2.957,-1.307 2.829,-1.434 2.7,-1.561 2.547,-1.674 2.368,-1.773 2.188,-1.873 1.982,-1.954 1.748,-2.019 1.515,-2.084 1.246,-2.116 0.943,-2.116 c -0.302,0 -0.583,0.047 -0.839,0.141 -0.258,0.095 -0.48,0.228 -0.667,0.4 -0.189,0.173 -0.337,0.382 -0.445,0.628 -0.107,0.246 -0.161,0.523 -0.161,0.83"
             style="fill:#ffffff;fill-opacity:1;fill-rule:nonzero;stroke:none"
             id="path40"
             inkscape:connector-curvature="0" /></g><g
           id="g42"
           transform="translate(31.835,2.9866)"><path
             d="M 0,0 V 7.047 H 0.785 L 0.998,6.186 H 1.053 C 1.278,6.489 1.58,6.737 1.961,6.93 2.342,7.122 2.796,7.219 3.324,7.219 3.709,7.219 4.047,7.174 4.338,7.084 4.63,6.995 4.873,6.837 5.064,6.61 5.258,6.383 5.403,6.079 5.501,5.698 5.601,5.317 5.649,4.835 5.649,4.253 V 0 H 4.521 V 4.019 C 4.521,4.753 4.416,5.304 4.205,5.674 3.993,6.043 3.606,6.228 3.042,6.228 2.542,6.228 2.13,6.094 1.806,5.825 1.483,5.557 1.257,5.221 1.128,4.817 V 0 Z"
             style="fill:#ffffff;fill-opacity:1;fill-rule:nonzero;stroke:none"
             id="path44"
             inkscape:connector-curvature="0" /></g><g
           id="g46"
           transform="translate(40.6934,6.5096)"><path
             d="M 0,0 C 0,1.193 0.264,2.107 0.792,2.743 1.319,3.378 2.076,3.696 3.063,3.696 3.512,3.696 3.894,3.66 4.208,3.589 4.522,3.518 4.808,3.416 5.064,3.283 L 4.734,2.313 C 4.519,2.437 4.28,2.533 4.019,2.602 3.757,2.67 3.476,2.705 3.172,2.705 1.837,2.705 1.17,1.803 1.17,0 c 0,-0.357 0.035,-0.698 0.106,-1.021 0.072,-0.324 0.189,-0.611 0.355,-0.861 0.165,-0.25 0.381,-0.45 0.647,-0.598 0.266,-0.15 0.596,-0.224 0.991,-0.224 0.339,0 0.644,0.052 0.912,0.155 0.268,0.103 0.487,0.221 0.657,0.355 L 5.203,-3.055 C 4.923,-3.262 4.59,-3.42 4.205,-3.53 3.819,-3.64 3.416,-3.695 2.993,-3.695 2.448,-3.695 1.986,-3.608 1.61,-3.434 1.234,-3.259 0.925,-3.009 0.685,-2.683 0.444,-2.358 0.27,-1.968 0.162,-1.514 0.054,-1.059 0,-0.555 0,0"
             style="fill:#ffffff;fill-opacity:1;fill-rule:nonzero;stroke:none"
             id="path48"
             inkscape:connector-curvature="0" /></g><path
           d="m 49.229,10.033 h 1.128 V 2.986 h -1.128 z m -0.234,2.14 c 0,0.216 0.071,0.402 0.215,0.558 0.144,0.156 0.328,0.234 0.552,0.234 0.225,0 0.419,-0.078 0.58,-0.234 0.161,-0.156 0.242,-0.342 0.242,-0.558 0,-0.215 -0.081,-0.393 -0.242,-0.533 -0.161,-0.14 -0.355,-0.21 -0.58,-0.21 -0.224,0 -0.408,0.07 -0.552,0.21 -0.144,0.14 -0.215,0.318 -0.215,0.533"
           style="fill:#ffffff;fill-opacity:1;fill-rule:nonzero;stroke:none"
           id="path50"
           inkscape:connector-curvature="0" /><g
           id="g52"
           transform="translate(54.9487,4.9925)"><path
             d="m 0,0 c 0,-0.329 0.117,-0.599 0.351,-0.81 0.234,-0.21 0.534,-0.315 0.901,-0.315 0.262,0 0.498,0.035 0.706,0.106 0.209,0.071 0.388,0.161 0.537,0.268 0.149,0.107 0.273,0.226 0.371,0.356 0.099,0.131 0.171,0.258 0.217,0.381 V 1.153 C 2.95,1.162 2.816,1.168 2.68,1.174 2.545,1.178 2.413,1.181 2.285,1.181 1.996,1.181 1.711,1.164 1.432,1.132 1.152,1.1 0.906,1.04 0.695,0.95 0.484,0.861 0.315,0.739 0.189,0.583 0.063,0.428 0,0.233 0,0 m -1.169,-0.117 c 0,0.412 0.084,0.758 0.254,1.034 0.169,0.277 0.407,0.498 0.712,0.664 0.305,0.164 0.671,0.282 1.098,0.353 0.426,0.071 0.899,0.107 1.418,0.107 h 0.388 c 0.126,0 0.254,-0.01 0.382,-0.028 0.027,0.279 0.044,0.53 0.048,0.755 0,0.516 -0.104,0.878 -0.313,1.083 C 2.609,4.057 2.234,4.16 1.693,4.16 1.532,4.16 1.361,4.149 1.177,4.126 0.994,4.103 0.806,4.07 0.612,4.026 0.42,3.983 0.236,3.932 0.062,3.872 -0.112,3.813 -0.264,3.744 -0.392,3.666 L -0.75,4.513 c 0.358,0.217 0.774,0.378 1.249,0.482 0.475,0.104 0.972,0.156 1.49,0.156 0.486,0 0.877,-0.065 1.173,-0.196 C 3.458,4.824 3.684,4.653 3.84,4.441 3.996,4.23 4.099,3.997 4.149,3.742 4.2,3.486 4.226,3.233 4.226,2.98 4.226,2.417 4.211,1.869 4.185,1.336 4.157,0.803 4.143,0.295 4.143,-0.185 c 0,-0.35 0.014,-0.68 0.042,-0.99 0.026,-0.31 0.079,-0.596 0.158,-0.858 H 3.51 L 3.213,-1.042 H 3.145 C 3.063,-1.176 2.957,-1.307 2.829,-1.434 2.7,-1.561 2.546,-1.674 2.367,-1.773 2.188,-1.873 1.982,-1.954 1.748,-2.019 1.514,-2.084 1.246,-2.116 0.943,-2.116 c -0.303,0 -0.583,0.047 -0.839,0.141 -0.258,0.095 -0.48,0.228 -0.668,0.4 -0.188,0.173 -0.336,0.382 -0.444,0.628 -0.108,0.246 -0.161,0.523 -0.161,0.83"
             style="fill:#ffffff;fill-opacity:1;fill-rule:nonzero;stroke:none"
             id="path54"
             inkscape:connector-curvature="0" /></g><g
           id="g56"
           transform="translate(62.9751,4.3972)"><path
             d="M 0,0 V 8.458 H 1.128 V 0.323 c 0,-0.33 0.057,-0.565 0.169,-0.705 0.112,-0.14 0.272,-0.21 0.478,-0.21 0.124,0 0.256,0.009 0.396,0.028 0.14,0.018 0.299,0.06 0.478,0.124 L 2.78,-1.328 C 2.629,-1.402 2.418,-1.462 2.15,-1.51 1.882,-1.559 1.649,-1.583 1.452,-1.583 1.03,-1.583 0.682,-1.462 0.409,-1.221 0.137,-0.98 0,-0.573 0,0"
             style="fill:#ffffff;fill-opacity:1;fill-rule:nonzero;stroke:none"
             id="path58"
             inkscape:connector-curvature="0" /></g><g
           id="g60"
           transform="translate(77.3882,3.9637)"><path
             d="m 0,0 c 0.046,-0.009 0.135,-0.016 0.269,-0.021 0.133,-0.004 0.269,-0.009 0.409,-0.013 0.14,-0.005 0.275,-0.009 0.406,-0.014 0.13,-0.004 0.221,-0.007 0.272,-0.007 0.656,0 1.207,0.112 1.655,0.337 0.447,0.224 0.803,0.527 1.07,0.907 C 4.347,1.57 4.536,2.006 4.648,2.5 4.761,2.992 4.817,3.502 4.817,4.029 4.817,4.488 4.766,4.949 4.663,5.415 4.559,5.88 4.382,6.301 4.13,6.676 3.878,7.052 3.537,7.359 3.108,7.598 2.68,7.836 2.143,7.955 1.496,7.955 H 1.094 C 0.949,7.955 0.807,7.951 0.667,7.941 0.527,7.933 0.397,7.922 0.276,7.912 0.156,7.9 0.064,7.892 0,7.886 Z m -1.17,-0.991 v 9.882 c 0.305,0.027 0.533,0.048 0.686,0.062 0.152,0.013 0.351,0.023 0.597,0.027 0.246,0.005 0.484,0.01 0.713,0.014 0.229,0.005 0.443,0.007 0.64,0.007 0.787,0 1.47,-0.122 2.048,-0.368 C 4.09,8.388 4.567,8.047 4.942,7.612 5.319,7.176 5.598,6.654 5.781,6.044 5.964,5.435 6.056,4.763 6.056,4.029 6.056,3.364 5.969,2.722 5.795,2.104 5.621,1.487 5.346,0.94 4.97,0.465 4.594,-0.009 4.106,-0.389 3.507,-0.674 2.906,-0.959 2.18,-1.101 1.328,-1.101 1.177,-1.101 0.981,-1.099 0.74,-1.094 0.499,-1.089 0.252,-1.08 0,-1.066 c -0.252,0.013 -0.486,0.025 -0.702,0.034 -0.215,0.01 -0.372,0.023 -0.468,0.041"
             style="fill:#ffffff;fill-opacity:1;fill-rule:nonzero;stroke:none"
             id="path62"
             inkscape:connector-curvature="0" /></g><g
           id="g64"
           transform="translate(87.6577,7.2874)"><path
             d="M 0,0 H 3.495 C 3.495,0.716 3.36,1.216 3.089,1.5 2.818,1.785 2.433,1.927 1.933,1.927 1.378,1.927 0.934,1.781 0.602,1.49 0.269,1.199 0.068,0.702 0,0 m -1.184,-0.778 c 0,1.202 0.268,2.119 0.805,2.75 0.537,0.63 1.303,0.946 2.298,0.946 0.322,0 0.642,-0.036 0.96,-0.107 C 3.199,2.74 3.484,2.606 3.736,2.409 3.989,2.211 4.195,1.932 4.356,1.569 4.516,1.207 4.596,0.73 4.596,0.138 c 0,-0.312 -0.027,-0.654 -0.082,-1.026 h -4.528 c 0,-0.412 0.042,-0.779 0.127,-1.1 0.085,-0.322 0.217,-0.593 0.396,-0.813 0.178,-0.22 0.411,-0.388 0.698,-0.505 0.287,-0.117 0.637,-0.176 1.049,-0.176 0.322,0 0.642,0.056 0.961,0.169 0.318,0.112 0.558,0.244 0.719,0.396 l 0.42,-0.819 C 4.076,-3.961 3.721,-4.14 3.292,-4.273 c -0.429,-0.133 -0.881,-0.2 -1.359,-0.2 -0.537,0 -1.002,0.087 -1.396,0.262 -0.395,0.174 -0.719,0.424 -0.971,0.75 -0.252,0.325 -0.44,0.713 -0.564,1.163 -0.124,0.449 -0.186,0.957 -0.186,1.52"
             style="fill:#ffffff;fill-opacity:1;fill-rule:nonzero;stroke:none"
             id="path66"
             inkscape:connector-curvature="0" /></g><g
           id="g68"
           transform="translate(97.0898,4.1634)"><path
             d="m 0,0 c 0.179,-0.106 0.395,-0.184 0.646,-0.234 0.253,-0.051 0.515,-0.076 0.785,-0.076 0.638,0 1.149,0.226 1.531,0.677 0.384,0.452 0.575,1.154 0.575,2.107 0,0.366 -0.033,0.71 -0.1,1.031 C 3.371,3.826 3.267,4.098 3.124,4.323 2.982,4.547 2.802,4.725 2.584,4.855 2.366,4.986 2.097,5.051 1.775,5.051 1.307,5.051 0.927,4.92 0.633,4.659 0.34,4.398 0.128,4.027 0,3.546 Z M -1.128,-0.767 V 8.691 H 0 V 5.182 H 0.055 C 0.271,5.453 0.545,5.664 0.877,5.815 1.21,5.966 1.574,6.042 1.968,6.042 2.881,6.042 3.566,5.751 4.022,5.169 4.479,4.586 4.707,3.684 4.707,2.46 4.707,1.229 4.405,0.295 3.802,-0.343 3.199,-0.981 2.354,-1.301 1.266,-1.301 c -0.528,0 -1.004,0.057 -1.432,0.17 -0.426,0.113 -0.747,0.235 -0.962,0.364"
             style="fill:#ffffff;fill-opacity:1;fill-rule:nonzero;stroke:none"
             id="path70"
             inkscape:connector-curvature="0" /></g><g
           id="g72"
           transform="translate(104.5674,9.0423)"><path
             d="M 0,0 V 0.991 H 1.094 V 2.388 L 2.222,2.711 V 0.991 H 4.143 V 0 H 2.222 v -3.903 c 0,-0.486 0.062,-0.83 0.183,-1.031 0.121,-0.202 0.329,-0.303 0.623,-0.303 0.243,0 0.45,0.026 0.619,0.075 0.169,0.051 0.358,0.12 0.564,0.207 L 4.466,-5.814 C 4.213,-5.938 3.936,-6.038 3.633,-6.114 3.331,-6.19 3.007,-6.228 2.663,-6.228 c -0.574,0 -0.978,0.163 -1.214,0.488 -0.237,0.325 -0.355,0.869 -0.355,1.629 l 0,4.111 z"
             style="fill:#ffffff;fill-opacity:1;fill-rule:nonzero;stroke:none"
             id="path74"
             inkscape:connector-curvature="0" /></g><g
           id="g76"
           transform="translate(118.3564,7.9168)"><path
             d="M 0,0 C 0,0.923 0.124,1.706 0.372,2.349 0.62,2.991 0.947,3.517 1.356,3.926 1.764,4.334 2.223,4.632 2.732,4.821 3.241,5.009 3.758,5.103 4.28,5.103 4.845,5.103 5.306,5.073 5.664,5.013 6.021,4.953 6.327,4.87 6.579,4.764 L 6.297,3.734 C 5.847,3.95 5.205,4.057 4.37,4.057 3.984,4.057 3.604,3.986 3.228,3.844 2.852,3.702 2.515,3.471 2.22,3.153 1.923,2.834 1.687,2.417 1.507,1.901 1.328,1.386 1.239,0.752 1.239,0 c 0,-0.673 0.085,-1.265 0.254,-1.773 0.17,-0.51 0.403,-0.932 0.699,-1.269 0.296,-0.337 0.643,-0.59 1.042,-0.76 0.4,-0.169 0.833,-0.254 1.301,-0.254 0.422,0 0.792,0.042 1.108,0.127 0.316,0.085 0.583,0.194 0.798,0.327 L 6.724,-4.524 C 6.444,-4.74 6.087,-4.89 5.653,-4.975 5.22,-5.06 4.758,-5.103 4.267,-5.103 3.675,-5.103 3.121,-5.001 2.605,-4.8 2.088,-4.598 1.638,-4.29 1.252,-3.875 0.868,-3.46 0.562,-2.932 0.337,-2.29 0.113,-1.647 0,-0.885 0,0"
             style="fill:#ffffff;fill-opacity:1;fill-rule:nonzero;stroke:none"
             id="path78"
             inkscape:connector-curvature="0" /></g><g
           id="g80"
           transform="translate(128.5229,6.5096)"><path
             d="M 0,0 C 0,-0.357 0.035,-0.701 0.106,-1.028 0.177,-1.356 0.289,-1.643 0.44,-1.889 0.591,-2.134 0.789,-2.332 1.032,-2.48 1.275,-2.63 1.571,-2.704 1.92,-2.704 h 0.02 c 1.262,0 1.893,0.895 1.893,2.684 0,0.38 -0.035,0.735 -0.104,1.063 C 3.661,1.371 3.551,1.658 3.399,1.903 3.248,2.148 3.05,2.343 2.807,2.488 2.564,2.633 2.268,2.705 1.92,2.705 H 1.899 C 0.633,2.705 0,1.803 0,0 m -1.17,0 c 0,1.193 0.266,2.107 0.798,2.743 0.533,0.635 1.296,0.953 2.292,0.953 0.527,0 0.986,-0.087 1.376,-0.262 C 3.686,3.26 4.007,3.01 4.26,2.684 4.512,2.358 4.699,1.968 4.82,1.515 4.941,1.06 5.002,0.555 5.002,0 5.002,-1.193 4.738,-2.106 4.208,-2.742 3.678,-3.377 2.916,-3.695 1.92,-3.695 c -0.528,0 -0.987,0.087 -1.377,0.261 -0.39,0.175 -0.711,0.425 -0.963,0.751 -0.252,0.325 -0.44,0.715 -0.564,1.169 C -1.108,-1.059 -1.17,-0.555 -1.17,0"
             style="fill:#ffffff;fill-opacity:1;fill-rule:nonzero;stroke:none"
             id="path82"
             inkscape:connector-curvature="0" /></g><g
           id="g84"
           transform="translate(136.9756,4.3972)"><path
             d="M 0,0 V 8.458 H 1.128 V 0.323 c 0,-0.33 0.057,-0.565 0.169,-0.705 0.112,-0.14 0.271,-0.21 0.478,-0.21 0.123,0 0.256,0.009 0.396,0.028 0.14,0.018 0.299,0.06 0.477,0.124 L 2.779,-1.328 C 2.629,-1.402 2.418,-1.462 2.15,-1.51 1.882,-1.559 1.649,-1.583 1.451,-1.583 1.029,-1.583 0.682,-1.462 0.409,-1.221 0.136,-0.98 0,-0.573 0,0"
             style="fill:#ffffff;fill-opacity:1;fill-rule:nonzero;stroke:none"
             id="path86"
             inkscape:connector-curvature="0" /></g><g
           id="g88"
           transform="translate(142.6406,4.3972)"><path
             d="M 0,0 V 8.458 H 1.129 V 0.323 c 0,-0.33 0.056,-0.565 0.167,-0.705 0.113,-0.14 0.271,-0.21 0.48,-0.21 0.123,0 0.254,0.009 0.395,0.028 0.139,0.018 0.3,0.06 0.477,0.124 L 2.78,-1.328 C 2.629,-1.402 2.419,-1.462 2.151,-1.51 1.881,-1.559 1.649,-1.583 1.452,-1.583 1.03,-1.583 0.683,-1.462 0.409,-1.221 0.135,-0.98 0,-0.573 0,0"
             style="fill:#ffffff;fill-opacity:1;fill-rule:nonzero;stroke:none"
             id="path90"
             inkscape:connector-curvature="0" /></g><g
           id="g92"
           transform="translate(148.9658,7.2874)"><path
             d="M 0,0 H 3.496 C 3.496,0.716 3.36,1.216 3.09,1.5 2.819,1.785 2.434,1.927 1.934,1.927 1.378,1.927 0.935,1.781 0.603,1.49 0.269,1.199 0.068,0.702 0,0 m -1.184,-0.778 c 0,1.202 0.269,2.119 0.805,2.75 0.537,0.63 1.304,0.946 2.299,0.946 0.321,0 0.641,-0.036 0.96,-0.107 C 3.198,2.74 3.484,2.606 3.737,2.409 3.989,2.211 4.195,1.932 4.356,1.569 4.517,1.207 4.598,0.73 4.598,0.138 c 0,-0.312 -0.029,-0.654 -0.084,-1.026 h -4.528 c 0,-0.412 0.043,-0.779 0.127,-1.1 0.085,-0.322 0.217,-0.593 0.396,-0.813 0.179,-0.22 0.412,-0.388 0.698,-0.505 0.287,-0.117 0.638,-0.176 1.05,-0.176 0.321,0 0.641,0.056 0.961,0.169 0.318,0.112 0.557,0.244 0.719,0.396 L 4.356,-3.736 C 4.076,-3.961 3.722,-4.14 3.293,-4.273 c -0.429,-0.133 -0.882,-0.2 -1.359,-0.2 -0.538,0 -1.002,0.087 -1.397,0.262 -0.395,0.174 -0.719,0.424 -0.971,0.75 -0.253,0.325 -0.44,0.713 -0.564,1.163 -0.124,0.449 -0.186,0.957 -0.186,1.52"
             style="fill:#ffffff;fill-opacity:1;fill-rule:nonzero;stroke:none"
             id="path94"
             inkscape:connector-curvature="0" /></g><g
           id="g96"
           transform="translate(156.332,6.5096)"><path
             d="M 0,0 C 0,1.193 0.264,2.107 0.79,2.743 1.318,3.378 2.075,3.696 3.063,3.696 3.512,3.696 3.894,3.66 4.208,3.589 4.521,3.518 4.808,3.416 5.064,3.283 L 4.733,2.313 C 4.519,2.437 4.279,2.533 4.019,2.602 3.757,2.67 3.475,2.705 3.172,2.705 1.837,2.705 1.169,1.803 1.169,0 c 0,-0.357 0.036,-0.698 0.106,-1.021 0.072,-0.324 0.19,-0.611 0.356,-0.861 0.164,-0.25 0.381,-0.45 0.646,-0.598 0.266,-0.15 0.597,-0.224 0.992,-0.224 0.338,0 0.642,0.052 0.911,0.155 0.268,0.103 0.487,0.221 0.657,0.355 L 5.202,-3.055 C 4.922,-3.262 4.59,-3.42 4.204,-3.53 3.819,-3.64 3.415,-3.695 2.993,-3.695 2.447,-3.695 1.986,-3.608 1.61,-3.434 1.234,-3.259 0.926,-3.009 0.685,-2.683 0.443,-2.358 0.269,-1.968 0.161,-1.514 0.054,-1.059 0,-0.555 0,0"
             style="fill:#ffffff;fill-opacity:1;fill-rule:nonzero;stroke:none"
             id="path98"
             inkscape:connector-curvature="0" /></g><g
           id="g100"
           transform="translate(164.0215,9.0423)"><path
             d="M 0,0 V 0.991 H 1.094 V 2.388 L 2.222,2.711 V 0.991 H 4.143 V 0 H 2.222 v -3.903 c 0,-0.486 0.06,-0.83 0.182,-1.031 0.121,-0.202 0.329,-0.303 0.623,-0.303 0.244,0 0.45,0.026 0.619,0.075 0.17,0.051 0.358,0.12 0.565,0.207 L 4.466,-5.814 C 4.213,-5.938 3.935,-6.038 3.633,-6.114 3.33,-6.19 3.007,-6.228 2.662,-6.228 c -0.573,0 -0.978,0.163 -1.214,0.488 -0.236,0.325 -0.354,0.869 -0.354,1.629 l 0,4.111 z"
             style="fill:#ffffff;fill-opacity:1;fill-rule:nonzero;stroke:none"
             id="path102"
             inkscape:connector-curvature="0" /></g><path
           d="m 171.51,10.033 h 1.129 V 2.986 h -1.129 z m -0.235,2.14 c 0,0.216 0.073,0.402 0.216,0.558 0.144,0.156 0.328,0.234 0.552,0.234 0.226,0 0.419,-0.078 0.581,-0.234 0.16,-0.156 0.241,-0.342 0.241,-0.558 0,-0.215 -0.081,-0.393 -0.241,-0.533 -0.162,-0.14 -0.355,-0.21 -0.581,-0.21 -0.224,0 -0.408,0.07 -0.552,0.21 -0.143,0.14 -0.216,0.318 -0.216,0.533"
           style="fill:#ffffff;fill-opacity:1;fill-rule:nonzero;stroke:none"
           id="path104"
           inkscape:connector-curvature="0" /><g
           id="g106"
           transform="translate(177.3682,6.5096)"><path
             d="M 0,0 C 0,-0.357 0.035,-0.701 0.105,-1.028 0.177,-1.356 0.288,-1.643 0.44,-1.889 0.592,-2.134 0.788,-2.332 1.031,-2.48 1.275,-2.63 1.571,-2.704 1.919,-2.704 H 1.94 c 1.262,0 1.893,0.895 1.893,2.684 0,0.38 -0.035,0.735 -0.104,1.063 C 3.66,1.371 3.55,1.658 3.399,1.903 3.248,2.148 3.05,2.343 2.807,2.488 2.564,2.633 2.269,2.705 1.919,2.705 H 1.899 C 0.633,2.705 0,1.803 0,0 m -1.17,0 c 0,1.193 0.266,2.107 0.798,2.743 0.532,0.635 1.296,0.953 2.291,0.953 0.528,0 0.987,-0.087 1.377,-0.262 C 3.687,3.26 4.007,3.01 4.26,2.684 4.512,2.358 4.699,1.968 4.82,1.515 4.942,1.06 5.003,0.555 5.003,0 c 0,-1.193 -0.266,-2.106 -0.795,-2.742 -0.53,-0.635 -1.293,-0.953 -2.289,-0.953 -0.527,0 -0.985,0.087 -1.376,0.261 -0.39,0.175 -0.711,0.425 -0.963,0.751 -0.253,0.325 -0.44,0.715 -0.564,1.169 C -1.108,-1.059 -1.17,-0.555 -1.17,0"
             style="fill:#ffffff;fill-opacity:1;fill-rule:nonzero;stroke:none"
             id="path108"
             inkscape:connector-curvature="0" /></g><g
           id="g110"
           transform="translate(185.6973,2.9866)"><path
             d="M 0,0 V 7.047 H 0.784 L 0.998,6.186 H 1.053 C 1.277,6.489 1.58,6.737 1.961,6.93 2.342,7.122 2.796,7.219 3.324,7.219 3.709,7.219 4.047,7.174 4.339,7.084 4.63,6.995 4.872,6.837 5.065,6.61 5.258,6.383 5.403,6.079 5.501,5.698 5.6,5.317 5.649,4.835 5.649,4.253 V 0 H 4.521 V 4.019 C 4.521,4.753 4.415,5.304 4.204,5.674 3.993,6.043 3.605,6.228 3.041,6.228 2.541,6.228 2.13,6.094 1.806,5.825 1.482,5.557 1.257,5.221 1.129,4.817 V 0 Z"
             style="fill:#ffffff;fill-opacity:1;fill-rule:nonzero;stroke:none"
             id="path112"
             inkscape:connector-curvature="0" /></g><g
           id="g114"
           transform="translate(202.3076,6.7371)"><path
             d="M 0,0 H 2.903 L 1.803,3 1.451,4.494 H 1.438 L 1.087,2.973 Z M -2.525,-3.75 1.211,6.269 H 1.748 L 5.498,-3.75 H 4.273 L 3.255,-1.019 H -0.379 L -1.37,-3.75 Z"
             style="fill:#ffffff;fill-opacity:1;fill-rule:nonzero;stroke:none"
             id="path116"
             inkscape:connector-curvature="0" /></g><g
           id="g118"
           transform="translate(211.1377,6.493)"><path
             d="m 0,0 c 0,-0.395 0.032,-0.755 0.1,-1.083 0.067,-0.327 0.17,-0.609 0.309,-0.845 0.141,-0.236 0.323,-0.419 0.547,-0.55 0.226,-0.13 0.503,-0.195 0.833,-0.195 0.477,0 0.854,0.118 1.129,0.357 0.275,0.238 0.468,0.611 0.578,1.12 V 2.405 C 3.12,2.583 2.64,2.673 2.058,2.673 1.42,2.673 0.918,2.458 0.551,2.027 0.184,1.597 0,0.92 0,0 m -1.17,-0.014 c 0,1.203 0.287,2.117 0.86,2.742 0.574,0.624 1.42,0.936 2.539,0.936 0.538,0 0.996,-0.041 1.376,-0.124 0.382,-0.084 0.721,-0.183 1.02,-0.299 v -7.072 c 0,-0.913 -0.242,-1.584 -0.727,-2.015 -0.484,-0.431 -1.201,-0.647 -2.15,-0.647 -0.564,0 -1.018,0.036 -1.359,0.107 -0.342,0.072 -0.635,0.163 -0.878,0.274 l 0.297,0.96 c 0.214,-0.082 0.454,-0.161 0.714,-0.237 0.262,-0.075 0.607,-0.113 1.034,-0.113 0.393,0 0.715,0.035 0.963,0.106 0.248,0.071 0.447,0.189 0.598,0.354 0.152,0.165 0.255,0.375 0.31,0.631 0.054,0.257 0.083,0.563 0.083,0.92 v 0.673 H 3.454 C 3.267,-3.089 3.026,-3.298 2.735,-3.444 2.444,-3.591 2.064,-3.665 1.596,-3.665 c -0.95,0 -1.648,0.297 -2.095,0.891 -0.447,0.593 -0.671,1.513 -0.671,2.76"
             style="fill:#ffffff;fill-opacity:1;fill-rule:nonzero;stroke:none"
             id="path120"
             inkscape:connector-curvature="0" /></g><g
           id="g122"
           transform="translate(220.2656,7.2874)"><path
             d="M 0,0 H 3.495 C 3.495,0.716 3.359,1.216 3.089,1.5 2.819,1.785 2.433,1.927 1.934,1.927 1.378,1.927 0.935,1.781 0.602,1.49 0.269,1.199 0.068,0.702 0,0 m -1.184,-0.778 c 0,1.202 0.268,2.119 0.805,2.75 0.536,0.63 1.303,0.946 2.298,0.946 0.322,0 0.642,-0.036 0.961,-0.107 C 3.198,2.74 3.483,2.606 3.736,2.409 3.988,2.211 4.195,1.932 4.355,1.569 4.517,1.207 4.597,0.73 4.597,0.138 c 0,-0.312 -0.028,-0.654 -0.083,-1.026 h -4.529 c 0,-0.412 0.043,-0.779 0.127,-1.1 0.086,-0.322 0.218,-0.593 0.397,-0.813 0.179,-0.22 0.411,-0.388 0.698,-0.505 0.287,-0.117 0.637,-0.176 1.05,-0.176 0.321,0 0.64,0.056 0.96,0.169 0.318,0.112 0.558,0.244 0.719,0.396 L 4.355,-3.736 C 4.076,-3.961 3.721,-4.14 3.292,-4.273 c -0.429,-0.133 -0.882,-0.2 -1.358,-0.2 -0.538,0 -1.003,0.087 -1.398,0.262 -0.394,0.174 -0.718,0.424 -0.97,0.75 -0.253,0.325 -0.44,0.713 -0.564,1.163 -0.124,0.449 -0.186,0.957 -0.186,1.52"
             style="fill:#ffffff;fill-opacity:1;fill-rule:nonzero;stroke:none"
             id="path124"
             inkscape:connector-curvature="0" /></g><g
           id="g126"
           transform="translate(228.1875,2.9866)"><path
             d="M 0,0 V 7.047 H 0.785 L 0.998,6.186 H 1.053 C 1.278,6.489 1.58,6.737 1.962,6.93 2.343,7.122 2.797,7.219 3.324,7.219 3.709,7.219 4.048,7.174 4.34,7.084 4.63,6.995 4.872,6.837 5.065,6.61 5.258,6.383 5.404,6.079 5.502,5.698 5.601,5.317 5.649,4.835 5.649,4.253 V 0 H 4.521 V 4.019 C 4.521,4.753 4.416,5.304 4.204,5.674 3.994,6.043 3.606,6.228 3.042,6.228 2.542,6.228 2.13,6.094 1.807,5.825 1.483,5.557 1.257,5.221 1.129,4.817 V 0 Z"
             style="fill:#ffffff;fill-opacity:1;fill-rule:nonzero;stroke:none"
             id="path128"
             inkscape:connector-curvature="0" /></g><g
           id="g130"
           transform="translate(237.0469,6.5096)"><path
             d="M 0,0 C 0,1.193 0.264,2.107 0.79,2.743 1.318,3.378 2.075,3.696 3.062,3.696 3.512,3.696 3.894,3.66 4.208,3.589 4.521,3.518 4.807,3.416 5.063,3.283 L 4.733,2.313 C 4.519,2.437 4.279,2.533 4.019,2.602 3.757,2.67 3.475,2.705 3.172,2.705 1.837,2.705 1.169,1.803 1.169,0 c 0,-0.357 0.036,-0.698 0.106,-1.021 0.072,-0.324 0.19,-0.611 0.356,-0.861 0.164,-0.25 0.381,-0.45 0.646,-0.598 0.266,-0.15 0.597,-0.224 0.992,-0.224 0.338,0 0.642,0.052 0.911,0.155 0.268,0.103 0.487,0.221 0.657,0.355 L 5.202,-3.055 C 4.922,-3.262 4.59,-3.42 4.204,-3.53 3.819,-3.64 3.415,-3.695 2.992,-3.695 2.447,-3.695 1.985,-3.608 1.609,-3.434 1.233,-3.259 0.925,-3.009 0.684,-2.683 0.443,-2.358 0.269,-1.968 0.161,-1.514 0.053,-1.059 0,-0.555 0,0"
             style="fill:#ffffff;fill-opacity:1;fill-rule:nonzero;stroke:none"
             id="path132"
             inkscape:connector-curvature="0" /></g><g
           id="g134"
           transform="translate(244.5771,10.0335)"><path
             d="M 0,0 H 1.294 L 2.987,-4.569 3.379,-5.918 H 3.448 L 3.758,-4.556 5.127,0 H 6.256 L 4.173,-6.328 C 4.017,-6.787 3.862,-7.232 3.707,-7.665 3.553,-8.096 3.383,-8.481 3.196,-8.821 3.011,-9.161 2.8,-9.432 2.563,-9.634 2.327,-9.836 2.056,-9.937 1.748,-9.937 c -0.34,0 -0.617,0.048 -0.833,0.144 l 0.193,0.971 c 0.124,-0.046 0.243,-0.069 0.358,-0.069 0.261,0 0.513,0.139 0.757,0.416 0.243,0.278 0.445,0.753 0.605,1.428 z"
             style="fill:#ffffff;fill-opacity:1;fill-rule:nonzero;stroke:none"
             id="path136"
             inkscape:connector-curvature="0" /></g><g
           id="g138"
           transform="translate(120.9688,64.5672)"><path
             d="m 0,0 h -22.882 v -9.095 h 18.335 v -11.221 h -18.335 v -20.315 h -13.202 v 51.853 h 13.202 l 22.882,0 z"
             style="fill:#ffffff;fill-opacity:1;fill-rule:nonzero;stroke:none"
             id="path140"
             inkscape:connector-curvature="0" /></g><g
           id="g142"
           transform="translate(136.6611,45.3435)"><path
             d="M 0,0 H 9.334 L 4.668,14.667 Z M 11.927,30.445 29.038,-21.408 H 16.149 l -3.408,10.593 H -3.481 l -3.333,-10.593 h -12.963 l 17.184,51.853 z"
             style="fill:#ffffff;fill-opacity:1;fill-rule:nonzero;stroke:none"
             id="path144"
             inkscape:connector-curvature="0" /></g><g
           id="g146"
           transform="translate(192.9873,59.3601)"><path
             d="m 0,0 v 0.953 c 0,1.418 -0.599,2.628 -1.797,3.63 -1.198,1.002 -2.653,1.504 -4.364,1.504 -1.76,0 -3.264,-0.502 -4.51,-1.504 -1.247,-1.002 -1.87,-2.212 -1.87,-3.63 0,-1.419 0.634,-2.47 1.906,-3.154 1.222,-0.832 2.885,-1.515 4.988,-2.053 0.341,-0.05 0.72,-0.123 1.136,-0.22 0.415,-0.099 0.844,-0.196 1.284,-0.294 5.231,-1.271 8.728,-2.713 10.488,-4.326 l 0.66,-0.588 c 1.467,-1.418 2.628,-3.105 3.483,-5.06 0.856,-1.956 1.284,-3.913 1.284,-5.867 0,-2.201 -0.477,-4.303 -1.43,-6.308 -0.953,-2.005 -2.335,-3.789 -4.144,-5.354 -1.809,-1.516 -3.863,-2.676 -6.16,-3.483 -2.299,-0.807 -4.694,-1.21 -7.188,-1.21 -2.494,0 -4.877,0.403 -7.151,1.21 -2.273,0.807 -4.315,1.967 -6.124,3.483 -1.809,1.565 -3.203,3.349 -4.18,5.354 -0.979,2.005 -1.467,4.107 -1.467,6.308 v 0.954 h 12.835 v -0.954 c 0,-1.419 0.598,-2.629 1.797,-3.63 1.197,-1.004 2.628,-1.505 4.29,-1.505 1.76,0 3.263,0.501 4.51,1.505 1.247,1.001 1.87,2.211 1.87,3.63 0,1.124 -0.66,2.2 -1.979,3.227 -0.587,0.44 -1.272,0.806 -2.054,1.1 -0.783,0.294 -1.736,0.587 -2.86,0.88 l -2.421,0.587 c -2.689,0.684 -4.792,1.295 -6.307,1.833 -1.516,0.538 -2.91,1.368 -4.18,2.494 l -0.293,0.293 c -1.663,1.515 -2.948,3.228 -3.852,5.134 -0.904,1.907 -1.356,3.912 -1.356,6.014 0,2.2 0.488,4.302 1.467,6.308 0.977,2.004 2.371,3.788 4.18,5.354 1.809,1.515 3.851,2.676 6.124,3.483 2.274,0.807 4.657,1.21 7.151,1.21 2.494,0 4.889,-0.403 7.188,-1.21 2.297,-0.807 4.351,-1.968 6.16,-3.483 1.809,-1.566 3.191,-3.35 4.144,-5.354 0.953,-2.006 1.43,-4.108 1.43,-6.308 l 0,-0.953 z"
             style="fill:#ffffff;fill-opacity:1;fill-rule:nonzero;stroke:none"
             id="path148"
             inkscape:connector-curvature="0" /></g><g
           id="g150"
           transform="translate(239.3037,63.4305)"><path
             d="M 0,0 C -0.953,1.05 -2.115,1.625 -3.483,1.724 H -15.659 V -9.278 h 12.176 c 1.368,0.097 2.53,0.697 3.483,1.797 0.954,1.1 1.431,2.359 1.431,3.777 C 1.431,-2.287 0.954,-1.052 0,0 m 5.061,10.195 c 2.468,-1.443 4.423,-3.4 5.868,-5.868 1.44,-2.47 2.162,-5.17 2.162,-8.104 0,-2.934 -0.722,-5.636 -2.162,-8.104 -1.445,-2.47 -3.4,-4.426 -5.868,-5.868 -2.469,-1.442 -5.171,-2.164 -8.105,-2.164 H -15.365 V -39.495 H -27.76 v 51.853 h 24.716 c 2.934,0 5.636,-0.722 8.105,-2.163"
             style="fill:#ffffff;fill-opacity:1;fill-rule:nonzero;stroke:none"
             id="path152"
             inkscape:connector-curvature="0" /></g></g></g></g></svg>