<?xml version="1.0" encoding="UTF-8" standalone="no"?>
<svg
   xmlns:dc="http://purl.org/dc/elements/1.1/"
   xmlns:cc="http://creativecommons.org/ns#"
   xmlns:rdf="http://www.w3.org/1999/02/22-rdf-syntax-ns#"
   xmlns:svg="http://www.w3.org/2000/svg"
   xmlns="http://www.w3.org/2000/svg"
   xmlns:sodipodi="http://sodipodi.sourceforge.net/DTD/sodipodi-0.dtd"
   xmlns:inkscape="http://www.inkscape.org/namespaces/inkscape"
   width="252.395pt"
   height="54.2724pt"
   viewBox="0 0 252.395 54.2724"
   version="1.2"
   id="svg420"
   sodipodi:docname="footer-en-logo.svg"
   inkscape:version="0.92.3 (2405546, 2018-03-11)">
  <metadata
     id="metadata424">
    <rdf:RDF>
      <cc:Work
         rdf:about="">
        <dc:format>image/svg+xml</dc:format>
        <dc:type
           rdf:resource="http://purl.org/dc/dcmitype/StillImage" />
        <dc:title></dc:title>
      </cc:Work>
    </rdf:RDF>
  </metadata>
  <sodipodi:namedview
     pagecolor="#ffffff"
     bordercolor="#666666"
     borderopacity="1"
     objecttolerance="10"
     gridtolerance="10"
     guidetolerance="10"
     inkscape:pageopacity="0"
     inkscape:pageshadow="2"
     inkscape:window-width="640"
     inkscape:window-height="480"
     id="namedview422"
     showgrid="false"
     inkscape:zoom="1.1291824"
     inkscape:cx="168.26334"
     inkscape:cy="36.1816"
     inkscape:window-x="0"
     inkscape:window-y="0"
     inkscape:window-maximized="0"
     inkscape:current-layer="svg420" />
  <defs
     id="defs401">
    <clipPath
       id="clip1">
      <path
         d="M 167 0 L 206 0 L 206 54.273438 L 167 54.273438 Z M 167 0 "
         id="path395" />
    </clipPath>
    <clipPath
       id="clip2">
      <path
         d="M 211 0 L 252.394531 0 L 252.394531 53 L 211 53 Z M 211 0 "
         id="path398" />
    </clipPath>
  </defs>
  <g
     id="surface263243">
    <path
       style=" stroke:none;fill-rule:nonzero;fill:rgb(100%,100%,100%);fill-opacity:1;"
       d="M 8.128906 38.789063 L 0 52.914063 L 60.242188 52.914063 L 51.609375 38.789063 Z M 8.128906 38.789063 "
       id="path403" />
    <path
       style=" stroke:none;fill-rule:nonzero;fill:rgb(100%,100%,100%);fill-opacity:1;"
       d="M 44.496094 25.722656 L 30.121094 0.742188 L 15.679688 25.722656 Z M 44.496094 25.722656 "
       id="path405" />
    <path
       style=" stroke:none;fill-rule:nonzero;fill:rgb(100%,100%,100%);fill-opacity:1;"
       d="M 120.96875 12.101563 L 98.085938 12.101563 L 98.085938 21.195313 L 116.421875 21.195313 L 116.421875 32.417969 L 98.085938 32.417969 L 98.085938 52.730469 L 84.886719 52.730469 L 84.886719 0.878906 L 120.96875 0.878906 Z M 120.96875 12.101563 "
       id="path407" />
    <path
       style=" stroke:none;fill-rule:nonzero;fill:rgb(100%,100%,100%);fill-opacity:1;"
       d="M 136.660156 31.324219 L 145.996094 31.324219 L 141.328125 16.65625 Z M 148.589844 0.878906 L 165.699219 52.734375 L 152.808594 52.734375 L 149.402344 42.140625 L 133.179688 42.140625 L 129.847656 52.734375 L 116.882813 52.734375 L 134.066406 0.878906 Z M 148.589844 0.878906 "
       id="path409" />
    <g
       clip-path="url(#clip1)"
       clip-rule="nonzero"
       id="g413">
      <path
         style=" stroke:none;fill-rule:nonzero;fill:rgb(100%,100%,100%);fill-opacity:1;"
         d="M 192.988281 17.308594 L 192.988281 16.355469 C 192.988281 14.9375 192.386719 13.726563 191.191406 12.726563 C 189.992188 11.722656 188.539063 11.222656 186.828125 11.222656 C 185.066406 11.222656 183.5625 11.722656 182.316406 12.726563 C 181.070313 13.726563 180.445313 14.9375 180.445313 16.355469 C 180.445313 17.773438 181.082031 18.824219 182.351563 19.507813 C 183.574219 20.339844 185.238281 21.023438 187.339844 21.5625 C 187.679688 21.613281 188.058594 21.683594 188.476563 21.78125 C 188.890625 21.882813 189.320313 21.976563 189.761719 22.074219 C 194.992188 23.347656 198.488281 24.789063 200.25 26.402344 L 200.910156 26.988281 C 202.375 28.40625 203.535156 30.09375 204.390625 32.050781 C 205.246094 34.007813 205.675781 35.964844 205.675781 37.917969 C 205.675781 40.117188 205.199219 42.21875 204.246094 44.226563 C 203.292969 46.230469 201.910156 48.015625 200.101563 49.578125 C 198.292969 51.09375 196.238281 52.253906 193.941406 53.0625 C 191.640625 53.867188 189.246094 54.273438 186.753906 54.273438 C 184.257813 54.273438 181.875 53.867188 179.601563 53.0625 C 177.328125 52.253906 175.289063 51.09375 173.476563 49.578125 C 171.667969 48.015625 170.273438 46.230469 169.296875 44.226563 C 168.320313 42.21875 167.832031 40.117188 167.832031 37.917969 L 167.832031 36.964844 L 180.667969 36.964844 L 180.667969 37.917969 C 180.667969 39.335938 181.265625 40.546875 182.464844 41.546875 C 183.660156 42.550781 185.089844 43.050781 186.753906 43.050781 C 188.511719 43.050781 190.015625 42.550781 191.261719 41.546875 C 192.511719 40.546875 193.132813 39.335938 193.132813 37.917969 C 193.132813 36.792969 192.472656 35.71875 191.15625 34.691406 C 190.566406 34.25 189.882813 33.882813 189.101563 33.589844 C 188.316406 33.296875 187.363281 33.003906 186.242188 32.710938 L 183.820313 32.125 C 181.128906 31.4375 179.027344 30.828125 177.511719 30.289063 C 175.996094 29.753906 174.601563 28.921875 173.332031 27.796875 L 173.039063 27.503906 C 171.375 25.988281 170.089844 24.273438 169.1875 22.367188 C 168.285156 20.460938 167.832031 18.457031 167.832031 16.355469 C 167.832031 14.15625 168.320313 12.054688 169.296875 10.046875 C 170.273438 8.042969 171.667969 6.257813 173.476563 4.691406 C 175.289063 3.179688 177.328125 2.015625 179.601563 1.210938 C 181.875 0.402344 184.257813 0 186.753906 0 C 189.246094 0 191.640625 0.402344 193.941406 1.210938 C 196.238281 2.015625 198.292969 3.179688 200.101563 4.691406 C 201.910156 6.257813 203.292969 8.042969 204.246094 10.046875 C 205.199219 12.054688 205.675781 14.15625 205.675781 16.355469 L 205.675781 17.308594 Z M 192.988281 17.308594 "
         id="path411" />
    </g>
    <g
       clip-path="url(#clip2)"
       clip-rule="nonzero"
       id="g417">
      <path
         style=" stroke:none;fill-rule:nonzero;fill:rgb(100%,100%,100%);fill-opacity:1;"
         d="M 239.304688 13.238281 C 238.351563 12.1875 237.1875 11.613281 235.820313 11.515625 L 223.644531 11.515625 L 223.644531 22.515625 L 235.820313 22.515625 C 237.1875 22.417969 238.351563 21.820313 239.304688 20.71875 C 240.257813 19.617188 240.734375 18.359375 240.734375 16.941406 C 240.734375 15.523438 240.257813 14.289063 239.304688 13.238281 M 244.363281 3.042969 C 246.832031 4.484375 248.789063 6.441406 250.234375 8.910156 C 251.671875 11.378906 252.394531 14.082031 252.394531 17.015625 C 252.394531 19.949219 251.671875 22.652344 250.234375 25.117188 C 248.789063 27.589844 246.832031 29.542969 244.363281 30.988281 C 241.894531 32.429688 239.195313 33.152344 236.257813 33.152344 L 223.9375 33.152344 L 223.9375 52.734375 L 211.542969 52.734375 L 211.542969 0.878906 L 236.257813 0.878906 C 239.195313 0.878906 241.894531 1.601563 244.363281 3.042969 "
         id="path415" />
    </g>
  </g>
</svg>
