<?xml version="1.0" encoding="UTF-8" standalone="no"?>
<svg
   xmlns:dc="http://purl.org/dc/elements/1.1/"
   xmlns:cc="http://creativecommons.org/ns#"
   xmlns:rdf="http://www.w3.org/1999/02/22-rdf-syntax-ns#"
   xmlns:svg="http://www.w3.org/2000/svg"
   xmlns="http://www.w3.org/2000/svg"
   id="svg574"
   version="1.2"
   viewBox="0 0 248.46094 53.425779"
   height="53.425781pt"
   width="248.46094pt">
  <metadata
     id="metadata578">
    <rdf:RDF>
      <cc:Work
         rdf:about="">
        <dc:format>image/svg+xml</dc:format>
        <dc:type
           rdf:resource="http://purl.org/dc/dcmitype/StillImage" />
        <dc:title></dc:title>
      </cc:Work>
    </rdf:RDF>
  </metadata>
  <defs
     id="defs453">
    <clipPath
       id="clip1">
      <path
         id="path444"
         d="m 368,22 h 8.66406 V 33 H 368 Z m 0,0" />
    </clipPath>
    <clipPath
       id="clip2">
      <path
         id="path447"
         d="m 206,65 h 7 v 10.472656 h -7 z m 0,0" />
    </clipPath>
    <clipPath
       id="clip3">
      <path
         id="path450"
         d="m 240,65 h 7 v 10.472656 h -7 z m 0,0" />
    </clipPath>
  </defs>
  <g
     id="surface268814">
    <path
       id="path499"
       d="M 8,38.1875 0,52.089844 h 59.304688 l -8.5,-13.902344 z m 0,0"
       style="fill:#1975ba;fill-opacity:1;fill-rule:nonzero;stroke:none" />
    <path
       id="path501"
       d="M 43.800781,25.320313 29.652344,0.730469 15.4375,25.320313 Z m 0,0"
       style="fill:#172854;fill-opacity:1;fill-rule:nonzero;stroke:none" />
    <path
       id="path565"
       d="M 119.08203,11.910156 H 96.558594 v 8.953125 H 114.60547 V 31.910156 H 96.558594 v 20 H 83.5625 V 0.867188 h 35.51953 z m 0,0"
       style="fill:#172854;fill-opacity:1;fill-rule:nonzero;stroke:none" />
    <path
       id="path567"
       d="m 134.53125,30.835938 h 9.1875 l -4.59375,-14.4375 z m 11.73828,-29.96875 16.84766,51.042968 h -12.69141 l -3.35156,-10.429687 h -15.97266 l -3.28125,10.429687 H 115.0625 L 131.97656,0.867188 Z m 0,0"
       style="fill:#172854;fill-opacity:1;fill-rule:nonzero;stroke:none" />
    <path
       id="path569"
       d="m 189.97656,17.039063 v -0.9375 c 0,-1.398438 -0.58984,-2.589844 -1.76953,-3.574219 -1.17578,-0.988281 -2.60937,-1.480469 -4.29297,-1.480469 -1.73437,0 -3.21484,0.492188 -4.4414,1.480469 -1.22657,0.984375 -1.83985,2.175781 -1.83985,3.574219 0,1.394531 0.625,2.429687 1.875,3.101562 1.20313,0.820313 2.83985,1.492188 4.91016,2.023438 0.33594,0.04687 0.71094,0.121093 1.12109,0.214843 0.40625,0.09766 0.82813,0.195313 1.26172,0.289063 5.14844,1.253906 8.59375,2.671875 10.32422,4.261719 l 0.65234,0.578125 c 1.44141,1.394531 2.58594,3.054687 3.42578,4.980468 0.84375,1.925782 1.26563,3.851563 1.26563,5.773438 0,2.167969 -0.46875,4.238281 -1.40625,6.210937 -0.94141,1.976563 -2.30078,3.730469 -4.08203,5.269532 -1.78125,1.492187 -3.80469,2.636718 -6.0625,3.429687 -2.26563,0.792969 -4.6211,1.191406 -7.07813,1.191406 -2.45312,0 -4.80078,-0.398437 -7.03906,-1.191406 -2.23828,-0.792969 -4.24609,-1.9375 -6.02734,-3.429687 -1.78125,-1.539063 -3.15235,-3.292969 -4.11719,-5.269532 -0.96094,-1.972656 -1.44141,-4.042968 -1.44141,-6.210937 v -0.9375 h 12.63282 v 0.9375 c 0,1.398437 0.58984,2.589844 1.76953,3.574219 1.17968,0.988281 2.58593,1.480468 4.22265,1.480468 1.73438,0 3.21485,-0.492187 4.44141,-1.480468 1.22656,-0.984375 1.83984,-2.175782 1.83984,-3.574219 0,-1.105469 -0.64843,-2.164063 -1.94922,-3.175781 -0.57812,-0.433594 -1.25,-0.792969 -2.01953,-1.082032 -0.77343,-0.289062 -1.71093,-0.578125 -2.8164,-0.867187 l -2.38282,-0.578125 c -2.64843,-0.671875 -4.71875,-1.273438 -6.20703,-1.804688 -1.49609,-0.527343 -2.86718,-1.34375 -4.11718,-2.453125 l -0.28907,-0.289062 c -1.63672,-1.492188 -2.89843,-3.175781 -3.78906,-5.054688 -0.89062,-1.875 -1.33594,-3.851562 -1.33594,-5.917968 0,-2.167969 0.48047,-4.238282 1.44141,-6.210938 0.96484,-1.972656 2.33594,-3.730469 4.11719,-5.269531 1.78125,-1.492188 3.78906,-2.636719 6.02734,-3.429688 C 179.03906,0.398438 181.38672,0 183.83984,0 c 2.45703,0 4.8125,0.398438 7.07813,1.191406 2.25781,0.792969 4.28125,1.9375 6.0625,3.429688 1.78125,1.539062 3.14062,3.296875 4.08203,5.269531 0.9375,1.972656 1.40625,4.042969 1.40625,6.210938 v 0.9375 z m 0,0"
       style="fill:#172854;fill-opacity:1;fill-rule:nonzero;stroke:none" />
    <path
       id="path571"
       d="m 235.57422,13.03125 c -0.94141,-1.035156 -2.08594,-1.601562 -3.42969,-1.695312 h -11.98828 v 10.828125 h 11.98828 c 1.34375,-0.09375 2.48828,-0.6875 3.42969,-1.769532 0.9375,-1.082031 1.40625,-2.320312 1.40625,-3.71875 0,-1.394531 -0.46875,-2.609375 -1.40625,-3.644531 m 4.98047,-10.035156 c 2.42968,1.421875 4.35547,3.347656 5.77734,5.777344 1.41797,2.429687 2.12891,5.085937 2.12891,7.976562 0,2.886719 -0.71094,5.546875 -2.12891,7.976563 -1.42187,2.429687 -3.34766,4.359375 -5.77734,5.777343 -2.42969,1.417969 -5.08985,2.128907 -7.98047,2.128907 H 220.44531 V 51.910156 H 208.24609 V 0.863281 h 24.32813 c 2.89062,0 5.55078,0.714844 7.98047,2.132813"
       style="fill:#172854;fill-opacity:1;fill-rule:nonzero;stroke:none" />
  </g>
</svg>
