<?xml version="1.0" encoding="UTF-8" standalone="no"?>
<svg
   xmlns:dc="http://purl.org/dc/elements/1.1/"
   xmlns:cc="http://creativecommons.org/ns#"
   xmlns:rdf="http://www.w3.org/1999/02/22-rdf-syntax-ns#"
   xmlns:svg="http://www.w3.org/2000/svg"
   xmlns="http://www.w3.org/2000/svg"
   id="svg720"
   version="1.2"
   viewBox="0 0 384.126 74.8047"
   height="74.8047pt"
   width="384.126pt">
  <metadata
     id="metadata724">
    <rdf:RDF>
      <cc:Work
         rdf:about="">
        <dc:format>image/svg+xml</dc:format>
        <dc:type
           rdf:resource="http://purl.org/dc/dcmitype/StillImage" />
        <dc:title></dc:title>
      </cc:Work>
    </rdf:RDF>
  </metadata>
  <defs
     id="defs589">
    <clipPath
       id="clip1">
      <path
         id="path580"
         d="M 182 64 L 189 64 L 189 74.804688 L 182 74.804688 Z M 182 64 " />
    </clipPath>
    <clipPath
       id="clip2">
      <path
         id="path583"
         d="M 188 65 L 196 65 L 196 74.804688 L 188 74.804688 Z M 188 65 " />
    </clipPath>
    <clipPath
       id="clip3">
      <path
         id="path586"
         d="M 376 22 L 384.125 22 L 384.125 33 L 376 33 Z M 376 22 " />
    </clipPath>
  </defs>
  <g
     id="surface274709">
    <path
       id="path591"
       d="M 8.066406 37.621094 L 0.0703125 51.523438 L 59.359375 51.523438 L 50.859375 37.621094 Z M 8.066406 37.621094 "
       style=" stroke:none;fill-rule:nonzero;fill:rgb(10.588074%,46.273804%,72.941589%);fill-opacity:1;" />
    <path
       id="path593"
       d="M 15.5 24.761719 L 43.859375 24.761719 L 29.710938 0.175781 Z M 15.5 24.761719 "
       style=" stroke:none;fill-rule:nonzero;fill:rgb(10.195923%,16.470337%,33.332825%);fill-opacity:1;" />
    <path
       id="path595"
       d="M 5.429688 69.929688 C 5.523438 69.945313 5.644531 69.957031 5.796875 69.960938 C 5.949219 69.96875 6.097656 69.96875 6.242188 69.96875 C 6.558594 69.96875 6.851563 69.910156 7.125 69.789063 C 7.398438 69.671875 7.636719 69.484375 7.84375 69.234375 C 8.050781 68.984375 8.214844 68.671875 8.332031 68.292969 C 8.453125 67.914063 8.511719 67.46875 8.511719 66.964844 C 8.511719 66.542969 8.464844 66.152344 8.367188 65.796875 C 8.269531 65.441406 8.132813 65.132813 7.953125 64.871094 C 7.773438 64.613281 7.554688 64.417969 7.296875 64.285156 C 7.039063 64.152344 6.75 64.082031 6.425781 64.082031 C 6.292969 64.082031 6.128906 64.089844 5.925781 64.097656 C 5.722656 64.105469 5.558594 64.132813 5.429688 64.179688 Z M 1.21875 67.101563 C 1.21875 67.542969 1.269531 67.941406 1.371094 68.296875 C 1.472656 68.65625 1.617188 68.957031 1.804688 69.207031 C 1.996094 69.457031 2.222656 69.648438 2.488281 69.777344 C 2.75 69.90625 3.042969 69.96875 3.367188 69.96875 L 3.554688 69.96875 C 3.632813 69.96875 3.71875 69.96875 3.8125 69.960938 C 3.902344 69.957031 3.992188 69.949219 4.078125 69.9375 C 4.164063 69.921875 4.238281 69.90625 4.308594 69.886719 L 4.308594 64.136719 C 4.195313 64.121094 4.058594 64.105469 3.898438 64.097656 C 3.738281 64.089844 3.59375 64.082031 3.460938 64.082031 C 3.148438 64.082031 2.855469 64.144531 2.582031 64.269531 C 2.308594 64.394531 2.070313 64.582031 1.867188 64.839844 C 1.664063 65.09375 1.507813 65.410156 1.390625 65.789063 C 1.277344 66.167969 1.21875 66.605469 1.21875 67.101563 M 0 67.101563 C 0 66.472656 0.0820313 65.914063 0.246094 65.417969 C 0.410156 64.925781 0.640625 64.507813 0.945313 64.164063 C 1.246094 63.820313 1.605469 63.558594 2.023438 63.378906 C 2.441406 63.199219 2.910156 63.109375 3.421875 63.109375 C 3.542969 63.109375 3.695313 63.113281 3.871094 63.121094 C 4.050781 63.132813 4.191406 63.148438 4.292969 63.167969 L 4.292969 61.96875 L 5.445313 61.96875 L 5.445313 63.210938 C 5.613281 63.164063 5.808594 63.136719 6.035156 63.125 C 6.257813 63.113281 6.445313 63.109375 6.59375 63.109375 C 7.039063 63.109375 7.453125 63.191406 7.835938 63.351563 C 8.21875 63.515625 8.550781 63.753906 8.835938 64.074219 C 9.121094 64.390625 9.339844 64.792969 9.496094 65.277344 C 9.652344 65.761719 9.734375 66.324219 9.734375 66.964844 C 9.734375 67.621094 9.644531 68.199219 9.460938 68.699219 C 9.285156 69.195313 9.039063 69.613281 8.730469 69.949219 C 8.421875 70.28125 8.0625 70.53125 7.652344 70.699219 C 7.242188 70.863281 6.808594 70.945313 6.34375 70.945313 C 6.242188 70.945313 6.089844 70.9375 5.890625 70.925781 C 5.691406 70.910156 5.542969 70.886719 5.445313 70.851563 L 5.445313 72.230469 L 4.292969 72.230469 L 4.292969 70.875 C 4.136719 70.902344 3.953125 70.921875 3.746094 70.929688 C 3.539063 70.941406 3.34375 70.945313 3.160156 70.945313 C 2.722656 70.945313 2.3125 70.871094 1.921875 70.722656 C 1.535156 70.578125 1.203125 70.347656 0.917969 70.03125 C 0.632813 69.71875 0.410156 69.320313 0.246094 68.832031 C 0.0820313 68.347656 0 67.769531 0 67.101563 "
       style=" stroke:none;fill-rule:nonzero;fill:rgb(10.588074%,46.273804%,72.941589%);fill-opacity:1;" />
    <path
       id="path597"
       d="M 11.316406 71.960938 L 11.316406 65.027344 L 12.429688 65.027344 L 12.429688 69.257813 L 12.378906 70.070313 L 12.441406 70.070313 L 12.976563 69.210938 L 16.097656 65.027344 L 16.753906 65.027344 L 16.753906 71.960938 L 15.644531 71.960938 L 15.644531 67.855469 L 15.6875 66.996094 L 15.644531 66.996094 L 15.074219 67.882813 L 11.953125 71.960938 Z M 11.316406 71.960938 "
       style=" stroke:none;fill-rule:nonzero;fill:rgb(10.588074%,46.273804%,72.941589%);fill-opacity:1;" />
    <path
       id="path599"
       d="M 18.890625 71.960938 L 18.890625 65.027344 L 20 65.027344 L 20 67.917969 L 23.128906 67.917969 L 23.128906 65.027344 L 24.238281 65.027344 L 24.238281 71.960938 L 23.128906 71.960938 L 23.128906 68.890625 L 20 68.890625 L 20 71.960938 Z M 18.890625 71.960938 "
       style=" stroke:none;fill-rule:nonzero;fill:rgb(10.588074%,46.273804%,72.941589%);fill-opacity:1;" />
    <path
       id="path601"
       d="M 26.996094 69.984375 C 26.996094 70.308594 27.109375 70.578125 27.339844 70.785156 C 27.570313 70.992188 27.867188 71.09375 28.226563 71.09375 C 28.484375 71.09375 28.71875 71.058594 28.925781 70.992188 C 29.128906 70.925781 29.300781 70.835938 29.449219 70.730469 C 29.597656 70.621094 29.71875 70.503906 29.820313 70.378906 C 29.917969 70.246094 29.988281 70.121094 30.03125 70 L 30.03125 68.851563 C 29.898438 68.84375 29.769531 68.835938 29.636719 68.832031 C 29.5 68.828125 29.371094 68.824219 29.242188 68.824219 C 28.960938 68.824219 28.679688 68.839844 28.40625 68.871094 C 28.132813 68.902344 27.890625 68.964844 27.679688 69.054688 C 27.472656 69.140625 27.308594 69.257813 27.183594 69.414063 C 27.058594 69.566406 26.996094 69.757813 26.996094 69.984375 M 25.84375 70.105469 C 25.84375 69.699219 25.925781 69.355469 26.09375 69.082031 C 26.261719 68.8125 26.496094 68.59375 26.792969 68.433594 C 27.09375 68.269531 27.457031 68.15625 27.875 68.085938 C 28.296875 68.019531 28.761719 67.984375 29.269531 67.976563 L 29.652344 67.976563 C 29.777344 67.976563 29.902344 67.988281 30.03125 68.003906 C 30.054688 67.730469 30.074219 67.484375 30.078125 67.261719 C 30.078125 66.753906 29.972656 66.398438 29.765625 66.195313 C 29.5625 65.992188 29.195313 65.890625 28.660156 65.890625 C 28.503906 65.890625 28.332031 65.902344 28.152344 65.925781 C 27.972656 65.949219 27.789063 65.980469 27.597656 66.019531 C 27.410156 66.0625 27.226563 66.113281 27.054688 66.175781 C 26.882813 66.234375 26.734375 66.300781 26.609375 66.378906 L 26.257813 65.542969 C 26.609375 65.332031 27.019531 65.171875 27.488281 65.066406 C 27.953125 64.960938 28.441406 64.914063 28.953125 64.917969 C 29.429688 64.917969 29.816406 64.980469 30.109375 65.105469 C 30.40625 65.238281 30.625 65.40625 30.773438 65.617188 C 30.925781 65.824219 31.03125 66.050781 31.078125 66.300781 C 31.128906 66.550781 31.152344 66.800781 31.152344 67.054688 C 31.152344 67.605469 31.140625 68.148438 31.113281 68.675781 C 31.085938 69.203125 31.074219 69.699219 31.074219 70.167969 C 31.074219 70.511719 31.085938 70.835938 31.113281 71.140625 C 31.140625 71.445313 31.191406 71.730469 31.269531 71.988281 L 30.496094 71.988281 L 30.171875 71.011719 L 30.097656 71.011719 C 30.015625 71.144531 29.910156 71.269531 29.777344 71.394531 C 29.652344 71.519531 29.5 71.632813 29.328125 71.726563 C 29.152344 71.828125 28.949219 71.910156 28.71875 71.972656 C 28.488281 72.039063 28.222656 72.070313 27.921875 72.070313 C 27.625 72.070313 27.347656 72.023438 27.097656 71.933594 C 26.84375 71.84375 26.625 71.710938 26.441406 71.539063 C 26.253906 71.371094 26.109375 71.160156 26 70.917969 C 25.890625 70.679688 25.839844 70.40625 25.84375 70.105469 "
       style=" stroke:none;fill-rule:nonzero;fill:rgb(10.588074%,46.273804%,72.941589%);fill-opacity:1;" />
    <path
       id="path603"
       d="M 33.246094 71.960938 L 33.246094 65.027344 L 34.355469 65.027344 L 34.355469 67.917969 L 37.484375 67.917969 L 37.484375 65.027344 L 38.597656 65.027344 L 38.597656 71.960938 L 37.484375 71.960938 L 37.484375 68.890625 L 34.355469 68.890625 L 34.355469 71.960938 Z M 33.246094 71.960938 "
       style=" stroke:none;fill-rule:nonzero;fill:rgb(10.588074%,46.273804%,72.941589%);fill-opacity:1;" />
    <path
       id="path605"
       d="M 40.335938 68.492188 C 40.335938 67.320313 40.597656 66.421875 41.117188 65.796875 C 41.636719 65.175781 42.378906 64.859375 43.351563 64.855469 C 43.792969 64.855469 44.171875 64.890625 44.480469 64.964844 C 44.792969 65.03125 45.074219 65.132813 45.320313 65.261719 L 44.996094 66.21875 C 44.785156 66.09375 44.550781 66 44.292969 65.933594 C 44.035156 65.867188 43.757813 65.832031 43.460938 65.832031 C 42.144531 65.832031 41.488281 66.71875 41.488281 68.492188 C 41.488281 68.84375 41.523438 69.179688 41.597656 69.496094 C 41.664063 69.816406 41.78125 70.097656 41.941406 70.339844 C 42.105469 70.585938 42.316406 70.78125 42.578125 70.929688 C 42.839844 71.078125 43.167969 71.15625 43.554688 71.15625 C 43.886719 71.15625 44.1875 71.105469 44.457031 71.003906 C 44.714844 70.902344 44.929688 70.785156 45.097656 70.652344 L 45.457031 71.5 C 45.183594 71.703125 44.855469 71.859375 44.476563 71.96875 C 44.097656 72.074219 43.699219 72.128906 43.285156 72.128906 C 42.746094 72.128906 42.292969 72.042969 41.921875 71.871094 C 41.550781 71.699219 41.25 71.453125 41.015625 71.132813 C 40.78125 70.8125 40.609375 70.429688 40.5 69.984375 C 40.390625 69.535156 40.335938 69.039063 40.335938 68.492188 "
       style=" stroke:none;fill-rule:nonzero;fill:rgb(10.588074%,46.273804%,72.941589%);fill-opacity:1;" />
    <path
       id="path607"
       d="M 47.421875 68.492188 C 47.421875 68.84375 47.457031 69.183594 47.53125 69.507813 C 47.597656 69.832031 47.707031 70.113281 47.855469 70.347656 C 48.003906 70.585938 48.199219 70.78125 48.4375 70.929688 C 48.675781 71.078125 48.96875 71.15625 49.3125 71.15625 C 50.570313 71.164063 51.199219 70.277344 51.195313 68.492188 C 51.195313 68.132813 51.160156 67.789063 51.09375 67.464844 C 51.023438 67.140625 50.917969 66.859375 50.765625 66.625 C 50.617188 66.382813 50.421875 66.191406 50.183594 66.046875 C 49.945313 65.902344 49.652344 65.832031 49.3125 65.832031 C 48.050781 65.824219 47.421875 66.710938 47.421875 68.492188 M 46.269531 68.492188 C 46.269531 67.320313 46.53125 66.421875 47.054688 65.796875 C 47.578125 65.175781 48.332031 64.859375 49.3125 64.855469 C 49.832031 64.855469 50.28125 64.941406 50.664063 65.113281 C 51.050781 65.285156 51.367188 65.53125 51.613281 65.851563 C 51.863281 66.171875 52.046875 66.554688 52.167969 67.003906 C 52.292969 67.449219 52.347656 67.945313 52.34375 68.492188 C 52.34375 69.667969 52.085938 70.566406 51.566406 71.1875 C 51.042969 71.8125 50.289063 72.125 49.3125 72.128906 C 48.792969 72.128906 48.339844 72.042969 47.957031 71.871094 C 47.574219 71.699219 47.257813 71.453125 47.007813 71.132813 C 46.757813 70.8125 46.574219 70.429688 46.453125 69.984375 C 46.332031 69.535156 46.269531 69.039063 46.269531 68.492188 "
       style=" stroke:none;fill-rule:nonzero;fill:rgb(10.588074%,46.273804%,72.941589%);fill-opacity:1;" />
    <path
       id="path609"
       d="M 55.203125 71.027344 C 55.378906 71.042969 55.550781 71.058594 55.722656 71.066406 C 55.890625 71.074219 56.089844 71.078125 56.320313 71.078125 C 56.9375 71.078125 57.398438 70.992188 57.703125 70.816406 C 58.003906 70.640625 58.15625 70.34375 58.15625 69.917969 C 58.15625 69.585938 58.027344 69.316406 57.773438 69.109375 C 57.519531 68.902344 57.066406 68.796875 56.421875 68.796875 L 55.203125 68.796875 Z M 55.203125 67.949219 L 56.558594 67.949219 C 56.722656 67.949219 56.886719 67.925781 57.046875 67.871094 C 57.203125 67.816406 57.34375 67.742188 57.46875 67.644531 C 57.59375 67.546875 57.695313 67.433594 57.773438 67.304688 C 57.851563 67.171875 57.890625 67.03125 57.890625 66.886719 C 57.890625 66.515625 57.78125 66.261719 57.558594 66.117188 C 57.339844 65.976563 56.949219 65.90625 56.394531 65.90625 C 56.097656 65.90625 55.863281 65.910156 55.691406 65.917969 C 55.519531 65.929688 55.355469 65.9375 55.203125 65.945313 Z M 54.09375 71.945313 L 54.09375 65.039063 C 54.417969 65.023438 54.757813 65 55.113281 64.972656 C 55.464844 64.945313 55.90625 64.929688 56.4375 64.929688 C 57.351563 64.929688 58.007813 65.070313 58.40625 65.355469 C 58.804688 65.636719 59.003906 66.066406 59.003906 66.640625 C 59.003906 66.964844 58.90625 67.28125 58.71875 67.589844 C 58.527344 67.894531 58.214844 68.121094 57.777344 68.269531 L 57.777344 68.324219 C 58.324219 68.425781 58.707031 68.617188 58.933594 68.894531 C 59.15625 69.171875 59.265625 69.539063 59.265625 70 C 59.265625 70.722656 59.007813 71.246094 58.488281 71.570313 C 57.96875 71.894531 57.191406 72.054688 56.15625 72.054688 C 55.769531 72.054688 55.410156 72.042969 55.074219 72.019531 C 54.738281 72 54.414063 71.972656 54.09375 71.945313 "
       style=" stroke:none;fill-rule:nonzero;fill:rgb(10.588074%,46.273804%,72.941589%);fill-opacity:1;" />
    <path
       id="path611"
       d="M 61.765625 68.492188 C 61.765625 68.84375 61.800781 69.183594 61.875 69.507813 C 61.941406 69.832031 62.050781 70.113281 62.199219 70.347656 C 62.347656 70.585938 62.542969 70.78125 62.78125 70.929688 C 63.019531 71.078125 63.3125 71.15625 63.65625 71.15625 C 64.914063 71.164063 65.542969 70.277344 65.539063 68.492188 C 65.539063 68.132813 65.503906 67.789063 65.4375 67.464844 C 65.367188 67.140625 65.261719 66.859375 65.113281 66.625 C 64.960938 66.382813 64.769531 66.191406 64.527344 66.046875 C 64.289063 65.902344 63.996094 65.832031 63.65625 65.832031 C 62.394531 65.824219 61.765625 66.710938 61.765625 68.492188 M 60.613281 68.492188 C 60.613281 67.320313 60.875 66.421875 61.398438 65.796875 C 61.921875 65.175781 62.675781 64.859375 63.65625 64.855469 C 64.175781 64.855469 64.625 64.941406 65.007813 65.113281 C 65.394531 65.285156 65.710938 65.53125 65.957031 65.851563 C 66.207031 66.171875 66.390625 66.554688 66.511719 67.003906 C 66.636719 67.449219 66.695313 67.945313 66.691406 68.492188 C 66.691406 69.667969 66.429688 70.566406 65.910156 71.1875 C 65.386719 71.8125 64.632813 72.125 63.65625 72.128906 C 63.136719 72.128906 62.683594 72.042969 62.300781 71.871094 C 61.917969 71.699219 61.601563 71.453125 61.351563 71.132813 C 61.105469 70.8125 60.917969 70.429688 60.796875 69.984375 C 60.675781 69.535156 60.613281 69.039063 60.613281 68.492188 "
       style=" stroke:none;fill-rule:nonzero;fill:rgb(10.588074%,46.273804%,72.941589%);fill-opacity:1;" />
    <path
       id="path613"
       d="M 69.210938 67.726563 L 72.648438 67.726563 C 72.648438 67.023438 72.515625 66.53125 72.25 66.25 C 71.984375 65.972656 71.605469 65.832031 71.113281 65.832031 C 70.566406 65.832031 70.128906 65.972656 69.796875 66.257813 C 69.46875 66.542969 69.273438 67.03125 69.210938 67.726563 M 68.042969 68.492188 C 68.042969 67.3125 68.308594 66.410156 68.835938 65.789063 C 69.363281 65.171875 70.117188 64.859375 71.097656 64.855469 C 71.414063 64.855469 71.726563 64.894531 72.039063 64.964844 C 72.355469 65.03125 72.636719 65.164063 72.886719 65.359375 C 73.136719 65.550781 73.339844 65.828125 73.496094 66.183594 C 73.652344 66.539063 73.734375 67.007813 73.734375 67.59375 C 73.734375 67.898438 73.707031 68.234375 73.652344 68.601563 L 69.195313 68.601563 C 69.195313 69.007813 69.238281 69.367188 69.324219 69.6875 C 69.40625 70 69.535156 70.269531 69.710938 70.484375 C 69.886719 70.699219 70.113281 70.867188 70.394531 70.984375 C 70.675781 71.101563 71.019531 71.160156 71.429688 71.15625 C 71.746094 71.15625 72.058594 71.101563 72.371094 70.992188 C 72.6875 70.878906 72.925781 70.75 73.082031 70.597656 L 73.496094 71.40625 C 73.21875 71.625 72.871094 71.800781 72.453125 71.933594 C 72.03125 72.066406 71.585938 72.128906 71.113281 72.128906 C 70.585938 72.128906 70.125 72.042969 69.738281 71.871094 C 69.347656 71.699219 69.03125 71.457031 68.78125 71.132813 C 68.535156 70.8125 68.347656 70.433594 68.226563 69.988281 C 68.105469 69.546875 68.042969 69.046875 68.042969 68.492188 "
       style=" stroke:none;fill-rule:nonzero;fill:rgb(10.588074%,46.273804%,72.941589%);fill-opacity:1;" />
    <path
       id="path615"
       d="M 80.253906 68.269531 L 83.113281 68.269531 L 82.027344 65.316406 L 81.683594 63.847656 L 81.671875 63.847656 L 81.324219 65.34375 Z M 77.769531 71.960938 L 81.445313 62.097656 L 81.976563 62.097656 L 85.667969 71.960938 L 84.460938 71.960938 L 83.457031 69.273438 L 79.882813 69.273438 L 78.90625 71.960938 Z M 77.769531 71.960938 "
       style=" stroke:none;fill-rule:nonzero;fill:rgb(10.588074%,46.273804%,72.941589%);fill-opacity:1;" />
    <path
       id="path617"
       d="M 86.84375 71.960938 L 86.84375 65.027344 L 90.894531 65.027344 L 90.894531 66 L 87.957031 66 L 87.957031 71.960938 Z M 86.84375 71.960938 "
       style=" stroke:none;fill-rule:nonzero;fill:rgb(10.588074%,46.273804%,72.941589%);fill-opacity:1;" />
    <path
       id="path619"
       d="M 92.507813 67.726563 L 95.945313 67.726563 C 95.945313 67.023438 95.8125 66.53125 95.546875 66.25 C 95.28125 65.972656 94.902344 65.832031 94.410156 65.832031 C 93.863281 65.832031 93.425781 65.972656 93.09375 66.257813 C 92.765625 66.542969 92.570313 67.03125 92.507813 67.726563 M 91.339844 68.492188 C 91.339844 67.3125 91.605469 66.410156 92.132813 65.789063 C 92.664063 65.171875 93.417969 64.859375 94.394531 64.855469 C 94.710938 64.855469 95.023438 64.894531 95.335938 64.964844 C 95.652344 65.03125 95.933594 65.164063 96.183594 65.359375 C 96.433594 65.550781 96.636719 65.828125 96.792969 66.183594 C 96.953125 66.539063 97.03125 67.007813 97.03125 67.59375 C 97.03125 67.898438 97.003906 68.234375 96.949219 68.601563 L 92.492188 68.601563 C 92.492188 69.007813 92.535156 69.367188 92.621094 69.6875 C 92.703125 70 92.832031 70.269531 93.007813 70.484375 C 93.183594 70.699219 93.410156 70.867188 93.691406 70.984375 C 93.972656 71.101563 94.316406 71.160156 94.726563 71.15625 C 95.042969 71.15625 95.355469 71.101563 95.667969 70.992188 C 95.984375 70.878906 96.222656 70.75 96.378906 70.597656 L 96.792969 71.40625 C 96.515625 71.625 96.171875 71.800781 95.75 71.933594 C 95.332031 72.066406 94.882813 72.128906 94.410156 72.128906 C 93.882813 72.128906 93.421875 72.042969 93.035156 71.871094 C 92.644531 71.699219 92.328125 71.457031 92.078125 71.132813 C 91.832031 70.8125 91.644531 70.433594 91.523438 69.988281 C 91.402344 69.546875 91.339844 69.046875 91.339844 68.492188 "
       style=" stroke:none;fill-rule:nonzero;fill:rgb(10.588074%,46.273804%,72.941589%);fill-opacity:1;" />
    <path
       id="path621"
       d="M 98.777344 71.960938 L 98.777344 65.027344 L 99.886719 65.027344 L 99.886719 67.917969 L 103.015625 67.917969 L 103.015625 65.027344 L 104.128906 65.027344 L 104.128906 71.960938 L 103.015625 71.960938 L 103.015625 68.890625 L 99.886719 68.890625 L 99.886719 71.960938 Z M 98.777344 71.960938 "
       style=" stroke:none;fill-rule:nonzero;fill:rgb(10.588074%,46.273804%,72.941589%);fill-opacity:1;" />
    <path
       id="path623"
       d="M 105.226563 66 L 105.226563 65.027344 L 110.683594 65.027344 L 110.683594 66 L 108.511719 66 L 108.511719 71.960938 L 107.398438 71.960938 L 107.398438 66 Z M 105.226563 66 "
       style=" stroke:none;fill-rule:nonzero;fill:rgb(10.588074%,46.273804%,72.941589%);fill-opacity:1;" />
    <path
       id="path625"
       d="M 111.164063 68.492188 C 111.164063 67.320313 111.425781 66.421875 111.945313 65.796875 C 112.460938 65.175781 113.207031 64.859375 114.179688 64.855469 C 114.621094 64.855469 114.996094 64.890625 115.308594 64.964844 C 115.621094 65.03125 115.902344 65.132813 116.148438 65.261719 L 115.824219 66.21875 C 115.613281 66.09375 115.375 66 115.121094 65.933594 C 114.863281 65.867188 114.585938 65.832031 114.285156 65.832031 C 112.972656 65.832031 112.316406 66.71875 112.316406 68.492188 C 112.316406 68.84375 112.351563 69.179688 112.425781 69.496094 C 112.492188 69.816406 112.605469 70.097656 112.769531 70.339844 C 112.933594 70.585938 113.144531 70.78125 113.40625 70.929688 C 113.667969 71.078125 113.992188 71.15625 114.382813 71.15625 C 114.714844 71.15625 115.015625 71.105469 115.28125 71.003906 C 115.542969 70.902344 115.757813 70.785156 115.925781 70.652344 L 116.285156 71.5 C 116.007813 71.703125 115.679688 71.859375 115.300781 71.96875 C 114.921875 72.074219 114.527344 72.128906 114.109375 72.128906 C 113.574219 72.128906 113.121094 72.042969 112.75 71.871094 C 112.378906 71.699219 112.078125 71.453125 111.839844 71.132813 C 111.605469 70.8125 111.4375 70.429688 111.328125 69.984375 C 111.21875 69.535156 111.164063 69.039063 111.164063 68.492188 "
       style=" stroke:none;fill-rule:nonzero;fill:rgb(10.588074%,46.273804%,72.941589%);fill-opacity:1;" />
    <path
       id="path627"
       d="M 116.546875 66 L 116.546875 65.027344 L 122.007813 65.027344 L 122.007813 66 L 119.832031 66 L 119.832031 71.960938 L 118.722656 71.960938 L 118.722656 66 Z M 116.546875 66 "
       style=" stroke:none;fill-rule:nonzero;fill:rgb(10.588074%,46.273804%,72.941589%);fill-opacity:1;" />
    <path
       id="path629"
       d="M 124.214844 71.027344 C 124.390625 71.042969 124.5625 71.058594 124.734375 71.066406 C 124.902344 71.074219 125.101563 71.078125 125.332031 71.078125 C 125.953125 71.078125 126.414063 70.992188 126.714844 70.816406 C 127.015625 70.640625 127.167969 70.34375 127.167969 69.917969 C 127.167969 69.585938 127.039063 69.316406 126.785156 69.109375 C 126.53125 68.902344 126.082031 68.796875 125.433594 68.796875 L 124.214844 68.796875 Z M 124.214844 67.949219 L 125.570313 67.949219 C 125.734375 67.949219 125.898438 67.925781 126.058594 67.871094 C 126.214844 67.816406 126.355469 67.742188 126.480469 67.644531 C 126.605469 67.546875 126.707031 67.433594 126.785156 67.304688 C 126.863281 67.171875 126.90625 67.03125 126.90625 66.886719 C 126.90625 66.515625 126.792969 66.261719 126.574219 66.117188 C 126.351563 65.976563 125.964844 65.90625 125.40625 65.90625 C 125.109375 65.90625 124.875 65.910156 124.703125 65.917969 C 124.53125 65.929688 124.367188 65.9375 124.214844 65.945313 Z M 123.105469 71.945313 L 123.105469 65.039063 C 123.429688 65.023438 123.769531 65 124.125 64.972656 C 124.476563 64.945313 124.921875 64.929688 125.449219 64.929688 C 126.363281 64.929688 127.019531 65.070313 127.417969 65.355469 C 127.816406 65.636719 128.015625 66.066406 128.015625 66.640625 C 128.015625 66.964844 127.921875 67.28125 127.730469 67.589844 C 127.539063 67.894531 127.226563 68.121094 126.789063 68.269531 L 126.789063 68.324219 C 127.335938 68.425781 127.71875 68.617188 127.945313 68.894531 C 128.167969 69.171875 128.277344 69.539063 128.277344 70 C 128.277344 70.722656 128.019531 71.246094 127.5 71.570313 C 126.980469 71.894531 126.203125 72.054688 125.171875 72.054688 C 124.78125 72.054688 124.421875 72.042969 124.085938 72.019531 C 123.753906 72 123.425781 71.972656 123.105469 71.945313 "
       style=" stroke:none;fill-rule:nonzero;fill:rgb(10.588074%,46.273804%,72.941589%);fill-opacity:1;" />
    <path
       id="path631"
       d="M 130.777344 68.492188 C 130.777344 68.84375 130.8125 69.183594 130.886719 69.507813 C 130.953125 69.832031 131.0625 70.113281 131.210938 70.347656 C 131.359375 70.585938 131.554688 70.78125 131.792969 70.929688 C 132.03125 71.078125 132.324219 71.15625 132.667969 71.15625 C 133.925781 71.164063 134.554688 70.277344 134.550781 68.492188 C 134.550781 68.132813 134.515625 67.789063 134.449219 67.464844 C 134.378906 67.140625 134.273438 66.859375 134.125 66.625 C 133.976563 66.382813 133.78125 66.191406 133.539063 66.046875 C 133.300781 65.902344 133.011719 65.832031 132.667969 65.832031 C 131.40625 65.824219 130.777344 66.710938 130.777344 68.492188 M 129.625 68.492188 C 129.625 67.320313 129.886719 66.421875 130.410156 65.796875 C 130.9375 65.175781 131.6875 64.859375 132.667969 64.855469 C 133.1875 64.855469 133.636719 64.941406 134.023438 65.113281 C 134.40625 65.285156 134.722656 65.53125 134.96875 65.851563 C 135.21875 66.171875 135.402344 66.554688 135.523438 67.003906 C 135.648438 67.449219 135.707031 67.945313 135.703125 68.492188 C 135.703125 69.667969 135.441406 70.566406 134.921875 71.1875 C 134.398438 71.8125 133.648438 72.125 132.667969 72.128906 C 132.148438 72.128906 131.695313 72.042969 131.3125 71.871094 C 130.929688 71.699219 130.613281 71.453125 130.363281 71.132813 C 130.117188 70.8125 129.929688 70.429688 129.808594 69.984375 C 129.6875 69.535156 129.625 69.039063 129.625 68.492188 "
       style=" stroke:none;fill-rule:nonzero;fill:rgb(10.588074%,46.273804%,72.941589%);fill-opacity:1;" />
    <path
       id="path633"
       d="M 141.144531 71.960938 L 141.144531 65.027344 L 146.429688 65.027344 L 146.429688 71.960938 L 145.320313 71.960938 L 145.320313 66 L 142.257813 66 L 142.257813 71.960938 Z M 141.144531 71.960938 "
       style=" stroke:none;fill-rule:nonzero;fill:rgb(10.588074%,46.273804%,72.941589%);fill-opacity:1;" />
    <path
       id="path635"
       d="M 149.320313 68.492188 C 149.320313 68.84375 149.355469 69.183594 149.429688 69.507813 C 149.496094 69.832031 149.605469 70.113281 149.753906 70.347656 C 149.902344 70.585938 150.097656 70.78125 150.335938 70.929688 C 150.578125 71.078125 150.867188 71.15625 151.210938 71.15625 C 152.46875 71.164063 153.097656 70.277344 153.09375 68.492188 C 153.09375 68.132813 153.058594 67.789063 152.992188 67.464844 C 152.925781 67.140625 152.816406 66.859375 152.667969 66.625 C 152.519531 66.382813 152.324219 66.191406 152.085938 66.046875 C 151.84375 65.902344 151.554688 65.832031 151.210938 65.832031 C 149.949219 65.824219 149.320313 66.710938 149.320313 68.492188 M 148.167969 68.492188 C 148.167969 67.320313 148.429688 66.421875 148.957031 65.796875 C 149.480469 65.175781 150.230469 64.859375 151.210938 64.855469 C 151.730469 64.855469 152.179688 64.941406 152.566406 65.113281 C 152.949219 65.285156 153.265625 65.53125 153.511719 65.851563 C 153.761719 66.171875 153.945313 66.554688 154.070313 67.003906 C 154.191406 67.449219 154.25 67.945313 154.246094 68.492188 C 154.246094 69.667969 153.984375 70.566406 153.464844 71.1875 C 152.941406 71.8125 152.191406 72.125 151.210938 72.128906 C 150.691406 72.128906 150.238281 72.042969 149.855469 71.871094 C 149.472656 71.699219 149.15625 71.453125 148.90625 71.132813 C 148.660156 70.8125 148.472656 70.429688 148.351563 69.984375 C 148.230469 69.535156 148.167969 69.039063 148.167969 68.492188 "
       style=" stroke:none;fill-rule:nonzero;fill:rgb(10.588074%,46.273804%,72.941589%);fill-opacity:1;" />
    <path
       id="path637"
       d="M 159.398438 67.109375 C 159.398438 66.199219 159.519531 65.429688 159.765625 64.796875 C 160.007813 64.164063 160.332031 63.648438 160.734375 63.246094 C 161.132813 62.84375 161.585938 62.550781 162.085938 62.363281 C 162.589844 62.179688 163.097656 62.085938 163.609375 62.085938 C 164.167969 62.085938 164.621094 62.117188 164.972656 62.175781 C 165.324219 62.234375 165.625 62.316406 165.871094 62.417969 L 165.59375 63.433594 C 165.152344 63.222656 164.519531 63.117188 163.699219 63.117188 C 163.320313 63.117188 162.945313 63.1875 162.574219 63.324219 C 162.203125 63.464844 161.871094 63.691406 161.578125 64 C 161.285156 64.316406 161.054688 64.730469 160.882813 65.238281 C 160.707031 65.75 160.617188 66.371094 160.617188 67.109375 C 160.617188 67.769531 160.699219 68.351563 160.867188 68.855469 C 161.035156 69.355469 161.261719 69.773438 161.550781 70.105469 C 161.84375 70.441406 162.1875 70.6875 162.582031 70.851563 C 162.972656 71.015625 163.402344 71.101563 163.863281 71.101563 C 164.277344 71.101563 164.640625 71.058594 164.953125 70.980469 C 165.261719 70.898438 165.523438 70.789063 165.738281 70.652344 L 166.015625 71.5625 C 165.738281 71.773438 165.386719 71.917969 164.957031 72 C 164.535156 72.082031 164.082031 72.125 163.597656 72.128906 C 163.015625 72.128906 162.472656 72.03125 161.964844 71.832031 C 161.453125 71.632813 161.011719 71.328125 160.632813 70.917969 C 160.25 70.511719 159.953125 69.992188 159.730469 69.363281 C 159.507813 68.730469 159.398438 67.980469 159.398438 67.109375 "
       style=" stroke:none;fill-rule:nonzero;fill:rgb(10.588074%,46.273804%,72.941589%);fill-opacity:1;" />
    <path
       id="path639"
       d="M 168.363281 68.507813 C 168.363281 68.859375 168.402344 69.195313 168.476563 69.519531 C 168.550781 69.839844 168.664063 70.125 168.820313 70.371094 C 168.972656 70.617188 169.167969 70.808594 169.40625 70.949219 C 169.648438 71.085938 169.929688 71.15625 170.253906 71.15625 C 170.890625 71.15625 171.363281 70.925781 171.671875 70.46875 C 171.984375 70.007813 172.136719 69.332031 172.136719 68.4375 C 172.136719 68.085938 172.105469 67.761719 172.042969 67.464844 C 171.980469 67.171875 171.878906 66.914063 171.738281 66.699219 C 171.597656 66.480469 171.421875 66.3125 171.210938 66.195313 C 170.996094 66.078125 170.746094 66.019531 170.449219 66.019531 C 169.730469 66.011719 169.199219 66.222656 168.867188 66.65625 C 168.53125 67.085938 168.363281 67.703125 168.363281 68.507813 M 167.214844 67.753906 C 167.214844 66.960938 167.253906 66.28125 167.332031 65.714844 C 167.410156 65.152344 167.527344 64.675781 167.679688 64.289063 C 167.835938 63.898438 168.019531 63.589844 168.238281 63.359375 C 168.453125 63.128906 168.699219 62.949219 168.96875 62.8125 C 169.246094 62.679688 169.542969 62.589844 169.867188 62.542969 C 170.1875 62.496094 170.535156 62.445313 170.90625 62.386719 C 171.382813 62.34375 171.757813 62.289063 172.03125 62.230469 C 172.304688 62.167969 172.527344 62.058594 172.691406 61.902344 L 172.820313 62.886719 C 172.730469 62.964844 172.628906 63.03125 172.515625 63.085938 C 172.402344 63.140625 172.265625 63.1875 172.109375 63.222656 C 171.949219 63.257813 171.761719 63.289063 171.546875 63.320313 C 171.328125 63.351563 171.082031 63.382813 170.804688 63.421875 C 170.410156 63.476563 170.0625 63.527344 169.753906 63.570313 C 169.449219 63.613281 169.1875 63.734375 168.96875 63.933594 C 168.75 64.136719 168.578125 64.421875 168.457031 64.792969 C 168.332031 65.160156 168.246094 65.652344 168.203125 66.257813 L 168.242188 66.257813 C 168.550781 65.8125 168.886719 65.5 169.253906 65.320313 C 169.625 65.136719 170.085938 65.046875 170.640625 65.046875 C 171.488281 65.046875 172.144531 65.324219 172.601563 65.878906 C 173.058594 66.4375 173.289063 67.257813 173.289063 68.335938 C 173.289063 69.582031 173.023438 70.527344 172.492188 71.167969 C 171.960938 71.808594 171.21875 72.128906 170.269531 72.128906 C 169.253906 72.128906 168.488281 71.777344 167.980469 71.074219 C 167.46875 70.371094 167.214844 69.261719 167.214844 67.753906 "
       style=" stroke:none;fill-rule:nonzero;fill:rgb(10.588074%,46.273804%,72.941589%);fill-opacity:1;" />
    <path
       id="path641"
       d="M 175.792969 68.492188 C 175.792969 68.84375 175.832031 69.183594 175.902344 69.507813 C 175.972656 69.832031 176.078125 70.113281 176.226563 70.347656 C 176.378906 70.585938 176.570313 70.78125 176.8125 70.929688 C 177.050781 71.078125 177.339844 71.15625 177.683594 71.15625 C 178.945313 71.164063 179.570313 70.277344 179.566406 68.492188 C 179.566406 68.132813 179.535156 67.789063 179.464844 67.464844 C 179.398438 67.140625 179.289063 66.859375 179.140625 66.625 C 178.992188 66.382813 178.796875 66.191406 178.558594 66.046875 C 178.320313 65.902344 178.027344 65.832031 177.683594 65.832031 C 176.425781 65.824219 175.792969 66.710938 175.792969 68.492188 M 174.644531 68.492188 C 174.644531 67.320313 174.90625 66.421875 175.429688 65.796875 C 175.953125 65.175781 176.703125 64.859375 177.683594 64.855469 C 178.203125 64.855469 178.65625 64.941406 179.039063 65.113281 C 179.421875 65.285156 179.738281 65.53125 179.988281 65.851563 C 180.234375 66.171875 180.421875 66.554688 180.542969 67.003906 C 180.664063 67.449219 180.722656 67.945313 180.71875 68.492188 C 180.71875 69.667969 180.457031 70.566406 179.941406 71.1875 C 179.414063 71.8125 178.664063 72.125 177.683594 72.128906 C 177.164063 72.128906 176.714844 72.042969 176.328125 71.871094 C 175.945313 71.699219 175.628906 71.453125 175.382813 71.132813 C 175.132813 70.8125 174.949219 70.429688 174.828125 69.984375 C 174.703125 69.535156 174.644531 69.039063 174.644531 68.492188 "
       style=" stroke:none;fill-rule:nonzero;fill:rgb(10.588074%,46.273804%,72.941589%);fill-opacity:1;" />
    <g
       id="g645"
       clip-rule="nonzero"
       clip-path="url(#clip1)">
      <path
         id="path643"
         d="M 183.578125 70.753906 C 183.742188 70.886719 183.933594 70.984375 184.144531 71.054688 C 184.359375 71.121094 184.640625 71.152344 184.984375 71.152344 C 185.621094 71.152344 186.128906 70.917969 186.507813 70.441406 C 186.882813 69.96875 187.070313 69.265625 187.070313 68.335938 C 187.070313 67.957031 187.039063 67.613281 186.96875 67.308594 C 186.90625 66.996094 186.800781 66.730469 186.660156 66.515625 C 186.515625 66.300781 186.328125 66.128906 186.101563 66.007813 C 185.878906 65.890625 185.597656 65.832031 185.265625 65.832031 C 184.792969 65.832031 184.421875 65.953125 184.152344 66.195313 C 183.882813 66.441406 183.691406 66.8125 183.578125 67.316406 Z M 182.464844 74.738281 L 182.464844 65.027344 L 183.238281 65.027344 L 183.441406 65.859375 L 183.492188 65.859375 C 183.703125 65.53125 183.980469 65.285156 184.316406 65.113281 C 184.65625 64.941406 185.039063 64.855469 185.472656 64.855469 C 186.398438 64.855469 187.085938 65.128906 187.539063 65.675781 C 187.988281 66.222656 188.21875 67.117188 188.222656 68.359375 C 188.222656 68.941406 188.144531 69.464844 187.992188 69.929688 C 187.839844 70.394531 187.625 70.789063 187.347656 71.113281 C 187.074219 71.4375 186.738281 71.691406 186.339844 71.867188 C 185.945313 72.042969 185.511719 72.128906 185.03125 72.128906 C 184.691406 72.128906 184.417969 72.105469 184.21875 72.0625 C 184.019531 72.023438 183.808594 71.953125 183.578125 71.851563 L 183.578125 74.738281 Z M 182.464844 74.738281 "
         style=" stroke:none;fill-rule:nonzero;fill:rgb(10.588074%,46.273804%,72.941589%);fill-opacity:1;" />
    </g>
    <g
       id="g649"
       clip-rule="nonzero"
       clip-path="url(#clip2)">
      <path
         id="path647"
         d="M 188.894531 65.027344 L 190.167969 65.027344 L 191.8125 69.523438 L 192.15625 70.847656 L 192.214844 70.847656 L 192.484375 69.476563 L 193.9375 65.027344 L 195.046875 65.027344 L 193 71.253906 C 192.84375 71.707031 192.6875 72.144531 192.535156 72.566406 C 192.382813 72.992188 192.214844 73.371094 192.03125 73.707031 C 191.847656 74.042969 191.640625 74.308594 191.410156 74.507813 C 191.183594 74.707031 190.914063 74.804688 190.613281 74.804688 C 190.277344 74.804688 190.003906 74.757813 189.792969 74.664063 L 189.984375 73.707031 C 190.105469 73.753906 190.222656 73.777344 190.335938 73.777344 C 190.59375 73.777344 190.839844 73.640625 191.082031 73.371094 C 191.320313 73.097656 191.519531 72.628906 191.675781 71.960938 Z M 188.894531 65.027344 "
         style=" stroke:none;fill-rule:nonzero;fill:rgb(10.588074%,46.273804%,72.941589%);fill-opacity:1;" />
    </g>
    <path
       id="path651"
       d="M 199.558594 71.960938 L 199.558594 62.25 L 206.347656 62.25 L 206.347656 71.960938 L 205.195313 71.960938 L 205.195313 63.277344 L 200.710938 63.277344 L 200.710938 71.960938 Z M 199.558594 71.960938 "
       style=" stroke:none;fill-rule:nonzero;fill:rgb(10.588074%,46.273804%,72.941589%);fill-opacity:1;" />
    <path
       id="path653"
       d="M 207.449219 71.890625 L 207.613281 70.957031 C 207.726563 70.992188 207.84375 71.011719 207.976563 71.011719 C 208.164063 71.011719 208.328125 70.933594 208.476563 70.773438 C 208.621094 70.617188 208.75 70.320313 208.863281 69.882813 C 208.972656 69.445313 209.066406 68.835938 209.140625 68.058594 C 209.214844 67.28125 209.265625 66.269531 209.292969 65.023438 L 213.429688 65.023438 L 213.429688 71.960938 L 212.320313 71.960938 L 212.320313 66 L 210.308594 66 C 210.28125 66.386719 210.253906 66.804688 210.222656 67.253906 C 210.191406 67.703125 210.152344 68.148438 210.097656 68.597656 C 210.042969 69.046875 209.96875 69.476563 209.878906 69.890625 C 209.785156 70.300781 209.667969 70.660156 209.523438 70.976563 C 209.378906 71.289063 209.199219 71.539063 208.992188 71.730469 C 208.785156 71.921875 208.539063 72.015625 208.253906 72.015625 C 208.078125 72.015625 207.925781 72.003906 207.792969 71.988281 C 207.664063 71.96875 207.546875 71.9375 207.449219 71.890625 "
       style=" stroke:none;fill-rule:nonzero;fill:rgb(10.588074%,46.273804%,72.941589%);fill-opacity:1;" />
    <path
       id="path655"
       d="M 216.1875 69.984375 C 216.1875 70.308594 216.300781 70.578125 216.53125 70.785156 C 216.761719 70.992188 217.058594 71.09375 217.417969 71.09375 C 217.675781 71.09375 217.910156 71.058594 218.117188 70.992188 C 218.320313 70.925781 218.492188 70.835938 218.636719 70.730469 C 218.785156 70.621094 218.910156 70.503906 219.011719 70.378906 C 219.109375 70.246094 219.179688 70.121094 219.21875 70 L 219.21875 68.851563 C 219.089844 68.84375 218.957031 68.835938 218.828125 68.832031 C 218.691406 68.828125 218.5625 68.824219 218.433594 68.824219 C 218.148438 68.824219 217.871094 68.839844 217.59375 68.871094 C 217.324219 68.902344 217.082031 68.964844 216.871094 69.054688 C 216.664063 69.140625 216.496094 69.257813 216.375 69.414063 C 216.246094 69.566406 216.1875 69.757813 216.1875 69.984375 M 215.035156 70.105469 C 215.035156 69.699219 215.117188 69.355469 215.285156 69.082031 C 215.453125 68.8125 215.683594 68.59375 215.984375 68.433594 C 216.285156 68.269531 216.644531 68.15625 217.066406 68.085938 C 217.484375 68.019531 217.949219 67.984375 218.460938 67.976563 L 218.839844 67.976563 C 218.96875 67.976563 219.09375 67.988281 219.21875 68.003906 C 219.246094 67.730469 219.261719 67.484375 219.265625 67.261719 C 219.265625 66.753906 219.164063 66.398438 218.957031 66.195313 C 218.753906 65.992188 218.382813 65.890625 217.851563 65.890625 C 217.695313 65.890625 217.523438 65.902344 217.34375 65.925781 C 217.164063 65.949219 216.976563 65.980469 216.789063 66.019531 C 216.597656 66.0625 216.417969 66.113281 216.246094 66.175781 C 216.074219 66.234375 215.925781 66.300781 215.800781 66.378906 L 215.449219 65.542969 C 215.800781 65.332031 216.210938 65.171875 216.679688 65.066406 C 217.144531 64.960938 217.632813 64.914063 218.144531 64.917969 C 218.621094 64.917969 219.007813 64.980469 219.300781 65.105469 C 219.59375 65.238281 219.816406 65.40625 219.964844 65.617188 C 220.117188 65.824219 220.21875 66.050781 220.269531 66.300781 C 220.320313 66.550781 220.34375 66.800781 220.34375 67.054688 C 220.34375 67.605469 220.332031 68.148438 220.304688 68.675781 C 220.277344 69.203125 220.261719 69.699219 220.261719 70.167969 C 220.261719 70.511719 220.277344 70.835938 220.304688 71.140625 C 220.332031 71.445313 220.382813 71.730469 220.460938 71.988281 L 219.6875 71.988281 L 219.363281 71.011719 L 219.289063 71.011719 C 219.207031 71.144531 219.101563 71.269531 218.96875 71.394531 C 218.839844 71.519531 218.691406 71.632813 218.519531 71.726563 C 218.34375 71.828125 218.140625 71.910156 217.910156 71.972656 C 217.675781 72.039063 217.414063 72.070313 217.113281 72.070313 C 216.816406 72.070313 216.539063 72.023438 216.289063 71.933594 C 216.035156 71.84375 215.816406 71.710938 215.628906 71.539063 C 215.445313 71.371094 215.296875 71.160156 215.191406 70.917969 C 215.082031 70.679688 215.03125 70.40625 215.035156 70.105469 "
       style=" stroke:none;fill-rule:nonzero;fill:rgb(10.588074%,46.273804%,72.941589%);fill-opacity:1;" />
    <path
       id="path657"
       d="M 221.402344 66 L 221.402344 65.027344 L 226.859375 65.027344 L 226.859375 66 L 224.6875 66 L 224.6875 71.960938 L 223.574219 71.960938 L 223.574219 66 Z M 221.402344 66 "
       style=" stroke:none;fill-rule:nonzero;fill:rgb(10.588074%,46.273804%,72.941589%);fill-opacity:1;" />
    <path
       id="path659"
       d="M 228.503906 67.726563 L 231.945313 67.726563 C 231.945313 67.023438 231.8125 66.53125 231.546875 66.25 C 231.28125 65.972656 230.902344 65.832031 230.410156 65.832031 C 229.863281 65.832031 229.425781 65.972656 229.09375 66.257813 C 228.765625 66.542969 228.570313 67.03125 228.503906 67.726563 M 227.339844 68.492188 C 227.339844 67.3125 227.605469 66.410156 228.132813 65.789063 C 228.660156 65.171875 229.414063 64.859375 230.394531 64.855469 C 230.710938 64.855469 231.027344 64.894531 231.335938 64.964844 C 231.652344 65.03125 231.933594 65.164063 232.183594 65.359375 C 232.429688 65.550781 232.632813 65.828125 232.792969 66.183594 C 232.949219 66.539063 233.03125 67.007813 233.03125 67.59375 C 233.03125 67.898438 233.003906 68.234375 232.949219 68.601563 L 228.492188 68.601563 C 228.492188 69.007813 228.535156 69.367188 228.621094 69.6875 C 228.703125 70 228.832031 70.269531 229.007813 70.484375 C 229.183594 70.699219 229.410156 70.867188 229.691406 70.984375 C 229.972656 71.101563 230.316406 71.160156 230.726563 71.15625 C 231.042969 71.15625 231.355469 71.101563 231.667969 70.992188 C 231.984375 70.878906 232.222656 70.75 232.378906 70.597656 L 232.792969 71.40625 C 232.515625 71.625 232.167969 71.800781 231.75 71.933594 C 231.328125 72.066406 230.882813 72.128906 230.410156 72.128906 C 229.878906 72.128906 229.421875 72.042969 229.035156 71.871094 C 228.644531 71.699219 228.328125 71.457031 228.078125 71.132813 C 227.832031 70.8125 227.644531 70.433594 227.523438 69.988281 C 227.402344 69.546875 227.339844 69.046875 227.339844 68.492188 "
       style=" stroke:none;fill-rule:nonzero;fill:rgb(10.588074%,46.273804%,72.941589%);fill-opacity:1;" />
    <path
       id="path661"
       d="M 233.640625 71.960938 L 235.832031 68.785156 L 236.300781 68.371094 L 235.597656 67.84375 L 233.792969 65.027344 L 234.972656 65.027344 L 236.882813 68.019531 L 237.609375 68.019531 L 237.609375 65.027344 L 238.691406 65.027344 L 238.691406 68.160156 L 239.339844 67.964844 L 241.265625 65.027344 L 242.429688 65.027344 L 240.546875 67.84375 L 240.003906 68.28125 L 240.714844 68.839844 L 242.769531 71.960938 L 241.449219 71.960938 L 239.410156 68.839844 L 238.691406 68.839844 L 238.691406 71.960938 L 237.609375 71.960938 L 237.609375 68.703125 L 236.957031 68.890625 L 234.914063 71.960938 Z M 233.640625 71.960938 "
       style=" stroke:none;fill-rule:nonzero;fill:rgb(10.588074%,46.273804%,72.941589%);fill-opacity:1;" />
    <path
       id="path663"
       d="M 244.507813 67.726563 L 247.949219 67.726563 C 247.949219 67.023438 247.816406 66.53125 247.550781 66.25 C 247.28125 65.972656 246.90625 65.832031 246.410156 65.832031 C 245.867188 65.832031 245.425781 65.972656 245.097656 66.257813 C 244.769531 66.542969 244.570313 67.03125 244.507813 67.726563 M 243.34375 68.492188 C 243.34375 67.3125 243.609375 66.410156 244.136719 65.789063 C 244.664063 65.171875 245.417969 64.859375 246.398438 64.855469 C 246.714844 64.855469 247.027344 64.894531 247.339844 64.964844 C 247.65625 65.03125 247.9375 65.164063 248.1875 65.359375 C 248.433594 65.550781 248.636719 65.828125 248.796875 66.183594 C 248.953125 66.539063 249.03125 67.007813 249.03125 67.59375 C 249.03125 67.898438 249.003906 68.234375 248.953125 68.601563 L 244.496094 68.601563 C 244.496094 69.007813 244.539063 69.367188 244.625 69.6875 C 244.703125 70 244.832031 70.269531 245.011719 70.484375 C 245.1875 70.699219 245.414063 70.867188 245.695313 70.984375 C 245.972656 71.101563 246.320313 71.160156 246.730469 71.15625 C 247.046875 71.15625 247.359375 71.101563 247.671875 70.992188 C 247.988281 70.878906 248.222656 70.75 248.382813 70.597656 L 248.796875 71.40625 C 248.519531 71.625 248.171875 71.800781 247.753906 71.933594 C 247.332031 72.066406 246.886719 72.128906 246.410156 72.128906 C 245.882813 72.128906 245.425781 72.042969 245.035156 71.871094 C 244.648438 71.699219 244.332031 71.457031 244.082031 71.132813 C 243.832031 70.8125 243.648438 70.433594 243.527344 69.988281 C 243.40625 69.546875 243.34375 69.046875 243.34375 68.492188 "
       style=" stroke:none;fill-rule:nonzero;fill:rgb(10.588074%,46.273804%,72.941589%);fill-opacity:1;" />
    <path
       id="path665"
       d="M 251.429688 62.554688 L 252.417969 62.222656 C 252.507813 62.644531 252.664063 62.941406 252.890625 63.109375 C 253.113281 63.277344 253.371094 63.359375 253.664063 63.359375 C 253.953125 63.359375 254.210938 63.269531 254.433594 63.09375 C 254.660156 62.917969 254.8125 62.632813 254.898438 62.234375 L 255.671875 62.5 C 255.59375 63.023438 255.363281 63.425781 254.980469 63.707031 C 254.605469 63.984375 254.152344 64.125 253.628906 64.125 C 253.378906 64.125 253.128906 64.09375 252.882813 64.03125 C 252.636719 63.96875 252.414063 63.875 252.21875 63.75 C 252.023438 63.621094 251.851563 63.457031 251.710938 63.261719 C 251.570313 63.0625 251.476563 62.828125 251.429688 62.554688 M 250.78125 71.960938 L 250.78125 65.023438 L 251.890625 65.023438 L 251.890625 69.257813 L 251.84375 70.070313 L 251.929688 70.070313 L 252.453125 69.210938 L 255.511719 65.023438 L 256.21875 65.023438 L 256.21875 71.960938 L 255.109375 71.960938 L 255.09375 67.855469 L 255.132813 66.996094 L 255.09375 66.996094 L 254.527344 67.882813 L 251.414063 71.960938 Z M 250.78125 71.960938 "
       style=" stroke:none;fill-rule:nonzero;fill:rgb(10.588074%,46.273804%,72.941589%);fill-opacity:1;" />
    <path
       id="path667"
       d="M 97.066406 34.492188 C 100.335938 34.011719 102.742188 33.035156 104.285156 31.566406 C 105.824219 30.101563 106.59375 28.117188 106.59375 25.613281 C 106.59375 23.015625 105.824219 20.96875 104.285156 19.476563 C 102.742188 17.988281 100.335938 17 97.066406 16.519531 Z M 75.121094 25.613281 C 75.121094 30.617188 78.296875 33.578125 84.648438 34.492188 L 84.648438 16.519531 C 81.378906 17 78.972656 17.988281 77.433594 19.476563 C 75.890625 20.96875 75.121094 23.015625 75.121094 25.613281 M 113.523438 11.644531 C 117.46875 15.28125 119.441406 19.933594 119.441406 25.613281 C 119.441406 31.289063 117.46875 35.949219 113.523438 39.578125 C 109.578125 43.214844 104.089844 45.460938 97.066406 46.328125 L 97.066406 51.238281 L 84.648438 51.238281 L 84.648438 46.328125 C 77.625 45.460938 72.128906 43.214844 68.15625 39.578125 C 64.1875 35.949219 62.203125 31.289063 62.203125 25.613281 C 62.203125 19.933594 64.1875 15.28125 68.15625 11.644531 C 72.128906 8.011719 77.625 5.765625 84.648438 4.898438 L 84.648438 0.203125 L 97.066406 0.203125 L 97.066406 4.898438 C 104.089844 5.765625 109.578125 8.011719 113.523438 11.644531 "
       style=" stroke:none;fill-rule:nonzero;fill:rgb(10.195923%,16.470337%,33.332825%);fill-opacity:1;" />
    <path
       id="path669"
       d="M 138.550781 30.378906 L 147.644531 30.378906 L 143.097656 16.085938 Z M 150.171875 0.710938 L 166.84375 51.238281 L 154.285156 51.238281 L 150.964844 40.914063 L 135.15625 40.914063 L 131.910156 51.238281 L 119.277344 51.238281 L 136.023438 0.710938 Z M 150.171875 0.710938 "
       style=" stroke:none;fill-rule:nonzero;fill:rgb(10.195923%,16.470337%,33.332825%);fill-opacity:1;" />
    <path
       id="path671"
       d="M 197.101563 38.136719 C 198.734375 37.4375 200.179688 36.488281 201.433594 35.285156 L 210.238281 44.089844 C 207.832031 46.496094 205.0625 48.363281 201.9375 49.683594 C 198.808594 51.007813 195.488281 51.667969 191.976563 51.667969 C 187.308594 51.667969 183 50.515625 179.058594 48.207031 C 175.109375 45.894531 171.984375 42.769531 169.671875 38.820313 C 167.363281 34.875 166.207031 30.570313 166.207031 25.902344 C 166.207031 21.234375 167.363281 16.914063 169.671875 12.945313 C 171.984375 8.976563 175.109375 5.835938 179.058594 3.527344 C 183 1.214844 187.308594 0.0625 191.976563 0.0625 C 195.488281 0.0625 198.808594 0.722656 201.9375 2.046875 C 205.0625 3.371094 207.832031 5.234375 210.238281 7.640625 L 201.433594 16.445313 C 200.179688 15.242188 198.734375 14.292969 197.101563 13.59375 C 195.464844 12.898438 193.753906 12.546875 191.976563 12.546875 C 189.570313 12.546875 187.355469 13.152344 185.335938 14.351563 C 183.316406 15.554688 181.703125 17.179688 180.5 19.226563 C 179.296875 21.269531 178.695313 23.496094 178.695313 25.902344 C 178.695313 28.308594 179.296875 30.519531 180.5 32.542969 C 181.703125 34.5625 183.316406 36.175781 185.335938 37.378906 C 187.355469 38.582031 189.570313 39.183594 191.976563 39.183594 C 193.753906 39.183594 195.464844 38.835938 197.101563 38.136719 "
       style=" stroke:none;fill-rule:nonzero;fill:rgb(10.195923%,16.470337%,33.332825%);fill-opacity:1;" />
    <path
       id="path673"
       d="M 256.148438 0.207031 L 256.148438 51.238281 L 243.15625 51.238281 L 243.15625 13.199219 L 228.574219 13.199219 L 228.574219 51.238281 L 215.582031 51.238281 L 215.582031 0.207031 Z M 256.148438 0.207031 "
       style=" stroke:none;fill-rule:nonzero;fill:rgb(10.195923%,16.470337%,33.332825%);fill-opacity:1;" />
    <path
       id="path675"
       d="M 322.59375 7.410156 L 317.976563 7.410156 L 317.976563 12.695313 L 315.507813 12.695313 L 315.507813 0.0703125 L 317.976563 0.0703125 L 317.976563 5.210938 L 322.59375 5.210938 L 322.59375 0.0703125 L 325.066406 0.0703125 L 325.066406 12.695313 L 322.59375 12.695313 Z M 322.59375 7.410156 "
       style=" stroke:none;fill-rule:nonzero;fill:rgb(9.803772%,16.078186%,32.940674%);fill-opacity:1;" />
    <path
       id="path677"
       d="M 330.113281 10.910156 C 330.582031 10.910156 330.957031 10.804688 331.230469 10.59375 C 331.507813 10.386719 331.714844 10.160156 331.84375 9.917969 L 331.84375 8.746094 C 331.472656 8.710938 331.113281 8.703125 330.773438 8.730469 C 330.429688 8.753906 330.125 8.808594 329.863281 8.890625 C 329.597656 8.976563 329.386719 9.09375 329.230469 9.25 C 329.074219 9.410156 328.996094 9.605469 328.996094 9.847656 C 328.996094 10.183594 329.09375 10.445313 329.292969 10.632813 C 329.492188 10.816406 329.765625 10.910156 330.113281 10.910156 M 327.136719 4.203125 C 327.621094 3.984375 328.191406 3.816406 328.851563 3.6875 C 329.511719 3.5625 330.203125 3.5 330.925781 3.5 C 331.550781 3.5 332.074219 3.574219 332.496094 3.722656 C 332.914063 3.875 333.25 4.085938 333.496094 4.363281 C 333.742188 4.640625 333.917969 4.972656 334.019531 5.355469 C 334.121094 5.742188 334.171875 6.171875 334.171875 6.65625 C 334.171875 7.183594 334.152344 7.714844 334.117188 8.25 C 334.082031 8.785156 334.0625 9.3125 334.054688 9.828125 C 334.046875 10.34375 334.0625 10.847656 334.101563 11.335938 C 334.136719 11.820313 334.226563 12.28125 334.371094 12.714844 L 332.457031 12.714844 L 332.078125 11.46875 L 331.988281 11.46875 C 331.75 11.84375 331.414063 12.164063 330.988281 12.433594 C 330.5625 12.703125 330.011719 12.839844 329.339844 12.839844 C 328.917969 12.839844 328.539063 12.777344 328.203125 12.652344 C 327.867188 12.523438 327.578125 12.34375 327.335938 12.109375 C 327.097656 11.875 326.910156 11.597656 326.777344 11.28125 C 326.644531 10.960938 326.578125 10.605469 326.578125 10.207031 C 326.578125 9.65625 326.703125 9.1875 326.949219 8.808594 C 327.195313 8.433594 327.550781 8.125 328.011719 7.890625 C 328.476563 7.65625 329.027344 7.492188 329.671875 7.402344 C 330.316406 7.3125 331.035156 7.285156 331.828125 7.320313 C 331.910156 6.648438 331.863281 6.164063 331.683594 5.871094 C 331.503906 5.574219 331.101563 5.429688 330.476563 5.429688 C 330.007813 5.429688 329.511719 5.476563 328.988281 5.574219 C 328.464844 5.667969 328.035156 5.796875 327.699219 5.953125 Z M 327.136719 4.203125 "
       style=" stroke:none;fill-rule:nonzero;fill:rgb(9.803772%,16.078186%,32.940674%);fill-opacity:1;" />
    <path
       id="path679"
       d="M 339.058594 0 C 339.140625 0.46875 339.285156 0.800781 339.480469 0.992188 C 339.679688 1.183594 339.9375 1.28125 340.25 1.28125 C 340.585938 1.28125 340.851563 1.183594 341.050781 0.992188 C 341.25 0.800781 341.386719 0.476563 341.457031 0.0195313 L 343.242188 0.46875 C 343.097656 1.25 342.742188 1.832031 342.179688 2.210938 C 341.613281 2.589844 340.953125 2.777344 340.195313 2.777344 C 339.820313 2.777344 339.460938 2.734375 339.113281 2.652344 C 338.765625 2.566406 338.453125 2.433594 338.175781 2.246094 C 337.898438 2.058594 337.664063 1.820313 337.472656 1.53125 C 337.277344 1.246094 337.148438 0.890625 337.074219 0.46875 Z M 341.566406 8.585938 L 341.65625 7.304688 L 341.601563 7.304688 L 340.824219 8.621094 L 337.617188 12.695313 L 336.136719 12.695313 L 336.136719 3.679688 L 338.480469 3.679688 L 338.480469 7.972656 L 338.375 9.199219 L 338.445313 9.199219 L 339.183594 7.917969 L 342.429688 3.679688 L 343.910156 3.679688 L 343.910156 12.695313 L 341.566406 12.695313 Z M 341.566406 8.585938 "
       style=" stroke:none;fill-rule:nonzero;fill:rgb(9.803772%,16.078186%,32.940674%);fill-opacity:1;" />
    <path
       id="path681"
       d="M 351.269531 10.730469 L 351.269531 5.664063 L 349.375 5.664063 C 349.351563 6.09375 349.308594 6.554688 349.25 7.042969 C 349.1875 7.53125 349.113281 8 349.023438 8.457031 C 348.933594 8.914063 348.828125 9.339844 348.707031 9.738281 C 348.585938 10.136719 348.457031 10.464844 348.308594 10.730469 Z M 354.929688 14.753906 L 353.214844 14.753906 L 352.945313 12.695313 L 346.886719 12.695313 L 346.613281 14.753906 L 344.902344 14.753906 L 344.902344 10.621094 L 345.964844 10.621094 C 346.0625 10.492188 346.183594 10.265625 346.335938 9.945313 C 346.484375 9.628906 346.636719 9.191406 346.785156 8.636719 C 346.9375 8.085938 347.066406 7.402344 347.175781 6.582031 C 347.28125 5.765625 347.335938 4.796875 347.335938 3.679688 L 353.613281 3.679688 L 353.613281 10.621094 L 354.929688 10.621094 Z M 354.929688 14.753906 "
       style=" stroke:none;fill-rule:nonzero;fill:rgb(9.803772%,16.078186%,32.940674%);fill-opacity:1;" />
    <path
       id="path683"
       d="M 360.664063 1.296875 C 360.664063 0.914063 360.773438 0.605469 360.996094 0.378906 C 361.21875 0.152344 361.523438 0.0351563 361.90625 0.0351563 C 362.292969 0.0351563 362.601563 0.152344 362.835938 0.378906 C 363.070313 0.605469 363.1875 0.914063 363.1875 1.296875 C 363.1875 1.660156 363.070313 1.953125 362.835938 2.183594 C 362.601563 2.410156 362.292969 2.527344 361.90625 2.527344 C 361.523438 2.527344 361.21875 2.410156 360.996094 2.183594 C 360.773438 1.953125 360.664063 1.660156 360.664063 1.296875 M 360.078125 5.300781 C 359.464844 5.300781 359.015625 5.484375 358.722656 5.851563 C 358.429688 6.21875 358.253906 6.710938 358.191406 7.320313 L 361.527344 7.320313 C 361.578125 6.671875 361.480469 6.171875 361.234375 5.824219 C 360.988281 5.476563 360.601563 5.300781 360.078125 5.300781 M 356.714844 1.296875 C 356.714844 0.914063 356.832031 0.605469 357.066406 0.378906 C 357.300781 0.152344 357.609375 0.0351563 357.996094 0.0351563 C 358.378906 0.0351563 358.683594 0.152344 358.90625 0.378906 C 359.128906 0.605469 359.238281 0.914063 359.238281 1.296875 C 359.238281 1.660156 359.128906 1.953125 358.90625 2.183594 C 358.683594 2.410156 358.378906 2.527344 357.996094 2.527344 C 357.609375 2.527344 357.300781 2.410156 357.066406 2.183594 C 356.832031 1.953125 356.714844 1.660156 356.714844 1.296875 M 363.421875 11.921875 C 363.0625 12.210938 362.570313 12.453125 361.953125 12.652344 C 361.332031 12.847656 360.675781 12.949219 359.976563 12.949219 C 358.523438 12.949219 357.460938 12.527344 356.785156 11.675781 C 356.113281 10.828125 355.777344 9.667969 355.777344 8.1875 C 355.777344 6.601563 356.15625 5.410156 356.914063 4.617188 C 357.667969 3.824219 358.734375 3.425781 360.105469 3.425781 C 360.5625 3.425781 361.007813 3.488281 361.4375 3.605469 C 361.871094 3.726563 362.257813 3.925781 362.59375 4.203125 C 362.929688 4.480469 363.199219 4.851563 363.40625 5.320313 C 363.609375 5.789063 363.710938 6.371094 363.710938 7.070313 C 363.710938 7.320313 363.695313 7.59375 363.667969 7.882813 C 363.636719 8.167969 363.589844 8.46875 363.53125 8.78125 L 358.140625 8.78125 C 358.175781 9.539063 358.371094 10.113281 358.722656 10.496094 C 359.078125 10.882813 359.648438 11.074219 360.4375 11.074219 C 360.929688 11.074219 361.371094 11 361.761719 10.847656 C 362.148438 10.699219 362.445313 10.542969 362.648438 10.386719 Z M 363.421875 11.921875 "
       style=" stroke:none;fill-rule:nonzero;fill:rgb(9.803772%,16.078186%,32.940674%);fill-opacity:1;" />
    <path
       id="path685"
       d="M 373.089844 8.566406 L 373.234375 6.691406 L 373.144531 6.691406 L 372.421875 8.242188 L 370.726563 11.039063 L 369.878906 11.039063 L 368.023438 8.242188 L 367.335938 6.691406 L 367.230469 6.691406 L 367.464844 8.546875 L 367.464844 12.695313 L 365.371094 12.695313 L 365.371094 3.679688 L 367.804688 3.679688 L 369.878906 7.070313 L 370.386719 8.207031 L 370.457031 8.207031 L 370.980469 7.035156 L 372.890625 3.679688 L 375.34375 3.679688 L 375.34375 12.695313 L 373.089844 12.695313 Z M 373.089844 8.566406 "
       style=" stroke:none;fill-rule:nonzero;fill:rgb(9.803772%,16.078186%,32.940674%);fill-opacity:1;" />
    <path
       id="path687"
       d="M 319.472656 24.601563 C 319.015625 24.601563 318.660156 24.714844 318.402344 24.945313 C 318.140625 25.171875 317.941406 25.515625 317.796875 25.972656 L 317.796875 29.722656 C 317.964844 29.855469 318.148438 29.960938 318.347656 30.039063 C 318.546875 30.117188 318.808594 30.15625 319.132813 30.15625 C 319.804688 30.15625 320.308594 29.917969 320.644531 29.441406 C 320.984375 28.96875 321.152344 28.183594 321.152344 27.089844 C 321.152344 26.296875 321.019531 25.683594 320.753906 25.25 C 320.488281 24.816406 320.0625 24.601563 319.472656 24.601563 M 315.453125 22.871094 L 317.164063 22.871094 L 317.4375 23.953125 L 317.507813 23.953125 C 317.820313 23.496094 318.191406 23.160156 318.617188 22.941406 C 319.042969 22.726563 319.5625 22.617188 320.175781 22.617188 C 321.308594 22.617188 322.15625 22.976563 322.71875 23.691406 C 323.285156 24.40625 323.566406 25.554688 323.566406 27.144531 C 323.566406 27.914063 323.476563 28.609375 323.296875 29.226563 C 323.117188 29.847656 322.847656 30.371094 322.496094 30.804688 C 322.140625 31.238281 321.707031 31.570313 321.195313 31.796875 C 320.683594 32.023438 320.097656 32.140625 319.4375 32.140625 C 319.066406 32.140625 318.757813 32.113281 318.519531 32.058594 C 318.277344 32.003906 318.035156 31.917969 317.796875 31.796875 L 317.796875 35.492188 L 315.453125 35.492188 Z M 315.453125 22.871094 "
       style=" stroke:none;fill-rule:nonzero;fill:rgb(9.803772%,16.078186%,32.940674%);fill-opacity:1;" />
    <path
       id="path689"
       d="M 329.058594 24.492188 C 328.449219 24.492188 327.996094 24.675781 327.703125 25.042969 C 327.410156 25.410156 327.234375 25.898438 327.175781 26.511719 L 330.511719 26.511719 C 330.558594 25.863281 330.460938 25.363281 330.214844 25.015625 C 329.96875 24.667969 329.582031 24.492188 329.058594 24.492188 M 332.40625 31.113281 C 332.042969 31.398438 331.554688 31.644531 330.933594 31.839844 C 330.316406 32.039063 329.65625 32.140625 328.960938 32.140625 C 327.503906 32.140625 326.441406 31.714844 325.769531 30.867188 C 325.09375 30.019531 324.757813 28.855469 324.757813 27.378906 C 324.757813 25.789063 325.136719 24.601563 325.894531 23.808594 C 326.652344 23.015625 327.714844 22.617188 329.085938 22.617188 C 329.542969 22.617188 329.988281 22.675781 330.421875 22.796875 C 330.851563 22.917969 331.238281 23.117188 331.574219 23.394531 C 331.910156 23.667969 332.183594 24.042969 332.386719 24.511719 C 332.589844 24.980469 332.691406 25.5625 332.691406 26.257813 C 332.691406 26.511719 332.675781 26.785156 332.648438 27.070313 C 332.617188 27.359375 332.574219 27.660156 332.511719 27.972656 L 327.121094 27.972656 C 327.15625 28.730469 327.351563 29.300781 327.703125 29.6875 C 328.058594 30.070313 328.628906 30.265625 329.421875 30.265625 C 329.910156 30.265625 330.351563 30.1875 330.742188 30.039063 C 331.132813 29.890625 331.425781 29.734375 331.632813 29.578125 Z M 332.40625 31.113281 "
       style=" stroke:none;fill-rule:nonzero;fill:rgb(9.803772%,16.078186%,32.940674%);fill-opacity:1;" />
    <path
       id="path691"
       d="M 334.351563 31.886719 L 334.351563 22.871094 L 336.695313 22.871094 L 336.695313 29.8125 L 338.953125 29.8125 L 338.953125 22.871094 L 341.296875 22.871094 L 341.296875 29.8125 L 343.550781 29.8125 L 343.550781 22.871094 L 345.894531 22.871094 L 345.894531 31.886719 Z M 334.351563 31.886719 "
       style=" stroke:none;fill-rule:nonzero;fill:rgb(9.803772%,16.078186%,32.940674%);fill-opacity:1;" />
    <path
       id="path693"
       d="M 351.816406 24.492188 C 351.207031 24.492188 350.757813 24.675781 350.464844 25.042969 C 350.171875 25.410156 349.992188 25.898438 349.933594 26.511719 L 353.269531 26.511719 C 353.320313 25.863281 353.21875 25.363281 352.976563 25.015625 C 352.730469 24.667969 352.34375 24.492188 351.816406 24.492188 M 355.164063 31.113281 C 354.804688 31.398438 354.3125 31.644531 353.695313 31.839844 C 353.074219 32.039063 352.417969 32.140625 351.71875 32.140625 C 350.265625 32.140625 349.199219 31.714844 348.527344 30.867188 C 347.855469 30.019531 347.515625 28.855469 347.515625 27.378906 C 347.515625 25.789063 347.894531 24.601563 348.652344 23.808594 C 349.410156 23.015625 350.476563 22.617188 351.847656 22.617188 C 352.300781 22.617188 352.746094 22.675781 353.179688 22.796875 C 353.613281 22.917969 353.996094 23.117188 354.335938 23.394531 C 354.671875 23.667969 354.941406 24.042969 355.144531 24.511719 C 355.351563 24.980469 355.453125 25.5625 355.453125 26.257813 C 355.453125 26.511719 355.4375 26.785156 355.40625 27.070313 C 355.378906 27.359375 355.332031 27.660156 355.273438 27.972656 L 349.882813 27.972656 C 349.914063 28.730469 350.109375 29.300781 350.464844 29.6875 C 350.816406 30.070313 351.390625 30.265625 352.179688 30.265625 C 352.671875 30.265625 353.113281 30.1875 353.5 30.039063 C 353.890625 29.890625 354.1875 29.734375 354.390625 29.578125 Z M 355.164063 31.113281 "
       style=" stroke:none;fill-rule:nonzero;fill:rgb(9.803772%,16.078186%,32.940674%);fill-opacity:1;" />
    <path
       id="path695"
       d="M 362.394531 28.335938 L 359.457031 28.335938 L 359.457031 31.886719 L 357.113281 31.886719 L 357.113281 22.871094 L 359.457031 22.871094 L 359.457031 26.261719 L 362.394531 26.261719 L 362.394531 22.871094 L 364.738281 22.871094 L 364.738281 31.886719 L 362.394531 31.886719 Z M 362.394531 28.335938 "
       style=" stroke:none;fill-rule:nonzero;fill:rgb(9.803772%,16.078186%,32.940674%);fill-opacity:1;" />
    <path
       id="path697"
       d="M 372.222656 27.773438 L 372.316406 26.496094 L 372.261719 26.496094 L 371.484375 27.8125 L 368.273438 31.886719 L 366.796875 31.886719 L 366.796875 22.871094 L 369.140625 22.871094 L 369.140625 27.160156 L 369.03125 28.386719 L 369.105469 28.386719 L 369.84375 27.109375 L 373.089844 22.871094 L 374.570313 22.871094 L 374.570313 31.886719 L 372.222656 31.886719 Z M 372.222656 27.773438 "
       style=" stroke:none;fill-rule:nonzero;fill:rgb(9.803772%,16.078186%,32.940674%);fill-opacity:1;" />
    <g
       id="g701"
       clip-rule="nonzero"
       clip-path="url(#clip3)">
      <path
         id="path699"
         d="M 380.492188 24.492188 C 379.882813 24.492188 379.429688 24.675781 379.136719 25.042969 C 378.84375 25.410156 378.667969 25.898438 378.609375 26.511719 L 381.945313 26.511719 C 381.992188 25.863281 381.894531 25.363281 381.648438 25.015625 C 381.402344 24.667969 381.015625 24.492188 380.492188 24.492188 M 383.839844 31.113281 C 383.476563 31.398438 382.988281 31.644531 382.367188 31.839844 C 381.75 32.039063 381.089844 32.140625 380.394531 32.140625 C 378.9375 32.140625 377.875 31.714844 377.203125 30.867188 C 376.527344 30.019531 376.191406 28.855469 376.191406 27.378906 C 376.191406 25.789063 376.570313 24.601563 377.328125 23.808594 C 378.085938 23.015625 379.148438 22.617188 380.519531 22.617188 C 380.976563 22.617188 381.421875 22.675781 381.855469 22.796875 C 382.285156 22.917969 382.671875 23.117188 383.007813 23.394531 C 383.34375 23.667969 383.617188 24.042969 383.820313 24.511719 C 384.023438 24.980469 384.125 25.5625 384.125 26.257813 C 384.125 26.511719 384.109375 26.785156 384.082031 27.070313 C 384.050781 27.359375 384.007813 27.660156 383.945313 27.972656 L 378.554688 27.972656 C 378.589844 28.730469 378.785156 29.300781 379.136719 29.6875 C 379.492188 30.070313 380.0625 30.265625 380.855469 30.265625 C 381.34375 30.265625 381.785156 30.1875 382.175781 30.039063 C 382.566406 29.890625 382.859375 29.734375 383.066406 29.578125 Z M 383.839844 31.113281 "
         style=" stroke:none;fill-rule:nonzero;fill:rgb(9.803772%,16.078186%,32.940674%);fill-opacity:1;" />
    </g>
    <path
       id="path703"
       d="M 317.742188 49.273438 C 317.910156 49.296875 318.066406 49.316406 318.210938 49.328125 C 318.355469 49.339844 318.535156 49.347656 318.753906 49.347656 C 319.402344 49.347656 319.863281 49.257813 320.140625 49.074219 C 320.417969 48.894531 320.554688 48.621094 320.554688 48.246094 C 320.554688 47.933594 320.4375 47.679688 320.203125 47.480469 C 319.96875 47.28125 319.550781 47.183594 318.949219 47.183594 L 317.742188 47.183594 Z M 318.988281 45.738281 C 319.371094 45.738281 319.6875 45.644531 319.933594 45.460938 C 320.179688 45.273438 320.304688 45.035156 320.304688 44.746094 C 320.304688 44.433594 320.199219 44.199219 319.988281 44.035156 C 319.777344 43.875 319.394531 43.792969 318.84375 43.792969 C 318.566406 43.792969 318.347656 43.796875 318.183594 43.808594 C 318.023438 43.820313 317.875 43.835938 317.742188 43.84375 L 317.742188 45.738281 Z M 315.453125 42.078125 C 315.871094 42.042969 316.382813 42.007813 316.976563 41.96875 C 317.570313 41.933594 318.210938 41.917969 318.898438 41.917969 C 320.21875 41.917969 321.160156 42.105469 321.71875 42.484375 C 322.277344 42.863281 322.558594 43.429688 322.558594 44.1875 C 322.558594 44.609375 322.4375 45.019531 322.195313 45.414063 C 321.957031 45.8125 321.578125 46.101563 321.0625 46.28125 L 321.0625 46.351563 C 321.710938 46.496094 322.179688 46.753906 322.46875 47.121094 C 322.757813 47.484375 322.902344 47.957031 322.902344 48.535156 C 322.902344 49.4375 322.554688 50.109375 321.863281 50.554688 C 321.171875 51 320.0625 51.222656 318.535156 51.222656 C 318.03125 51.222656 317.496094 51.207031 316.929688 51.175781 C 316.367188 51.144531 315.871094 51.105469 315.453125 51.058594 Z M 315.453125 42.078125 "
       style=" stroke:none;fill-rule:nonzero;fill:rgb(9.803772%,16.078186%,32.940674%);fill-opacity:1;" />
    <path
       id="path705"
       d="M 332.277344 46.949219 L 332.421875 45.074219 L 332.332031 45.074219 L 331.609375 46.621094 L 329.914063 49.417969 L 329.066406 49.417969 L 327.210938 46.621094 L 326.527344 45.074219 L 326.417969 45.074219 L 326.652344 46.929688 L 326.652344 51.078125 L 324.558594 51.078125 L 324.558594 42.0625 L 326.996094 42.0625 L 329.066406 45.449219 L 329.574219 46.585938 L 329.644531 46.585938 L 330.167969 45.414063 L 332.082031 42.0625 L 334.53125 42.0625 L 334.53125 51.078125 L 332.277344 51.078125 Z M 332.277344 46.949219 "
       style=" stroke:none;fill-rule:nonzero;fill:rgb(9.803772%,16.078186%,32.940674%);fill-opacity:1;" />
    <path
       id="path707"
       d="M 340.4375 43.683594 C 339.828125 43.683594 339.375 43.867188 339.085938 44.234375 C 338.789063 44.601563 338.613281 45.089844 338.554688 45.703125 L 341.890625 45.703125 C 341.9375 45.054688 341.839844 44.554688 341.59375 44.207031 C 341.347656 43.859375 340.964844 43.683594 340.4375 43.683594 M 343.785156 50.300781 C 343.421875 50.589844 342.933594 50.832031 342.3125 51.03125 C 341.695313 51.230469 341.035156 51.328125 340.339844 51.328125 C 338.886719 51.328125 337.820313 50.90625 337.148438 50.058594 C 336.472656 49.210938 336.136719 48.046875 336.136719 46.570313 C 336.136719 44.980469 336.515625 43.792969 337.273438 42.996094 C 338.03125 42.203125 339.09375 41.808594 340.464844 41.808594 C 340.921875 41.808594 341.367188 41.867188 341.800781 41.988281 C 342.234375 42.109375 342.617188 42.308594 342.953125 42.582031 C 343.292969 42.859375 343.5625 43.234375 343.765625 43.703125 C 343.96875 44.171875 344.074219 44.753906 344.074219 45.449219 C 344.074219 45.703125 344.058594 45.972656 344.027344 46.261719 C 343.996094 46.550781 343.953125 46.851563 343.894531 47.164063 L 338.5 47.164063 C 338.535156 47.921875 338.730469 48.492188 339.085938 48.878906 C 339.4375 49.261719 340.011719 49.453125 340.800781 49.453125 C 341.292969 49.453125 341.730469 49.378906 342.121094 49.230469 C 342.511719 49.078125 342.808594 48.925781 343.011719 48.769531 Z M 343.785156 50.300781 "
       style=" stroke:none;fill-rule:nonzero;fill:rgb(9.803772%,16.078186%,32.940674%);fill-opacity:1;" />
    <path
       id="path709"
       d="M 352.027344 50.519531 C 351.664063 50.785156 351.230469 50.984375 350.71875 51.121094 C 350.207031 51.261719 349.679688 51.332031 349.140625 51.332031 C 348.417969 51.332031 347.808594 51.214844 347.308594 50.988281 C 346.8125 50.757813 346.40625 50.4375 346.09375 50.023438 C 345.78125 49.609375 345.554688 49.105469 345.417969 48.515625 C 345.277344 47.925781 345.207031 47.277344 345.207031 46.570313 C 345.207031 45.042969 345.550781 43.867188 346.238281 43.042969 C 346.921875 42.21875 347.921875 41.808594 349.230469 41.808594 C 349.890625 41.808594 350.421875 41.863281 350.828125 41.96875 C 351.230469 42.078125 351.59375 42.214844 351.917969 42.386719 L 351.359375 44.296875 C 351.082031 44.164063 350.808594 44.0625 350.539063 43.992188 C 350.269531 43.917969 349.957031 43.882813 349.609375 43.882813 C 348.960938 43.882813 348.46875 44.09375 348.128906 44.523438 C 347.792969 44.949219 347.625 45.632813 347.625 46.570313 C 347.625 46.953125 347.667969 47.308594 347.75 47.632813 C 347.835938 47.957031 347.964844 48.242188 348.128906 48.480469 C 348.296875 48.722656 348.519531 48.910156 348.789063 49.046875 C 349.058594 49.1875 349.375 49.257813 349.734375 49.257813 C 350.132813 49.257813 350.46875 49.207031 350.746094 49.101563 C 351.023438 49 351.269531 48.878906 351.484375 48.734375 Z M 352.027344 50.519531 "
       style=" stroke:none;fill-rule:nonzero;fill:rgb(9.803772%,16.078186%,32.940674%);fill-opacity:1;" />
    <path
       id="path711"
       d="M 359.851563 44.132813 L 357.308594 44.132813 L 357.308594 51.078125 L 354.894531 51.078125 L 354.894531 44.132813 L 352.351563 44.132813 L 352.351563 42.058594 L 359.851563 42.058594 Z M 359.851563 44.132813 "
       style=" stroke:none;fill-rule:nonzero;fill:rgb(9.803772%,16.078186%,32.940674%);fill-opacity:1;" />
    <path
       id="path713"
       d="M 364.621094 43.683594 C 364.011719 43.683594 363.5625 43.867188 363.269531 44.234375 C 362.976563 44.601563 362.796875 45.089844 362.738281 45.703125 L 366.074219 45.703125 C 366.125 45.054688 366.023438 44.554688 365.78125 44.207031 C 365.535156 43.859375 365.148438 43.683594 364.621094 43.683594 M 367.96875 50.300781 C 367.609375 50.589844 367.117188 50.832031 366.5 51.03125 C 365.878906 51.230469 365.222656 51.328125 364.523438 51.328125 C 363.070313 51.328125 362.003906 50.90625 361.332031 50.058594 C 360.660156 49.210938 360.320313 48.046875 360.320313 46.570313 C 360.320313 44.980469 360.699219 43.792969 361.457031 42.996094 C 362.214844 42.203125 363.28125 41.808594 364.652344 41.808594 C 365.105469 41.808594 365.550781 41.867188 365.984375 41.988281 C 366.417969 42.109375 366.800781 42.308594 367.140625 42.582031 C 367.476563 42.859375 367.746094 43.234375 367.949219 43.703125 C 368.15625 44.171875 368.257813 44.753906 368.257813 45.449219 C 368.257813 45.703125 368.242188 45.972656 368.210938 46.261719 C 368.183594 46.550781 368.136719 46.851563 368.078125 47.164063 L 362.6875 47.164063 C 362.71875 47.921875 362.914063 48.492188 363.269531 48.878906 C 363.621094 49.261719 364.195313 49.453125 364.984375 49.453125 C 365.476563 49.453125 365.917969 49.378906 366.304688 49.230469 C 366.695313 49.078125 366.992188 48.925781 367.195313 48.769531 Z M 367.96875 50.300781 "
       style=" stroke:none;fill-rule:nonzero;fill:rgb(9.803772%,16.078186%,32.940674%);fill-opacity:1;" />
    <path
       id="path715"
       d="M 370.691406 38.453125 L 373.109375 38.453125 L 373.109375 44.386719 L 372.640625 47.328125 L 371.160156 47.328125 L 370.691406 44.386719 Z M 370.4375 49.886719 C 370.4375 49.464844 370.570313 49.132813 370.835938 48.886719 C 371.101563 48.640625 371.449219 48.515625 371.882813 48.515625 C 372.339844 48.515625 372.699219 48.640625 372.964844 48.886719 C 373.226563 49.132813 373.359375 49.464844 373.359375 49.886719 C 373.359375 50.308594 373.226563 50.644531 372.964844 50.898438 C 372.699219 51.148438 372.339844 51.277344 371.882813 51.277344 C 371.449219 51.277344 371.101563 51.148438 370.835938 50.898438 C 370.570313 50.644531 370.4375 50.308594 370.4375 49.886719 "
       style=" stroke:none;fill-rule:nonzero;fill:rgb(9.803772%,16.078186%,32.940674%);fill-opacity:1;" />
    <path
       id="path717"
       d="M 293.886719 0 L 273.777344 71.753906 L 277.785156 71.753906 L 297.894531 0 Z M 293.886719 0 "
       style=" stroke:none;fill-rule:nonzero;fill:rgb(10.588074%,46.273804%,72.941589%);fill-opacity:1;" />
  </g>
</svg>
