<?xml version="1.0" encoding="UTF-8" standalone="no"?>
<svg
   xmlns:dc="http://purl.org/dc/elements/1.1/"
   xmlns:cc="http://creativecommons.org/ns#"
   xmlns:rdf="http://www.w3.org/1999/02/22-rdf-syntax-ns#"
   xmlns:svg="http://www.w3.org/2000/svg"
   xmlns="http://www.w3.org/2000/svg"
   id="svg574"
   version="1.2"
   viewBox="0 0 376.664 75.4726"
   height="75.4726pt"
   width="376.664pt">
  <metadata
     id="metadata578">
    <rdf:RDF>
      <cc:Work
         rdf:about="">
        <dc:format>image/svg+xml</dc:format>
        <dc:type
           rdf:resource="http://purl.org/dc/dcmitype/StillImage" />
        <dc:title></dc:title>
      </cc:Work>
    </rdf:RDF>
  </metadata>
  <defs
     id="defs453">
    <clipPath
       id="clip1">
      <path
         id="path444"
         d="M 368 22 L 376.664063 22 L 376.664063 33 L 368 33 Z M 368 22 " />
    </clipPath>
    <clipPath
       id="clip2">
      <path
         id="path447"
         d="M 206 65 L 213 65 L 213 75.472656 L 206 75.472656 Z M 206 65 " />
    </clipPath>
    <clipPath
       id="clip3">
      <path
         id="path450"
         d="M 240 65 L 247 65 L 247 75.472656 L 240 75.472656 Z M 240 65 " />
    </clipPath>
  </defs>
  <g
     id="surface268814">
    <path
       id="path455"
       d="M 315.132813 0.355469 L 315.132813 5.496094 L 310.515625 5.496094 L 310.515625 0.355469 L 308.042969 0.355469 L 308.042969 12.980469 L 310.515625 12.980469 L 310.515625 7.695313 L 315.132813 7.695313 L 315.132813 12.980469 L 317.601563 12.980469 L 317.601563 0.355469 Z M 315.132813 0.355469 "
       style=" stroke:none;fill-rule:nonzero;fill:rgb(9.803772%,16.078186%,32.940674%);fill-opacity:1;" />
    <path
       id="path457"
       d="M 322.652344 11.191406 C 323.121094 11.191406 323.492188 11.089844 323.769531 10.878906 C 324.046875 10.667969 324.25 10.441406 324.382813 10.203125 L 324.382813 9.03125 C 324.007813 8.992188 323.652344 8.988281 323.308594 9.011719 C 322.96875 9.035156 322.664063 9.089844 322.398438 9.171875 C 322.132813 9.257813 321.921875 9.378906 321.769531 9.535156 C 321.613281 9.691406 321.535156 9.890625 321.535156 10.128906 C 321.535156 10.464844 321.632813 10.726563 321.832031 10.914063 C 322.03125 11.101563 322.300781 11.191406 322.652344 11.191406 M 319.675781 4.484375 C 320.15625 4.269531 320.726563 4.097656 321.390625 3.96875 C 322.050781 3.84375 322.742188 3.78125 323.464844 3.78125 C 324.089844 3.78125 324.613281 3.855469 325.03125 4.007813 C 325.453125 4.15625 325.785156 4.371094 326.035156 4.648438 C 326.28125 4.921875 326.453125 5.253906 326.554688 5.640625 C 326.660156 6.023438 326.710938 6.457031 326.710938 6.9375 C 326.710938 7.464844 326.691406 8 326.65625 8.535156 C 326.621094 9.066406 326.597656 9.59375 326.589844 10.109375 C 326.585938 10.628906 326.601563 11.128906 326.636719 11.617188 C 326.671875 12.105469 326.761719 12.5625 326.910156 12.996094 L 324.996094 12.996094 L 324.617188 11.753906 L 324.527344 11.753906 C 324.289063 12.125 323.953125 12.445313 323.527344 12.71875 C 323.097656 12.988281 322.550781 13.125 321.875 13.125 C 321.457031 13.125 321.078125 13.058594 320.742188 12.933594 C 320.402344 12.808594 320.117188 12.628906 319.875 12.394531 C 319.632813 12.160156 319.449219 11.882813 319.316406 11.5625 C 319.183594 11.246094 319.117188 10.886719 319.117188 10.492188 C 319.117188 9.9375 319.242188 9.472656 319.488281 9.09375 C 319.734375 8.714844 320.089844 8.40625 320.550781 8.171875 C 321.011719 7.9375 321.566406 7.777344 322.210938 7.6875 C 322.851563 7.59375 323.570313 7.566406 324.367188 7.605469 C 324.449219 6.929688 324.402344 6.449219 324.21875 6.152344 C 324.039063 5.859375 323.636719 5.710938 323.011719 5.710938 C 322.542969 5.710938 322.046875 5.757813 321.523438 5.855469 C 321.003906 5.953125 320.570313 6.078125 320.234375 6.234375 Z M 319.675781 4.484375 "
       style=" stroke:none;fill-rule:nonzero;fill:rgb(9.803772%,16.078186%,32.940674%);fill-opacity:1;" />
    <path
       id="path459"
       d="M 331.597656 0.28125 C 331.679688 0.75 331.820313 1.082031 332.019531 1.273438 C 332.21875 1.46875 332.472656 1.5625 332.785156 1.5625 C 333.121094 1.5625 333.390625 1.46875 333.589844 1.273438 C 333.785156 1.082031 333.921875 0.757813 333.992188 0.300781 L 335.78125 0.75 C 335.636719 1.53125 335.28125 2.113281 334.714844 2.492188 C 334.152344 2.871094 333.488281 3.058594 332.734375 3.058594 C 332.359375 3.058594 332 3.019531 331.652344 2.933594 C 331.300781 2.851563 330.988281 2.714844 330.710938 2.527344 C 330.4375 2.339844 330.199219 2.105469 330.007813 1.816406 C 329.816406 1.527344 329.683594 1.171875 329.613281 0.75 Z M 334.101563 8.867188 L 334.195313 7.585938 L 334.140625 7.585938 L 333.363281 8.902344 L 330.152344 12.980469 L 328.675781 12.980469 L 328.675781 3.960938 L 331.019531 3.960938 L 331.019531 8.253906 L 330.910156 9.480469 L 330.984375 9.480469 L 331.722656 8.199219 L 334.96875 3.960938 L 336.449219 3.960938 L 336.449219 12.980469 L 334.101563 12.980469 Z M 334.101563 8.867188 "
       style=" stroke:none;fill-rule:nonzero;fill:rgb(9.803772%,16.078186%,32.940674%);fill-opacity:1;" />
    <path
       id="path461"
       d="M 343.804688 11.011719 L 343.804688 5.945313 L 341.910156 5.945313 C 341.886719 6.378906 341.847656 6.839844 341.785156 7.324219 C 341.726563 7.8125 341.652344 8.285156 341.5625 8.742188 C 341.472656 9.199219 341.367188 9.625 341.246094 10.019531 C 341.125 10.417969 340.992188 10.75 340.847656 11.011719 Z M 347.46875 15.035156 L 345.753906 15.035156 L 345.484375 12.980469 L 339.421875 12.980469 L 339.152344 15.035156 L 337.441406 15.035156 L 337.441406 10.90625 L 338.503906 10.90625 C 338.601563 10.773438 338.722656 10.546875 338.871094 10.226563 C 339.023438 9.910156 339.171875 9.472656 339.324219 8.921875 C 339.476563 8.367188 339.605469 7.683594 339.710938 6.863281 C 339.820313 6.046875 339.875 5.082031 339.875 3.960938 L 346.152344 3.960938 L 346.152344 10.90625 L 347.46875 10.90625 Z M 347.46875 15.035156 "
       style=" stroke:none;fill-rule:nonzero;fill:rgb(9.803772%,16.078186%,32.940674%);fill-opacity:1;" />
    <path
       id="path463"
       d="M 353.203125 1.582031 C 353.203125 1.195313 353.3125 0.890625 353.535156 0.660156 C 353.757813 0.433594 354.058594 0.320313 354.445313 0.320313 C 354.832031 0.320313 355.140625 0.433594 355.375 0.660156 C 355.609375 0.890625 355.726563 1.195313 355.726563 1.582031 C 355.726563 1.941406 355.609375 2.238281 355.375 2.464844 C 355.140625 2.691406 354.832031 2.808594 354.445313 2.808594 C 354.058594 2.808594 353.757813 2.691406 353.535156 2.464844 C 353.3125 2.238281 353.203125 1.941406 353.203125 1.582031 M 352.613281 5.585938 C 352.003906 5.585938 351.554688 5.769531 351.261719 6.136719 C 350.96875 6.503906 350.789063 6.992188 350.730469 7.605469 L 354.066406 7.605469 C 354.117188 6.957031 354.015625 6.457031 353.769531 6.109375 C 353.527344 5.757813 353.140625 5.585938 352.613281 5.585938 M 349.253906 1.582031 C 349.253906 1.195313 349.371094 0.890625 349.601563 0.660156 C 349.839844 0.433594 350.148438 0.320313 350.53125 0.320313 C 350.917969 0.320313 351.222656 0.433594 351.441406 0.660156 C 351.664063 0.890625 351.777344 1.195313 351.777344 1.582031 C 351.777344 1.941406 351.664063 2.238281 351.441406 2.464844 C 351.222656 2.691406 350.917969 2.808594 350.53125 2.808594 C 350.148438 2.808594 349.839844 2.691406 349.601563 2.464844 C 349.371094 2.238281 349.253906 1.941406 349.253906 1.582031 M 355.960938 12.203125 C 355.597656 12.492188 355.109375 12.734375 354.492188 12.933594 C 353.871094 13.132813 353.214844 13.230469 352.515625 13.230469 C 351.0625 13.230469 349.996094 12.808594 349.324219 11.960938 C 348.652344 11.113281 348.3125 9.949219 348.3125 8.46875 C 348.3125 6.882813 348.691406 5.691406 349.449219 4.898438 C 350.207031 4.105469 351.269531 3.710938 352.640625 3.710938 C 353.097656 3.710938 353.542969 3.769531 353.976563 3.890625 C 354.410156 4.011719 354.792969 4.207031 355.132813 4.484375 C 355.46875 4.761719 355.738281 5.132813 355.941406 5.601563 C 356.144531 6.070313 356.25 6.65625 356.25 7.351563 C 356.25 7.605469 356.234375 7.875 356.203125 8.164063 C 356.175781 8.453125 356.128906 8.753906 356.070313 9.066406 L 350.675781 9.066406 C 350.710938 9.824219 350.90625 10.394531 351.261719 10.777344 C 351.613281 11.164063 352.1875 11.355469 352.976563 11.355469 C 353.46875 11.355469 353.910156 11.28125 354.296875 11.128906 C 354.6875 10.980469 354.984375 10.828125 355.1875 10.671875 Z M 355.960938 12.203125 "
       style=" stroke:none;fill-rule:nonzero;fill:rgb(9.803772%,16.078186%,32.940674%);fill-opacity:1;" />
    <path
       id="path465"
       d="M 365.628906 8.847656 L 365.773438 6.972656 L 365.683594 6.972656 L 364.960938 8.523438 L 363.265625 11.320313 L 362.417969 11.320313 L 360.558594 8.523438 L 359.875 6.972656 L 359.765625 6.972656 L 360 8.832031 L 360 12.980469 L 357.910156 12.980469 L 357.910156 3.960938 L 360.34375 3.960938 L 362.417969 7.351563 L 362.921875 8.488281 L 362.992188 8.488281 L 363.519531 7.316406 L 365.429688 3.960938 L 367.882813 3.960938 L 367.882813 12.980469 L 365.628906 12.980469 Z M 365.628906 8.847656 "
       style=" stroke:none;fill-rule:nonzero;fill:rgb(9.803772%,16.078186%,32.940674%);fill-opacity:1;" />
    <path
       id="path467"
       d="M 312.011719 24.882813 C 311.554688 24.882813 311.199219 25 310.9375 25.226563 C 310.679688 25.453125 310.480469 25.796875 310.332031 26.253906 L 310.332031 30.003906 C 310.503906 30.136719 310.6875 30.242188 310.886719 30.320313 C 311.082031 30.398438 311.34375 30.4375 311.667969 30.4375 C 312.34375 30.4375 312.847656 30.199219 313.183594 29.726563 C 313.519531 29.25 313.6875 28.464844 313.6875 27.371094 C 313.6875 26.578125 313.558594 25.964844 313.292969 25.53125 C 313.027344 25.101563 312.601563 24.882813 312.011719 24.882813 M 307.992188 23.152344 L 309.703125 23.152344 L 309.972656 24.234375 L 310.046875 24.234375 C 310.359375 23.777344 310.726563 23.441406 311.15625 23.222656 C 311.582031 23.007813 312.101563 22.898438 312.714844 22.898438 C 313.84375 22.898438 314.691406 23.257813 315.257813 23.972656 C 315.824219 24.6875 316.105469 25.839844 316.105469 27.425781 C 316.105469 28.195313 316.015625 28.890625 315.835938 29.507813 C 315.65625 30.128906 315.386719 30.652344 315.03125 31.085938 C 314.679688 31.519531 314.246094 31.851563 313.734375 32.078125 C 313.222656 32.308594 312.636719 32.421875 311.976563 32.421875 C 311.601563 32.421875 311.296875 32.394531 311.054688 32.339844 C 310.816406 32.285156 310.574219 32.199219 310.332031 32.078125 L 310.332031 35.777344 L 307.992188 35.777344 Z M 307.992188 23.152344 "
       style=" stroke:none;fill-rule:nonzero;fill:rgb(9.803772%,16.078186%,32.940674%);fill-opacity:1;" />
    <path
       id="path469"
       d="M 321.597656 24.773438 C 320.984375 24.773438 320.535156 24.960938 320.242188 25.324219 C 319.949219 25.691406 319.773438 26.183594 319.710938 26.796875 L 323.046875 26.796875 C 323.097656 26.144531 322.996094 25.648438 322.753906 25.296875 C 322.507813 24.949219 322.121094 24.773438 321.597656 24.773438 M 324.941406 31.394531 C 324.582031 31.683594 324.089844 31.925781 323.472656 32.125 C 322.851563 32.324219 322.195313 32.421875 321.496094 32.421875 C 320.042969 32.421875 318.980469 32 318.304688 31.148438 C 317.632813 30.300781 317.292969 29.140625 317.292969 27.660156 C 317.292969 26.074219 317.675781 24.882813 318.433594 24.089844 C 319.1875 23.296875 320.253906 22.898438 321.625 22.898438 C 322.078125 22.898438 322.527344 22.960938 322.957031 23.082031 C 323.390625 23.199219 323.777344 23.398438 324.113281 23.675781 C 324.449219 23.953125 324.71875 24.324219 324.925781 24.792969 C 325.128906 25.261719 325.230469 25.84375 325.230469 26.542969 C 325.230469 26.796875 325.214844 27.066406 325.1875 27.355469 C 325.15625 27.640625 325.109375 27.941406 325.050781 28.253906 L 319.660156 28.253906 C 319.695313 29.011719 319.890625 29.585938 320.242188 29.96875 C 320.597656 30.355469 321.167969 30.546875 321.957031 30.546875 C 322.449219 30.546875 322.890625 30.472656 323.28125 30.320313 C 323.667969 30.171875 323.964844 30.015625 324.167969 29.859375 Z M 324.941406 31.394531 "
       style=" stroke:none;fill-rule:nonzero;fill:rgb(9.803772%,16.078186%,32.940674%);fill-opacity:1;" />
    <path
       id="path471"
       d="M 326.890625 32.167969 L 326.890625 23.152344 L 329.234375 23.152344 L 329.234375 30.09375 L 331.488281 30.09375 L 331.488281 23.152344 L 333.832031 23.152344 L 333.832031 30.09375 L 336.085938 30.09375 L 336.085938 23.152344 L 338.433594 23.152344 L 338.433594 32.167969 Z M 326.890625 32.167969 "
       style=" stroke:none;fill-rule:nonzero;fill:rgb(9.803772%,16.078186%,32.940674%);fill-opacity:1;" />
    <path
       id="path473"
       d="M 344.355469 24.773438 C 343.746094 24.773438 343.292969 24.960938 343 25.324219 C 342.707031 25.691406 342.53125 26.183594 342.472656 26.796875 L 345.808594 26.796875 C 345.855469 26.144531 345.757813 25.648438 345.511719 25.296875 C 345.265625 24.949219 344.878906 24.773438 344.355469 24.773438 M 347.703125 31.394531 C 347.339844 31.683594 346.851563 31.925781 346.230469 32.125 C 345.613281 32.324219 344.953125 32.421875 344.257813 32.421875 C 342.800781 32.421875 341.738281 32 341.066406 31.148438 C 340.390625 30.300781 340.054688 29.140625 340.054688 27.660156 C 340.054688 26.074219 340.433594 24.882813 341.191406 24.089844 C 341.949219 23.296875 343.011719 22.898438 344.382813 22.898438 C 344.839844 22.898438 345.285156 22.960938 345.71875 23.082031 C 346.152344 23.199219 346.535156 23.398438 346.871094 23.675781 C 347.210938 23.953125 347.480469 24.324219 347.683594 24.792969 C 347.886719 25.261719 347.992188 25.84375 347.992188 26.542969 C 347.992188 26.796875 347.976563 27.066406 347.945313 27.355469 C 347.914063 27.640625 347.871094 27.941406 347.8125 28.253906 L 342.417969 28.253906 C 342.453125 29.011719 342.648438 29.585938 343 29.96875 C 343.355469 30.355469 343.925781 30.546875 344.71875 30.546875 C 345.210938 30.546875 345.648438 30.472656 346.039063 30.320313 C 346.429688 30.171875 346.726563 30.015625 346.929688 29.859375 Z M 347.703125 31.394531 "
       style=" stroke:none;fill-rule:nonzero;fill:rgb(9.803772%,16.078186%,32.940674%);fill-opacity:1;" />
    <path
       id="path475"
       d="M 354.933594 28.617188 L 351.992188 28.617188 L 351.992188 32.167969 L 349.648438 32.167969 L 349.648438 23.152344 L 351.992188 23.152344 L 351.992188 26.542969 L 354.933594 26.542969 L 354.933594 23.152344 L 357.277344 23.152344 L 357.277344 32.167969 L 354.933594 32.167969 Z M 354.933594 28.617188 "
       style=" stroke:none;fill-rule:nonzero;fill:rgb(9.803772%,16.078186%,32.940674%);fill-opacity:1;" />
    <path
       id="path477"
       d="M 364.761719 28.058594 L 364.851563 26.777344 L 364.796875 26.777344 L 364.023438 28.09375 L 360.8125 32.167969 L 359.332031 32.167969 L 359.332031 23.152344 L 361.679688 23.152344 L 361.679688 27.445313 L 361.570313 28.671875 L 361.640625 28.671875 L 362.382813 27.390625 L 365.628906 23.152344 L 367.105469 23.152344 L 367.105469 32.167969 L 364.761719 32.167969 Z M 364.761719 28.058594 "
       style=" stroke:none;fill-rule:nonzero;fill:rgb(9.803772%,16.078186%,32.940674%);fill-opacity:1;" />
    <g
       id="g481"
       clip-rule="nonzero"
       clip-path="url(#clip1)">
      <path
         id="path479"
         d="M 373.03125 24.773438 C 372.417969 24.773438 371.96875 24.960938 371.675781 25.324219 C 371.382813 25.691406 371.207031 26.183594 371.144531 26.796875 L 374.480469 26.796875 C 374.53125 26.144531 374.429688 25.648438 374.1875 25.296875 C 373.941406 24.949219 373.554688 24.773438 373.03125 24.773438 M 376.375 31.394531 C 376.015625 31.683594 375.523438 31.925781 374.90625 32.125 C 374.285156 32.324219 373.628906 32.421875 372.929688 32.421875 C 371.476563 32.421875 370.414063 32 369.738281 31.148438 C 369.066406 30.300781 368.726563 29.140625 368.726563 27.660156 C 368.726563 26.074219 369.109375 24.882813 369.867188 24.089844 C 370.621094 23.296875 371.6875 22.898438 373.058594 22.898438 C 373.511719 22.898438 373.960938 22.960938 374.390625 23.082031 C 374.824219 23.199219 375.210938 23.398438 375.546875 23.675781 C 375.882813 23.953125 376.152344 24.324219 376.359375 24.792969 C 376.5625 25.261719 376.664063 25.84375 376.664063 26.542969 C 376.664063 26.796875 376.648438 27.066406 376.621094 27.355469 C 376.589844 27.640625 376.542969 27.941406 376.484375 28.253906 L 371.09375 28.253906 C 371.128906 29.011719 371.324219 29.585938 371.675781 29.96875 C 372.03125 30.355469 372.601563 30.546875 373.390625 30.546875 C 373.882813 30.546875 374.324219 30.472656 374.714844 30.320313 C 375.101563 30.171875 375.398438 30.015625 375.601563 29.859375 Z M 376.375 31.394531 "
         style=" stroke:none;fill-rule:nonzero;fill:rgb(9.803772%,16.078186%,32.940674%);fill-opacity:1;" />
    </g>
    <path
       id="path483"
       d="M 310.28125 49.558594 C 310.449219 49.582031 310.605469 49.597656 310.75 49.609375 C 310.894531 49.625 311.074219 49.628906 311.289063 49.628906 C 311.941406 49.628906 312.402344 49.539063 312.679688 49.359375 C 312.957031 49.179688 313.09375 48.902344 313.09375 48.527344 C 313.09375 48.214844 312.976563 47.960938 312.742188 47.761719 C 312.507813 47.5625 312.089844 47.464844 311.488281 47.464844 L 310.28125 47.464844 Z M 311.523438 46.023438 C 311.910156 46.023438 312.222656 45.929688 312.472656 45.742188 C 312.71875 45.554688 312.839844 45.320313 312.839844 45.03125 C 312.839844 44.71875 312.734375 44.480469 312.527344 44.316406 C 312.316406 44.15625 311.933594 44.074219 311.378906 44.074219 C 311.101563 44.074219 310.882813 44.082031 310.722656 44.09375 C 310.558594 44.105469 310.414063 44.117188 310.28125 44.128906 L 310.28125 46.023438 Z M 307.992188 42.359375 C 308.410156 42.324219 308.917969 42.289063 309.511719 42.253906 C 310.109375 42.21875 310.75 42.199219 311.433594 42.199219 C 312.757813 42.199219 313.699219 42.386719 314.257813 42.765625 C 314.816406 43.144531 315.09375 43.714844 315.09375 44.472656 C 315.09375 44.890625 314.976563 45.300781 314.734375 45.699219 C 314.496094 46.09375 314.117188 46.382813 313.597656 46.5625 L 313.597656 46.636719 C 314.25 46.78125 314.71875 47.035156 315.003906 47.402344 C 315.292969 47.769531 315.4375 48.238281 315.4375 48.816406 C 315.4375 49.71875 315.09375 50.390625 314.402344 50.835938 C 313.710938 51.28125 312.601563 51.503906 311.074219 51.503906 C 310.570313 51.503906 310.035156 51.488281 309.46875 51.460938 C 308.902344 51.429688 308.410156 51.390625 307.992188 51.34375 Z M 307.992188 42.359375 "
       style=" stroke:none;fill-rule:nonzero;fill:rgb(9.803772%,16.078186%,32.940674%);fill-opacity:1;" />
    <path
       id="path485"
       d="M 324.816406 47.230469 L 324.960938 45.355469 L 324.871094 45.355469 L 324.148438 46.90625 L 322.453125 49.703125 L 321.605469 49.703125 L 319.75 46.90625 L 319.0625 45.355469 L 318.957031 45.355469 L 319.191406 47.210938 L 319.191406 51.359375 L 317.097656 51.359375 L 317.097656 42.34375 L 319.53125 42.34375 L 321.605469 45.734375 L 322.113281 46.871094 L 322.183594 46.871094 L 322.707031 45.699219 L 324.617188 42.34375 L 327.070313 42.34375 L 327.070313 51.359375 L 324.816406 51.359375 Z M 324.816406 47.230469 "
       style=" stroke:none;fill-rule:nonzero;fill:rgb(9.803772%,16.078186%,32.940674%);fill-opacity:1;" />
    <path
       id="path487"
       d="M 332.976563 43.964844 C 332.367188 43.964844 331.914063 44.148438 331.621094 44.515625 C 331.328125 44.882813 331.152344 45.375 331.09375 45.984375 L 334.429688 45.984375 C 334.476563 45.335938 334.378906 44.839844 334.132813 44.488281 C 333.886719 44.140625 333.5 43.964844 332.976563 43.964844 M 336.324219 50.585938 C 335.960938 50.875 335.472656 51.117188 334.851563 51.316406 C 334.234375 51.511719 333.574219 51.613281 332.875 51.613281 C 331.421875 51.613281 330.359375 51.1875 329.6875 50.339844 C 329.011719 49.492188 328.675781 48.332031 328.675781 46.851563 C 328.675781 45.265625 329.054688 44.074219 329.8125 43.28125 C 330.570313 42.488281 331.632813 42.089844 333.003906 42.089844 C 333.460938 42.089844 333.90625 42.152344 334.335938 42.269531 C 334.769531 42.390625 335.15625 42.589844 335.492188 42.867188 C 335.828125 43.144531 336.101563 43.515625 336.304688 43.984375 C 336.507813 44.453125 336.609375 45.035156 336.609375 45.734375 C 336.609375 45.984375 336.59375 46.257813 336.566406 46.546875 C 336.535156 46.832031 336.492188 47.132813 336.429688 47.445313 L 331.039063 47.445313 C 331.074219 48.203125 331.269531 48.773438 331.621094 49.160156 C 331.976563 49.546875 332.546875 49.738281 333.335938 49.738281 C 333.828125 49.738281 334.269531 49.664063 334.660156 49.511719 C 335.046875 49.363281 335.34375 49.207031 335.546875 49.050781 Z M 336.324219 50.585938 "
       style=" stroke:none;fill-rule:nonzero;fill:rgb(9.803772%,16.078186%,32.940674%);fill-opacity:1;" />
    <path
       id="path489"
       d="M 344.5625 50.800781 C 344.203125 51.066406 343.765625 51.265625 343.253906 51.40625 C 342.746094 51.542969 342.21875 51.613281 341.675781 51.613281 C 340.957031 51.613281 340.347656 51.5 339.847656 51.269531 C 339.347656 51.042969 338.941406 50.71875 338.628906 50.304688 C 338.316406 49.890625 338.089844 49.386719 337.953125 48.800781 C 337.816406 48.210938 337.746094 47.5625 337.746094 46.851563 C 337.746094 45.324219 338.089844 44.148438 338.773438 43.328125 C 339.460938 42.503906 340.457031 42.089844 341.769531 42.089844 C 342.429688 42.089844 342.960938 42.144531 343.363281 42.253906 C 343.765625 42.359375 344.128906 42.5 344.457031 42.667969 L 343.898438 44.578125 C 343.621094 44.445313 343.347656 44.34375 343.078125 44.273438 C 342.804688 44.199219 342.496094 44.164063 342.148438 44.164063 C 341.5 44.164063 341.003906 44.378906 340.667969 44.804688 C 340.332031 45.230469 340.164063 45.914063 340.164063 46.851563 C 340.164063 47.238281 340.207031 47.589844 340.289063 47.914063 C 340.375 48.238281 340.5 48.523438 340.667969 48.761719 C 340.835938 49.003906 341.054688 49.191406 341.328125 49.332031 C 341.597656 49.46875 341.914063 49.539063 342.273438 49.539063 C 342.667969 49.539063 343.007813 49.488281 343.285156 49.386719 C 343.558594 49.28125 343.804688 49.160156 344.023438 49.015625 Z M 344.5625 50.800781 "
       style=" stroke:none;fill-rule:nonzero;fill:rgb(9.803772%,16.078186%,32.940674%);fill-opacity:1;" />
    <path
       id="path491"
       d="M 352.390625 44.417969 L 349.847656 44.417969 L 349.847656 51.359375 L 347.429688 51.359375 L 347.429688 44.417969 L 344.886719 44.417969 L 344.886719 42.34375 L 352.390625 42.34375 Z M 352.390625 44.417969 "
       style=" stroke:none;fill-rule:nonzero;fill:rgb(9.803772%,16.078186%,32.940674%);fill-opacity:1;" />
    <path
       id="path493"
       d="M 357.160156 43.964844 C 356.550781 43.964844 356.097656 44.148438 355.804688 44.515625 C 355.511719 44.882813 355.335938 45.375 355.277344 45.984375 L 358.613281 45.984375 C 358.660156 45.335938 358.5625 44.839844 358.316406 44.488281 C 358.070313 44.140625 357.683594 43.964844 357.160156 43.964844 M 360.507813 50.585938 C 360.144531 50.875 359.65625 51.117188 359.035156 51.316406 C 358.417969 51.511719 357.757813 51.613281 357.0625 51.613281 C 355.605469 51.613281 354.542969 51.1875 353.871094 50.339844 C 353.195313 49.492188 352.859375 48.332031 352.859375 46.851563 C 352.859375 45.265625 353.238281 44.074219 353.996094 43.28125 C 354.753906 42.488281 355.816406 42.089844 357.1875 42.089844 C 357.644531 42.089844 358.089844 42.152344 358.523438 42.269531 C 358.957031 42.390625 359.339844 42.589844 359.675781 42.867188 C 360.015625 43.144531 360.285156 43.515625 360.488281 43.984375 C 360.691406 44.453125 360.796875 45.035156 360.796875 45.734375 C 360.796875 45.984375 360.78125 46.257813 360.75 46.546875 C 360.71875 46.832031 360.675781 47.132813 360.617188 47.445313 L 355.222656 47.445313 C 355.257813 48.203125 355.453125 48.773438 355.804688 49.160156 C 356.160156 49.546875 356.730469 49.738281 357.523438 49.738281 C 358.015625 49.738281 358.453125 49.664063 358.84375 49.511719 C 359.234375 49.363281 359.53125 49.207031 359.734375 49.050781 Z M 360.507813 50.585938 "
       style=" stroke:none;fill-rule:nonzero;fill:rgb(9.803772%,16.078186%,32.940674%);fill-opacity:1;" />
    <path
       id="path495"
       d="M 363.230469 38.734375 L 365.644531 38.734375 L 365.644531 44.667969 L 365.175781 47.609375 L 363.699219 47.609375 L 363.230469 44.667969 Z M 362.976563 50.171875 C 362.976563 49.75 363.109375 49.414063 363.375 49.167969 C 363.636719 48.921875 363.988281 48.800781 364.417969 48.800781 C 364.875 48.800781 365.238281 48.921875 365.5 49.167969 C 365.765625 49.414063 365.898438 49.75 365.898438 50.171875 C 365.898438 50.589844 365.765625 50.925781 365.5 51.179688 C 365.238281 51.433594 364.875 51.558594 364.417969 51.558594 C 363.988281 51.558594 363.636719 51.433594 363.375 51.179688 C 363.109375 50.925781 362.976563 50.589844 362.976563 50.171875 "
       style=" stroke:none;fill-rule:nonzero;fill:rgb(9.803772%,16.078186%,32.940674%);fill-opacity:1;" />
    <path
       id="path497"
       d="M 286.425781 0.28125 L 266.3125 72.035156 L 270.324219 72.035156 L 290.433594 0.28125 Z M 286.425781 0.28125 "
       style=" stroke:none;fill-rule:nonzero;fill:rgb(10.588074%,46.273804%,72.941589%);fill-opacity:1;" />
    <path
       id="path499"
       d="M 8 38.1875 L 0 52.089844 L 59.304688 52.089844 L 50.804688 38.1875 Z M 8 38.1875 "
       style=" stroke:none;fill-rule:nonzero;fill:rgb(10.980225%,46.273804%,73.725891%);fill-opacity:1;" />
    <path
       id="path501"
       d="M 43.800781 25.320313 L 29.652344 0.730469 L 15.4375 25.320313 Z M 43.800781 25.320313 "
       style=" stroke:none;fill-rule:nonzero;fill:rgb(9.411621%,16.078186%,33.332825%);fill-opacity:1;" />
    <path
       id="path503"
       d="M 0 72.53125 L 0 62.820313 L 5.285156 62.820313 L 5.285156 63.847656 L 1.152344 63.847656 L 1.152344 67.160156 L 5.007813 67.160156 L 5.007813 68.191406 L 1.152344 68.191406 L 1.152344 72.53125 Z M 0 72.53125 "
       style=" stroke:none;fill-rule:nonzero;fill:rgb(10.980225%,46.273804%,73.725891%);fill-opacity:1;" />
    <path
       id="path505"
       d="M 8.816406 65.59375 L 9.925781 65.59375 L 9.925781 72.53125 L 8.816406 72.53125 Z M 8.585938 63.488281 C 8.585938 63.277344 8.65625 63.09375 8.796875 62.941406 C 8.9375 62.785156 9.121094 62.710938 9.339844 62.710938 C 9.5625 62.710938 9.753906 62.785156 9.910156 62.941406 C 10.070313 63.09375 10.148438 63.277344 10.148438 63.488281 C 10.148438 63.703125 10.070313 63.875 9.910156 64.015625 C 9.753906 64.152344 9.5625 64.21875 9.339844 64.21875 C 9.121094 64.21875 8.9375 64.152344 8.796875 64.015625 C 8.65625 63.875 8.585938 63.703125 8.585938 63.488281 "
       style=" stroke:none;fill-rule:nonzero;fill:rgb(10.980225%,46.273804%,73.725891%);fill-opacity:1;" />
    <path
       id="path507"
       d="M 13.824219 72.53125 L 13.824219 65.59375 L 14.59375 65.59375 L 14.804688 66.441406 L 14.859375 66.441406 C 15.082031 66.144531 15.378906 65.902344 15.753906 65.710938 C 16.128906 65.523438 16.574219 65.425781 17.09375 65.425781 C 17.472656 65.425781 17.808594 65.46875 18.09375 65.558594 C 18.382813 65.648438 18.621094 65.800781 18.808594 66.027344 C 19 66.25 19.140625 66.546875 19.238281 66.921875 C 19.335938 67.296875 19.386719 67.773438 19.386719 68.34375 L 19.386719 72.53125 L 18.273438 72.53125 L 18.273438 68.578125 C 18.273438 67.855469 18.171875 67.3125 17.960938 66.949219 C 17.753906 66.582031 17.375 66.402344 16.816406 66.402344 C 16.324219 66.402344 15.921875 66.535156 15.601563 66.796875 C 15.285156 67.0625 15.058594 67.394531 14.933594 67.789063 L 14.933594 72.53125 Z M 13.824219 72.53125 "
       style=" stroke:none;fill-rule:nonzero;fill:rgb(10.980225%,46.273804%,73.725891%);fill-opacity:1;" />
    <path
       id="path509"
       d="M 23.558594 70.558594 C 23.558594 70.882813 23.675781 71.148438 23.90625 71.355469 C 24.136719 71.5625 24.433594 71.664063 24.792969 71.664063 C 25.050781 71.664063 25.28125 71.632813 25.488281 71.5625 C 25.691406 71.492188 25.867188 71.402344 26.015625 71.296875 C 26.164063 71.191406 26.285156 71.074219 26.382813 70.945313 C 26.480469 70.816406 26.550781 70.691406 26.59375 70.570313 L 26.59375 69.421875 C 26.464844 69.414063 26.332031 69.40625 26.199219 69.402344 C 26.066406 69.398438 25.933594 69.394531 25.808594 69.394531 C 25.523438 69.394531 25.246094 69.410156 24.96875 69.441406 C 24.695313 69.476563 24.453125 69.535156 24.246094 69.621094 C 24.035156 69.710938 23.871094 69.832031 23.746094 69.984375 C 23.621094 70.136719 23.558594 70.328125 23.558594 70.558594 M 22.410156 70.671875 C 22.410156 70.265625 22.492188 69.929688 22.660156 69.65625 C 22.824219 69.382813 23.058594 69.164063 23.359375 69.003906 C 23.660156 68.839844 24.019531 68.722656 24.441406 68.652344 C 24.859375 68.585938 25.324219 68.550781 25.835938 68.550781 L 26.21875 68.550781 C 26.34375 68.550781 26.46875 68.558594 26.59375 68.578125 C 26.621094 68.300781 26.636719 68.054688 26.644531 67.832031 C 26.644531 67.324219 26.539063 66.96875 26.332031 66.765625 C 26.128906 66.5625 25.761719 66.464844 25.226563 66.464844 C 25.066406 66.464844 24.898438 66.472656 24.71875 66.496094 C 24.539063 66.519531 24.351563 66.550781 24.164063 66.59375 C 23.972656 66.636719 23.792969 66.6875 23.621094 66.746094 C 23.449219 66.804688 23.300781 66.871094 23.171875 66.949219 L 22.820313 66.113281 C 23.171875 65.902344 23.582031 65.742188 24.050781 65.640625 C 24.519531 65.539063 25.007813 65.488281 25.519531 65.488281 C 25.996094 65.488281 26.382813 65.550781 26.671875 65.679688 C 26.964844 65.808594 27.1875 65.976563 27.339844 66.1875 C 27.492188 66.394531 27.59375 66.621094 27.644531 66.875 C 27.695313 67.125 27.71875 67.375 27.71875 67.625 C 27.71875 68.179688 27.707031 68.71875 27.679688 69.242188 C 27.652344 69.769531 27.636719 70.265625 27.636719 70.738281 C 27.636719 71.085938 27.652344 71.410156 27.679688 71.714844 C 27.707031 72.019531 27.757813 72.300781 27.835938 72.558594 L 27.015625 72.558594 L 26.722656 71.585938 L 26.65625 71.585938 C 26.574219 71.714844 26.472656 71.84375 26.34375 71.96875 C 26.21875 72.09375 26.066406 72.207031 25.890625 72.304688 C 25.714844 72.402344 25.511719 72.480469 25.28125 72.546875 C 25.050781 72.609375 24.785156 72.640625 24.488281 72.640625 C 24.191406 72.640625 23.914063 72.59375 23.660156 72.503906 C 23.410156 72.410156 23.191406 72.277344 23.003906 72.109375 C 22.820313 71.9375 22.671875 71.734375 22.566406 71.492188 C 22.460938 71.246094 22.410156 70.976563 22.410156 70.671875 "
       style=" stroke:none;fill-rule:nonzero;fill:rgb(10.980225%,46.273804%,73.725891%);fill-opacity:1;" />
    <path
       id="path511"
       d="M 31.339844 72.53125 L 31.339844 65.59375 L 32.109375 65.59375 L 32.320313 66.441406 L 32.375 66.441406 C 32.597656 66.144531 32.894531 65.902344 33.269531 65.710938 C 33.644531 65.523438 34.089844 65.425781 34.609375 65.425781 C 34.988281 65.425781 35.324219 65.46875 35.609375 65.558594 C 35.898438 65.648438 36.132813 65.800781 36.324219 66.027344 C 36.515625 66.25 36.65625 66.546875 36.753906 66.921875 C 36.851563 67.296875 36.902344 67.773438 36.902344 68.34375 L 36.902344 72.53125 L 35.789063 72.53125 L 35.789063 68.578125 C 35.789063 67.855469 35.6875 67.3125 35.476563 66.949219 C 35.269531 66.582031 34.886719 66.402344 34.332031 66.402344 C 33.839844 66.402344 33.4375 66.535156 33.117188 66.796875 C 32.796875 67.0625 32.574219 67.394531 32.449219 67.789063 L 32.449219 72.53125 Z M 31.339844 72.53125 "
       style=" stroke:none;fill-rule:nonzero;fill:rgb(10.980225%,46.273804%,73.725891%);fill-opacity:1;" />
    <path
       id="path513"
       d="M 40.058594 69.0625 C 40.058594 67.890625 40.320313 66.992188 40.835938 66.363281 C 41.355469 65.738281 42.101563 65.425781 43.074219 65.425781 C 43.515625 65.425781 43.890625 65.460938 44.203125 65.53125 C 44.511719 65.601563 44.792969 65.703125 45.042969 65.832031 L 44.71875 66.789063 C 44.507813 66.667969 44.273438 66.570313 44.015625 66.503906 C 43.757813 66.4375 43.480469 66.402344 43.183594 66.402344 C 41.867188 66.402344 41.210938 67.289063 41.210938 69.0625 C 41.210938 69.417969 41.246094 69.75 41.316406 70.070313 C 41.386719 70.386719 41.5 70.671875 41.664063 70.917969 C 41.828125 71.164063 42.039063 71.359375 42.300781 71.507813 C 42.5625 71.652344 42.890625 71.726563 43.277344 71.726563 C 43.609375 71.726563 43.910156 71.675781 44.175781 71.574219 C 44.4375 71.472656 44.652344 71.355469 44.820313 71.226563 L 45.179688 72.074219 C 44.90625 72.277344 44.578125 72.429688 44.199219 72.539063 C 43.820313 72.648438 43.421875 72.703125 43.003906 72.703125 C 42.46875 72.703125 42.015625 72.617188 41.644531 72.445313 C 41.273438 72.273438 40.96875 72.027344 40.734375 71.707031 C 40.496094 71.386719 40.324219 71 40.21875 70.554688 C 40.113281 70.105469 40.058594 69.609375 40.058594 69.0625 "
       style=" stroke:none;fill-rule:nonzero;fill:rgb(10.980225%,46.273804%,73.725891%);fill-opacity:1;" />
    <path
       id="path515"
       d="M 48.460938 65.59375 L 49.570313 65.59375 L 49.570313 72.53125 L 48.460938 72.53125 Z M 48.230469 63.488281 C 48.230469 63.277344 48.300781 63.09375 48.441406 62.941406 C 48.585938 62.785156 48.765625 62.710938 48.984375 62.710938 C 49.207031 62.710938 49.398438 62.785156 49.558594 62.941406 C 49.714844 63.09375 49.796875 63.277344 49.796875 63.488281 C 49.796875 63.703125 49.714844 63.875 49.558594 64.015625 C 49.398438 64.152344 49.207031 64.21875 48.984375 64.21875 C 48.765625 64.21875 48.585938 64.152344 48.441406 64.015625 C 48.300781 63.875 48.230469 63.703125 48.230469 63.488281 "
       style=" stroke:none;fill-rule:nonzero;fill:rgb(10.980225%,46.273804%,73.725891%);fill-opacity:1;" />
    <path
       id="path517"
       d="M 54.09375 70.558594 C 54.09375 70.882813 54.207031 71.148438 54.4375 71.355469 C 54.667969 71.5625 54.964844 71.664063 55.324219 71.664063 C 55.582031 71.664063 55.8125 71.632813 56.019531 71.5625 C 56.226563 71.492188 56.402344 71.402344 56.546875 71.296875 C 56.695313 71.191406 56.816406 71.074219 56.914063 70.945313 C 57.011719 70.816406 57.082031 70.691406 57.128906 70.570313 L 57.128906 69.421875 C 56.996094 69.414063 56.863281 69.40625 56.730469 69.402344 C 56.597656 69.398438 56.46875 69.394531 56.339844 69.394531 C 56.058594 69.394531 55.777344 69.410156 55.5 69.441406 C 55.226563 69.476563 54.984375 69.535156 54.777344 69.621094 C 54.570313 69.710938 54.402344 69.832031 54.277344 69.984375 C 54.152344 70.136719 54.09375 70.328125 54.09375 70.558594 M 52.941406 70.671875 C 52.941406 70.265625 53.023438 69.929688 53.191406 69.65625 C 53.359375 69.382813 53.59375 69.164063 53.890625 69.003906 C 54.191406 68.839844 54.554688 68.722656 54.972656 68.652344 C 55.394531 68.585938 55.859375 68.550781 56.367188 68.550781 L 56.75 68.550781 C 56.875 68.550781 57 68.558594 57.128906 68.578125 C 57.152344 68.300781 57.171875 68.054688 57.175781 67.832031 C 57.175781 67.324219 57.070313 66.96875 56.867188 66.765625 C 56.660156 66.5625 56.292969 66.464844 55.757813 66.464844 C 55.601563 66.464844 55.429688 66.472656 55.25 66.496094 C 55.070313 66.519531 54.886719 66.550781 54.695313 66.59375 C 54.507813 66.636719 54.324219 66.6875 54.152344 66.746094 C 53.980469 66.804688 53.832031 66.871094 53.707031 66.949219 L 53.355469 66.113281 C 53.707031 65.902344 54.117188 65.742188 54.582031 65.640625 C 55.050781 65.539063 55.539063 65.488281 56.050781 65.488281 C 56.527344 65.488281 56.914063 65.550781 57.203125 65.679688 C 57.496094 65.808594 57.71875 65.976563 57.871094 66.1875 C 58.027344 66.394531 58.128906 66.621094 58.175781 66.875 C 58.226563 67.125 58.253906 67.375 58.253906 67.625 C 58.253906 68.179688 58.238281 68.71875 58.210938 69.242188 C 58.183594 69.769531 58.171875 70.265625 58.171875 70.738281 C 58.171875 71.085938 58.183594 71.410156 58.210938 71.714844 C 58.238281 72.019531 58.289063 72.300781 58.367188 72.558594 L 57.546875 72.558594 L 57.257813 71.585938 L 57.1875 71.585938 C 57.105469 71.714844 57.003906 71.84375 56.878906 71.96875 C 56.75 72.09375 56.597656 72.207031 56.421875 72.304688 C 56.246094 72.402344 56.042969 72.480469 55.8125 72.546875 C 55.582031 72.609375 55.320313 72.640625 55.019531 72.640625 C 54.722656 72.640625 54.445313 72.59375 54.195313 72.503906 C 53.941406 72.410156 53.722656 72.277344 53.535156 72.109375 C 53.351563 71.9375 53.207031 71.734375 53.101563 71.492188 C 52.992188 71.246094 52.941406 70.976563 52.941406 70.671875 "
       style=" stroke:none;fill-rule:nonzero;fill:rgb(10.980225%,46.273804%,73.725891%);fill-opacity:1;" />
    <path
       id="path519"
       d="M 61.992188 71.144531 L 61.992188 62.816406 L 63.105469 62.816406 L 63.105469 70.824219 C 63.105469 71.152344 63.160156 71.382813 63.269531 71.519531 C 63.378906 71.65625 63.539063 71.726563 63.742188 71.726563 C 63.863281 71.726563 63.992188 71.71875 64.128906 71.699219 C 64.269531 71.683594 64.425781 71.640625 64.601563 71.578125 L 64.730469 72.453125 C 64.582031 72.523438 64.375 72.582031 64.109375 72.632813 C 63.847656 72.679688 63.617188 72.703125 63.421875 72.703125 C 63.007813 72.703125 62.664063 72.582031 62.394531 72.347656 C 62.128906 72.109375 61.992188 71.707031 61.992188 71.144531 "
       style=" stroke:none;fill-rule:nonzero;fill:rgb(10.980225%,46.273804%,73.725891%);fill-opacity:1;" />
    <path
       id="path521"
       d="M 76.183594 71.570313 C 76.226563 71.578125 76.316406 71.585938 76.445313 71.589844 C 76.578125 71.59375 76.710938 71.601563 76.847656 71.605469 C 76.988281 71.609375 77.121094 71.613281 77.25 71.617188 C 77.375 71.621094 77.46875 71.625 77.515625 71.625 C 78.160156 71.625 78.703125 71.515625 79.144531 71.292969 C 79.585938 71.070313 79.9375 70.773438 80.199219 70.398438 C 80.460938 70.027344 80.648438 69.59375 80.757813 69.109375 C 80.867188 68.625 80.921875 68.125 80.921875 67.605469 C 80.921875 67.152344 80.871094 66.699219 80.769531 66.242188 C 80.667969 65.78125 80.496094 65.367188 80.246094 65 C 80 64.628906 79.664063 64.324219 79.242188 64.089844 C 78.820313 63.855469 78.289063 63.738281 77.65625 63.738281 L 77.257813 63.738281 C 77.117188 63.738281 76.976563 63.742188 76.839844 63.753906 C 76.699219 63.761719 76.574219 63.773438 76.453125 63.78125 C 76.335938 63.792969 76.242188 63.800781 76.183594 63.808594 Z M 75.03125 72.546875 L 75.03125 62.820313 C 75.328125 62.792969 75.554688 62.769531 75.703125 62.757813 C 75.855469 62.742188 76.050781 62.734375 76.292969 62.730469 C 76.535156 62.726563 76.769531 62.71875 76.992188 62.714844 C 77.222656 62.710938 77.429688 62.710938 77.625 62.710938 C 78.398438 62.710938 79.070313 62.832031 79.640625 63.070313 C 80.207031 63.3125 80.679688 63.648438 81.046875 64.078125 C 81.417969 64.507813 81.691406 65.019531 81.871094 65.621094 C 82.054688 66.21875 82.144531 66.882813 82.144531 67.605469 C 82.144531 68.257813 82.058594 68.890625 81.886719 69.5 C 81.714844 70.105469 81.445313 70.644531 81.074219 71.113281 C 80.703125 71.578125 80.222656 71.953125 79.632813 72.234375 C 79.042969 72.515625 78.328125 72.65625 77.488281 72.65625 C 77.339844 72.65625 77.148438 72.652344 76.910156 72.648438 C 76.671875 72.644531 76.429688 72.632813 76.183594 72.621094 C 75.933594 72.609375 75.703125 72.59375 75.492188 72.585938 C 75.277344 72.578125 75.125 72.566406 75.03125 72.546875 "
       style=" stroke:none;fill-rule:nonzero;fill:rgb(10.980225%,46.273804%,73.725891%);fill-opacity:1;" />
    <path
       id="path523"
       d="M 86.289063 68.296875 L 89.730469 68.296875 C 89.730469 67.59375 89.597656 67.101563 89.332031 66.820313 C 89.066406 66.542969 88.6875 66.402344 88.195313 66.402344 C 87.648438 66.402344 87.210938 66.546875 86.882813 66.832031 C 86.554688 67.117188 86.359375 67.609375 86.289063 68.296875 M 85.125 69.066406 C 85.125 67.882813 85.390625 66.980469 85.917969 66.359375 C 86.445313 65.738281 87.199219 65.425781 88.179688 65.425781 C 88.496094 65.425781 88.8125 65.460938 89.125 65.53125 C 89.441406 65.601563 89.71875 65.734375 89.96875 65.929688 C 90.21875 66.121094 90.421875 66.398438 90.578125 66.753906 C 90.738281 67.109375 90.816406 67.582031 90.816406 68.164063 C 90.816406 68.472656 90.789063 68.808594 90.734375 69.171875 L 86.277344 69.171875 C 86.277344 69.578125 86.320313 69.941406 86.402344 70.257813 C 86.484375 70.574219 86.617188 70.839844 86.792969 71.054688 C 86.96875 71.273438 87.195313 71.4375 87.480469 71.554688 C 87.761719 71.667969 88.105469 71.726563 88.511719 71.726563 C 88.828125 71.726563 89.144531 71.671875 89.457031 71.5625 C 89.769531 71.449219 90.007813 71.320313 90.164063 71.171875 L 90.578125 71.976563 C 90.300781 72.199219 89.953125 72.375 89.53125 72.503906 C 89.109375 72.636719 88.664063 72.703125 88.195313 72.703125 C 87.664063 72.703125 87.207031 72.617188 86.820313 72.445313 C 86.429688 72.273438 86.113281 72.027344 85.863281 71.707031 C 85.617188 71.386719 85.429688 71.003906 85.308594 70.5625 C 85.1875 70.117188 85.125 69.621094 85.125 69.066406 "
       style=" stroke:none;fill-rule:nonzero;fill:rgb(10.980225%,46.273804%,73.725891%);fill-opacity:1;" />
    <path
       id="path525"
       d="M 95.574219 71.375 C 95.75 71.476563 95.964844 71.554688 96.214844 71.605469 C 96.460938 71.65625 96.71875 71.679688 96.984375 71.679688 C 97.613281 71.679688 98.117188 71.457031 98.492188 71.011719 C 98.867188 70.570313 99.058594 69.878906 99.058594 68.9375 C 99.058594 68.578125 99.023438 68.242188 98.960938 67.925781 C 98.894531 67.609375 98.792969 67.339844 98.652344 67.121094 C 98.511719 66.898438 98.332031 66.722656 98.121094 66.59375 C 97.90625 66.464844 97.640625 66.402344 97.324219 66.402344 C 96.863281 66.402344 96.488281 66.53125 96.199219 66.789063 C 95.910156 67.042969 95.703125 67.410156 95.574219 67.882813 Z M 94.464844 72.128906 L 94.464844 62.820313 L 95.574219 62.820313 L 95.574219 66.273438 L 95.628906 66.273438 C 95.84375 66.007813 96.113281 65.800781 96.441406 65.648438 C 96.765625 65.5 97.125 65.425781 97.511719 65.425781 C 98.410156 65.425781 99.085938 65.710938 99.535156 66.285156 C 99.984375 66.859375 100.210938 67.75 100.210938 68.953125 C 100.210938 70.164063 99.914063 71.082031 99.320313 71.710938 C 98.726563 72.339844 97.894531 72.65625 96.824219 72.65625 C 96.304688 72.65625 95.832031 72.597656 95.414063 72.488281 C 94.992188 72.375 94.679688 72.257813 94.464844 72.128906 "
       style=" stroke:none;fill-rule:nonzero;fill:rgb(10.980225%,46.273804%,73.725891%);fill-opacity:1;" />
    <path
       id="path527"
       d="M 102.9375 66.570313 L 102.9375 65.59375 L 104.015625 65.59375 L 104.015625 64.21875 L 105.125 63.902344 L 105.125 65.59375 L 107.015625 65.59375 L 107.015625 66.570313 L 105.125 66.570313 L 105.125 70.414063 C 105.125 70.890625 105.183594 71.230469 105.304688 71.429688 C 105.421875 71.628906 105.628906 71.726563 105.917969 71.726563 C 106.15625 71.726563 106.359375 71.703125 106.527344 71.652344 C 106.695313 71.601563 106.878906 71.535156 107.082031 71.449219 L 107.332031 72.296875 C 107.085938 72.417969 106.8125 72.515625 106.515625 72.589844 C 106.214844 72.664063 105.898438 72.703125 105.558594 72.703125 C 104.992188 72.703125 104.59375 72.542969 104.363281 72.222656 C 104.128906 71.902344 104.015625 71.367188 104.015625 70.617188 L 104.015625 66.570313 Z M 102.9375 66.570313 "
       style=" stroke:none;fill-rule:nonzero;fill:rgb(10.980225%,46.273804%,73.725891%);fill-opacity:1;" />
    <path
       id="path529"
       d="M 116.511719 67.679688 C 116.511719 66.769531 116.632813 66 116.875 65.367188 C 117.121094 64.734375 117.445313 64.21875 117.847656 63.816406 C 118.246094 63.414063 118.699219 63.117188 119.199219 62.933594 C 119.703125 62.75 120.210938 62.65625 120.726563 62.65625 C 121.28125 62.65625 121.734375 62.683594 122.085938 62.742188 C 122.4375 62.804688 122.738281 62.886719 122.988281 62.988281 L 122.710938 64.003906 C 122.265625 63.792969 121.636719 63.683594 120.8125 63.683594 C 120.433594 63.683594 120.058594 63.753906 119.6875 63.894531 C 119.316406 64.035156 118.988281 64.261719 118.695313 64.574219 C 118.40625 64.890625 118.171875 65.300781 117.996094 65.808594 C 117.820313 66.316406 117.730469 66.9375 117.730469 67.679688 C 117.730469 68.34375 117.8125 68.925781 117.980469 69.425781 C 118.148438 69.925781 118.378906 70.34375 118.667969 70.675781 C 118.960938 71.007813 119.300781 71.253906 119.695313 71.421875 C 120.089844 71.589844 120.515625 71.671875 120.976563 71.671875 C 121.390625 71.671875 121.753906 71.632813 122.066406 71.546875 C 122.378906 71.464844 122.640625 71.355469 122.851563 71.226563 L 123.128906 72.132813 C 122.855469 72.34375 122.503906 72.492188 122.074219 72.574219 C 121.648438 72.660156 121.195313 72.703125 120.710938 72.703125 C 120.128906 72.703125 119.582031 72.601563 119.074219 72.402344 C 118.566406 72.207031 118.121094 71.902344 117.742188 71.492188 C 117.363281 71.085938 117.0625 70.566406 116.84375 69.933594 C 116.621094 69.300781 116.511719 68.550781 116.511719 67.679688 "
       style=" stroke:none;fill-rule:nonzero;fill:rgb(10.980225%,46.273804%,73.725891%);fill-opacity:1;" />
    <path
       id="path531"
       d="M 126.519531 69.0625 C 126.519531 69.417969 126.554688 69.753906 126.625 70.078125 C 126.695313 70.398438 126.804688 70.683594 126.953125 70.921875 C 127.101563 71.164063 127.296875 71.359375 127.535156 71.507813 C 127.773438 71.652344 128.066406 71.726563 128.410156 71.726563 L 128.429688 71.726563 C 129.671875 71.726563 130.292969 70.84375 130.292969 69.085938 C 130.292969 68.710938 130.257813 68.359375 130.191406 68.039063 C 130.121094 67.714844 130.015625 67.433594 129.863281 67.191406 C 129.714844 66.949219 129.523438 66.757813 129.28125 66.617188 C 129.042969 66.472656 128.75 66.402344 128.410156 66.402344 L 128.390625 66.402344 C 127.140625 66.402344 126.519531 67.289063 126.519531 69.0625 M 125.367188 69.0625 C 125.367188 67.890625 125.628906 66.992188 126.152344 66.363281 C 126.675781 65.738281 127.429688 65.425781 128.410156 65.425781 C 128.929688 65.425781 129.378906 65.511719 129.765625 65.683594 C 130.148438 65.855469 130.464844 66.101563 130.710938 66.421875 C 130.960938 66.742188 131.144531 67.128906 131.265625 67.574219 C 131.382813 68.019531 131.445313 68.519531 131.445313 69.0625 C 131.445313 70.238281 131.183594 71.136719 130.660156 71.761719 C 130.140625 72.390625 129.390625 72.703125 128.410156 72.703125 C 127.890625 72.703125 127.4375 72.617188 127.054688 72.445313 C 126.667969 72.273438 126.355469 72.027344 126.105469 71.707031 C 125.855469 71.386719 125.671875 71 125.550781 70.554688 C 125.429688 70.105469 125.367188 69.609375 125.367188 69.0625 "
       style=" stroke:none;fill-rule:nonzero;fill:rgb(10.980225%,46.273804%,73.725891%);fill-opacity:1;" />
    <path
       id="path533"
       d="M 134.839844 71.144531 L 134.839844 62.816406 L 135.949219 62.816406 L 135.949219 70.824219 C 135.949219 71.152344 136.003906 71.382813 136.117188 71.519531 C 136.226563 71.65625 136.382813 71.726563 136.585938 71.726563 C 136.710938 71.726563 136.839844 71.71875 136.976563 71.699219 C 137.113281 71.683594 137.273438 71.640625 137.445313 71.578125 L 137.574219 72.453125 C 137.425781 72.523438 137.21875 72.582031 136.957031 72.632813 C 136.691406 72.679688 136.464844 72.703125 136.269531 72.703125 C 135.855469 72.703125 135.511719 72.582031 135.242188 72.347656 C 134.972656 72.109375 134.839844 71.707031 134.839844 71.144531 "
       style=" stroke:none;fill-rule:nonzero;fill:rgb(10.980225%,46.273804%,73.725891%);fill-opacity:1;" />
    <path
       id="path535"
       d="M 140.417969 71.144531 L 140.417969 62.816406 L 141.527344 62.816406 L 141.527344 70.824219 C 141.527344 71.152344 141.582031 71.382813 141.691406 71.519531 C 141.804688 71.65625 141.960938 71.726563 142.164063 71.726563 C 142.285156 71.726563 142.414063 71.71875 142.554688 71.699219 C 142.691406 71.683594 142.847656 71.640625 143.023438 71.578125 L 143.152344 72.453125 C 143.003906 72.523438 142.796875 72.582031 142.535156 72.632813 C 142.269531 72.679688 142.039063 72.703125 141.847656 72.703125 C 141.429688 72.703125 141.089844 72.582031 140.820313 72.347656 C 140.550781 72.109375 140.417969 71.707031 140.417969 71.144531 "
       style=" stroke:none;fill-rule:nonzero;fill:rgb(10.980225%,46.273804%,73.725891%);fill-opacity:1;" />
    <path
       id="path537"
       d="M 146.644531 68.296875 L 150.085938 68.296875 C 150.085938 67.59375 149.953125 67.101563 149.683594 66.820313 C 149.417969 66.542969 149.039063 66.402344 148.546875 66.402344 C 148 66.402344 147.5625 66.546875 147.234375 66.832031 C 146.910156 67.117188 146.710938 67.609375 146.644531 68.296875 M 145.476563 69.066406 C 145.476563 67.882813 145.742188 66.980469 146.269531 66.359375 C 146.796875 65.738281 147.554688 65.425781 148.535156 65.425781 C 148.847656 65.425781 149.164063 65.460938 149.476563 65.53125 C 149.792969 65.601563 150.074219 65.734375 150.324219 65.929688 C 150.570313 66.121094 150.773438 66.398438 150.929688 66.753906 C 151.089844 67.109375 151.167969 67.582031 151.167969 68.164063 C 151.167969 68.472656 151.140625 68.808594 151.085938 69.171875 L 146.628906 69.171875 C 146.628906 69.578125 146.671875 69.941406 146.753906 70.257813 C 146.839844 70.574219 146.96875 70.839844 147.144531 71.054688 C 147.320313 71.273438 147.550781 71.4375 147.832031 71.554688 C 148.113281 71.667969 148.457031 71.726563 148.867188 71.726563 C 149.179688 71.726563 149.496094 71.671875 149.808594 71.5625 C 150.125 71.449219 150.359375 71.320313 150.519531 71.171875 L 150.929688 71.976563 C 150.65625 72.199219 150.304688 72.375 149.882813 72.503906 C 149.460938 72.636719 149.015625 72.703125 148.546875 72.703125 C 148.019531 72.703125 147.558594 72.617188 147.171875 72.445313 C 146.785156 72.273438 146.464844 72.027344 146.214844 71.707031 C 145.96875 71.386719 145.785156 71.003906 145.660156 70.5625 C 145.539063 70.117188 145.476563 69.621094 145.476563 69.066406 "
       style=" stroke:none;fill-rule:nonzero;fill:rgb(10.980225%,46.273804%,73.725891%);fill-opacity:1;" />
    <path
       id="path539"
       d="M 153.894531 69.0625 C 153.894531 67.890625 154.152344 66.992188 154.671875 66.363281 C 155.191406 65.738281 155.9375 65.425781 156.910156 65.425781 C 157.351563 65.425781 157.726563 65.460938 158.039063 65.53125 C 158.34375 65.601563 158.625 65.703125 158.878906 65.832031 L 158.554688 66.789063 C 158.34375 66.667969 158.105469 66.570313 157.851563 66.503906 C 157.59375 66.4375 157.316406 66.402344 157.015625 66.402344 C 155.703125 66.402344 155.046875 67.289063 155.046875 69.0625 C 155.046875 69.417969 155.082031 69.75 155.148438 70.070313 C 155.21875 70.386719 155.335938 70.671875 155.5 70.917969 C 155.664063 71.164063 155.875 71.359375 156.136719 71.507813 C 156.398438 71.652344 156.722656 71.726563 157.113281 71.726563 C 157.445313 71.726563 157.746094 71.675781 158.007813 71.574219 C 158.273438 71.472656 158.488281 71.355469 158.65625 71.226563 L 159.015625 72.074219 C 158.738281 72.277344 158.414063 72.429688 158.03125 72.539063 C 157.652344 72.648438 157.257813 72.703125 156.839844 72.703125 C 156.304688 72.703125 155.847656 72.617188 155.480469 72.445313 C 155.109375 72.273438 154.804688 72.027344 154.566406 71.707031 C 154.332031 71.386719 154.160156 71 154.054688 70.554688 C 153.945313 70.105469 153.894531 69.609375 153.894531 69.0625 "
       style=" stroke:none;fill-rule:nonzero;fill:rgb(10.980225%,46.273804%,73.725891%);fill-opacity:1;" />
    <path
       id="path541"
       d="M 161.464844 66.570313 L 161.464844 65.59375 L 162.539063 65.59375 L 162.539063 64.21875 L 163.652344 63.902344 L 163.652344 65.59375 L 165.542969 65.59375 L 165.542969 66.570313 L 163.652344 66.570313 L 163.652344 70.414063 C 163.652344 70.890625 163.710938 71.230469 163.832031 71.429688 C 163.949219 71.628906 164.15625 71.726563 164.445313 71.726563 C 164.683594 71.726563 164.886719 71.703125 165.054688 71.652344 C 165.21875 71.601563 165.40625 71.535156 165.609375 71.449219 L 165.859375 72.296875 C 165.609375 72.417969 165.335938 72.515625 165.039063 72.589844 C 164.742188 72.664063 164.421875 72.703125 164.085938 72.703125 C 163.519531 72.703125 163.121094 72.542969 162.890625 72.222656 C 162.65625 71.902344 162.539063 71.367188 162.539063 70.617188 L 162.539063 66.570313 Z M 161.464844 66.570313 "
       style=" stroke:none;fill-rule:nonzero;fill:rgb(10.980225%,46.273804%,73.725891%);fill-opacity:1;" />
    <path
       id="path543"
       d="M 168.835938 65.59375 L 169.945313 65.59375 L 169.945313 72.53125 L 168.835938 72.53125 Z M 168.605469 63.488281 C 168.605469 63.277344 168.675781 63.09375 168.816406 62.941406 C 168.960938 62.785156 169.140625 62.710938 169.359375 62.710938 C 169.582031 62.710938 169.773438 62.785156 169.933594 62.941406 C 170.089844 63.09375 170.171875 63.277344 170.171875 63.488281 C 170.171875 63.703125 170.089844 63.875 169.933594 64.015625 C 169.773438 64.152344 169.582031 64.21875 169.359375 64.21875 C 169.140625 64.21875 168.960938 64.152344 168.816406 64.015625 C 168.675781 63.875 168.605469 63.703125 168.605469 63.488281 "
       style=" stroke:none;fill-rule:nonzero;fill:rgb(10.980225%,46.273804%,73.725891%);fill-opacity:1;" />
    <path
       id="path545"
       d="M 174.601563 69.0625 C 174.601563 69.417969 174.636719 69.753906 174.707031 70.078125 C 174.777344 70.398438 174.886719 70.683594 175.035156 70.921875 C 175.183594 71.164063 175.378906 71.359375 175.617188 71.507813 C 175.859375 71.652344 176.148438 71.726563 176.492188 71.726563 L 176.511719 71.726563 C 177.753906 71.726563 178.375 70.84375 178.375 69.085938 C 178.375 68.710938 178.339844 68.359375 178.273438 68.039063 C 178.207031 67.714844 178.097656 67.433594 177.949219 67.191406 C 177.800781 66.949219 177.605469 66.757813 177.363281 66.617188 C 177.125 66.472656 176.835938 66.402344 176.492188 66.402344 L 176.472656 66.402344 C 175.226563 66.402344 174.601563 67.289063 174.601563 69.0625 M 173.453125 69.0625 C 173.453125 67.890625 173.710938 66.992188 174.234375 66.363281 C 174.761719 65.738281 175.511719 65.425781 176.492188 65.425781 C 177.011719 65.425781 177.464844 65.511719 177.847656 65.683594 C 178.230469 65.855469 178.546875 66.101563 178.796875 66.421875 C 179.042969 66.742188 179.226563 67.128906 179.347656 67.574219 C 179.46875 68.019531 179.527344 68.519531 179.527344 69.0625 C 179.527344 70.238281 179.265625 71.136719 178.746094 71.761719 C 178.222656 72.390625 177.472656 72.703125 176.492188 72.703125 C 175.972656 72.703125 175.519531 72.617188 175.136719 72.445313 C 174.753906 72.273438 174.4375 72.027344 174.1875 71.707031 C 173.941406 71.386719 173.753906 71 173.632813 70.554688 C 173.511719 70.105469 173.453125 69.609375 173.453125 69.0625 "
       style=" stroke:none;fill-rule:nonzero;fill:rgb(10.980225%,46.273804%,73.725891%);fill-opacity:1;" />
    <path
       id="path547"
       d="M 182.800781 72.53125 L 182.800781 65.59375 L 183.574219 65.59375 L 183.78125 66.441406 L 183.835938 66.441406 C 184.058594 66.144531 184.355469 65.902344 184.730469 65.710938 C 185.105469 65.523438 185.554688 65.425781 186.074219 65.425781 C 186.453125 65.425781 186.785156 65.46875 187.070313 65.558594 C 187.359375 65.648438 187.597656 65.800781 187.785156 66.027344 C 187.976563 66.25 188.121094 66.546875 188.21875 66.921875 C 188.3125 67.296875 188.363281 67.773438 188.363281 68.34375 L 188.363281 72.53125 L 187.253906 72.53125 L 187.253906 68.578125 C 187.253906 67.855469 187.148438 67.3125 186.941406 66.949219 C 186.734375 66.582031 186.351563 66.402344 185.796875 66.402344 C 185.304688 66.402344 184.898438 66.535156 184.578125 66.796875 C 184.261719 67.0625 184.039063 67.394531 183.910156 67.789063 L 183.910156 72.53125 Z M 182.800781 72.53125 "
       style=" stroke:none;fill-rule:nonzero;fill:rgb(10.980225%,46.273804%,73.725891%);fill-opacity:1;" />
    <path
       id="path549"
       d="M 199.152344 68.839844 L 202.011719 68.839844 L 200.925781 65.886719 L 200.582031 64.417969 L 200.570313 64.417969 L 200.222656 65.914063 Z M 196.667969 72.53125 L 200.34375 62.667969 L 200.875 62.667969 L 204.566406 72.53125 L 203.359375 72.53125 L 202.355469 69.84375 L 198.78125 69.84375 L 197.804688 72.53125 Z M 196.667969 72.53125 "
       style=" stroke:none;fill-rule:nonzero;fill:rgb(10.980225%,46.273804%,73.725891%);fill-opacity:1;" />
    <g
       id="g553"
       clip-rule="nonzero"
       clip-path="url(#clip2)">
      <path
         id="path551"
         d="M 207.84375 69.082031 C 207.84375 69.46875 207.875 69.824219 207.945313 70.148438 C 208.007813 70.46875 208.109375 70.746094 208.246094 70.980469 C 208.386719 71.210938 208.566406 71.390625 208.785156 71.519531 C 209.007813 71.648438 209.28125 71.714844 209.605469 71.714844 C 210.074219 71.714844 210.445313 71.597656 210.71875 71.359375 C 210.988281 71.128906 211.179688 70.757813 211.285156 70.257813 L 211.285156 66.714844 C 210.914063 66.539063 210.445313 66.449219 209.871094 66.449219 C 209.242188 66.449219 208.746094 66.660156 208.386719 67.085938 C 208.027344 67.507813 207.84375 68.175781 207.84375 69.082031 M 206.695313 69.09375 C 206.695313 67.910156 206.976563 67.011719 207.539063 66.394531 C 208.105469 65.78125 208.9375 65.472656 210.039063 65.472656 C 210.570313 65.472656 211.019531 65.515625 211.394531 65.597656 C 211.769531 65.679688 212.105469 65.777344 212.398438 65.890625 L 212.398438 72.851563 C 212.398438 73.75 212.160156 74.410156 211.683594 74.835938 C 211.207031 75.261719 210.5 75.472656 209.566406 75.472656 C 209.011719 75.472656 208.5625 75.4375 208.226563 75.367188 C 207.890625 75.296875 207.601563 75.207031 207.363281 75.097656 L 207.65625 74.152344 C 207.867188 74.234375 208.101563 74.3125 208.359375 74.386719 C 208.617188 74.460938 208.957031 74.496094 209.375 74.496094 C 209.765625 74.496094 210.078125 74.460938 210.324219 74.394531 C 210.570313 74.324219 210.765625 74.207031 210.914063 74.042969 C 211.0625 73.882813 211.164063 73.675781 211.21875 73.421875 C 211.273438 73.171875 211.300781 72.867188 211.300781 72.519531 L 211.300781 71.855469 L 211.246094 71.855469 C 211.0625 72.121094 210.824219 72.328125 210.535156 72.472656 C 210.25 72.617188 209.875 72.6875 209.414063 72.6875 C 208.480469 72.6875 207.792969 72.394531 207.355469 71.8125 C 206.914063 71.226563 206.695313 70.320313 206.695313 69.09375 "
         style=" stroke:none;fill-rule:nonzero;fill:rgb(10.980225%,46.273804%,73.725891%);fill-opacity:1;" />
    </g>
    <path
       id="path555"
       d="M 216.832031 68.296875 L 220.269531 68.296875 C 220.269531 67.59375 220.136719 67.101563 219.871094 66.820313 C 219.605469 66.542969 219.226563 66.402344 218.734375 66.402344 C 218.1875 66.402344 217.75 66.546875 217.421875 66.832031 C 217.09375 67.117188 216.898438 67.609375 216.832031 68.296875 M 215.664063 69.066406 C 215.664063 67.882813 215.929688 66.980469 216.457031 66.359375 C 216.984375 65.738281 217.742188 65.425781 218.71875 65.425781 C 219.035156 65.425781 219.351563 65.460938 219.664063 65.53125 C 219.976563 65.601563 220.261719 65.734375 220.507813 65.929688 C 220.757813 66.121094 220.960938 66.398438 221.117188 66.753906 C 221.277344 67.109375 221.355469 67.582031 221.355469 68.164063 C 221.355469 68.472656 221.328125 68.808594 221.273438 69.171875 L 216.816406 69.171875 C 216.816406 69.578125 216.859375 69.941406 216.941406 70.257813 C 217.023438 70.574219 217.15625 70.839844 217.332031 71.054688 C 217.507813 71.273438 217.734375 71.4375 218.019531 71.554688 C 218.300781 71.667969 218.644531 71.726563 219.050781 71.726563 C 219.367188 71.726563 219.683594 71.671875 219.996094 71.5625 C 220.308594 71.449219 220.546875 71.320313 220.707031 71.171875 L 221.117188 71.976563 C 220.84375 72.199219 220.492188 72.375 220.070313 72.503906 C 219.648438 72.636719 219.203125 72.703125 218.734375 72.703125 C 218.207031 72.703125 217.746094 72.617188 217.359375 72.445313 C 216.96875 72.273438 216.652344 72.027344 216.402344 71.707031 C 216.15625 71.386719 215.96875 71.003906 215.847656 70.5625 C 215.726563 70.117188 215.664063 69.621094 215.664063 69.066406 "
       style=" stroke:none;fill-rule:nonzero;fill:rgb(10.980225%,46.273804%,73.725891%);fill-opacity:1;" />
    <path
       id="path557"
       d="M 224.628906 72.53125 L 224.628906 65.59375 L 225.402344 65.59375 L 225.609375 66.441406 L 225.664063 66.441406 C 225.886719 66.144531 226.183594 65.902344 226.558594 65.710938 C 226.933594 65.523438 227.382813 65.425781 227.902344 65.425781 C 228.28125 65.425781 228.613281 65.46875 228.898438 65.558594 C 229.1875 65.648438 229.425781 65.800781 229.613281 66.027344 C 229.804688 66.25 229.949219 66.546875 230.046875 66.921875 C 230.140625 67.296875 230.191406 67.773438 230.191406 68.34375 L 230.191406 72.53125 L 229.082031 72.53125 L 229.082031 68.578125 C 229.082031 67.855469 228.976563 67.3125 228.769531 66.949219 C 228.5625 66.582031 228.179688 66.402344 227.625 66.402344 C 227.132813 66.402344 226.726563 66.535156 226.40625 66.796875 C 226.089844 67.0625 225.867188 67.394531 225.738281 67.789063 L 225.738281 72.53125 Z M 224.628906 72.53125 "
       style=" stroke:none;fill-rule:nonzero;fill:rgb(10.980225%,46.273804%,73.725891%);fill-opacity:1;" />
    <path
       id="path559"
       d="M 233.351563 69.0625 C 233.351563 67.890625 233.609375 66.992188 234.128906 66.363281 C 234.648438 65.738281 235.394531 65.425781 236.363281 65.425781 C 236.808594 65.425781 237.183594 65.460938 237.492188 65.53125 C 237.800781 65.601563 238.082031 65.703125 238.335938 65.832031 L 238.011719 66.789063 C 237.796875 66.667969 237.5625 66.570313 237.304688 66.503906 C 237.046875 66.4375 236.769531 66.402344 236.472656 66.402344 C 235.160156 66.402344 234.5 67.289063 234.5 69.0625 C 234.5 69.417969 234.535156 69.75 234.605469 70.070313 C 234.675781 70.386719 234.792969 70.671875 234.953125 70.917969 C 235.117188 71.164063 235.328125 71.359375 235.59375 71.507813 C 235.855469 71.652344 236.179688 71.726563 236.566406 71.726563 C 236.902344 71.726563 237.199219 71.675781 237.464844 71.574219 C 237.730469 71.472656 237.945313 71.355469 238.113281 71.226563 L 238.472656 72.074219 C 238.195313 72.277344 237.867188 72.429688 237.488281 72.539063 C 237.109375 72.648438 236.710938 72.703125 236.296875 72.703125 C 235.757813 72.703125 235.304688 72.617188 234.933594 72.445313 C 234.566406 72.273438 234.261719 72.027344 234.023438 71.707031 C 233.785156 71.386719 233.613281 71 233.507813 70.554688 C 233.402344 70.105469 233.351563 69.609375 233.351563 69.0625 "
       style=" stroke:none;fill-rule:nonzero;fill:rgb(10.980225%,46.273804%,73.725891%);fill-opacity:1;" />
    <g
       id="g563"
       clip-rule="nonzero"
       clip-path="url(#clip3)">
      <path
         id="path561"
         d="M 240.761719 65.59375 L 242.035156 65.59375 L 243.703125 70.09375 L 244.089844 71.421875 L 244.15625 71.421875 L 244.460938 70.082031 L 245.808594 65.59375 L 246.921875 65.59375 L 244.871094 71.824219 C 244.71875 72.277344 244.566406 72.714844 244.410156 73.140625 C 244.261719 73.566406 244.09375 73.945313 243.910156 74.28125 C 243.726563 74.613281 243.519531 74.878906 243.285156 75.078125 C 243.054688 75.277344 242.785156 75.378906 242.484375 75.378906 C 242.148438 75.378906 241.875 75.332031 241.664063 75.234375 L 241.855469 74.28125 C 241.976563 74.324219 242.09375 74.347656 242.207031 74.347656 C 242.464844 74.347656 242.710938 74.210938 242.949219 73.9375 C 243.191406 73.664063 243.390625 73.195313 243.546875 72.53125 Z M 240.761719 65.59375 "
         style=" stroke:none;fill-rule:nonzero;fill:rgb(10.980225%,46.273804%,73.725891%);fill-opacity:1;" />
    </g>
    <path
       id="path565"
       d="M 119.082031 11.910156 L 96.558594 11.910156 L 96.558594 20.863281 L 114.605469 20.863281 L 114.605469 31.910156 L 96.558594 31.910156 L 96.558594 51.910156 L 83.5625 51.910156 L 83.5625 0.867188 L 119.082031 0.867188 Z M 119.082031 11.910156 "
       style=" stroke:none;fill-rule:nonzero;fill:rgb(9.411621%,16.078186%,33.332825%);fill-opacity:1;" />
    <path
       id="path567"
       d="M 134.53125 30.835938 L 143.71875 30.835938 L 139.125 16.398438 Z M 146.269531 0.867188 L 163.117188 51.910156 L 150.425781 51.910156 L 147.074219 41.480469 L 131.101563 41.480469 L 127.820313 51.910156 L 115.0625 51.910156 L 131.976563 0.867188 Z M 146.269531 0.867188 "
       style=" stroke:none;fill-rule:nonzero;fill:rgb(9.411621%,16.078186%,33.332825%);fill-opacity:1;" />
    <path
       id="path569"
       d="M 189.976563 17.039063 L 189.976563 16.101563 C 189.976563 14.703125 189.386719 13.511719 188.207031 12.527344 C 187.03125 11.539063 185.597656 11.046875 183.914063 11.046875 C 182.179688 11.046875 180.699219 11.539063 179.472656 12.527344 C 178.246094 13.511719 177.632813 14.703125 177.632813 16.101563 C 177.632813 17.496094 178.257813 18.53125 179.507813 19.203125 C 180.710938 20.023438 182.347656 20.695313 184.417969 21.226563 C 184.753906 21.273438 185.128906 21.347656 185.539063 21.441406 C 185.945313 21.539063 186.367188 21.636719 186.800781 21.730469 C 191.949219 22.984375 195.394531 24.402344 197.125 25.992188 L 197.777344 26.570313 C 199.21875 27.964844 200.363281 29.625 201.203125 31.550781 C 202.046875 33.476563 202.46875 35.402344 202.46875 37.324219 C 202.46875 39.492188 202 41.5625 201.0625 43.535156 C 200.121094 45.511719 198.761719 47.265625 196.980469 48.804688 C 195.199219 50.296875 193.175781 51.441406 190.917969 52.234375 C 188.652344 53.027344 186.296875 53.425781 183.839844 53.425781 C 181.386719 53.425781 179.039063 53.027344 176.800781 52.234375 C 174.5625 51.441406 172.554688 50.296875 170.773438 48.804688 C 168.992188 47.265625 167.621094 45.511719 166.65625 43.535156 C 165.695313 41.5625 165.214844 39.492188 165.214844 37.324219 L 165.214844 36.386719 L 177.847656 36.386719 L 177.847656 37.324219 C 177.847656 38.722656 178.4375 39.914063 179.617188 40.898438 C 180.796875 41.886719 182.203125 42.378906 183.839844 42.378906 C 185.574219 42.378906 187.054688 41.886719 188.28125 40.898438 C 189.507813 39.914063 190.121094 38.722656 190.121094 37.324219 C 190.121094 36.21875 189.472656 35.160156 188.171875 34.148438 C 187.59375 33.714844 186.921875 33.355469 186.152344 33.066406 C 185.378906 32.777344 184.441406 32.488281 183.335938 32.199219 L 180.953125 31.621094 C 178.304688 30.949219 176.234375 30.347656 174.746094 29.816406 C 173.25 29.289063 171.878906 28.472656 170.628906 27.363281 L 170.339844 27.074219 C 168.703125 25.582031 167.441406 23.898438 166.550781 22.019531 C 165.660156 20.144531 165.214844 18.167969 165.214844 16.101563 C 165.214844 13.933594 165.695313 11.863281 166.65625 9.890625 C 167.621094 7.917969 168.992188 6.160156 170.773438 4.621094 C 172.554688 3.128906 174.5625 1.984375 176.800781 1.191406 C 179.039063 0.398438 181.386719 0 183.839844 0 C 186.296875 0 188.652344 0.398438 190.917969 1.191406 C 193.175781 1.984375 195.199219 3.128906 196.980469 4.621094 C 198.761719 6.160156 200.121094 7.917969 201.0625 9.890625 C 202 11.863281 202.46875 13.933594 202.46875 16.101563 L 202.46875 17.039063 Z M 189.976563 17.039063 "
       style=" stroke:none;fill-rule:nonzero;fill:rgb(9.411621%,16.078186%,33.332825%);fill-opacity:1;" />
    <path
       id="path571"
       d="M 235.574219 13.03125 C 234.632813 11.996094 233.488281 11.429688 232.144531 11.335938 L 220.15625 11.335938 L 220.15625 22.164063 L 232.144531 22.164063 C 233.488281 22.070313 234.632813 21.476563 235.574219 20.394531 C 236.511719 19.3125 236.980469 18.074219 236.980469 16.675781 C 236.980469 15.28125 236.511719 14.066406 235.574219 13.03125 M 240.554688 2.996094 C 242.984375 4.417969 244.910156 6.34375 246.332031 8.773438 C 247.75 11.203125 248.460938 13.859375 248.460938 16.75 C 248.460938 19.636719 247.75 22.296875 246.332031 24.726563 C 244.910156 27.15625 242.984375 29.085938 240.554688 30.503906 C 238.125 31.921875 235.464844 32.632813 232.574219 32.632813 L 220.445313 32.632813 L 220.445313 51.910156 L 208.246094 51.910156 L 208.246094 0.863281 L 232.574219 0.863281 C 235.464844 0.863281 238.125 1.578125 240.554688 2.996094 "
       style=" stroke:none;fill-rule:nonzero;fill:rgb(9.411621%,16.078186%,33.332825%);fill-opacity:1;" />
  </g>
</svg>
