<?xml version="1.0" encoding="UTF-8" standalone="no"?>
<svg
   xmlns:dc="http://purl.org/dc/elements/1.1/"
   xmlns:cc="http://creativecommons.org/ns#"
   xmlns:rdf="http://www.w3.org/1999/02/22-rdf-syntax-ns#"
   xmlns:svg="http://www.w3.org/2000/svg"
   xmlns="http://www.w3.org/2000/svg"
   id="svg183"
   version="1.2"
   viewBox="0 0 32.8138 32.8138"
   height="32.8138pt"
   width="32.8138pt">
  <metadata
     id="metadata187">
    <rdf:RDF>
      <cc:Work
         rdf:about="">
        <dc:format>image/svg+xml</dc:format>
        <dc:type
           rdf:resource="http://purl.org/dc/dcmitype/StillImage" />
        <dc:title></dc:title>
      </cc:Work>
    </rdf:RDF>
  </metadata>
  <defs
     id="defs172">
    <clipPath
       id="clip1">
      <path
         id="path169"
         d="M 0 0 L 32.8125 0 L 32.8125 32.8125 L 0 32.8125 Z M 0 0 " />
    </clipPath>
  </defs>
  <g
     id="surface199316">
    <path
       id="path174"
       d="M 16.40625 19.769531 C 14.90625 19.769531 14.71875 19.050781 14.390625 17.039063 L 12.960938 9.082031 C 12.960938 7.582031 14.90625 7.324219 16.40625 7.324219 C 17.910156 7.324219 19.851563 7.582031 19.851563 9.082031 L 18.421875 17.039063 C 18.09375 18.753906 17.910156 19.769531 16.40625 19.769531 "
       style=" stroke:none;fill-rule:nonzero;fill-opacity:1;" />
    <path
       id="path176"
       d="M 18.5625 23.46875 C 18.5625 22.277344 17.597656 21.3125 16.40625 21.3125 C 15.214844 21.3125 14.25 22.277344 14.25 23.46875 C 14.25 24.660156 15.214844 25.625 16.40625 25.625 C 17.597656 25.625 18.5625 24.660156 18.5625 23.46875 "
       style=" stroke:none;fill-rule:nonzero;fill-opacity:1;" />
    <g
       id="g180"
       clip-rule="nonzero"
       clip-path="url(#clip1)">
      <path
         id="path178"
         transform="matrix(1,0,0,-1,31.3965,16.4066)"
         d="M 0.0019375 0.00035 C 0.0019375 8.277694 -6.712906 14.988631 -14.99025 14.988631 C -23.267594 14.988631 -29.978531 8.277694 -29.978531 0.00035 C -29.978531 -8.2809 -23.267594 -14.991838 -14.99025 -14.991838 C -6.712906 -14.991838 0.0019375 -8.2809 0.0019375 0.00035 Z M 0.0019375 0.00035 "
         style="fill:none;stroke-width:2.835;stroke-linecap:butt;stroke-linejoin:miter;stroke-opacity:1;stroke-miterlimit:10;" />
    </g>
  </g>
</svg>
