<?xml version="1.0" encoding="UTF-8" standalone="no"?>
<svg
   xmlns:dc="http://purl.org/dc/elements/1.1/"
   xmlns:cc="http://creativecommons.org/ns#"
   xmlns:rdf="http://www.w3.org/1999/02/22-rdf-syntax-ns#"
   xmlns:svg="http://www.w3.org/2000/svg"
   xmlns="http://www.w3.org/2000/svg"
   viewBox="0 0 41.964802 44.449867"
   height="44.449867"
   width="41.964802"
   xml:space="preserve"
   id="svg2"
   version="1.1"><metadata
     id="metadata8"><rdf:RDF><cc:Work
         rdf:about=""><dc:format>image/svg+xml</dc:format><dc:type
           rdf:resource="http://purl.org/dc/dcmitype/StillImage" /><dc:title></dc:title></cc:Work></rdf:RDF></metadata><defs
     id="defs6"><clipPath
       id="clipPath18"
       clipPathUnits="userSpaceOnUse"><path
         id="path16"
         d="M 0,33.337 H 31.474 V 0 H 0 Z" /></clipPath></defs><g
     transform="matrix(1.3333333,0,0,-1.3333333,0,44.449867)"
     id="g10"><g
       id="g12"><g
         clip-path="url(#clipPath18)"
         id="g14"><g
           transform="translate(12.1821,20.4317)"
           id="g20"><path
             id="path22"
             style="fill:#209920;fill-opacity:1;fill-rule:nonzero;stroke:none"
             d="m 0,0 c -0.435,-0.342 -1.163,-0.916 -1.221,-1.927 -0.062,-1.061 0.636,-2.282 2.195,-3.843 1.501,-1.5 2.682,-2.198 3.718,-2.198 0.04,0 0.08,0.001 0.125,0.003 1.004,0.058 1.56,0.757 1.928,1.219 l 0.11,0.139 c 0.177,0.259 0.52,0.332 0.779,0.17 l 1.753,-1.146 c 0.557,-0.362 1.057,-0.688 1.219,-0.799 l 0.077,-0.05 c 0.415,-0.282 0.48,-0.381 0.471,-0.506 -0.445,-1.337 -1.691,-2.243 -3.098,-2.253 -2.144,0 -5.032,1.664 -7.923,4.566 -2.911,2.921 -4.58,5.814 -4.58,7.934 0.008,1.385 0.888,2.621 2.192,3.081 h 0.069 c 0.146,0 0.238,-0.066 0.495,-0.456 l 0.055,-0.08 C -1.435,3.563 -0.483,2.097 -0.169,1.615 L 0.302,0.896 C 0.471,0.628 0.388,0.282 0.1,0.085 Z m 8.059,-12.811 c 2.175,0.019 4.059,1.45 4.691,3.582 0.156,1.25 -0.763,1.867 -1.157,2.132 l -0.079,0.057 c -0.203,0.138 -0.917,0.603 -1.616,1.057 L 8.515,-5.082 C 7.535,-4.45 6.241,-4.692 5.571,-5.627 L 5.448,-5.781 C 5.213,-6.068 4.991,-6.34 4.722,-6.354 4.416,-6.371 3.679,-6.182 2.129,-4.63 c -1.548,1.554 -1.75,2.303 -1.732,2.612 0.015,0.283 0.309,0.512 0.63,0.764 l 0.072,0.067 c 0.943,0.683 1.187,1.983 0.555,2.959 L 0.689,3.256 C 0.266,3.905 -0.173,4.577 -0.306,4.768 L -0.358,4.846 C -0.619,5.234 -1.22,6.145 -2.567,5.973 -4.635,5.348 -6.041,3.476 -6.066,1.312 c 0,-2.567 1.837,-5.877 5.041,-9.082 3.205,-3.204 6.516,-5.041 9.084,-5.041" /></g><g
           transform="translate(5.6841,7.7437)"
           id="g24"><path
             id="path26"
             style="fill:#209920;fill-opacity:1;fill-rule:nonzero;stroke:none"
             d="m 0,0 -0.607,0.707 c -2.193,2.551 -3.4,5.801 -3.4,9.15 0,7.752 6.307,14.06 14.06,14.06 7.752,0 14.059,-6.308 14.059,-14.06 0,-7.753 -6.307,-14.06 -14.059,-14.06 -2.574,0 -5.105,0.718 -7.322,2.075 L 1.918,-1.63 -1.437,-3.696 Z m 10.053,25.594 c -8.678,0 -15.737,-7.06 -15.737,-15.737 0,-3.725 1.333,-7.34 3.756,-10.187 l -2.884,-7.414 6.733,4.146 c 2.465,-1.493 5.275,-2.282 8.132,-2.282 8.677,0 15.737,7.06 15.737,15.737 0,8.677 -7.06,15.737 -15.737,15.737" /></g></g></g></g></svg>