<?xml version="1.0" encoding="UTF-8" standalone="no"?>
<svg
   xmlns:dc="http://purl.org/dc/elements/1.1/"
   xmlns:cc="http://creativecommons.org/ns#"
   xmlns:rdf="http://www.w3.org/1999/02/22-rdf-syntax-ns#"
   xmlns:svg="http://www.w3.org/2000/svg"
   xmlns="http://www.w3.org/2000/svg"
   id="svg199"
   version="1.2"
   viewBox="0 0 25.0984 22.8866"
   height="22.8866pt"
   width="25.0984pt">
  <metadata
     id="metadata203">
    <rdf:RDF>
      <cc:Work
         rdf:about="">
        <dc:format>image/svg+xml</dc:format>
        <dc:type
           rdf:resource="http://purl.org/dc/dcmitype/StillImage" />
        <dc:title></dc:title>
      </cc:Work>
    </rdf:RDF>
  </metadata>
  <defs
     id="defs192">
    <clipPath
       id="clip1">
      <path
         id="path189"
         d="M 0 0 L 25.097656 0 L 25.097656 22.886719 L 0 22.886719 Z M 0 0 " />
    </clipPath>
  </defs>
  <g
     id="surface213318">
    <g
       id="g196"
       clip-rule="nonzero"
       clip-path="url(#clip1)">
      <path
         id="path194"
         d="M 18.945313 15.546875 C 17.707031 15.546875 16.699219 14.542969 16.699219 13.300781 C 16.699219 12.0625 17.707031 11.058594 18.945313 11.058594 C 20.183594 11.058594 21.1875 12.0625 21.1875 13.300781 C 21.1875 14.542969 20.183594 15.546875 18.945313 15.546875 M 1.890625 3.046875 C 1.890625 2.425781 2.394531 1.921875 3.011719 1.921875 L 17.757813 1.921875 L 17.757813 4.167969 L 3.046875 4.167969 C 2.425781 4.183594 1.910156 3.695313 1.890625 3.078125 C 1.890625 3.066406 1.890625 3.054688 1.890625 3.046875 M 24.136719 4.167969 L 19.679688 4.167969 L 19.679688 0.960938 C 19.679688 0.429688 19.25 0 18.71875 0 L 3.046875 0 C 1.363281 0 0 1.363281 0 3.046875 L 0 19.839844 C 0 21.523438 1.363281 22.886719 3.046875 22.886719 L 24.136719 22.886719 C 24.667969 22.886719 25.097656 22.457031 25.097656 21.925781 L 25.097656 5.128906 C 25.097656 4.597656 24.667969 4.167969 24.136719 4.167969 "
         style=" stroke:none;fill-rule:nonzero;fill-opacity:1;" />
    </g>
  </g>
</svg>
