<?xml version="1.0" encoding="UTF-8" standalone="no"?>
<svg
   xmlns:dc="http://purl.org/dc/elements/1.1/"
   xmlns:cc="http://creativecommons.org/ns#"
   xmlns:rdf="http://www.w3.org/1999/02/22-rdf-syntax-ns#"
   xmlns:svg="http://www.w3.org/2000/svg"
   xmlns="http://www.w3.org/2000/svg"
   id="svg849"
   version="1.2"
   viewBox="0 0 107.627 107.627"
   height="107.627pt"
   width="107.627pt">
  <metadata
     id="metadata855">
    <rdf:RDF>
      <cc:Work
         rdf:about="">
        <dc:format>image/svg+xml</dc:format>
        <dc:type
           rdf:resource="http://purl.org/dc/dcmitype/StillImage" />
        <dc:title></dc:title>
      </cc:Work>
    </rdf:RDF>
  </metadata>
  <defs
     id="defs853" />
  <g
     id="surface283369">
    <path
       id="path846"
       d="M 83.683594 39.179688 C 83.710938 39.800781 83.722656 40.425781 83.722656 41.050781 C 83.722656 60.152344 69.1875 82.175781 42.601563 82.175781 C 34.4375 82.175781 26.839844 79.78125 20.445313 75.679688 C 21.574219 75.8125 22.726563 75.882813 23.894531 75.882813 C 30.664063 75.882813 36.898438 73.574219 41.84375 69.695313 C 35.519531 69.578125 30.179688 65.402344 28.339844 59.660156 C 29.222656 59.828125 30.128906 59.917969 31.0625 59.917969 C 32.378906 59.917969 33.65625 59.742188 34.867188 59.410156 C 28.253906 58.082031 23.273438 52.242188 23.273438 45.238281 C 23.273438 45.175781 23.273438 45.117188 23.277344 45.054688 C 25.222656 46.140625 27.453125 46.789063 29.824219 46.863281 C 25.945313 44.273438 23.390625 39.847656 23.390625 34.832031 C 23.390625 32.183594 24.105469 29.703125 25.347656 27.566406 C 32.476563 36.3125 43.128906 42.066406 55.140625 42.667969 C 54.894531 41.613281 54.765625 40.507813 54.765625 39.375 C 54.765625 31.390625 61.238281 24.921875 69.21875 24.921875 C 73.375 24.921875 77.132813 26.675781 79.769531 29.484375 C 83.0625 28.835938 86.15625 27.632813 88.949219 25.976563 C 87.871094 29.355469 85.578125 32.183594 82.59375 33.976563 C 85.515625 33.625 88.300781 32.847656 90.894531 31.699219 C 88.957031 34.597656 86.507813 37.140625 83.683594 39.179688 M 97.023438 0 L 10.605469 0 C 4.746094 0 0 4.746094 0 10.601563 L 0 97.023438 C 0 102.878906 4.746094 107.625 10.605469 107.625 L 97.023438 107.625 C 102.878906 107.625 107.625 102.878906 107.625 97.023438 L 107.625 10.601563 C 107.625 4.746094 102.878906 0 97.023438 0 "
       style=" stroke:none;fill-rule:nonzero;fill:rgb(9.803772%,16.470337%,32.940674%);fill-opacity:1;" />
  </g>
</svg>
