<?xml version="1.0" encoding="UTF-8" standalone="no"?>
<svg
   xmlns:dc="http://purl.org/dc/elements/1.1/"
   xmlns:cc="http://creativecommons.org/ns#"
   xmlns:rdf="http://www.w3.org/1999/02/22-rdf-syntax-ns#"
   xmlns:svg="http://www.w3.org/2000/svg"
   xmlns="http://www.w3.org/2000/svg"
   viewBox="0 0 51.6604 45.087334"
   height="45.087334"
   width="51.6604"
   xml:space="preserve"
   id="svg2"
   version="1.1"><metadata
     id="metadata8"><rdf:RDF><cc:Work
         rdf:about=""><dc:format>image/svg+xml</dc:format><dc:type
           rdf:resource="http://purl.org/dc/dcmitype/StillImage" /><dc:title></dc:title></cc:Work></rdf:RDF></metadata><defs
     id="defs6"><clipPath
       id="clipPath18"
       clipPathUnits="userSpaceOnUse"><path
         id="path16"
         d="M 0,33.816 H 38.745 V 0 H 0 Z" /></clipPath></defs><g
     transform="matrix(1.3333333,0,0,-1.3333333,0,45.087333)"
     id="g10"><g
       style="fill:#0f76bb;fill-opacity:1"
       transform="translate(19.4356,33.8157)"
       id="g20"><path
         id="path22"
         style="fill:#0f76bb;fill-opacity:1;fill-rule:nonzero;stroke:none"
         d="M 0,0 C -5.702,0 -10.325,-4.623 -10.325,-10.326 -10.325,-19.408 0,-28.758 0,-28.758 c 0,0 10.325,9.255 10.325,18.432 C 10.325,-4.623 5.703,0 0,0 m 0,-1.7 c 4.756,0 8.626,-3.869 8.626,-8.626 0,-6.565 -6.047,-13.431 -8.622,-16.057 -2.576,2.641 -8.629,9.543 -8.629,16.057 0,4.757 3.869,8.626 8.625,8.626" /></g><g
       style="fill:#0f76bb;fill-opacity:1"
       transform="translate(19.4356,28.9504)"
       id="g24"><path
         id="path26"
         style="fill:#0f76bb;fill-opacity:1;fill-rule:nonzero;stroke:none"
         d="m 0,0 c -2.962,0 -5.364,-2.402 -5.364,-5.365 0,-2.963 2.402,-5.364 5.364,-5.364 2.963,0 5.365,2.401 5.365,5.364 C 5.365,-2.402 2.963,0 0,0 m 0,-1.7 c 2.021,0 3.665,-1.644 3.665,-3.665 0,-2.02 -1.644,-3.664 -3.665,-3.664 -2.021,0 -3.665,1.644 -3.665,3.664 0,2.021 1.644,3.665 3.665,3.665" /></g><g
       style="stroke:#0f76bb;stroke-opacity:1"
       transform="translate(26.7627,14.4441)"
       id="g28"><path
         id="path30"
         style="fill:none;stroke:#0f76bb;stroke-width:1.70000005;stroke-linecap:round;stroke-linejoin:round;stroke-miterlimit:10;stroke-dasharray:none;stroke-opacity:1"
         d="m 0,0 h 2.872 l 8.261,-13.594 H -25.913 L -17.652,0 h 3.022" /></g></g></svg>