<?xml version="1.0" encoding="UTF-8" standalone="no"?>
<svg
   xmlns:dc="http://purl.org/dc/elements/1.1/"
   xmlns:cc="http://creativecommons.org/ns#"
   xmlns:rdf="http://www.w3.org/1999/02/22-rdf-syntax-ns#"
   xmlns:svg="http://www.w3.org/2000/svg"
   xmlns="http://www.w3.org/2000/svg"
   id="svg248"
   version="1.2"
   viewBox="0 0 49.8868 45.5533"
   height="45.5533pt"
   width="49.8868pt">
  <metadata
     id="metadata252">
    <rdf:RDF>
      <cc:Work
         rdf:about="">
        <dc:format>image/svg+xml</dc:format>
        <dc:type
           rdf:resource="http://purl.org/dc/dcmitype/StillImage" />
        <dc:title></dc:title>
      </cc:Work>
    </rdf:RDF>
  </metadata>
  <defs
     id="defs237">
    <clipPath
       id="clip1">
      <path
         id="path234"
         d="M 24 17 L 49.886719 17 L 49.886719 45.554688 L 24 45.554688 Z M 24 17 " />
    </clipPath>
  </defs>
  <g
     id="surface231264">
    <path
       id="path239"
       d="M 9.722656 27.570313 C 9.777344 27.601563 9.835938 27.621094 9.890625 27.648438 C 10.347656 27.871094 10.804688 28.085938 11.269531 28.285156 C 11.308594 28.304688 11.347656 28.316406 11.386719 28.335938 C 11.820313 28.519531 12.257813 28.695313 12.699219 28.863281 C 12.820313 28.90625 12.9375 28.953125 13.054688 28.996094 C 13.527344 29.167969 14 29.335938 14.476563 29.488281 C 14.539063 29.507813 14.605469 29.527344 14.671875 29.546875 C 15.097656 29.679688 15.527344 29.800781 15.953125 29.917969 C 16.027344 29.9375 16.097656 29.960938 16.171875 29.980469 C 16.195313 30.058594 16.222656 30.136719 16.246094 30.214844 C 16.402344 30.742188 16.566406 31.261719 16.746094 31.777344 C 16.773438 31.859375 16.800781 31.9375 16.828125 32.019531 C 17.03125 32.589844 17.246094 33.152344 17.480469 33.707031 C 17.535156 33.839844 17.589844 33.96875 17.648438 34.101563 C 17.875 34.632813 18.113281 35.160156 18.367188 35.675781 C 18.386719 35.710938 18.402344 35.746094 18.417969 35.78125 C 18.6875 36.324219 18.976563 36.859375 19.273438 37.386719 C 19.3125 37.449219 19.339844 37.515625 19.375 37.578125 C 14.835938 35.886719 11.253906 32.175781 9.722656 27.570313 M 16.957031 8.578125 C 16.757813 9.121094 16.578125 9.671875 16.402344 10.226563 C 16.359375 10.371094 16.3125 10.519531 16.269531 10.667969 C 16.125 11.15625 15.988281 11.648438 15.863281 12.144531 C 15.84375 12.226563 15.820313 12.304688 15.800781 12.382813 C 15.691406 12.847656 15.585938 13.316406 15.492188 13.78125 C 15.046875 13.898438 14.601563 14.027344 14.160156 14.164063 C 14.082031 14.1875 14.007813 14.214844 13.933594 14.238281 C 13.457031 14.390625 12.984375 14.550781 12.515625 14.722656 C 12.371094 14.773438 12.226563 14.828125 12.082031 14.882813 C 11.554688 15.082031 11.027344 15.292969 10.507813 15.519531 C 11.910156 12.613281 14.164063 10.191406 16.957031 8.578125 M 24.230469 12.65625 C 24.1875 12.65625 24.140625 12.660156 24.09375 12.660156 C 23.574219 12.664063 23.054688 12.675781 22.535156 12.703125 C 22.433594 12.707031 22.328125 12.714844 22.222656 12.71875 C 21.757813 12.746094 21.292969 12.785156 20.828125 12.828125 C 20.742188 12.839844 20.652344 12.84375 20.5625 12.855469 C 20.042969 12.910156 19.53125 12.976563 19.015625 13.054688 C 18.902344 13.074219 18.785156 13.09375 18.667969 13.113281 C 18.167969 13.195313 17.664063 13.285156 17.167969 13.390625 C 17.152344 13.390625 17.136719 13.394531 17.121094 13.398438 C 17.152344 13.257813 17.179688 13.121094 17.210938 12.980469 C 17.257813 12.78125 17.308594 12.578125 17.359375 12.375 C 17.457031 11.996094 17.5625 11.617188 17.671875 11.242188 C 17.726563 11.058594 17.777344 10.871094 17.832031 10.691406 C 17.984375 10.210938 18.144531 9.734375 18.316406 9.261719 C 18.339844 9.191406 18.363281 9.117188 18.390625 9.046875 C 18.570313 8.558594 18.769531 8.074219 18.976563 7.59375 C 20.65625 6.914063 22.417969 6.53125 24.230469 6.449219 Z M 39.847656 16.375 C 39.421875 16.160156 38.992188 15.957031 38.558594 15.761719 C 38.449219 15.710938 38.335938 15.660156 38.226563 15.613281 C 37.804688 15.425781 37.378906 15.246094 36.949219 15.078125 C 36.878906 15.050781 36.804688 15.019531 36.734375 14.988281 C 36.34375 14.839844 35.945313 14.691406 35.550781 14.554688 C 35.464844 14.066406 35.367188 13.585938 35.261719 13.105469 C 35.242188 13.007813 35.214844 12.910156 35.191406 12.8125 C 35.078125 12.3125 34.953125 11.8125 34.816406 11.316406 C 34.78125 11.183594 34.742188 11.050781 34.707031 10.917969 C 34.554688 10.394531 34.394531 9.871094 34.21875 9.355469 C 36.71875 11.113281 38.679688 13.558594 39.847656 16.375 M 31.796875 37.082031 C 31.824219 37.03125 31.847656 36.976563 31.875 36.929688 C 32.15625 36.414063 32.429688 35.890625 32.683594 35.363281 C 32.722656 35.273438 32.761719 35.183594 32.804688 35.097656 C 33.023438 34.628906 33.230469 34.15625 33.429688 33.679688 C 33.480469 33.554688 33.535156 33.429688 33.585938 33.300781 C 33.804688 32.757813 34.011719 32.207031 34.203125 31.652344 C 34.238281 31.550781 34.265625 31.445313 34.300781 31.347656 C 34.460938 30.863281 34.609375 30.378906 34.75 29.886719 C 34.773438 29.804688 34.800781 29.722656 34.824219 29.640625 C 35.3125 29.492188 35.800781 29.332031 36.28125 29.164063 C 36.367188 29.132813 36.449219 29.097656 36.53125 29.070313 C 37.015625 28.894531 37.496094 28.707031 37.976563 28.511719 C 38.140625 28.441406 38.304688 28.375 38.472656 28.300781 C 38.910156 28.113281 39.34375 27.917969 39.773438 27.710938 C 39.894531 27.652344 40.015625 27.597656 40.136719 27.535156 C 40.1875 27.511719 40.234375 27.492188 40.285156 27.46875 C 38.914063 31.707031 35.828125 35.195313 31.796875 37.082031 M 25.738281 31.089844 C 25.789063 31.089844 25.84375 31.082031 25.894531 31.082031 C 26.4375 31.066406 26.976563 31.039063 27.515625 30.996094 C 27.609375 30.992188 27.699219 30.980469 27.792969 30.972656 C 28.28125 30.933594 28.765625 30.882813 29.246094 30.820313 C 29.351563 30.804688 29.457031 30.792969 29.558594 30.78125 C 30.097656 30.707031 30.628906 30.621094 31.160156 30.519531 C 31.28125 30.5 31.398438 30.476563 31.515625 30.453125 C 31.996094 30.359375 32.472656 30.257813 32.949219 30.140625 C 33.007813 30.125 33.066406 30.117188 33.121094 30.101563 C 33.121094 30.113281 33.117188 30.125 33.113281 30.136719 C 32.925781 30.75 32.714844 31.351563 32.492188 31.949219 C 32.453125 32.050781 32.417969 32.15625 32.378906 32.257813 C 32.15625 32.839844 31.914063 33.414063 31.660156 33.980469 C 31.609375 34.09375 31.558594 34.207031 31.503906 34.320313 C 31.238281 34.894531 30.957031 35.464844 30.660156 36.027344 C 30.632813 36.074219 30.601563 36.125 30.574219 36.175781 C 30.28125 36.714844 29.972656 37.246094 29.644531 37.769531 C 29.613281 37.824219 29.578125 37.878906 29.542969 37.933594 C 28.308594 38.300781 27.03125 38.511719 25.738281 38.574219 Z M 31.695313 28.882813 C 31.640625 28.894531 31.589844 28.90625 31.539063 28.914063 C 30.96875 29.03125 30.394531 29.132813 29.820313 29.21875 C 29.761719 29.230469 29.699219 29.242188 29.640625 29.25 C 29.058594 29.332031 28.476563 29.398438 27.894531 29.453125 C 27.789063 29.464844 27.6875 29.472656 27.578125 29.480469 C 27.007813 29.527344 26.4375 29.558594 25.863281 29.578125 C 25.820313 29.578125 25.78125 29.578125 25.738281 29.578125 L 25.738281 14.199219 C 25.820313 14.203125 25.902344 14.203125 25.988281 14.210938 C 26.152344 14.21875 26.316406 14.230469 26.480469 14.238281 C 26.707031 14.257813 26.933594 14.273438 27.164063 14.292969 C 27.324219 14.308594 27.484375 14.320313 27.640625 14.339844 C 27.878906 14.363281 28.113281 14.390625 28.351563 14.417969 C 28.5 14.4375 28.648438 14.453125 28.796875 14.476563 C 29.058594 14.511719 29.320313 14.554688 29.578125 14.59375 C 29.699219 14.613281 29.820313 14.632813 29.941406 14.652344 C 30.707031 14.789063 31.464844 14.949219 32.21875 15.136719 C 32.328125 15.160156 32.4375 15.191406 32.546875 15.222656 C 32.8125 15.289063 33.078125 15.359375 33.34375 15.4375 C 33.476563 15.472656 33.609375 15.515625 33.742188 15.554688 C 33.894531 15.601563 34.046875 15.648438 34.199219 15.699219 C 34.234375 15.941406 34.265625 16.1875 34.296875 16.429688 C 34.328125 16.65625 34.359375 16.886719 34.382813 17.113281 C 34.414063 17.449219 34.441406 17.789063 34.464844 18.125 C 34.480469 18.34375 34.5 18.558594 34.511719 18.773438 C 34.53125 19.140625 34.539063 19.507813 34.546875 19.871094 C 34.550781 20.058594 34.558594 20.246094 34.558594 20.433594 C 34.5625 20.925781 34.546875 21.417969 34.527344 21.910156 C 34.523438 21.96875 34.527344 22.027344 34.523438 22.089844 C 34.496094 22.636719 34.453125 23.1875 34.402344 23.734375 C 34.382813 23.914063 34.355469 24.097656 34.332031 24.277344 C 34.289063 24.644531 34.246094 25.011719 34.195313 25.375 C 34.160156 25.597656 34.117188 25.820313 34.078125 26.042969 C 34.023438 26.367188 33.96875 26.691406 33.902344 27.011719 C 33.855469 27.25 33.796875 27.484375 33.742188 27.722656 C 33.691406 27.957031 33.636719 28.191406 33.578125 28.425781 C 33.523438 28.441406 33.472656 28.457031 33.414063 28.46875 C 32.84375 28.621094 32.269531 28.761719 31.695313 28.882813 M 36.515625 16.527344 C 36.855469 16.664063 37.195313 16.804688 37.53125 16.953125 C 37.679688 17.019531 37.828125 17.082031 37.976563 17.148438 C 38.382813 17.335938 38.785156 17.53125 39.183594 17.734375 C 39.242188 17.761719 39.300781 17.789063 39.359375 17.820313 C 39.761719 18.027344 40.15625 18.246094 40.546875 18.46875 C 40.890625 19.792969 41.0625 21.152344 41.0625 22.511719 C 41.0625 23.511719 40.972656 24.507813 40.785156 25.492188 C 40.332031 25.742188 39.875 25.992188 39.410156 26.21875 C 39.335938 26.257813 39.265625 26.285156 39.195313 26.320313 C 38.738281 26.539063 38.277344 26.75 37.8125 26.949219 C 37.636719 27.023438 37.457031 27.09375 37.28125 27.167969 C 36.90625 27.320313 36.527344 27.46875 36.148438 27.605469 C 35.960938 27.671875 35.777344 27.738281 35.589844 27.804688 C 35.476563 27.84375 35.363281 27.875 35.253906 27.914063 C 35.273438 27.828125 35.285156 27.746094 35.304688 27.660156 C 35.34375 27.476563 35.375 27.296875 35.410156 27.113281 C 35.484375 26.746094 35.550781 26.382813 35.609375 26.015625 C 35.644531 25.820313 35.671875 25.625 35.703125 25.429688 C 35.757813 25.054688 35.804688 24.683594 35.84375 24.308594 C 35.863281 24.132813 35.886719 23.953125 35.902344 23.777344 C 35.953125 23.285156 35.988281 22.792969 36.015625 22.296875 C 36.015625 22.242188 36.023438 22.191406 36.027344 22.136719 C 36.050781 21.589844 36.0625 21.039063 36.0625 20.492188 C 36.0625 20.324219 36.054688 20.160156 36.054688 19.996094 C 36.046875 19.609375 36.035156 19.222656 36.019531 18.832031 C 36.007813 18.636719 35.996094 18.4375 35.984375 18.242188 C 35.957031 17.875 35.929688 17.511719 35.894531 17.144531 C 35.875 16.949219 35.855469 16.757813 35.832031 16.5625 C 35.820313 16.457031 35.816406 16.355469 35.800781 16.253906 C 35.890625 16.285156 35.976563 16.316406 36.066406 16.347656 C 36.214844 16.40625 36.367188 16.46875 36.515625 16.527344 M 25.738281 6.449219 C 27.980469 6.550781 30.132813 7.113281 32.148438 8.117188 C 32.347656 8.609375 32.539063 9.109375 32.714844 9.613281 C 32.75 9.707031 32.777344 9.808594 32.8125 9.90625 C 32.964844 10.363281 33.113281 10.824219 33.246094 11.292969 C 33.300781 11.480469 33.351563 11.667969 33.402344 11.855469 C 33.507813 12.246094 33.605469 12.636719 33.695313 13.027344 C 33.742188 13.226563 33.785156 13.425781 33.828125 13.625 C 33.859375 13.757813 33.878906 13.894531 33.90625 14.03125 C 33.316406 13.859375 32.71875 13.707031 32.121094 13.566406 C 31.992188 13.539063 31.867188 13.507813 31.742188 13.480469 C 31.152344 13.347656 30.5625 13.230469 29.964844 13.132813 C 29.867188 13.117188 29.773438 13.105469 29.675781 13.089844 C 29.121094 13 28.566406 12.925781 28.007813 12.863281 C 27.914063 12.855469 27.824219 12.84375 27.730469 12.832031 C 27.128906 12.773438 26.523438 12.730469 25.917969 12.703125 C 25.855469 12.699219 25.796875 12.691406 25.738281 12.6875 Z M 18.558594 14.65625 C 18.632813 14.640625 18.707031 14.632813 18.78125 14.617188 C 19.296875 14.53125 19.816406 14.457031 20.332031 14.394531 C 20.402344 14.386719 20.46875 14.378906 20.535156 14.371094 C 21.070313 14.3125 21.605469 14.265625 22.148438 14.234375 C 22.265625 14.226563 22.386719 14.21875 22.503906 14.210938 C 23.035156 14.183594 23.570313 14.167969 24.101563 14.164063 C 24.144531 14.164063 24.1875 14.164063 24.230469 14.164063 L 24.230469 29.570313 C 23.886719 29.5625 23.539063 29.558594 23.195313 29.539063 C 23.085938 29.535156 22.980469 29.53125 22.871094 29.523438 C 21.566406 29.445313 20.261719 29.289063 18.972656 29.054688 C 18.890625 29.042969 18.808594 29.019531 18.726563 29.007813 C 18.28125 28.921875 17.839844 28.824219 17.398438 28.722656 C 17.332031 28.460938 17.269531 28.199219 17.210938 27.9375 C 17.152344 27.699219 17.09375 27.457031 17.042969 27.214844 C 16.96875 26.851563 16.90625 26.488281 16.84375 26.125 C 16.804688 25.902344 16.757813 25.679688 16.726563 25.453125 C 16.664063 25.039063 16.617188 24.621094 16.566406 24.203125 C 16.546875 24.027344 16.519531 23.851563 16.503906 23.675781 C 16.445313 23.082031 16.402344 22.484375 16.378906 21.886719 C 16.375 21.8125 16.375 21.734375 16.371094 21.660156 C 16.355469 21.140625 16.34375 20.617188 16.351563 20.097656 C 16.351563 19.890625 16.367188 19.683594 16.371094 19.476563 C 16.382813 19.085938 16.394531 18.695313 16.417969 18.308594 C 16.433594 18.070313 16.460938 17.832031 16.480469 17.59375 C 16.511719 17.238281 16.542969 16.882813 16.582031 16.527344 C 16.613281 16.277344 16.65625 16.027344 16.691406 15.773438 C 16.726563 15.519531 16.765625 15.265625 16.808594 15.011719 C 16.859375 15 16.910156 14.988281 16.964844 14.976563 C 17.492188 14.855469 18.023438 14.746094 18.558594 14.65625 M 15.59375 28.253906 C 15.132813 28.117188 14.671875 27.96875 14.21875 27.8125 C 14.140625 27.785156 14.0625 27.761719 13.984375 27.734375 C 13.5 27.5625 13.023438 27.382813 12.550781 27.1875 C 12.449219 27.144531 12.34375 27.101563 12.242188 27.0625 C 11.761719 26.859375 11.285156 26.648438 10.8125 26.425781 C 10.78125 26.410156 10.75 26.394531 10.71875 26.382813 C 10.265625 26.164063 9.816406 25.933594 9.371094 25.691406 C 9.316406 25.664063 9.261719 25.636719 9.207031 25.605469 C 9.007813 24.582031 8.90625 23.542969 8.90625 22.511719 C 8.90625 20.828125 9.167969 19.167969 9.683594 17.570313 C 10.140625 17.34375 10.601563 17.121094 11.066406 16.917969 C 11.125 16.894531 11.1875 16.871094 11.242188 16.847656 C 11.703125 16.644531 12.167969 16.457031 12.640625 16.28125 C 12.808594 16.21875 12.980469 16.15625 13.152344 16.09375 C 13.519531 15.964844 13.886719 15.839844 14.257813 15.71875 C 14.445313 15.660156 14.632813 15.601563 14.820313 15.542969 C 14.949219 15.503906 15.078125 15.472656 15.207031 15.433594 C 15.1875 15.570313 15.175781 15.710938 15.15625 15.847656 C 15.125 16.074219 15.097656 16.300781 15.074219 16.527344 C 15.03125 16.90625 14.992188 17.285156 14.964844 17.667969 C 14.945313 17.886719 14.925781 18.109375 14.910156 18.332031 C 14.886719 18.746094 14.871094 19.160156 14.863281 19.574219 C 14.855469 19.761719 14.847656 19.945313 14.84375 20.128906 C 14.839844 20.722656 14.847656 21.320313 14.871094 21.914063 C 14.875 22.003906 14.882813 22.09375 14.890625 22.183594 C 14.914063 22.691406 14.949219 23.195313 14.996094 23.703125 C 15.015625 23.90625 15.039063 24.113281 15.066406 24.316406 C 15.109375 24.710938 15.15625 25.101563 15.214844 25.492188 C 15.246094 25.71875 15.28125 25.941406 15.320313 26.164063 C 15.382813 26.542969 15.453125 26.914063 15.527344 27.289063 C 15.570313 27.511719 15.613281 27.730469 15.660156 27.949219 C 15.6875 28.0625 15.707031 28.179688 15.734375 28.296875 C 15.6875 28.28125 15.640625 28.265625 15.59375 28.253906 M 24.230469 38.574219 C 23.328125 38.53125 22.417969 38.410156 21.527344 38.214844 C 21.488281 38.15625 21.453125 38.097656 21.417969 38.042969 C 21.085938 37.515625 20.765625 36.980469 20.464844 36.433594 C 20.441406 36.398438 20.417969 36.359375 20.398438 36.320313 C 20.089844 35.761719 19.800781 35.1875 19.527344 34.605469 C 19.476563 34.496094 19.421875 34.390625 19.371094 34.28125 C 19.109375 33.714844 18.863281 33.136719 18.636719 32.554688 C 18.59375 32.445313 18.554688 32.339844 18.511719 32.230469 C 18.28125 31.621094 18.0625 31.007813 17.863281 30.386719 C 17.863281 30.382813 17.863281 30.378906 17.863281 30.375 C 18.023438 30.410156 18.1875 30.433594 18.351563 30.46875 C 18.550781 30.507813 18.746094 30.542969 18.949219 30.574219 C 19.417969 30.65625 19.890625 30.730469 20.359375 30.792969 C 20.523438 30.8125 20.6875 30.839844 20.847656 30.859375 C 21.472656 30.933594 22.101563 30.992188 22.730469 31.03125 C 22.851563 31.039063 22.976563 31.039063 23.101563 31.046875 C 23.476563 31.066406 23.855469 31.085938 24.230469 31.09375 Z M 30.261719 39.289063 C 36.316406 37.386719 40.886719 32.351563 42.191406 26.144531 C 42.441406 24.949219 42.570313 23.730469 42.570313 22.511719 C 42.570313 20.910156 42.347656 19.3125 41.914063 17.761719 C 40.609375 13.105469 37.394531 9.152344 33.09375 6.910156 C 30.601563 5.613281 27.800781 4.925781 24.984375 4.925781 C 22.597656 4.925781 20.28125 5.398438 18.101563 6.328125 C 13.53125 8.273438 9.980469 12.085938 8.359375 16.78125 C 7.722656 18.632813 7.402344 20.558594 7.402344 22.511719 C 7.402344 23.765625 7.535156 25.027344 7.804688 26.261719 C 9.230469 32.808594 14.359375 38.050781 20.878906 39.609375 C 22.230469 39.929688 23.609375 40.097656 24.984375 40.097656 C 26.78125 40.09375 28.558594 39.824219 30.261719 39.289063 "
       style=" stroke:none;fill-rule:nonzero;fill:rgb(0%,0%,0%);fill-opacity:1;" />
    <path
       id="path241"
       d="M 3.808594 24.78125 C 3.746094 24.117188 3.714844 23.445313 3.714844 22.777344 C 3.714844 11.046875 13.253906 1.503906 24.984375 1.503906 C 27.140625 1.503906 29.269531 1.824219 31.308594 2.460938 C 31.703125 2.582031 32.125 2.359375 32.25 1.964844 C 32.371094 1.566406 32.152344 1.144531 31.753906 1.023438 C 29.570313 0.34375 27.292969 0 24.984375 0 C 12.425781 0 2.207031 10.21875 2.207031 22.777344 C 2.207031 23.574219 2.253906 24.375 2.339844 25.167969 L 0.820313 24.179688 L 0 25.441406 L 2.898438 27.328125 C 2.9375 27.355469 2.984375 27.371094 3.027344 27.386719 C 3.039063 27.390625 3.046875 27.398438 3.058594 27.402344 C 3.140625 27.429688 3.222656 27.449219 3.308594 27.449219 C 3.449219 27.449219 3.585938 27.40625 3.707031 27.328125 C 3.714844 27.324219 3.722656 27.320313 3.726563 27.316406 C 3.792969 27.269531 3.859375 27.21875 3.910156 27.148438 L 6.113281 24.222656 L 4.910156 23.316406 Z M 3.808594 24.78125 "
       style=" stroke:none;fill-rule:nonzero;fill:rgb(0%,0%,0%);fill-opacity:1;" />
    <g
       id="g245"
       clip-rule="nonzero"
       clip-path="url(#clip1)">
      <path
         id="path243"
         d="M 49.886719 19.699219 L 47.007813 17.824219 C 47 17.820313 46.996094 17.820313 46.992188 17.8125 L 46.988281 17.8125 C 46.980469 17.808594 46.96875 17.808594 46.960938 17.800781 C 46.890625 17.761719 46.8125 17.722656 46.726563 17.707031 C 46.632813 17.6875 46.535156 17.6875 46.441406 17.707031 C 46.4375 17.707031 46.4375 17.703125 46.433594 17.707031 C 46.417969 17.707031 46.40625 17.71875 46.394531 17.722656 C 46.316406 17.742188 46.238281 17.773438 46.171875 17.816406 C 46.148438 17.832031 46.132813 17.851563 46.113281 17.867188 C 46.066406 17.90625 46.015625 17.941406 45.976563 17.992188 L 43.773438 20.917969 L 44.976563 21.824219 L 46.109375 20.316406 C 46.203125 21.132813 46.253906 21.953125 46.253906 22.777344 C 46.253906 32.144531 40.25 40.3125 31.308594 43.09375 C 29.269531 43.726563 27.140625 44.046875 24.984375 44.046875 C 24.566406 44.046875 24.230469 44.386719 24.230469 44.800781 C 24.230469 45.21875 24.566406 45.554688 24.984375 45.554688 C 27.289063 45.554688 29.570313 45.207031 31.757813 44.527344 C 41.328125 41.550781 47.757813 32.808594 47.757813 22.777344 C 47.757813 21.847656 47.695313 20.917969 47.585938 19.996094 L 49.066406 20.960938 Z M 49.886719 19.699219 "
         style=" stroke:none;fill-rule:nonzero;fill:rgb(0%,0%,0%);fill-opacity:1;" />
    </g>
  </g>
</svg>
