<?xml version="1.0" encoding="UTF-8" standalone="no"?>
<svg
   xmlns:dc="http://purl.org/dc/elements/1.1/"
   xmlns:cc="http://creativecommons.org/ns#"
   xmlns:rdf="http://www.w3.org/1999/02/22-rdf-syntax-ns#"
   xmlns:svg="http://www.w3.org/2000/svg"
   xmlns="http://www.w3.org/2000/svg"
   viewBox="0 0 48.542667 50.868534"
   height="50.868534"
   width="48.542667"
   xml:space="preserve"
   id="svg2"
   version="1.1"><metadata
     id="metadata8"><rdf:RDF><cc:Work
         rdf:about=""><dc:format>image/svg+xml</dc:format><dc:type
           rdf:resource="http://purl.org/dc/dcmitype/StillImage" /><dc:title></dc:title></cc:Work></rdf:RDF></metadata><defs
     id="defs6"><clipPath
       id="clipPath18"
       clipPathUnits="userSpaceOnUse"><path
         id="path16"
         d="M 0,38.151 H 36.407 V 0 H 0 Z" /></clipPath><clipPath
       id="clipPath30"
       clipPathUnits="userSpaceOnUse"><path
         id="path28"
         d="M 0,38.151 H 36.407 V 0 H 0 Z" /></clipPath></defs><g
     transform="matrix(1.3333333,0,0,-1.3333333,0,50.868533)"
     id="g10"><g
       style="fill:#0f76bb;fill-opacity:1"
       id="g12"><g
         style="fill:#0f76bb;fill-opacity:1"
         clip-path="url(#clipPath18)"
         id="g14"><g
           style="fill:#0f76bb;fill-opacity:1"
           transform="translate(29.2673,13.5371)"
           id="g20"><path
             id="path22"
             style="fill:#0f76bb;fill-opacity:1;fill-rule:nonzero;stroke:none"
             d="M 0,0 -0.97,-5.481 C -0.974,-5.503 -0.979,-5.536 -0.988,-5.571 -0.991,-5.595 -1,-5.628 -1.002,-5.634 -1.324,-6.146 -1.66,-6.479 -2.03,-6.649 c -0.364,-0.168 -0.762,-0.236 -1.187,-0.197 -0.495,0.043 -0.849,0.343 -1.025,0.867 -0.171,0.514 -0.177,1.252 -0.02,2.192 0.262,1.442 0.644,2.516 1.137,3.193 0.456,0.631 1.06,0.95 1.793,0.95 0.078,0 0.157,-0.003 0.239,-0.01 C -0.899,0.328 -0.719,0.297 -0.555,0.253 -0.398,0.212 -0.232,0.156 -0.047,0.084 -0.014,0.07 0.006,0.035 0,0 M 5.562,3.762 C 4.219,5.657 2.107,6.744 -0.712,6.991 -3.555,7.24 -5.931,6.492 -7.826,4.775 c -1.897,-1.721 -3.063,-4.168 -3.466,-7.272 -0.4,-3.15 0.108,-5.737 1.512,-7.689 1.402,-1.948 3.577,-3.063 6.461,-3.314 0.267,-0.024 0.545,-0.037 0.825,-0.037 0.456,0 0.934,0.033 1.423,0.099 0.701,0.096 1.303,0.26 1.793,0.487 l 0.086,0.04 -0.254,1.521 -0.138,-0.044 c -0.455,-0.145 -0.981,-0.256 -1.563,-0.331 -0.678,-0.09 -1.359,-0.109 -1.978,-0.05 -2.271,0.198 -3.971,1.126 -5.049,2.756 -1.077,1.625 -1.442,3.776 -1.086,6.391 0.342,2.637 1.265,4.714 2.744,6.175 1.48,1.463 3.365,2.111 5.623,1.911 C 1.478,5.209 3.188,4.306 4.192,2.734 5.194,1.168 5.526,-0.945 5.181,-3.547 5.015,-4.776 4.631,-5.791 4.04,-6.562 3.444,-7.341 2.69,-7.693 1.829,-7.618 1.54,-7.594 1.312,-7.427 1.17,-7.134 1.028,-6.847 1.017,-6.356 1.133,-5.635 L 2.234,0.557 2.246,0.597 2.209,0.671 2.181,0.693 C 1.629,1.112 1.112,1.437 0.644,1.659 0.147,1.893 -0.53,2.047 -1.371,2.12 -2.587,2.223 -3.689,1.759 -4.64,0.729 c -0.96,-1.04 -1.621,-2.496 -1.964,-4.33 -0.269,-1.409 -0.167,-2.584 0.303,-3.492 0.471,-0.911 1.197,-1.397 2.221,-1.487 0.633,-0.053 1.201,0.045 1.699,0.298 0.494,0.253 0.933,0.667 1.303,1.23 0.014,0.022 0.04,0.034 0.077,0.031 0.029,-0.004 0.052,-0.028 0.059,-0.058 0.123,-0.579 0.377,-1.05 0.755,-1.399 0.378,-0.35 0.852,-0.551 1.407,-0.598 0.208,-0.019 0.417,-0.028 0.621,-0.028 1.423,0 2.57,0.473 3.41,1.407 0.968,1.076 1.561,2.421 1.762,3.998 0.383,3.055 -0.104,5.565 -1.451,7.461" /></g></g></g><g
       style="stroke:#0f76bb;stroke-opacity:0.94117647"
       id="g24"><g
         style="stroke:#0f76bb;stroke-opacity:0.94117647"
         clip-path="url(#clipPath30)"
         id="g26"><g
           style="stroke:#0f76bb;stroke-opacity:0.94117647"
           transform="translate(18.7253,9.5694)"
           id="g32"><path
             id="path34"
             style="fill:none;stroke:#0f76bb;stroke-width:1.70000005;stroke-linecap:butt;stroke-linejoin:round;stroke-miterlimit:10;stroke-dasharray:none;stroke-opacity:0.94117647"
             d="m 0,0 h -15.875 c -1.1,0 -2,0.9 -2,2 v 14.149 c 0,1.1 0.464,1.809 1.511,2.42 l 13.284,9.163 13.559,-9.351 c 1.237,-0.816 1.237,-1.132 1.237,-2.232 V 9.94" /></g><g
           style="stroke:#0f76bb;stroke-opacity:0.94117647"
           transform="translate(1.1101,26.9395)"
           id="g36"><path
             id="path38"
             style="fill:none;stroke:#0f76bb;stroke-width:1.70000005;stroke-linecap:butt;stroke-linejoin:miter;stroke-miterlimit:10;stroke-dasharray:none;stroke-opacity:0.94117647"
             d="M 0,0 9.367,-9.655" /></g><g
           style="stroke:#0f76bb;stroke-opacity:0.94117647"
           transform="translate(21.6677,17.2412)"
           id="g40"><path
             id="path42"
             style="fill:none;stroke:#0f76bb;stroke-width:1.70000005;stroke-linecap:butt;stroke-linejoin:miter;stroke-miterlimit:10;stroke-dasharray:none;stroke-opacity:0.94117647"
             d="M 0,0 8.496,9.814" /></g><g
           style="stroke:#0f76bb;stroke-opacity:0.94117647"
           transform="translate(1.7649,9.8926)"
           id="g44"><path
             id="path46"
             style="fill:none;stroke:#0f76bb;stroke-width:1.70000005;stroke-linecap:butt;stroke-linejoin:miter;stroke-miterlimit:10;stroke-dasharray:none;stroke-opacity:0.94117647"
             d="m 0,0 12.868,10.918 c 0.778,0.778 2.05,0.778 2.828,0 l 4.207,-3.569" /></g></g></g></g></svg>