<?xml version="1.0" encoding="UTF-8" standalone="no"?>
<svg
   xmlns:dc="http://purl.org/dc/elements/1.1/"
   xmlns:cc="http://creativecommons.org/ns#"
   xmlns:rdf="http://www.w3.org/1999/02/22-rdf-syntax-ns#"
   xmlns:svg="http://www.w3.org/2000/svg"
   xmlns="http://www.w3.org/2000/svg"
   id="svg136"
   version="1.2"
   viewBox="0 0 94.4 94.4"
   height="94.4pt"
   width="94.4pt">
  <metadata
     id="metadata140">
    <rdf:RDF>
      <cc:Work
         rdf:about="">
        <dc:format>image/svg+xml</dc:format>
        <dc:type
           rdf:resource="http://purl.org/dc/dcmitype/StillImage" />
        <dc:title></dc:title>
      </cc:Work>
    </rdf:RDF>
  </metadata>
  <defs
     id="defs129">
    <clipPath
       id="clip1">
      <path
         id="path126"
         d="M 0 0 L 94.398438 0 L 94.398438 94.398438 L 0 94.398438 Z M 0 0 " />
    </clipPath>
  </defs>
  <g
     id="surface169255">
    <g
       id="g133"
       clip-rule="nonzero"
       clip-path="url(#clip1)">
      <path
         id="path131"
         d="M 58.300781 68.699219 L 36.300781 68.699219 L 40.699219 50.199219 C 36.597656 48 33.699219 43.699219 33.699219 38.699219 C 33.699219 31.5 39.800781 25.597656 47.199219 25.597656 C 54.601563 25.597656 60.699219 31.5 60.699219 38.699219 C 60.699219 43.597656 57.902344 47.800781 53.902344 50.097656 Z M 47.199219 0 C 21.097656 0 0 21.097656 0 47.199219 C 0 73.300781 21.097656 94.398438 47.199219 94.398438 C 73.300781 94.398438 94.402344 73.300781 94.402344 47.199219 C 94.402344 21.097656 73.300781 0 47.199219 0 " />
    </g>
  </g>
</svg>
