<?xml version="1.0" encoding="UTF-8" standalone="no"?>
<svg
   xmlns:dc="http://purl.org/dc/elements/1.1/"
   xmlns:cc="http://creativecommons.org/ns#"
   xmlns:rdf="http://www.w3.org/1999/02/22-rdf-syntax-ns#"
   xmlns:svg="http://www.w3.org/2000/svg"
   xmlns="http://www.w3.org/2000/svg"
   viewBox="0 0 39.734402 48.904934"
   height="48.904934"
   width="39.734402"
   xml:space="preserve"
   id="svg2"
   version="1.1"><metadata
     id="metadata8"><rdf:RDF><cc:Work
         rdf:about=""><dc:format>image/svg+xml</dc:format><dc:type
           rdf:resource="http://purl.org/dc/dcmitype/StillImage" /><dc:title></dc:title></cc:Work></rdf:RDF></metadata><defs
     id="defs6"><clipPath
       id="clipPath18"
       clipPathUnits="userSpaceOnUse"><path
         id="path16"
         d="M 0,36.679 H 29.801 V 0 H 0 Z" /></clipPath></defs><g
     transform="matrix(1.3333333,0,0,-1.3333333,0,48.904933)"
     id="g10"><g
       id="g12"><g
         clip-path="url(#clipPath18)"
         id="g14"><g
           transform="translate(16.0811,26.4219)"
           id="g20"><path
             id="path22"
             style="fill:#642f7f;fill-opacity:1;fill-rule:nonzero;stroke:none"
             d="M 0,0 H -0.125 V -1.677 H 0 c 0.72,0 1.306,-0.586 1.306,-1.305 v -0.125 h 1.676 v 0.125 C 2.982,-1.338 1.645,0 0,0" /></g><g
           transform="translate(16.0811,29.5405)"
           id="g24"><path
             id="path26"
             style="fill:#642f7f;fill-opacity:1;fill-rule:nonzero;stroke:none"
             d="M 0,0 H -0.125 V -1.676 H 0 c 2.439,0 4.424,-1.985 4.424,-4.425 v -0.125 h 1.678 v 0.125 C 6.102,-2.737 3.364,0 0,0" /></g><g
           transform="translate(16.0811,32.4448)"
           id="g28"><path
             id="path30"
             style="fill:#642f7f;fill-opacity:1;fill-rule:nonzero;stroke:none"
             d="M 0,0 H -0.125 V -1.677 H 0 c 4.041,0 7.329,-3.287 7.329,-7.328 V -9.13 h 1.677 v 0.125 C 9.006,-4.04 4.966,0 0,0" /></g><g
           transform="translate(10.6274,24.2852)"
           id="g32"><path
             id="path34"
             style="fill:#642f7f;fill-opacity:1;fill-rule:nonzero;stroke:none"
             d="m 0,0 c -0.4,-0.315 -1.07,-0.842 -1.124,-1.773 -0.056,-0.977 0.585,-2.1 2.02,-3.537 1.381,-1.379 2.468,-2.022 3.422,-2.022 0.036,0 0.074,10e-4 0.115,0.002 0.923,0.054 1.435,0.697 1.774,1.122 l 0.101,0.128 c 0.163,0.239 0.478,0.306 0.717,0.156 L 8.638,-6.978 C 9.15,-7.311 9.611,-7.611 9.76,-7.713 l 0.071,-0.046 c 0.381,-0.26 0.441,-0.35 0.433,-0.466 -0.41,-1.23 -1.556,-2.063 -2.851,-2.073 -1.973,0 -4.63,1.531 -7.29,4.201 -2.679,2.689 -4.215,5.35 -4.215,7.301 0.008,1.275 0.818,2.412 2.017,2.836 h 0.063 c 0.135,0 0.22,-0.061 0.456,-0.42 L -1.505,3.546 C -1.32,3.278 -0.444,1.929 -0.156,1.486 L 0.278,0.825 C 0.433,0.578 0.357,0.26 0.092,0.078 Z m 7.416,-11.789 c 2.001,0.018 3.735,1.335 4.316,3.297 0.143,1.149 -0.701,1.718 -1.065,1.961 l -0.072,0.053 c -0.187,0.126 -0.844,0.554 -1.487,0.973 L 7.835,-4.676 C 6.933,-4.095 5.743,-4.317 5.126,-5.178 L 5.013,-5.319 c -0.216,-0.265 -0.42,-0.515 -0.668,-0.528 -0.282,-0.016 -0.96,0.158 -2.386,1.586 -1.424,1.43 -1.61,2.119 -1.594,2.404 0.014,0.26 0.284,0.471 0.58,0.703 l 0.066,0.062 c 0.868,0.628 1.093,1.824 0.511,2.723 L 0.634,2.996 C 0.245,3.594 -0.159,4.211 -0.281,4.387 L -0.33,4.459 c -0.239,0.357 -0.793,1.195 -2.032,1.037 -1.903,-0.575 -3.197,-2.298 -3.22,-4.289 0,-2.362 1.69,-5.408 4.639,-8.356 2.949,-2.949 5.996,-4.64 8.359,-4.64" /></g><g
           transform="translate(9.3164,34.8789)"
           id="g36"><path
             id="path38"
             style="fill:#642f7f;fill-opacity:1;fill-rule:nonzero;stroke:none"
             d="m 0,0 c -4.145,0 -7.517,-3.372 -7.517,-7.517 v -10.25 c 0,-3.224 2.065,-6.086 5.138,-7.121 l 0.612,-0.206 v -5.049 l 4.317,4.86 h 8.617 c 4.145,0 7.517,3.371 7.517,7.516 v 10.25 C 18.684,-3.372 15.312,0 11.167,0 Z m -3.566,-34.879 v 8.516 c -3.465,1.441 -5.75,4.817 -5.75,8.596 v 10.25 C -9.316,-2.38 -5.137,1.8 0,1.8 h 11.167 c 5.138,0 9.317,-4.18 9.317,-9.317 v -10.25 c 0,-5.137 -4.179,-9.317 -9.317,-9.317 H 3.358 Z" /></g></g></g></g></svg>