<?xml version="1.0" encoding="UTF-8" standalone="no"?>
<svg
   xmlns:dc="http://purl.org/dc/elements/1.1/"
   xmlns:cc="http://creativecommons.org/ns#"
   xmlns:rdf="http://www.w3.org/1999/02/22-rdf-syntax-ns#"
   xmlns:svg="http://www.w3.org/2000/svg"
   xmlns="http://www.w3.org/2000/svg"
   id="svg438"
   version="1.2"
   viewBox="0 0 31 16.3612"
   height="16.3612pt"
   width="31pt">
  <metadata
     id="metadata442">
    <rdf:RDF>
      <cc:Work
         rdf:about="">
        <dc:format>image/svg+xml</dc:format>
        <dc:type
           rdf:resource="http://purl.org/dc/dcmitype/StillImage" />
        <dc:title></dc:title>
      </cc:Work>
    </rdf:RDF>
  </metadata>
  <defs
     id="defs429">
    <clipPath
       id="clip1">
      <path
         id="path426"
         d="M 0 0 L 31 0 L 31 16.359375 L 0 16.359375 Z M 0 0 " />
    </clipPath>
  </defs>
  <g
     id="surface266784">
    <g
       id="g433"
       clip-rule="nonzero"
       clip-path="url(#clip1)">
      <path
         id="path431"
         d="M 15.5 15.070313 C 11.699219 15.070313 8.609375 11.980469 8.609375 8.179688 C 8.609375 4.382813 11.699219 1.292969 15.5 1.292969 C 19.300781 1.292969 22.390625 4.382813 22.390625 8.179688 C 22.390625 11.980469 19.300781 15.070313 15.5 15.070313 M 15.5 0 C 6.9375 0 0 8.179688 0 8.179688 C 0 8.179688 6.9375 16.359375 15.5 16.359375 C 24.0625 16.359375 31 8.179688 31 8.179688 C 31 8.179688 24.0625 0 15.5 0 "
         style=" stroke:none;fill-rule:nonzero;fill:rgb(0%,0%,0%);fill-opacity:1;" />
    </g>
    <path
       id="path435"
       d="M 17.984375 6.960938 C 17.300781 6.960938 16.746094 6.402344 16.746094 5.71875 C 16.746094 5.371094 16.886719 5.058594 17.121094 4.832031 C 16.628906 4.59375 16.082031 4.457031 15.5 4.457031 C 13.449219 4.457031 11.777344 6.128906 11.777344 8.179688 C 11.777344 10.234375 13.449219 11.902344 15.5 11.902344 C 17.550781 11.902344 19.222656 10.234375 19.222656 8.179688 C 19.222656 7.613281 19.089844 7.074219 18.863281 6.59375 C 18.636719 6.820313 18.328125 6.960938 17.984375 6.960938 "
       style=" stroke:none;fill-rule:nonzero;fill:rgb(0%,0%,0%);fill-opacity:1;" />
  </g>
</svg>
