<?xml version="1.0" encoding="UTF-8" standalone="no"?>
<svg
   xmlns:dc="http://purl.org/dc/elements/1.1/"
   xmlns:cc="http://creativecommons.org/ns#"
   xmlns:rdf="http://www.w3.org/1999/02/22-rdf-syntax-ns#"
   xmlns:svg="http://www.w3.org/2000/svg"
   xmlns="http://www.w3.org/2000/svg"
   version="1.1"
   id="svg2"
   xml:space="preserve"
   width="44"
   height="48.533333"
   viewBox="0 0 44 48.533333"><metadata
     id="metadata8"><rdf:RDF><cc:Work
         rdf:about=""><dc:format>image/svg+xml</dc:format><dc:type
           rdf:resource="http://purl.org/dc/dcmitype/StillImage" /><dc:title></dc:title></cc:Work></rdf:RDF></metadata><defs
     id="defs6"><clipPath
       clipPathUnits="userSpaceOnUse"
       id="clipPath18"><path
         d="M 0,36.4 H 33 V 0 H 0 Z"
         id="path16" /></clipPath></defs><g
     style="fill:#1a2a55;fill-opacity:1"
     id="g10"
     transform="matrix(1.3333333,0,0,-1.3333333,0,48.533333)"><g
       style="fill:#1a2a55;fill-opacity:1"
       id="g12"><g
         style="fill:#1a2a55;fill-opacity:1"
         id="g14"
         clip-path="url(#clipPath18)"><g
           style="fill:#1a2a55;fill-opacity:1"
           id="g20"
           transform="translate(30.8,19.3998)"><path
             d="m 0,0 h -2.6 c -0.5,0 -1,0.4 -1,1 v 9 c 0,0.5 0.5,1 1,1 H 0 Z m -5.6,2.3 h -14.2 c -1.7,0 -3,-1.4 -3,-3 v -2.9 c 0,-0.6 -0.5,-1 -1,-1 h -4 c -0.5,0 -1,0.4 -1,1 v 9.8 c 0,0.5 0.5,1 1,1 h 22.2 z m 6.7,14.4 c -0.6,0 -1,-0.5 -1,-1 V 13 h -2.7 c -1.7,0 -3,-1.4 -3,-3 V 9.2 h -10.6 v 3.9 h 5.7 c 0.5,0 1,0.4 1,1 0,0.6 -0.5,1 -1,1 h -5.7 V 16 c 0,0.5 -0.5,1 -1,1 -0.6,0 -1,-0.5 -1,-1 v -0.9 h -5.7 c -0.5,0 -1,-0.4 -1,-1 0,-0.6 0.5,-1 1,-1 h 5.7 V 9.2 h -9.6 c -1.7,0 -3,-1.4 -3,-3 v -9.8 c 0,-1.7 1.3,-3 3,-3 h 4 c 1.7,0 3,1.3 3,3 v 2.9 c 0,0.6 0.5,1 1,1 h 14.2 c 0.3,-1.4 1.5,-2.4 2.9,-2.4 H 0 v -7.799 c -0.1,0 -0.1,-0.101 -0.2,-0.101 -0.1,-0.1 -0.3,-0.2 -0.4,-0.399 -0.5,-0.5 -0.8,-0.701 -1.4,-0.701 -0.7,0 -1,0.3 -1.4,0.701 -0.6,0.5 -1.3,1.299 -2.8,1.299 -1.5,0 -2.2,-0.7 -2.8,-1.299 -0.5,-0.5 -0.8,-0.701 -1.4,-0.701 -0.7,0 -1,0.3 -1.4,0.701 -0.6,0.5 -1.4,1.299 -2.8,1.299 -1.4,0 -2.2,-0.7 -2.8,-1.299 -0.5,-0.5 -0.8,-0.701 -1.4,-0.701 -0.5,0 -1,-0.5 -1,-1 0,-0.6 0.5,-1 1,-1 1.5,0 2.2,0.701 2.8,1.3 0.5,0.5 0.8,0.7 1.4,0.7 0.7,0 1,-0.299 1.5,-0.7 0.6,-0.5 1.3,-1.3 2.8,-1.3 1.5,0 2.2,0.701 2.8,1.3 0.5,0.5 0.8,0.7 1.4,0.7 0.7,0 1,-0.299 1.4,-0.7 0.6,-0.5 1.3,-1.3 2.8,-1.3 0.9,0 1.5,0.3 2,0.6 v -3.399 C 0,-15.899 0,-16 -0.1,-16 c -0.1,-0.1 -0.3,-0.2 -0.4,-0.399 -0.5,-0.5 -0.8,-0.701 -1.4,-0.701 -0.7,0 -1,0.3 -1.4,0.701 -0.6,0.5 -1.3,1.299 -2.8,1.299 -1.5,0 -2.2,-0.7 -2.8,-1.299 -0.5,-0.5 -0.8,-0.701 -1.4,-0.701 -0.7,0 -1,0.3 -1.4,0.701 -0.6,0.5 -1.4,1.299 -2.8,1.299 -1.4,0 -2.2,-0.7 -2.8,-1.299 -0.5,-0.5 -0.8,-0.701 -1.4,-0.701 -0.5,0 -1,-0.5 -1,-1 0,-0.6 0.5,-1 1,-1 1.5,0 2.2,0.701 2.8,1.3 0.5,0.5 0.8,0.7 1.4,0.7 0.7,0 1,-0.299 1.5,-0.7 0.6,-0.5 1.3,-1.3 2.8,-1.3 1.5,0 2.2,0.701 2.8,1.3 0.5,0.5 0.8,0.7 1.4,0.7 0.7,0 1,-0.299 1.4,-0.7 0.6,-0.5 1.3,-1.3 2.8,-1.3 0.9,0 1.5,0.3 2,0.6 0,-0.5 0.5,-0.899 1,-0.899 0.6,0 1,0.399 1,1 V 15.6 c -0.1,0.6 -0.6,1.1 -1.1,1.1"
             style="fill:#1a2a55;fill-opacity:1;fill-rule:nonzero;stroke:none"
             id="path22" /></g><g
           style="fill:#1a2a55;fill-opacity:1"
           id="g24"
           transform="translate(4.8,8.1996)"><path
             d="m 0,0 -1,-2 c -0.2,-0.399 -0.2,-0.899 0,-1.3 0.1,-0.2 0.4,-0.599 1,-0.599 0.6,0 0.9,0.399 1,0.599 0.2,0.401 0.3,0.901 0,1.3 z m 0,-5.899 v 0 c -1.1,0 -2.1,0.599 -2.7,1.5 -0.6,1 -0.6,2.2 -0.1,3.2 L -0.9,2.5 c 0.3,0.7 1.4,0.7 1.8,0 l 1.9,-3.699 c 0.5,-1 0.5,-2.2 -0.1,-3.2 C 2.1,-5.3 1.1,-5.899 0,-5.899"
             style="fill:#1a2a55;fill-opacity:1;fill-rule:nonzero;stroke:none"
             id="path26" /></g></g></g></g></svg>