<?xml version="1.0" encoding="UTF-8" standalone="no"?>
<svg
   xmlns:dc="http://purl.org/dc/elements/1.1/"
   xmlns:cc="http://creativecommons.org/ns#"
   xmlns:rdf="http://www.w3.org/1999/02/22-rdf-syntax-ns#"
   xmlns:svg="http://www.w3.org/2000/svg"
   xmlns="http://www.w3.org/2000/svg"
   viewBox="0 0 53.740932 53.7416"
   height="53.7416"
   width="53.740932"
   xml:space="preserve"
   id="svg2"
   version="1.1"><metadata
     id="metadata8"><rdf:RDF><cc:Work
         rdf:about=""><dc:format>image/svg+xml</dc:format><dc:type
           rdf:resource="http://purl.org/dc/dcmitype/StillImage" /><dc:title></dc:title></cc:Work></rdf:RDF></metadata><defs
     id="defs6"><clipPath
       id="clipPath18"
       clipPathUnits="userSpaceOnUse"><path
         id="path16"
         d="M 0,40.306 H 40.306 V 0 H 0 Z" /></clipPath></defs><g
     transform="matrix(1.3333333,0,0,-1.3333333,0,53.7416)"
     id="g10"><g
       style="stroke:#ff0000;stroke-opacity:0;fill:#1a2a55;fill-opacity:1"
       id="g12"><g
         style="stroke:#ff0000;stroke-opacity:0;fill:#1a2a55;fill-opacity:1"
         clip-path="url(#clipPath18)"
         id="g14"><g
           style="stroke:#ff0000;stroke-opacity:0;fill:#1a2a55;fill-opacity:1"
           transform="translate(8.666,18.9121)"
           id="g20"><path
             id="path22"
             style="fill:#1a2a55;fill-opacity:1;fill-rule:nonzero;stroke:#ff0000;stroke-opacity:0"
             d="m 0,0 c -0.101,-1.739 1.098,-3.796 3.774,-6.473 2.579,-2.578 4.574,-3.778 6.28,-3.778 0.065,0 0.128,0.002 0.193,0.005 1.561,0.091 2.433,1.184 3.069,1.983 l 0.174,0.217 c 0.474,0.697 1.4,0.894 2.112,0.447 l 3.134,-2.047 c 0.999,-0.651 1.897,-1.238 2.183,-1.431 l 0.143,-0.095 c 0.704,-0.477 1.125,-0.818 1.047,-1.503 -0.867,-2.605 -3.295,-4.369 -6.04,-4.388 -3.973,0 -9.273,3.032 -14.541,8.319 -5.304,5.325 -8.346,10.635 -8.346,14.566 0.018,2.736 1.768,5.157 4.358,6.032 h 0.211 c 0.585,0 0.901,-0.413 1.317,-1.044 l 0.098,-0.142 C -0.465,10.133 1.271,7.459 1.842,6.581 L 2.645,5.359 C 3.092,4.646 2.892,3.713 2.178,3.228 L 1.984,3.065 C 1.23,2.471 0.091,1.572 0,0 m 22.097,-9.647 -0.137,0.098 c -0.367,0.25 -1.677,1.103 -2.943,1.926 l -2.41,1.571 c -1.516,0.977 -3.528,0.593 -4.573,-0.863 l -0.223,-0.279 c -0.474,-0.58 -0.964,-1.18 -1.665,-1.217 -1.114,-0.08 -2.831,1.015 -5.047,3.236 -2.223,2.23 -3.316,3.934 -3.251,5.069 C 1.886,0.642 2.55,1.157 3.145,1.62 L 3.32,1.779 c 1.461,1.057 1.839,3.07 0.86,4.584 L 2.689,8.656 c -0.82,1.258 -1.75,2.682 -2.01,3.055 l -0.095,0.142 c -0.481,0.72 -1.387,2.061 -3.363,1.806 -3.479,-1.051 -5.845,-4.199 -5.887,-7.835 0,-4.454 3.23,-10.239 8.864,-15.873 5.634,-5.633 11.419,-8.863 15.873,-8.863 3.656,0.03 6.819,2.411 7.875,5.946 0.24,1.918 -1.17,2.863 -1.849,3.319" /></g><g
           style="stroke:#ff0000;stroke-opacity:0;fill:#1a2a55;fill-opacity:1"
           transform="translate(24.6396,24.9229)"
           id="g24"><path
             id="path26"
             style="fill:#1a2a55;fill-opacity:1;fill-rule:nonzero;stroke:#ff0000;stroke-opacity:0"
             d="m 0,0 h -5.397 c -0.403,0 -0.73,0.327 -0.73,0.729 v 12.076 c 0,0.403 0.327,0.73 0.73,0.73 h 18.485 c 0.402,0 0.729,-0.327 0.729,-0.73 V 0.729 C 13.817,0.327 13.49,0 13.088,0 H 3.583 C 3.508,0 3.438,-0.029 3.382,-0.083 L 0.283,-3.182 v 2.899 C 0.283,-0.127 0.156,0 0,0 M 13.088,15.383 H -5.398 C -6.815,15.38 -7.972,14.223 -7.975,12.805 V 0.729 c 0.003,-1.417 1.16,-2.574 2.578,-2.577 h 3.832 v -5.107 c 0,-0.116 0.068,-0.219 0.17,-0.261 0.035,-0.014 0.073,-0.022 0.113,-0.022 0.074,0 0.144,0.028 0.201,0.082 l 5.307,5.308 h 8.856 c 1.421,0 2.58,1.156 2.584,2.577 v 12.077 c -0.004,1.418 -1.16,2.574 -2.578,2.577" /></g><g
           style="stroke:#ff0000;stroke-opacity:0;fill:#1a2a55;fill-opacity:1"
           transform="translate(28.4854,30.1255)"
           id="g28"><path
             id="path30"
             style="fill:#1a2a55;fill-opacity:1;fill-rule:nonzero;stroke:#ff0000;stroke-opacity:0"
             d="M 0,0 C 0.863,0 1.565,0.702 1.565,1.565 1.565,2.428 0.863,3.13 0,3.13 -0.863,3.13 -1.565,2.428 -1.565,1.565 -1.565,0.702 -0.863,0 0,0" /></g><g
           style="stroke:#ff0000;stroke-opacity:0;fill:#1a2a55;fill-opacity:1"
           transform="translate(23.3574,33.2554)"
           id="g32"><path
             id="path34"
             style="fill:#1a2a55;fill-opacity:1;fill-rule:nonzero;stroke:#ff0000;stroke-opacity:0"
             d="m 0,0 c -0.863,0 -1.565,-0.702 -1.565,-1.565 0,-0.863 0.702,-1.565 1.565,-1.565 0.863,0 1.565,0.702 1.565,1.565 C 1.565,-0.702 0.863,0 0,0" /></g><g
           style="stroke:#ff0000;stroke-opacity:0;fill:#1a2a55;fill-opacity:1"
           transform="translate(33.6133,30.1255)"
           id="g36"><path
             id="path38"
             style="fill:#1a2a55;fill-opacity:1;fill-rule:nonzero;stroke:#ff0000;stroke-opacity:0"
             d="M 0,0 C 0.862,0 1.564,0.702 1.564,1.565 1.564,2.428 0.862,3.13 0,3.13 -0.863,3.13 -1.565,2.428 -1.565,1.565 -1.565,0.702 -0.863,0 0,0" /></g></g></g></g></svg>