<?xml version="1.0" encoding="UTF-8" standalone="no"?>
<svg
   xmlns:dc="http://purl.org/dc/elements/1.1/"
   xmlns:cc="http://creativecommons.org/ns#"
   xmlns:rdf="http://www.w3.org/1999/02/22-rdf-syntax-ns#"
   xmlns:svg="http://www.w3.org/2000/svg"
   xmlns="http://www.w3.org/2000/svg"
   viewBox="0 0 50.170399 53.986534"
   height="53.986534"
   width="50.170399"
   xml:space="preserve"
   id="svg2"
   version="1.1"><metadata
     id="metadata8"><rdf:RDF><cc:Work
         rdf:about=""><dc:format>image/svg+xml</dc:format><dc:type
           rdf:resource="http://purl.org/dc/dcmitype/StillImage" /><dc:title></dc:title></cc:Work></rdf:RDF></metadata><defs
     id="defs6"><clipPath
       id="clipPath18"
       clipPathUnits="userSpaceOnUse"><path
         id="path16"
         d="M 0,40.49 H 37.628 V 0 H 0 Z" /></clipPath></defs><g
     transform="matrix(1.3333333,0,0,-1.3333333,0,53.986533)"
     id="g10"><g
       style="fill:#1a2a55;fill-opacity:1"
       id="g12"><g
         style="fill:#1a2a55;fill-opacity:1"
         clip-path="url(#clipPath18)"
         id="g14"><g
           style="fill:#1a2a55;fill-opacity:1"
           transform="translate(2.0688,8.1329)"
           id="g20"><path
             id="path22"
             style="fill:#1a2a55;fill-opacity:1;fill-rule:nonzero;stroke:none"
             d="M 0,0 C -0.037,-2.352 1.297,-4.51 3.417,-5.526 4.673,-6.099 6.086,-6.221 7.421,-5.874 V 0.157 C 7.424,0.36 7.261,0.527 7.058,0.529 H 5.184 C 4.612,0.521 4.142,0.976 4.133,1.547 v 0.016 11.616 c 0,0.278 0.112,0.543 0.31,0.737 0.198,0.192 0.464,0.299 0.741,0.297 h 1.874 c 0.201,0 0.365,0.163 0.368,0.365 v 6.018 C 6.09,20.943 4.677,20.82 3.421,20.249 1.3,19.233 -0.037,17.074 0,14.722 Z m -2.068,14.722 c -0.036,3.162 1.771,6.055 4.629,7.409 1.722,0.784 3.665,0.939 5.489,0.438 0.848,-0.238 1.435,-1.012 1.435,-1.894 V 14.569 C 9.483,13.225 8.393,12.137 7.049,12.137 H 6.205 V 2.598 h 0.857 c 1.343,0 2.434,-1.089 2.436,-2.433 V -5.944 C 9.496,-6.83 8.903,-7.604 8.05,-7.839 6.223,-8.343 4.276,-8.188 2.553,-7.4 -0.301,-6.045 -2.104,-3.154 -2.068,0.004 Z M 27.05,-1.866 h 1.336 c 0.571,0 1.034,0.463 1.034,1.034 0,0.571 -0.463,1.034 -1.034,1.034 h -1.332 c -0.572,0 -1.034,-0.463 -1.034,-1.034 0,-0.571 0.462,-1.034 1.034,-1.034 z m -11.529,0 h 1.336 c 0.572,0 1.035,0.463 1.035,1.034 0,0.571 -0.463,1.034 -1.035,1.034 h -1.336 c -0.571,0 -1.035,-0.463 -1.035,-1.034 0,-0.571 0.464,-1.034 1.035,-1.034 m 5.766,0 h 1.337 c 0.57,0 1.034,0.463 1.034,1.034 0,0.571 -0.464,1.034 -1.034,1.034 h -1.337 c -0.57,0 -1.034,-0.463 -1.034,-1.034 0,-0.571 0.464,-1.034 1.034,-1.034 m 5.763,4.464 h 1.336 c 0.571,0 1.034,0.463 1.034,1.034 0,0.571 -0.463,1.034 -1.034,1.034 h -1.332 c -0.572,0 -1.034,-0.463 -1.034,-1.034 0,-0.571 0.462,-1.034 1.034,-1.034 z m -11.529,0 h 1.336 c 0.572,0 1.035,0.463 1.035,1.034 0,0.571 -0.463,1.034 -1.035,1.034 h -1.336 c -0.571,0 -1.035,-0.463 -1.035,-1.034 0,-0.571 0.464,-1.034 1.035,-1.034 m 5.766,0 h 1.337 c 0.57,0 1.034,0.463 1.034,1.034 0,0.571 -0.464,1.034 -1.034,1.034 h -1.337 c -0.57,0 -1.034,-0.463 -1.034,-1.034 0,-0.571 0.464,-1.034 1.034,-1.034 m 5.763,4.496 h 1.336 c 0.571,0 1.034,0.464 1.034,1.034 0,0.571 -0.463,1.034 -1.034,1.034 h -1.332 c -0.572,0 -1.034,-0.463 -1.034,-1.034 0,-0.57 0.462,-1.034 1.034,-1.034 z m -11.529,0 h 1.336 c 0.572,0 1.035,0.464 1.035,1.034 0,0.571 -0.463,1.034 -1.035,1.034 h -1.336 c -0.571,0 -1.035,-0.463 -1.035,-1.034 0,-0.57 0.464,-1.034 1.035,-1.034 m 5.766,0 h 1.337 c 0.57,0 1.034,0.464 1.034,1.034 0,0.571 -0.464,1.034 -1.034,1.034 h -1.337 c -0.57,0 -1.034,-0.463 -1.034,-1.034 0,-0.57 0.464,-1.034 1.034,-1.034 m 3.769,17.403 h 4.219 l -4.219,4.215 z m -12.203,7.86 h 11.053 c 0.275,0 0.538,-0.108 0.733,-0.302 l 7.979,-7.98 c 0.194,-0.194 0.302,-0.457 0.302,-0.732 V 19.26 c 0,-0.571 -0.463,-1.034 -1.034,-1.034 -0.572,0 -1.034,0.463 -1.034,1.034 v 3.165 h -6.089 c -0.98,0.002 -1.773,0.795 -1.776,1.774 v 6.09 h -9.1 V 19.26 c 0,-0.571 -0.463,-1.034 -1.034,-1.034 -0.572,0 -1.035,0.463 -1.035,1.034 v 12.063 c 0,0.571 0.463,1.034 1.035,1.034 M 12.299,-6.064 h 18.09 c 1.712,0.002 3.099,1.389 3.101,3.102 V 13.353 H 12.299 c -0.571,0 -1.034,0.463 -1.034,1.034 0,0.571 0.463,1.034 1.034,1.034 h 21.398 c 1.029,0 1.862,-0.833 1.862,-1.861 V -2.987 c -0.016,-2.845 -2.326,-5.144 -5.17,-5.146 h -18.09 c -0.571,0 -1.034,0.463 -1.034,1.034 0,0.572 0.463,1.035 1.034,1.035" /></g></g></g></g></svg>