<?xml version="1.0" encoding="UTF-8" standalone="no"?>
<svg
   xmlns:dc="http://purl.org/dc/elements/1.1/"
   xmlns:cc="http://creativecommons.org/ns#"
   xmlns:rdf="http://www.w3.org/1999/02/22-rdf-syntax-ns#"
   xmlns:svg="http://www.w3.org/2000/svg"
   xmlns="http://www.w3.org/2000/svg"
   id="svg208"
   version="1.2"
   viewBox="0 0 41.1051 37.3575"
   height="37.3575pt"
   width="41.1051pt">
  <metadata
     id="metadata214">
    <rdf:RDF>
      <cc:Work
         rdf:about="">
        <dc:format>image/svg+xml</dc:format>
        <dc:type
           rdf:resource="http://purl.org/dc/dcmitype/StillImage" />
        <dc:title></dc:title>
      </cc:Work>
    </rdf:RDF>
  </metadata>
  <defs
     id="defs212" />
  <g
     id="surface216709">
    <path
       id="path205"
       d="M 3.828125 33.699219 L 37.277344 33.699219 L 37.277344 35.527344 L 3.828125 35.527344 Z M 6.230469 30.042969 L 34.875 30.042969 L 34.875 31.871094 L 6.230469 31.871094 Z M 8.667969 11.148438 L 12.933594 11.148438 L 12.933594 28.214844 L 8.667969 28.214844 Z M 20.554688 1.957031 L 34.015625 9.273438 L 7.089844 9.273438 Z M 28.171875 11.148438 L 32.4375 11.148438 L 32.4375 28.214844 L 28.171875 28.214844 Z M 14.761719 11.148438 L 19.636719 11.148438 L 19.636719 28.214844 L 14.761719 28.214844 Z M 21.46875 11.148438 L 26.34375 11.148438 L 26.34375 28.214844 L 21.46875 28.214844 Z M 40.191406 35.527344 L 39.105469 35.527344 L 39.105469 32.785156 C 39.105469 32.28125 38.695313 31.871094 38.191406 31.871094 L 36.703125 31.871094 L 36.703125 29.128906 C 36.703125 28.625 36.296875 28.214844 35.789063 28.214844 L 34.265625 28.214844 L 34.265625 11.085938 L 37.617188 11.085938 C 38.125 11.089844 38.535156 10.683594 38.539063 10.179688 C 38.539063 9.839844 38.355469 9.53125 38.058594 9.371094 L 20.992188 0.109375 C 20.71875 -0.0351563 20.390625 -0.0351563 20.121094 0.109375 L 3.054688 9.371094 C 2.609375 9.609375 2.441406 10.164063 2.683594 10.609375 C 2.84375 10.902344 3.152344 11.085938 3.484375 11.085938 L 6.839844 11.085938 L 6.839844 28.214844 L 5.316406 28.214844 C 4.808594 28.214844 4.398438 28.625 4.398438 29.128906 L 4.398438 31.871094 L 2.914063 31.871094 C 2.410156 31.871094 2 32.28125 2 32.785156 L 2 35.527344 L 0.914063 35.527344 C 0.410156 35.527344 0 35.9375 0 36.441406 C 0 36.949219 0.410156 37.359375 0.914063 37.359375 L 40.191406 37.359375 C 40.695313 37.359375 41.105469 36.949219 41.105469 36.441406 C 41.105469 35.9375 40.695313 35.527344 40.191406 35.527344 "
       style=" stroke:none;fill-rule:nonzero;fill:rgb(0%,0%,0%);fill-opacity:1;" />
  </g>
</svg>
