<?xml version="1.0" encoding="UTF-8" standalone="no"?>
<svg
   xmlns:dc="http://purl.org/dc/elements/1.1/"
   xmlns:cc="http://creativecommons.org/ns#"
   xmlns:rdf="http://www.w3.org/1999/02/22-rdf-syntax-ns#"
   xmlns:svg="http://www.w3.org/2000/svg"
   xmlns="http://www.w3.org/2000/svg"
   version="1.1"
   id="svg2"
   xml:space="preserve"
   width="56.725601"
   height="55.947201"
   viewBox="0 0 56.725601 55.947201"><metadata
     id="metadata8"><rdf:RDF><cc:Work
         rdf:about=""><dc:format>image/svg+xml</dc:format><dc:type
           rdf:resource="http://purl.org/dc/dcmitype/StillImage" /><dc:title></dc:title></cc:Work></rdf:RDF></metadata><defs
     id="defs6"><clipPath
       clipPathUnits="userSpaceOnUse"
       id="clipPath18"><path
         d="M 0,41.96 H 42.544 V 0 H 0 Z"
         id="path16" /></clipPath></defs><g
     style="fill:#1a2a55;fill-opacity:1"
     id="g10"
     transform="matrix(1.3333333,0,0,-1.3333333,0,55.9472)"><g
       style="fill:#1a2a55;fill-opacity:1"
       id="g12"><g
         style="fill:#1a2a55;fill-opacity:1"
         id="g14"
         clip-path="url(#clipPath18)"><g
           style="fill:#1a2a55;fill-opacity:1"
           id="g20"
           transform="translate(27.5514,10.9624)"><path
             d="m 0,0 0.144,-0.071 c 0.181,-0.091 1.371,-0.377 2.807,-0.377 1.401,0 3.248,0.274 4.09,1.578 1.95,2.701 0.798,5.222 -0.104,6.195 L 3.08,10.347 c 0.214,0.046 0.389,0.08 0.447,0.08 5.393,0 9.781,-4.388 9.781,-9.781 0,-5.392 -4.388,-9.78 -9.781,-9.78 -5.391,0 -9.778,4.388 -9.778,9.78 0,0.889 0.116,1.761 0.34,2.604 z m 4.526,12.129 0.529,4.289 -10e-4,0.089 C 4.972,17.25 4.341,17.421 3.543,17.638 l -0.145,0.04 c -1.262,0.35 -3.375,0.936 -4.109,2.667 -0.08,0.316 -0.311,0.524 -0.692,0.62 -0.673,0.162 -1.223,-0.322 -1.879,-0.978 -0.133,-0.134 -0.323,-0.296 -0.464,-0.415 -0.063,-0.054 -0.116,-0.1 -0.151,-0.132 -1.314,-0.377 -2.284,-1.329 -2.738,-2.69 L -6.808,16.143 1.089,9.98 1.116,9.894 1.181,9.909 5.717,6.368 C 6.059,5.906 6.987,4.34 5.63,2.466 4.672,1.098 1.649,1.484 0.633,1.731 l -13.737,7.552 -11.481,2.679 c -0.499,0.142 -0.874,0.419 -1.055,0.782 -0.214,0.426 -0.26,0.884 -0.132,1.332 l 2.45,10.16 c 0.123,0.616 0.614,1.031 1.394,1.174 l 16.333,3.885 c 1.902,0.281 3.874,-0.283 5.431,-1.556 l 8.548,-6.032 0.17,-0.167 c 1.41,-1.198 1.789,-1.519 1.587,-2.933 L 8.693,10.912 c -1.272,0.652 -2.676,1.079 -4.167,1.217 m -9.425,4.466 c 0.311,0.446 0.702,0.864 1.357,1.044 0.366,0.146 0.724,0.419 1.277,0.971 l 0.031,0.042 c 0.03,0.062 0.091,0.112 0.168,0.176 0.006,0.005 0.011,0.009 0.018,0.014 1.366,-1.974 3.741,-2.598 5.031,-2.938 l 0.04,-0.005 c 0.06,0 0.125,-0.019 0.185,-0.036 L 2.743,12.084 C 2.317,12.002 1.79,11.879 1.29,11.748 Z m 15.22,-6.699 1.645,8.369 c 0.381,2.438 -0.767,3.366 -2.226,4.547 L 0.963,29 c -1.966,1.587 -4.392,2.265 -6.834,1.903 L -22.2,27.017 c -1.294,-0.152 -2.419,-1.123 -2.8,-2.425 l -2.449,-10.153 c -0.219,-0.881 -0.083,-1.868 0.376,-2.706 0.425,-0.779 1.202,-1.343 2.191,-1.59 l 11.141,-2.588 6.24,-3.431 c -0.382,-1.216 -0.581,-2.385 -0.581,-3.55 0,-6.361 5.176,-11.536 11.537,-11.536 3.127,0 6.051,1.215 8.234,3.424 2.165,2.189 3.338,5.098 3.303,8.184 0,3.789 -1.844,7.145 -4.671,9.25"
             style="fill:#1a2a55;fill-opacity:1;fill-rule:nonzero;stroke:none"
             id="path22" /></g></g></g></g></svg>