<?xml version="1.0" encoding="UTF-8" standalone="no"?>
<svg
   xmlns:dc="http://purl.org/dc/elements/1.1/"
   xmlns:cc="http://creativecommons.org/ns#"
   xmlns:rdf="http://www.w3.org/1999/02/22-rdf-syntax-ns#"
   xmlns:svg="http://www.w3.org/2000/svg"
   xmlns="http://www.w3.org/2000/svg"
   id="svg118"
   version="1.2"
   viewBox="0 0 95 95"
   height="95pt"
   width="95pt">
  <metadata
     id="metadata124">
    <rdf:RDF>
      <cc:Work
         rdf:about="">
        <dc:format>image/svg+xml</dc:format>
        <dc:type
           rdf:resource="http://purl.org/dc/dcmitype/StillImage" />
        <dc:title></dc:title>
      </cc:Work>
    </rdf:RDF>
  </metadata>
  <defs
     id="defs122" />
  <g
     id="surface159296">
    <path
       id="path115"
       d="M 73.601563 65.101563 C 72.699219 67.300781 71.101563 69.5 70.101563 70.5 C 64.398438 76.199219 49.101563 71.101563 36.5 58.5 C 23.898438 45.898438 18.800781 30.699219 24.5 24.898438 C 25.5 23.898438 27.800781 22.300781 29.898438 21.398438 C 31.5 20.699219 33.398438 21.199219 34.5 22.601563 L 40.800781 30.601563 C 42.101563 32.199219 41.898438 34.601563 40.300781 36 C 38.699219 37.398438 37.601563 38.398438 37.300781 38.699219 C 34.898438 41.101563 38.398438 46.199219 43.699219 51.5 C 49 56.800781 54 60.398438 56.5 57.898438 C 56.800781 57.601563 57.800781 56.5 59.199219 54.898438 C 60.601563 53.300781 62.898438 53.101563 64.601563 54.398438 L 72.601563 60.699219 C 73.898438 61.5 74.300781 63.398438 73.601563 65.101563 M 47.5 0 C 21.300781 0 0 21.300781 0 47.5 C 0 73.699219 21.300781 95 47.5 95 C 73.699219 95 95 73.699219 95 47.5 C 95 21.300781 73.699219 0 47.5 0 " />
  </g>
</svg>
