<?xml version="1.0" encoding="UTF-8" standalone="no"?>
<svg
   xmlns:dc="http://purl.org/dc/elements/1.1/"
   xmlns:cc="http://creativecommons.org/ns#"
   xmlns:rdf="http://www.w3.org/1999/02/22-rdf-syntax-ns#"
   xmlns:svg="http://www.w3.org/2000/svg"
   xmlns="http://www.w3.org/2000/svg"
   version="1.1"
   id="svg2"
   xml:space="preserve"
   width="54.806801"
   height="49.810001"
   viewBox="0 0 54.806801 49.810001"><metadata
     id="metadata8"><rdf:RDF><cc:Work
         rdf:about=""><dc:format>image/svg+xml</dc:format><dc:type
           rdf:resource="http://purl.org/dc/dcmitype/StillImage" /><dc:title></dc:title></cc:Work></rdf:RDF></metadata><defs
     id="defs6"><clipPath
       clipPathUnits="userSpaceOnUse"
       id="clipPath18"><path
         d="M 0,37.357 H 41.105 V 0 H 0 Z"
         id="path16" /></clipPath></defs><g
     style="fill:#1a2a55;fill-opacity:1"
     id="g10"
     transform="matrix(1.3333333,0,0,-1.3333333,0,49.81)"><g
       style="fill:#1a2a55;fill-opacity:1"
       id="g12"><g
         style="fill:#1a2a55;fill-opacity:1"
         id="g14"
         clip-path="url(#clipPath18)"><path
           d="m 3.828,3.657 h 33.45 V 1.829 H 3.828 Z M 6.229,7.314 H 34.875 V 5.486 H 6.229 Z m 2.438,18.895 h 4.267 V 9.143 H 8.667 Z M 20.553,35.4 34.016,28.086 H 7.088 Z m 7.618,-9.191 h 4.267 V 9.143 h -4.267 z m -13.409,0 h 4.876 V 9.143 h -4.876 z m 6.705,0 h 4.876 V 9.143 H 21.467 Z M 40.191,1.829 h -1.085 v 2.742 c 0,0.505 -0.409,0.915 -0.914,0.915 h -1.487 v 2.742 c 0,0.505 -0.41,0.914 -0.914,0.914 H 34.266 V 26.27 h 3.353 c 0.505,-0.003 0.916,0.404 0.919,0.909 0.002,0.338 -0.183,0.649 -0.481,0.809 l -17.066,9.259 c -0.271,0.147 -0.599,0.147 -0.871,0 L 3.054,27.988 C 2.609,27.749 2.443,27.194 2.683,26.75 2.843,26.455 3.151,26.27 3.486,26.27 H 6.839 V 9.142 H 5.315 C 4.81,9.142 4.4,8.733 4.4,8.228 V 5.486 H 2.914 C 2.409,5.486 1.999,5.076 1.999,4.571 V 1.829 H 0.914 C 0.409,1.829 0,1.42 0,0.915 0,0.41 0.409,0 0.914,0 h 39.277 c 0.505,0 0.914,0.41 0.914,0.915 0,0.505 -0.409,0.914 -0.914,0.914"
           style="fill:#1a2a55;fill-opacity:1;fill-rule:nonzero;stroke:none"
           id="path20" /></g></g></g></svg>