<?xml version="1.0" encoding="UTF-8" standalone="no"?>
<svg
   xmlns:dc="http://purl.org/dc/elements/1.1/"
   xmlns:cc="http://creativecommons.org/ns#"
   xmlns:rdf="http://www.w3.org/1999/02/22-rdf-syntax-ns#"
   xmlns:svg="http://www.w3.org/2000/svg"
   xmlns="http://www.w3.org/2000/svg"
   id="svg873"
   version="1.2"
   viewBox="0 0 107.627 107.601"
   height="107.601pt"
   width="107.627pt">
  <metadata
     id="metadata879">
    <rdf:RDF>
      <cc:Work
         rdf:about="">
        <dc:format>image/svg+xml</dc:format>
        <dc:type
           rdf:resource="http://purl.org/dc/dcmitype/StillImage" />
        <dc:title></dc:title>
      </cc:Work>
    </rdf:RDF>
  </metadata>
  <defs
     id="defs877" />
  <g
     id="surface284340">
    <path
       id="path868"
       d="M 70.960938 80.324219 C 73.023438 82.382813 73.023438 85.726563 70.960938 87.785156 C 68.898438 89.847656 65.558594 89.847656 63.5 87.785156 L 53.601563 77.890625 L 43.710938 87.785156 C 42.679688 88.816406 41.324219 89.332031 39.976563 89.332031 C 38.625 89.332031 37.277344 88.816406 36.246094 87.785156 C 34.183594 85.726563 34.183594 82.386719 36.242188 80.324219 L 46.3125 70.253906 C 42.648438 69.417969 39.109375 67.96875 35.855469 65.921875 C 33.390625 64.371094 32.648438 61.113281 34.199219 58.644531 C 35.75 56.175781 39.007813 55.433594 41.476563 56.988281 C 48.851563 61.625 58.347656 61.628906 65.726563 56.988281 C 68.195313 55.433594 71.449219 56.175781 73.003906 58.644531 C 74.554688 61.109375 73.8125 64.371094 71.347656 65.921875 C 68.089844 67.96875 64.554688 69.417969 60.890625 70.253906 Z M 53.601563 19.542969 C 63.535156 19.542969 71.613281 27.625 71.613281 37.554688 C 71.613281 47.484375 63.535156 55.5625 53.601563 55.5625 C 43.667969 55.5625 35.589844 47.484375 35.589844 37.554688 C 35.589844 27.625 43.667969 19.542969 53.601563 19.542969 M 97.023438 0 L 10.605469 0 C 4.746094 0 0 4.746094 0 10.601563 L 0 96.996094 C 0 102.851563 4.746094 107.601563 10.605469 107.601563 L 97.023438 107.601563 C 102.878906 107.601563 107.628906 102.851563 107.628906 96.996094 L 107.628906 10.601563 C 107.628906 4.746094 102.878906 0 97.023438 0 "
       style=" stroke:none;fill-rule:nonzero;fill:rgb(9.803772%,16.470337%,32.940674%);fill-opacity:1;" />
    <path
       id="path870"
       d="M 53.601563 45.011719 C 57.714844 45.011719 61.058594 41.664063 61.058594 37.558594 C 61.058594 33.445313 57.714844 30.097656 53.601563 30.097656 C 49.492188 30.097656 46.144531 33.445313 46.144531 37.558594 C 46.144531 41.664063 49.492188 45.011719 53.601563 45.011719 "
       style=" stroke:none;fill-rule:nonzero;fill:rgb(9.803772%,16.470337%,32.940674%);fill-opacity:1;" />
  </g>
</svg>
