<?xml version="1.0" encoding="UTF-8" standalone="no"?>
<svg
   xmlns:dc="http://purl.org/dc/elements/1.1/"
   xmlns:cc="http://creativecommons.org/ns#"
   xmlns:rdf="http://www.w3.org/1999/02/22-rdf-syntax-ns#"
   xmlns:svg="http://www.w3.org/2000/svg"
   xmlns="http://www.w3.org/2000/svg"
   id="svg264"
   version="1.2"
   viewBox="0 0 42.5442 41.9604"
   height="41.9604pt"
   width="42.5442pt">
  <metadata
     id="metadata268">
    <rdf:RDF>
      <cc:Work
         rdf:about="">
        <dc:format>image/svg+xml</dc:format>
        <dc:type
           rdf:resource="http://purl.org/dc/dcmitype/StillImage" />
        <dc:title></dc:title>
      </cc:Work>
    </rdf:RDF>
  </metadata>
  <defs
     id="defs257">
    <clipPath
       id="clip1">
      <path
         id="path254"
         d="M 0 0 L 42.542969 0 L 42.542969 41.960938 L 0 41.960938 Z M 0 0 " />
    </clipPath>
  </defs>
  <g
     id="surface233179">
    <g
       id="g261"
       clip-rule="nonzero"
       clip-path="url(#clip1)">
      <path
         id="path259"
         d="M 27.550781 30.996094 L 27.695313 31.070313 C 27.875 31.160156 29.066406 31.445313 30.503906 31.445313 C 31.902344 31.445313 33.75 31.171875 34.59375 29.867188 C 36.542969 27.167969 35.390625 24.644531 34.488281 23.671875 L 30.632813 20.652344 C 30.84375 20.605469 31.019531 20.570313 31.078125 20.570313 C 36.472656 20.570313 40.859375 24.960938 40.859375 30.351563 C 40.859375 35.742188 36.472656 40.132813 31.078125 40.132813 C 25.6875 40.132813 21.300781 35.742188 21.300781 30.351563 C 21.300781 29.464844 21.417969 28.589844 21.640625 27.746094 Z M 32.078125 18.867188 L 32.605469 14.578125 L 32.605469 14.492188 C 32.523438 13.746094 31.890625 13.578125 31.09375 13.359375 L 30.949219 13.320313 C 29.6875 12.96875 27.574219 12.382813 26.839844 10.652344 C 26.761719 10.335938 26.53125 10.128906 26.148438 10.03125 C 25.476563 9.871094 24.925781 10.355469 24.269531 11.011719 C 24.136719 11.144531 23.945313 11.308594 23.804688 11.425781 C 23.742188 11.480469 23.6875 11.527344 23.65625 11.558594 C 22.339844 11.933594 21.371094 12.886719 20.917969 14.246094 L 20.742188 14.855469 L 28.640625 21.019531 L 28.667969 21.105469 L 28.730469 21.089844 L 33.269531 24.628906 C 33.609375 25.09375 34.539063 26.65625 33.179688 28.53125 C 32.222656 29.898438 29.199219 29.515625 28.183594 29.265625 L 14.449219 21.714844 L 2.964844 19.035156 C 2.46875 18.894531 2.09375 18.617188 1.910156 18.253906 C 1.699219 17.828125 1.652344 17.371094 1.78125 16.921875 L 4.230469 6.761719 C 4.351563 6.144531 4.84375 5.730469 5.625 5.589844 L 21.957031 1.703125 C 23.859375 1.421875 25.832031 1.984375 27.386719 3.257813 L 35.933594 9.289063 L 36.105469 9.457031 C 37.515625 10.65625 37.894531 10.976563 37.691406 12.390625 L 36.246094 20.085938 C 34.972656 19.433594 33.570313 19.007813 32.078125 18.867188 M 22.652344 14.402344 C 22.964844 13.957031 23.355469 13.539063 24.007813 13.359375 C 24.375 13.214844 24.734375 12.941406 25.285156 12.386719 L 25.316406 12.347656 C 25.347656 12.285156 25.410156 12.234375 25.484375 12.171875 C 25.492188 12.164063 25.496094 12.160156 25.503906 12.15625 C 26.871094 14.128906 29.246094 14.753906 30.535156 15.09375 L 30.574219 15.097656 C 30.632813 15.097656 30.699219 15.117188 30.757813 15.136719 L 30.292969 18.914063 C 29.867188 18.996094 29.339844 19.117188 28.839844 19.25 Z M 37.871094 21.101563 L 39.515625 12.734375 C 39.898438 10.296875 38.75 9.367188 37.292969 8.1875 L 28.515625 1.996094 C 26.546875 0.410156 24.121094 -0.265625 21.679688 0.09375 L 5.351563 3.980469 C 4.058594 4.132813 2.933594 5.105469 2.550781 6.40625 L 0.101563 16.558594 C -0.117188 17.441406 0.0195313 18.425781 0.476563 19.265625 C 0.902344 20.042969 1.679688 20.609375 2.667969 20.855469 L 13.808594 23.441406 L 20.050781 26.875 C 19.667969 28.089844 19.46875 29.257813 19.46875 30.425781 C 19.46875 36.785156 24.644531 41.960938 31.007813 41.960938 C 34.132813 41.960938 37.058594 40.746094 39.242188 38.535156 C 41.40625 36.347656 42.578125 33.4375 42.542969 30.351563 C 42.542969 26.5625 40.699219 23.207031 37.871094 21.101563 "
         style=" stroke:none;fill-rule:nonzero;fill:rgb(0%,0%,0%);fill-opacity:1;" />
    </g>
  </g>
</svg>
