<?xml version="1.0" encoding="UTF-8" standalone="no"?>
<svg
   xmlns:dc="http://purl.org/dc/elements/1.1/"
   xmlns:cc="http://creativecommons.org/ns#"
   xmlns:rdf="http://www.w3.org/1999/02/22-rdf-syntax-ns#"
   xmlns:svg="http://www.w3.org/2000/svg"
   xmlns="http://www.w3.org/2000/svg"
   id="svg228"
   version="1.2"
   viewBox="0 0 33 36.4"
   height="36.4pt"
   width="33pt">
  <metadata
     id="metadata232">
    <rdf:RDF>
      <cc:Work
         rdf:about="">
        <dc:format>image/svg+xml</dc:format>
        <dc:type
           rdf:resource="http://purl.org/dc/dcmitype/StillImage" />
        <dc:title></dc:title>
      </cc:Work>
    </rdf:RDF>
  </metadata>
  <defs
     id="defs219">
    <clipPath
       id="clip1">
      <path
         id="path216"
         d="M 0 0 L 33 0 L 33 36.398438 L 0 36.398438 Z M 0 0 " />
    </clipPath>
  </defs>
  <g
     transform="matrix(-1,0,0,1,33,0)"
     id="surface219034">
    <g
       style="clip-rule:nonzero"
       id="g223"
       clip-path="url(#clip1)">
      <path
         id="path221"
         d="m 30.800781,17 h -2.601562 c -0.5,0 -1,-0.398437 -1,-1 V 7 c 0,-0.5 0.5,-1 1,-1 h 2.601562 z M 25.199219,14.699219 H 11 c -1.699219,0 -3,1.402344 -3,3 v 2.902344 c 0,0.597656 -0.5,1 -1,1 H 3 c -0.5,0 -1,-0.402344 -1,-1 v -9.800782 c 0,-0.5 0.5,-1 1,-1 H 25.199219 Z M 31.898438,0.300781 c -0.597657,0 -1,0.5 -1,1 V 4 h -2.699219 c -1.699219,0 -3,1.398438 -3,3 V 7.800781 H 14.601563 V 3.898438 h 5.699218 c 0.5,0 1,-0.398438 1,-1 0,-0.597657 -0.5,-1 -1,-1 H 14.601563 V 1 c 0,-0.5 -0.5,-1 -1,-1 -0.601563,0 -1,0.5 -1,1 V 1.898438 H 6.898438 c -0.5,0 -1,0.402343 -1,1 0,0.601562 0.5,1 1,1 h 5.703125 V 7.800781 H 3 c -1.699219,0 -3,1.398438 -3,3 v 9.800782 c 0,1.699218 1.300781,3 3,3 h 4 c 1.699219,0 3,-1.300782 3,-3 v -2.902344 c 0,-0.597656 0.5,-1 1,-1 h 14.199219 c 0.300781,1.402344 1.5,2.402344 2.902344,2.402344 h 2.699218 v 7.796875 C 30.699219,26.898438 30.699219,27 30.601563,27 30.5,27.101563 30.300781,27.199219 30.199219,27.398438 c -0.5,0.5 -0.800781,0.703125 -1.398438,0.703125 -0.699218,0 -1,-0.300782 -1.402343,-0.703125 -0.597657,-0.5 -1.296875,-1.296875 -2.796875,-1.296875 -1.5,0 -2.203125,0.699218 -2.800782,1.296875 -0.5,0.5 -0.800781,0.703125 -1.402343,0.703125 -0.699219,0 -1,-0.300782 -1.398438,-0.703125 -0.601562,-0.5 -1.398437,-1.296875 -2.800781,-1.296875 -1.398438,0 -2.199219,0.699218 -2.800781,1.296875 -0.5,0.5 -0.796875,0.703125 -1.398438,0.703125 -0.5,0 -1,0.5 -1,1 0,0.597656 0.5,1 1,1 1.5,0 2.199219,-0.703125 2.800781,-1.300782 0.5,-0.5 0.800782,-0.699218 1.398438,-0.699218 0.699219,0 1,0.296875 1.5,0.699218 0.601562,0.5 1.300781,1.300782 2.800781,1.300782 1.5,0 2.199219,-0.703125 2.800781,-1.300782 0.5,-0.5 0.800782,-0.699218 1.398438,-0.699218 0.699219,0 1,0.296875 1.402344,0.699218 0.597656,0.5 1.296875,1.300782 2.796875,1.300782 0.902343,0 1.5,-0.300782 2,-0.601563 v 3.398438 c -0.09766,0 -0.09766,0.101562 -0.199219,0.101562 -0.09766,0.101563 -0.300781,0.199219 -0.398438,0.398438 -0.5,0.5 -0.800781,0.703125 -1.402343,0.703125 -0.699219,0 -1,-0.300782 -1.398438,-0.703125 -0.601562,-0.5 -1.300781,-1.296875 -2.800781,-1.296875 -1.5,0 -2.199219,0.699218 -2.800781,1.296875 -0.5,0.5 -0.796875,0.703125 -1.398438,0.703125 -0.699219,0 -1,-0.300782 -1.398437,-0.703125 -0.601563,-0.5 -1.402344,-1.296875 -2.800782,-1.296875 -1.402343,0 -2.199218,0.699218 -2.800781,1.296875 -0.5,0.5 -0.800781,0.703125 -1.398437,0.703125 -0.5,0 -1,0.5 -1,1 0,0.597656 0.5,1 1,1 1.5,0 2.199218,-0.703125 2.796875,-1.300782 0.5,-0.5 0.800781,-0.699218 1.402343,-0.699218 0.699219,0 1,0.296875 1.5,0.699218 0.597657,0.5 1.300782,1.300782 2.800782,1.300782 1.5,0 2.199218,-0.703125 2.796875,-1.300782 0.5,-0.5 0.800781,-0.699218 1.402343,-0.699218 0.699219,0 1,0.296875 1.398438,0.699218 0.601562,0.5 1.300781,1.300782 2.800781,1.300782 0.898438,0 1.5,-0.300782 2,-0.601563 0,0.5 0.5,0.898438 1,0.898438 0.601563,0 1,-0.398438 1,-1 v -34 C 32.898438,0.800781 32.398438,0.300781 31.898438,0.300781"
         style="fill:#000000;fill-opacity:1;fill-rule:nonzero;stroke:none" />
    </g>
    <path
       id="path225"
       d="m 4.800781,28.199219 -1,2 c -0.199218,0.398437 -0.199218,0.898437 0,1.300781 0.097657,0.199219 0.398438,0.597656 1,0.597656 0.597657,0 0.898438,-0.398437 1,-0.597656 0.199219,-0.402344 0.300782,-0.902344 0,-1.300781 z m 0,5.898437 c -1.101562,0 -2.101562,-0.597656 -2.699218,-1.5 C 1.5,31.597656 1.5,30.398438 2,29.398438 L 3.898438,25.699219 C 4.199219,25 5.300781,25 5.699219,25.699219 l 1.902344,3.699219 c 0.5,1 0.5,2.199218 -0.101563,3.199218 -0.601562,0.902344 -1.601562,1.5 -2.699219,1.5"
       style="fill:#000000;fill-opacity:1;fill-rule:nonzero;stroke:none" />
  </g>
</svg>
