<?xml version="1.0" encoding="UTF-8" standalone="no"?>
<svg
   xmlns:dc="http://purl.org/dc/elements/1.1/"
   xmlns:cc="http://creativecommons.org/ns#"
   xmlns:rdf="http://www.w3.org/1999/02/22-rdf-syntax-ns#"
   xmlns:svg="http://www.w3.org/2000/svg"
   xmlns="http://www.w3.org/2000/svg"
   id="svg860"
   version="1.2"
   viewBox="0 0 107.627 107.627"
   height="107.627pt"
   width="107.627pt">
  <metadata
     id="metadata866">
    <rdf:RDF>
      <cc:Work
         rdf:about="">
        <dc:format>image/svg+xml</dc:format>
        <dc:type
           rdf:resource="http://purl.org/dc/dcmitype/StillImage" />
        <dc:title></dc:title>
      </cc:Work>
    </rdf:RDF>
  </metadata>
  <defs
     id="defs864" />
  <g
     id="surface283975">
    <path
       id="path857"
       d="M 90.730469 78.253906 L 79.878906 78.40625 C 79.878906 78.40625 77.546875 78.867188 74.480469 76.757813 C 70.421875 73.972656 66.59375 66.730469 63.613281 67.675781 C 60.585938 68.636719 60.683594 75.152344 60.683594 75.152344 C 60.683594 75.152344 60.703125 76.542969 60.015625 77.285156 C 59.265625 78.09375 57.796875 78.253906 57.796875 78.253906 L 52.941406 78.253906 C 52.941406 78.253906 42.226563 78.898438 32.789063 69.074219 C 22.496094 58.359375 13.410156 37.089844 13.410156 37.089844 C 13.410156 37.089844 12.882813 35.699219 13.453125 35.023438 C 14.09375 34.265625 15.835938 34.214844 15.835938 34.214844 L 27.445313 34.140625 C 27.445313 34.140625 28.539063 34.324219 29.324219 34.898438 C 29.96875 35.375 30.332031 36.261719 30.332031 36.261719 C 30.332031 36.261719 32.207031 41.003906 34.691406 45.296875 C 39.542969 53.679688 41.800781 55.511719 43.449219 54.613281 C 45.847656 53.304688 45.128906 42.769531 45.128906 42.769531 C 45.128906 42.769531 45.171875 38.941406 43.917969 37.238281 C 42.949219 35.917969 41.121094 35.535156 40.3125 35.425781 C 39.660156 35.339844 40.730469 33.824219 42.121094 33.144531 C 44.210938 32.117188 47.902344 32.0625 52.257813 32.105469 C 55.65625 32.140625 56.632813 32.351563 57.960938 32.671875 C 61.964844 33.636719 60.605469 37.371094 60.605469 46.324219 C 60.605469 49.191406 60.089844 53.222656 62.160156 54.5625 C 63.046875 55.132813 65.222656 54.644531 70.664063 45.40625 C 73.242188 41.027344 75.175781 35.882813 75.175781 35.882813 C 75.175781 35.882813 75.597656 34.964844 76.253906 34.570313 C 76.925781 34.167969 77.832031 34.292969 77.832031 34.292969 L 90.046875 34.214844 C 90.046875 34.214844 93.71875 33.777344 94.3125 35.4375 C 94.9375 37.175781 92.941406 41.234375 87.953125 47.890625 C 79.753906 58.8125 78.84375 57.792969 85.648438 64.105469 C 92.148438 70.140625 93.496094 73.078125 93.714844 73.441406 C 96.40625 77.902344 90.730469 78.253906 90.730469 78.253906 M 97.023438 0 L 10.601563 0 C 4.746094 0 0 4.746094 0 10.605469 L 0 97.023438 C 0 102.878906 4.746094 107.625 10.601563 107.625 L 97.023438 107.625 C 102.878906 107.625 107.628906 102.878906 107.628906 97.023438 L 107.628906 10.605469 C 107.628906 4.746094 102.878906 0 97.023438 0 "
       style=" stroke:none;fill-rule:nonzero;fill:rgb(9.803772%,16.470337%,32.940674%);fill-opacity:1;" />
  </g>
</svg>
