<?xml version="1.0" encoding="UTF-8" standalone="no"?>
<svg
   xmlns:dc="http://purl.org/dc/elements/1.1/"
   xmlns:cc="http://creativecommons.org/ns#"
   xmlns:rdf="http://www.w3.org/1999/02/22-rdf-syntax-ns#"
   xmlns:svg="http://www.w3.org/2000/svg"
   xmlns="http://www.w3.org/2000/svg"
   id="svg373"
   version="1.2"
   viewBox="0 0 40.3057 40.3062"
   height="40.3062pt"
   width="40.3057pt">
  <metadata
     id="metadata377">
    <rdf:RDF>
      <cc:Work
         rdf:about="">
        <dc:format>image/svg+xml</dc:format>
        <dc:type
           rdf:resource="http://purl.org/dc/dcmitype/StillImage" />
        <dc:title></dc:title>
      </cc:Work>
    </rdf:RDF>
  </metadata>
  <defs
     id="defs356">
    <clipPath
       id="clip1">
      <path
         id="path350"
         d="M 0 7 L 33 7 L 33 40.304688 L 0 40.304688 Z M 0 7 " />
    </clipPath>
    <clipPath
       id="clip2">
      <path
         id="path353"
         d="M 16 0 L 40.304688 0 L 40.304688 23 L 16 23 Z M 16 0 " />
    </clipPath>
  </defs>
  <g
     id="surface257872">
    <g
       id="g360"
       clip-rule="nonzero"
       clip-path="url(#clip1)">
      <path
         id="path358"
         d="M 8.664063 21.394531 C 8.566406 23.132813 9.765625 25.191406 12.441406 27.867188 C 15.019531 30.445313 17.015625 31.644531 18.71875 31.644531 C 18.785156 31.644531 18.847656 31.644531 18.914063 31.640625 C 20.472656 31.550781 21.347656 30.457031 21.980469 29.65625 L 22.15625 29.441406 C 22.628906 28.742188 23.554688 28.546875 24.269531 28.992188 L 27.402344 31.039063 C 28.402344 31.691406 29.300781 32.277344 29.585938 32.472656 L 29.726563 32.566406 C 30.433594 33.042969 30.851563 33.382813 30.773438 34.070313 C 29.90625 36.675781 27.480469 38.4375 24.734375 38.457031 C 20.761719 38.457031 15.460938 35.425781 10.195313 30.136719 C 4.890625 24.8125 1.847656 19.503906 1.847656 15.570313 C 1.867188 12.835938 3.617188 10.414063 6.207031 9.539063 L 6.417969 9.539063 C 7.003906 9.539063 7.316406 9.953125 7.734375 10.585938 L 7.832031 10.726563 C 8.199219 11.261719 9.9375 13.933594 10.507813 14.8125 L 11.3125 16.035156 C 11.757813 16.75 11.558594 17.679688 10.84375 18.167969 L 10.648438 18.328125 C 9.894531 18.921875 8.757813 19.820313 8.664063 21.394531 M 30.761719 31.042969 L 30.625 30.941406 C 30.257813 30.691406 28.949219 29.839844 27.683594 29.015625 L 25.273438 27.445313 C 23.757813 26.46875 21.746094 26.851563 20.699219 28.308594 L 20.476563 28.589844 C 20.003906 29.167969 19.511719 29.769531 18.8125 29.804688 C 17.699219 29.886719 15.980469 28.789063 13.765625 26.570313 C 11.542969 24.339844 10.449219 22.636719 10.515625 21.5 C 10.550781 20.753906 11.214844 20.238281 11.8125 19.773438 L 11.984375 19.613281 C 13.445313 18.558594 13.824219 16.546875 12.847656 15.03125 L 11.355469 12.738281 C 10.535156 11.480469 9.605469 10.054688 9.34375 9.683594 L 9.25 9.542969 C 8.769531 8.820313 7.863281 7.480469 5.886719 7.734375 C 2.40625 8.785156 0.0429688 11.933594 0 15.570313 C 0 20.023438 3.230469 25.808594 8.863281 31.441406 C 14.496094 37.074219 20.28125 40.304688 24.738281 40.304688 C 28.394531 40.277344 31.554688 37.894531 32.613281 34.359375 C 32.851563 32.441406 31.441406 31.496094 30.761719 31.042969 "
         style=" stroke:none;fill-rule:nonzero;fill:rgb(0%,0%,0%);fill-opacity:1;" />
    </g>
    <g
       id="g364"
       clip-rule="nonzero"
       clip-path="url(#clip2)">
      <path
         id="path362"
         d="M 24.640625 15.382813 L 19.242188 15.382813 C 18.839844 15.382813 18.511719 15.054688 18.511719 14.65625 L 18.511719 2.578125 C 18.511719 2.175781 18.839844 1.847656 19.242188 1.847656 L 37.726563 1.847656 C 38.128906 1.847656 38.457031 2.175781 38.457031 2.578125 L 38.457031 14.65625 C 38.457031 15.054688 38.128906 15.382813 37.726563 15.382813 L 28.222656 15.382813 C 28.148438 15.382813 28.078125 15.414063 28.023438 15.464844 L 24.921875 18.566406 L 24.921875 15.667969 C 24.921875 15.511719 24.796875 15.382813 24.640625 15.382813 M 37.726563 0 L 19.242188 0 C 17.824219 0.00390625 16.667969 1.160156 16.664063 2.578125 L 16.664063 14.65625 C 16.667969 16.070313 17.824219 17.226563 19.242188 17.230469 L 23.074219 17.230469 L 23.074219 22.339844 C 23.074219 22.453125 23.144531 22.558594 23.246094 22.597656 C 23.28125 22.613281 23.316406 22.621094 23.359375 22.621094 C 23.429688 22.621094 23.5 22.59375 23.558594 22.539063 L 28.867188 17.230469 L 37.722656 17.230469 C 39.144531 17.230469 40.300781 16.074219 40.304688 14.65625 L 40.304688 2.578125 C 40.300781 1.160156 39.144531 0.00390625 37.726563 0 "
         style=" stroke:none;fill-rule:nonzero;fill:rgb(0%,0%,0%);fill-opacity:1;" />
    </g>
    <path
       id="path366"
       d="M 28.484375 10.179688 C 29.347656 10.179688 30.050781 9.480469 30.050781 8.617188 C 30.050781 7.753906 29.347656 7.050781 28.484375 7.050781 C 27.621094 7.050781 26.921875 7.753906 26.921875 8.617188 C 26.921875 9.480469 27.621094 10.179688 28.484375 10.179688 "
       style=" stroke:none;fill-rule:nonzero;fill:rgb(0%,0%,0%);fill-opacity:1;" />
    <path
       id="path368"
       d="M 23.355469 7.050781 C 22.496094 7.050781 21.792969 7.753906 21.792969 8.617188 C 21.792969 9.480469 22.496094 10.179688 23.355469 10.179688 C 24.21875 10.179688 24.921875 9.480469 24.921875 8.617188 C 24.921875 7.753906 24.21875 7.050781 23.355469 7.050781 "
       style=" stroke:none;fill-rule:nonzero;fill:rgb(0%,0%,0%);fill-opacity:1;" />
    <path
       id="path370"
       d="M 33.613281 10.179688 C 34.476563 10.179688 35.175781 9.480469 35.175781 8.617188 C 35.175781 7.753906 34.476563 7.050781 33.613281 7.050781 C 32.75 7.050781 32.046875 7.753906 32.046875 8.617188 C 32.046875 9.480469 32.75 10.179688 33.613281 10.179688 "
       style=" stroke:none;fill-rule:nonzero;fill:rgb(0%,0%,0%);fill-opacity:1;" />
  </g>
</svg>
