<?xml version="1.0" encoding="UTF-8" standalone="no"?>
<svg
   xmlns:dc="http://purl.org/dc/elements/1.1/"
   xmlns:cc="http://creativecommons.org/ns#"
   xmlns:rdf="http://www.w3.org/1999/02/22-rdf-syntax-ns#"
   xmlns:svg="http://www.w3.org/2000/svg"
   xmlns="http://www.w3.org/2000/svg"
   version="1.1"
   id="svg2"
   xml:space="preserve"
   width="66.515732"
   height="60.737732"
   viewBox="0 0 66.515732 60.737732"><metadata
     id="metadata8"><rdf:RDF><cc:Work
         rdf:about=""><dc:format>image/svg+xml</dc:format><dc:type
           rdf:resource="http://purl.org/dc/dcmitype/StillImage" /><dc:title></dc:title></cc:Work></rdf:RDF></metadata><defs
     id="defs6"><clipPath
       clipPathUnits="userSpaceOnUse"
       id="clipPath18"><path
         d="M 0,45.553 H 49.887 V 0 H 0 Z"
         id="path16" /></clipPath></defs><g
     style="fill:#1a2a55;fill-opacity:1"
     id="g10"
     transform="matrix(1.3333333,0,0,-1.3333333,0,60.737733)"><g
       style="fill:#1a2a55;fill-opacity:1"
       id="g12"><g
         style="fill:#1a2a55;fill-opacity:1"
         id="g14"
         clip-path="url(#clipPath18)"><g
           style="fill:#1a2a55;fill-opacity:1"
           id="g20"
           transform="translate(9.7229,17.9814)"><path
             d="m 0,0 c 0.056,-0.028 0.113,-0.051 0.169,-0.078 0.456,-0.222 0.914,-0.436 1.377,-0.637 0.039,-0.016 0.079,-0.031 0.118,-0.048 0.435,-0.186 0.872,-0.361 1.313,-0.528 0.119,-0.045 0.237,-0.091 0.356,-0.135 0.471,-0.172 0.943,-0.337 1.42,-0.489 0.065,-0.021 0.131,-0.039 0.196,-0.06 0.426,-0.131 0.854,-0.254 1.283,-0.37 0.074,-0.02 0.144,-0.044 0.217,-0.062 0.023,-0.08 0.052,-0.156 0.075,-0.236 0.155,-0.526 0.32,-1.046 0.498,-1.562 0.029,-0.081 0.054,-0.162 0.082,-0.242 0.203,-0.57 0.421,-1.132 0.653,-1.689 0.055,-0.132 0.111,-0.262 0.168,-0.394 0.228,-0.531 0.467,-1.057 0.721,-1.575 0.017,-0.035 0.033,-0.07 0.049,-0.105 0.27,-0.544 0.559,-1.077 0.857,-1.604 0.036,-0.065 0.066,-0.13 0.102,-0.194 C 5.113,-8.313 1.532,-4.604 0,0 M 7.236,18.995 C 7.035,18.451 6.854,17.9 6.681,17.346 6.635,17.199 6.591,17.052 6.547,16.905 6.401,16.415 6.265,15.922 6.141,15.426 6.121,15.346 6.099,15.268 6.079,15.188 5.967,14.723 5.862,14.257 5.77,13.789 5.323,13.672 4.879,13.543 4.436,13.407 4.359,13.383 4.286,13.357 4.21,13.333 3.733,13.183 3.261,13.021 2.792,12.85 2.647,12.797 2.505,12.745 2.361,12.69 1.831,12.489 1.305,12.279 0.783,12.051 c 1.405,2.907 3.658,5.331 6.453,6.944 m 7.273,-4.079 c -0.046,0 -0.092,-0.004 -0.138,-0.004 -0.52,-0.003 -1.04,-0.016 -1.558,-0.042 C 12.709,14.865 12.605,14.857 12.501,14.852 12.035,14.824 11.57,14.788 11.107,14.743 11.018,14.733 10.928,14.727 10.839,14.717 10.321,14.662 9.807,14.594 9.293,14.516 9.178,14.498 9.063,14.479 8.946,14.459 8.444,14.378 7.943,14.288 7.445,14.183 7.431,14.18 7.415,14.178 7.4,14.175 c 0.031,0.138 0.057,0.277 0.088,0.415 0.048,0.202 0.098,0.405 0.15,0.607 0.095,0.379 0.201,0.756 0.31,1.132 0.054,0.185 0.106,0.37 0.163,0.553 0.15,0.48 0.311,0.957 0.483,1.43 0.024,0.07 0.047,0.142 0.073,0.212 0.182,0.49 0.381,0.974 0.585,1.455 1.68,0.677 3.443,1.061 5.257,1.144 z m 15.614,-3.721 c -0.424,0.215 -0.853,0.419 -1.287,0.616 -0.111,0.051 -0.223,0.099 -0.334,0.148 -0.421,0.187 -0.846,0.366 -1.274,0.535 -0.073,0.029 -0.145,0.059 -0.217,0.088 -0.392,0.152 -0.787,0.298 -1.185,0.436 -0.085,0.486 -0.181,0.969 -0.287,1.45 -0.021,0.097 -0.047,0.195 -0.069,0.292 -0.115,0.501 -0.24,1 -0.376,1.494 -0.036,0.134 -0.073,0.267 -0.111,0.4 -0.151,0.525 -0.31,1.048 -0.486,1.564 2.499,-1.76 4.459,-4.204 5.626,-7.023 M 22.075,-9.509 c 0.028,0.05 0.051,0.103 0.078,0.153 0.282,0.515 0.552,1.037 0.806,1.566 0.042,0.088 0.08,0.178 0.122,0.266 0.219,0.466 0.427,0.938 0.625,1.415 0.053,0.127 0.106,0.253 0.158,0.38 0.219,0.545 0.425,1.094 0.615,1.65 0.035,0.1 0.065,0.204 0.099,0.305 0.16,0.482 0.309,0.967 0.448,1.458 0.024,0.083 0.053,0.165 0.077,0.249 0.488,0.147 0.973,0.307 1.456,0.476 0.084,0.029 0.167,0.064 0.25,0.094 0.485,0.174 0.966,0.36 1.443,0.557 0.167,0.069 0.331,0.138 0.496,0.21 0.438,0.188 0.871,0.385 1.302,0.592 0.121,0.059 0.243,0.114 0.363,0.173 0.05,0.025 0.1,0.046 0.149,0.07 -1.372,-4.241 -4.457,-7.729 -8.487,-9.614 m -6.061,5.99 c 0.052,0.002 0.105,0.007 0.157,0.009 0.542,0.016 1.082,0.043 1.622,0.084 0.093,0.007 0.185,0.017 0.277,0.025 0.487,0.041 0.971,0.092 1.455,0.154 0.105,0.014 0.208,0.025 0.312,0.039 0.536,0.074 1.07,0.16 1.601,0.259 0.119,0.021 0.237,0.046 0.355,0.069 0.479,0.094 0.958,0.196 1.434,0.311 0.057,0.014 0.116,0.023 0.173,0.038 -0.003,-0.012 -0.007,-0.024 -0.01,-0.035 -0.188,-0.611 -0.397,-1.213 -0.619,-1.811 -0.039,-0.103 -0.075,-0.207 -0.115,-0.31 -0.222,-0.582 -0.463,-1.156 -0.719,-1.723 -0.05,-0.113 -0.103,-0.226 -0.155,-0.338 -0.267,-0.576 -0.547,-1.146 -0.846,-1.706 -0.028,-0.05 -0.057,-0.098 -0.083,-0.148 -0.294,-0.541 -0.605,-1.072 -0.93,-1.596 -0.033,-0.054 -0.066,-0.11 -0.101,-0.164 -1.237,-0.366 -2.513,-0.579 -3.806,-0.639 v 7.482 z m 5.957,2.207 c -0.052,-0.011 -0.104,-0.021 -0.156,-0.031 -0.569,-0.117 -1.142,-0.219 -1.716,-0.305 -0.062,-0.009 -0.121,-0.021 -0.182,-0.03 -0.58,-0.084 -1.162,-0.149 -1.745,-0.203 -0.105,-0.01 -0.209,-0.019 -0.315,-0.028 -0.571,-0.047 -1.143,-0.079 -1.716,-0.097 -0.042,-0.001 -0.084,-0.001 -0.127,-0.002 v 15.38 c 0.084,-0.004 0.167,-0.005 0.25,-0.01 0.164,-0.009 0.328,-0.019 0.492,-0.03 0.228,-0.016 0.456,-0.034 0.684,-0.053 0.161,-0.014 0.32,-0.029 0.479,-0.045 0.237,-0.024 0.473,-0.052 0.709,-0.081 0.148,-0.019 0.298,-0.036 0.446,-0.057 0.261,-0.036 0.522,-0.077 0.782,-0.119 0.122,-0.02 0.243,-0.038 0.364,-0.059 0.764,-0.134 1.523,-0.294 2.276,-0.481 0.11,-0.027 0.219,-0.058 0.328,-0.086 0.266,-0.069 0.532,-0.14 0.796,-0.216 0.134,-0.037 0.267,-0.079 0.4,-0.119 0.153,-0.045 0.304,-0.094 0.457,-0.142 0.035,-0.244 0.067,-0.488 0.098,-0.732 0.029,-0.227 0.06,-0.455 0.084,-0.682 0.034,-0.338 0.059,-0.676 0.083,-1.014 C 24.758,9.23 24.778,9.014 24.79,8.798 24.81,8.432 24.815,8.066 24.823,7.7 24.827,7.513 24.836,7.327 24.837,7.14 24.838,6.646 24.825,6.154 24.805,5.661 24.802,5.603 24.804,5.543 24.8,5.484 24.773,4.935 24.732,4.385 24.678,3.838 24.659,3.656 24.632,3.476 24.61,3.293 24.568,2.927 24.525,2.561 24.471,2.195 24.437,1.973 24.394,1.751 24.355,1.528 24.3,1.205 24.246,0.882 24.181,0.56 24.132,0.322 24.075,0.086 24.021,-0.151 23.969,-0.387 23.914,-0.62 23.856,-0.854 23.802,-0.869 23.748,-0.884 23.693,-0.898 23.122,-1.05 22.548,-1.191 21.971,-1.312 m 4.823,12.357 c 0.34,-0.136 0.678,-0.278 1.013,-0.426 0.149,-0.065 0.297,-0.13 0.445,-0.197 0.407,-0.186 0.81,-0.38 1.209,-0.583 C 29.519,9.81 29.578,9.782 29.636,9.753 30.038,9.546 30.432,9.326 30.823,9.102 31.167,7.777 31.341,6.419 31.341,5.06 31.341,4.062 31.248,3.063 31.063,2.079 30.608,1.828 30.151,1.581 29.686,1.352 29.614,1.316 29.542,1.286 29.471,1.252 29.015,1.031 28.555,0.822 28.09,0.623 27.913,0.548 27.735,0.477 27.559,0.404 27.184,0.252 26.806,0.105 26.426,-0.033 c -0.187,-0.068 -0.372,-0.135 -0.56,-0.199 -0.111,-0.039 -0.224,-0.072 -0.336,-0.109 0.019,0.084 0.032,0.168 0.05,0.253 0.039,0.182 0.073,0.364 0.109,0.547 0.073,0.366 0.139,0.732 0.199,1.099 0.032,0.195 0.062,0.39 0.091,0.586 0.054,0.373 0.101,0.746 0.142,1.12 0.021,0.176 0.043,0.353 0.06,0.531 0.048,0.492 0.085,0.985 0.11,1.479 0.003,0.054 0.009,0.108 0.012,0.163 0.026,0.547 0.037,1.096 0.037,1.644 0,0.165 -0.007,0.33 -0.009,0.496 -0.006,0.387 -0.017,0.774 -0.035,1.162 -0.01,0.197 -0.023,0.394 -0.035,0.592 -0.025,0.365 -0.055,0.73 -0.091,1.095 -0.019,0.195 -0.037,0.39 -0.06,0.585 -0.012,0.102 -0.018,0.205 -0.031,0.307 0.087,-0.032 0.176,-0.061 0.263,-0.094 0.151,-0.058 0.302,-0.119 0.452,-0.179 m -10.78,10.077 c 2.244,-0.101 4.395,-0.662 6.41,-1.667 0.2,-0.494 0.392,-0.991 0.568,-1.495 0.034,-0.096 0.063,-0.196 0.096,-0.293 0.155,-0.459 0.302,-0.921 0.436,-1.387 0.054,-0.187 0.103,-0.376 0.154,-0.564 0.105,-0.389 0.204,-0.779 0.296,-1.173 0.045,-0.198 0.09,-0.397 0.132,-0.596 0.029,-0.134 0.051,-0.271 0.078,-0.406 -0.591,0.172 -1.188,0.323 -1.787,0.463 -0.126,0.03 -0.251,0.059 -0.377,0.088 -0.59,0.131 -1.182,0.248 -1.777,0.347 -0.097,0.017 -0.193,0.029 -0.29,0.045 -0.555,0.088 -1.11,0.162 -1.669,0.223 -0.093,0.01 -0.184,0.022 -0.277,0.031 -0.602,0.061 -1.207,0.103 -1.813,0.132 -0.06,0.003 -0.12,0.01 -0.18,0.013 z M 8.835,12.917 c 0.075,0.013 0.149,0.024 0.225,0.037 0.514,0.086 1.032,0.16 1.551,0.222 0.067,0.008 0.133,0.018 0.2,0.025 0.535,0.06 1.073,0.104 1.613,0.138 0.119,0.008 0.238,0.015 0.358,0.021 0.531,0.028 1.064,0.044 1.597,0.047 0.043,0 0.087,-10e-4 0.13,-10e-4 V -2 c -0.347,0.008 -0.693,0.013 -1.038,0.031 -0.108,0.006 -0.214,0.009 -0.321,0.016 -1.308,0.081 -2.611,0.236 -3.901,0.469 -0.082,0.014 -0.164,0.035 -0.246,0.05 -0.444,0.084 -0.886,0.182 -1.326,0.285 -0.068,0.259 -0.13,0.52 -0.19,0.782 C 7.431,-0.126 7.371,0.114 7.32,0.357 7.245,0.719 7.183,1.082 7.12,1.446 7.082,1.671 7.036,1.894 7.003,2.118 6.94,2.532 6.893,2.949 6.845,3.367 6.825,3.543 6.798,3.719 6.781,3.896 6.723,4.49 6.681,5.086 6.655,5.685 6.651,5.761 6.653,5.837 6.65,5.913 6.632,6.433 6.622,6.954 6.627,7.474 6.63,7.682 6.643,7.889 6.649,8.097 6.66,8.486 6.671,8.875 6.696,9.262 c 0.016,0.24 0.041,0.478 0.063,0.717 0.03,0.355 0.06,0.71 0.102,1.064 0.031,0.253 0.071,0.503 0.107,0.755 0.036,0.254 0.074,0.509 0.117,0.761 0.052,0.012 0.103,0.024 0.155,0.036 0.53,0.12 1.061,0.229 1.595,0.322 M 5.869,-0.681 C 5.408,-0.545 4.949,-0.397 4.494,-0.241 4.418,-0.215 4.339,-0.19 4.263,-0.162 3.779,0.008 3.302,0.191 2.826,0.384 2.725,0.426 2.622,0.469 2.52,0.511 2.039,0.712 1.561,0.922 1.088,1.146 1.058,1.161 1.027,1.177 0.997,1.191 0.542,1.409 0.093,1.64 -0.353,1.879 -0.406,1.907 -0.461,1.937 -0.516,1.966 -0.715,2.988 -0.817,4.027 -0.817,5.06 c 0,1.682 0.261,3.343 0.778,4.941 0.458,0.226 0.917,0.448 1.384,0.652 0.058,0.026 0.118,0.048 0.176,0.073 0.461,0.2 0.926,0.387 1.395,0.565 0.169,0.064 0.341,0.124 0.512,0.186 0.367,0.131 0.735,0.257 1.106,0.376 0.188,0.06 0.375,0.119 0.563,0.175 0.129,0.039 0.259,0.071 0.387,0.109 C 5.465,12 5.452,11.861 5.434,11.723 5.403,11.498 5.376,11.272 5.35,11.046 5.307,10.667 5.271,10.286 5.24,9.905 5.222,9.684 5.203,9.462 5.189,9.24 5.164,8.826 5.149,8.411 5.139,7.996 5.134,7.812 5.124,7.627 5.122,7.443 5.117,6.848 5.124,6.252 5.148,5.659 5.152,5.568 5.161,5.479 5.166,5.388 5.191,4.881 5.226,4.375 5.272,3.87 5.292,3.664 5.318,3.46 5.342,3.255 5.386,2.862 5.433,2.471 5.49,2.08 5.523,1.855 5.56,1.631 5.598,1.406 5.66,1.03 5.729,0.657 5.803,0.283 5.847,0.062 5.892,-0.157 5.939,-0.377 5.965,-0.492 5.985,-0.609 6.012,-0.724 5.965,-0.71 5.917,-0.695 5.869,-0.681 m 8.64,-10.32 c -0.905,0.043 -1.812,0.164 -2.706,0.36 -0.036,0.057 -0.072,0.115 -0.108,0.171 -0.333,0.528 -0.653,1.062 -0.955,1.607 -0.021,0.038 -0.044,0.075 -0.064,0.113 -0.31,0.562 -0.598,1.136 -0.873,1.716 C 9.752,-6.926 9.699,-6.817 9.649,-6.709 9.388,-6.141 9.141,-5.564 8.912,-4.981 8.87,-4.874 8.83,-4.768 8.789,-4.66 8.558,-4.051 8.338,-3.437 8.142,-2.813 8.141,-2.81 8.14,-2.808 8.139,-2.805 c 0.163,-0.033 0.327,-0.057 0.49,-0.09 0.198,-0.039 0.396,-0.075 0.596,-0.109 0.469,-0.082 0.941,-0.154 1.413,-0.217 0.163,-0.021 0.325,-0.047 0.488,-0.065 0.625,-0.074 1.252,-0.133 1.881,-0.172 0.123,-0.008 0.247,-0.01 0.37,-0.016 0.378,-0.019 0.755,-0.041 1.132,-0.047 z m 6.031,-0.716 c 6.054,1.903 10.624,6.939 11.929,13.145 0.25,1.193 0.377,2.415 0.377,3.632 0,1.6 -0.22,3.198 -0.655,4.75 -1.303,4.656 -4.518,8.611 -8.821,10.852 h -0.001 c -2.489,1.296 -5.293,1.983 -8.107,1.983 -2.386,0 -4.702,-0.471 -6.884,-1.401 -4.571,-1.946 -8.122,-5.757 -9.74,-10.455 -0.637,-1.848 -0.96,-3.775 -0.96,-5.729 0,-1.253 0.136,-2.515 0.405,-3.748 V 1.31 c 1.424,-6.548 6.555,-11.787 13.073,-13.346 1.351,-0.323 2.732,-0.488 4.106,-0.488 1.797,10e-4 3.572,0.272 5.278,0.807"
             style="fill:#1a2a55;fill-opacity:1;fill-rule:nonzero;stroke:none"
             id="path22" /></g><g
           style="fill:#1a2a55;fill-opacity:1"
           id="g24"
           transform="translate(3.8089,20.7724)"><path
             d="m 0,0 c -0.062,0.665 -0.096,1.335 -0.096,2.005 0,11.728 9.542,21.271 21.272,21.271 2.157,0 4.285,-0.321 6.322,-0.955 0.397,-0.121 0.818,0.099 0.942,0.496 0.123,0.396 -0.098,0.818 -0.496,0.942 -2.181,0.678 -4.459,1.022 -6.768,1.022 -12.559,0 -22.777,-10.218 -22.777,-22.777 0,-0.798 0.047,-1.598 0.13,-2.39 l -1.517,0.988 -0.821,-1.262 2.898,-1.887 c 0.041,-0.026 0.086,-0.042 0.13,-0.059 0.01,-0.004 0.02,-0.011 0.031,-0.014 0.081,-0.028 0.165,-0.048 0.249,-0.048 0.142,0 0.279,0.044 0.4,0.121 0.007,0.003 0.013,0.007 0.019,0.011 0.067,0.046 0.131,0.099 0.183,0.168 L 2.304,0.558 1.102,1.463 Z"
             style="fill:#1a2a55;fill-opacity:1;fill-rule:nonzero;stroke:none"
             id="path26" /></g><g
           style="fill:#1a2a55;fill-opacity:1"
           id="g28"
           transform="translate(49.887,25.8535)"><path
             d="m 0,0 -2.879,1.874 c -0.007,0.004 -0.012,0.007 -0.017,0.012 l -0.002,0.001 c -0.009,0.005 -0.019,0.006 -0.028,0.011 -0.072,0.042 -0.15,0.078 -0.234,0.095 -0.096,0.019 -0.193,0.019 -0.287,10e-4 -0.002,0 -0.003,0.001 -0.005,0 C -3.468,1.991 -3.479,1.981 -3.493,1.977 -3.572,1.957 -3.648,1.928 -3.717,1.883 -3.738,1.869 -3.753,1.848 -3.773,1.832 -3.821,1.793 -3.872,1.759 -3.91,1.708 l -2.203,-2.926 1.202,-0.906 1.133,1.506 c 0.093,-0.814 0.146,-1.636 0.146,-2.459 0,-9.369 -6.006,-17.534 -14.946,-20.316 -2.04,-0.634 -4.169,-0.956 -6.325,-0.956 -0.416,0 -0.753,-0.337 -0.753,-0.752 0,-0.416 0.337,-0.753 0.753,-0.753 2.307,0 4.587,0.345 6.772,1.025 9.572,2.977 16.003,11.72 16.003,21.752 0,0.93 -0.062,1.859 -0.174,2.779 l 1.48,-0.963 z"
             style="fill:#1a2a55;fill-opacity:1;fill-rule:nonzero;stroke:none"
             id="path30" /></g></g></g></g></svg>